<?xml version="1.0" encoding="utf-8"?>
<!-- Generator: Adobe Illustrator 15.0.0, SVG Export Plug-In . SVG Version: 6.00 Build 0)  -->
<!DOCTYPE svg PUBLIC "-//W3C//DTD SVG 1.1//EN" "http://www.w3.org/Graphics/SVG/1.1/DTD/svg11.dtd">
<svg version="1.1" id="Layer_1" xmlns="http://www.w3.org/2000/svg" xmlns:xlink="http://www.w3.org/1999/xlink" x="0px" y="0px"
	 width="600px" height="200px" viewBox="0 0 600 200" enable-background="new 0 0 600 200" xml:space="preserve">
<path d="M369.826,56.327c-1.369,0-2.779,0.685-4.471,0c-5.879-2.416-6.201-2.054-7.248-8.296c-0.361-2.054-0.684-4.147-0.684-6.201
	c0-2.416-2.055-3.785-2.779-5.879c-0.684-2.054,1.732-3.785,1.369-6.201c-1.047-5.195-1.369-10.35-2.053-15.544
	c-0.363-3.785-0.363-3.785,3.1-5.517c3.463-2.054,7.248-2.416,11.033-2.416c2.779,0,5.879,0,8.617,0
	c2.055,0,3.102,1.369,3.102,3.101c0,1.369-1.369,2.416-3.463,1.731c-4.148-1.047-8.295-0.685-12.443-0.362
	c-3.785,0.685-4.148,1.369-3.785,5.194c0.363,3.785,1.732,7.61,1.047,11.396c0,0.685,0.363,1.732,0.363,2.417
	c0.361,1.047,1.047,1.731,2.053,1.047c4.148-2.054,9.303-1.369,13.449-3.101c1.369-0.685,2.779,1.369,2.055,2.778
	c-0.686,1.047-1.732,2.416-2.416,2.416c-2.779,0-4.832,2.416-7.934,2.054h-0.361c-5.195,0.685-6.203,1.731-5.195,6.886
	c1.369,6.563,2.416,7.61,9.303,7.248c2.416,0,4.469-0.362,6.201-1.369c2.053-1.047,4.469-1.369,6.885-0.685
	c1.047,0.362,2.055,1.047,1.047,2.416c-1.369,2.054-3.1,4.148-5.516,4.47C377.396,54.958,373.934,56.689,369.826,56.327z"/>
<path d="M337.008,32.166c0.361-5.88,1.047-11.396-1.047-17.275c-1.369-3.463,0-7.248,1.369-10.712
	c0.361-1.047,4.146-2.416,5.193-2.054c1.732,0.363,2.779,2.054,1.732,3.786c-1.732,2.416-1.369,4.832-1.047,7.61
	c0.361,3.101,0.684,6.563,0.684,10.026c0.363,8.296,1.047,16.229,3.785,23.839c0.363,1.048,0.686,2.417-0.361,3.464
	s-2.055,2.778-3.785,2.054c-1.732-0.685-3.463-1.369-4.471-3.464c-3.1-7.61-8.295-14.134-13.127-20.697h-0.363
	c-1.047,0.685-0.684,1.731-0.684,2.416c0,4.147-1.732,8.295-0.363,12.765c0.363,0.685,0,1.369-0.361,2.054
	c-1.047,2.778-1.732,5.195-1.732,7.934c0,2.053-1.73,2.778-3.1,3.463c-2.055,0.685-4.148-1.369-3.785-4.148
	c0.684-4.147,1.73-8.295,2.777-12.442c1.369-7.61,2.055-15.182,0.686-22.792c-0.686-4.147,2.053-6.886,4.832-6.201
	c1.047,0.362,2.053,1.047,2.416,2.416c0.684,3.785,2.777,7.248,5.193,10.026C333.223,26.97,335.275,29.75,337.008,32.166z"/>
<path d="M43.208,51.857c0.362,1.369-0.363,2.416-1.369,2.778c-1.731,0.685-3.463,0.362-4.47-1.047
	c-1.369-1.369-2.417-2.779-2.054-4.832c0.362-2.417-0.685-4.471-1.369-6.887c-1.047-3.785-3.101-5.194-6.886-4.832
	c-3.463,0.362-6.886,1.047-10.711,1.047c-2.054,0-2.416,2.054-2.416,3.101c-0.685,3.785-2.054,6.564-3.101,9.303
	c-0.685,1.369-1.369,2.778-2.416,3.785c-1.047,1.047-2.779,1.369-4.148,0.685c-1.369-1.047-1.731-3.101-1.047-4.47
	c5.879-8.618,7.249-18.645,9.665-28.672c1.369-5.194,3.101-10.026,4.832-14.858c1.731-4.148,4.47-4.148,7.611-1.047
	c2.779,2.778,3.463,6.563,4.47,10.026c1.731,5.879,3.785,11.033,6.564,16.591c2.054,3.785,4.147,7.933,4.832,12.442
	C41.517,47.346,43.571,49.44,43.208,51.857z M22.148,16.622c-1.047,0.362-1.369,1.047-1.731,1.731
	C18.363,22.5,18,26.97,16.631,31.481c-0.363,1.047,0.362,1.731,1.731,1.731c2.416-0.362,5.194-0.362,7.611-1.731
	c1.369-0.362,2.416-1.731,1.369-3.101c-1.732-2.416-1.732-5.195-2.779-7.611C24.242,19.038,23.557,17.306,22.148,16.622z"/>
<path d="M64.269,54.273c-2.778,0.685-6.201,0.685-9.302,1.047c-2.779,0.362-4.833-1.047-5.195-3.785
	c-0.362-8.98-3.463-17.96-3.463-26.939c0-6.202-1.731-12.081-2.779-18.282c0-1.047-0.362-2.054-0.362-2.778
	c0-2.054,1.047-2.779,2.779-3.101c1.731-0.363,2.416,0.685,2.778,2.416c0.685,4.147,1.369,8.295,2.054,12.765
	c1.047,9.665,3.101,19.007,4.47,28.309c0.685,4.147,1.047,4.47,5.517,4.147c1.369,0,2.778-0.362,4.147-0.685
	c1.369-0.321,2.416,0,3.463,0.685c1.369,0.685,2.417,2.054,2.779,3.786c0.362,1.047-2.779,2.778-4.47,3.101
	C66,54.595,65.316,54.595,64.269,54.273z"/>
<path d="M147.826,34.582c0.685,5.517-1.731,10.711-4.147,15.865c-2.054,4.148-5.879,5.88-10.711,5.88
	c-4.148,0-7.611-1.369-9.665-5.195c-3.463-6.886-3.785-13.812-2.416-21.423c0.685-3.463,1.731-6.886,2.416-10.349
	c0.362-1.047,1.047-2.054,0.362-2.778c-1.369-1.731-0.362-3.101,0.685-4.47c0.363-0.362,0.685-1.047,1.047-1.369
	c4.832-5.88,8.295-5.517,12.765,0.362c0.685,1.047,1.369,2.054,2.053,2.416c5.517,3.785,6.886,10.026,7.611,16.591
	C147.826,31.119,147.826,32.85,147.826,34.582z M142.309,34.582c0.362-3.785,0-7.611-1.369-10.712
	c-1.369-3.463-3.785-6.201-6.564-8.617c-1.731-1.731-2.054-1.731-3.463,0.362c-5.195,9.302-6.886,19.007-3.785,29.355
	c0.685,2.779,2.416,4.833,5.194,5.518c2.779,0.685,5.195-1.048,6.886-3.101c1.047-1.048,1.731-2.054,2.054-3.464
	C141.625,40.783,142.994,37.682,142.309,34.582z"/>
<path d="M312.846,34.582c0.686,5.517-1.73,10.711-4.146,15.865c-2.055,4.148-5.881,5.88-10.712,5.88
	c-4.147,0-7.61-1.369-9.664-5.195c-3.463-6.886-3.785-13.812-2.416-21.423c0.685-3.463,1.731-6.886,2.416-10.349
	c0.362-1.047,1.047-2.054,0.362-2.778c-1.369-1.731-0.362-3.101,0.685-4.47c-0.362-0.685,0-1.369,0.362-1.731
	c4.832-5.88,8.295-5.518,12.764,0.362c0.686,1.047,1.369,2.054,2.055,2.416c5.879,3.785,7.248,10.026,7.934,16.591
	C312.846,31.119,312.846,32.85,312.846,34.582z M306.967,34.582c0.363-3.785,0-7.611-1.369-10.712
	c-1.369-3.463-3.785-6.201-6.564-8.617c-1.731-1.731-2.053-1.731-3.462,0.362c-5.194,9.302-6.886,19.007-3.785,29.355
	c0.685,2.779,2.416,4.833,5.194,5.518c2.778,0.685,5.194-1.048,6.885-3.101c1.047-1.048,1.732-2.054,2.055-3.464
	C306.645,40.783,307.65,37.682,306.967,34.582z"/>
<path d="M278.336,33.212c0,0.362,0.361,1.369,0,2.054c-1.047,3.785-2.416,7.61-3.464,11.396c-0.362,1.369-1.047,2.416-2.416,2.778
	c-5.194,2.417-9.664,5.88-15.544,6.564c-5.879,0.685-9.664-2.054-8.617-7.611c1.369-6.886,0-13.812,0-20.697
	c0-5.195,0.363-10.027-0.685-15.182c-0.362-1.731,1.048-3.785,2.054-5.517c0.685-1.047,2.054-1.369,3.463-1.369
	c16.913,1.369,24.523,12.08,25.209,26.255C278.336,32.528,278.336,32.528,278.336,33.212z M254.497,36.998
	c0,2.054-0.362,4.47,1.047,6.201c1.047,1.047,1.732,2.416,1.732,4.147c0.361,1.731,1.73,2.416,2.778,1.047
	c1.047-1.369,2.416-1.731,3.785-1.731c1.047,0,2.054-0.362,2.416-1.047c1.047-2.054,3.101-3.785,3.785-6.201
	c1.047-4.832,1.731-9.302,0-14.134c-2.416-6.202-6.563-11.034-13.812-12.081c-2.416-0.362-2.416,0-2.416,2.416
	C254.497,22.5,253.813,29.75,254.497,36.998z"/>
<path d="M184.43,16.984c-0.685,0-1.369,0-2.054,0c-1.369,0-2.416-0.685-2.416-2.054c-0.362-1.369,0.685-2.416,2.054-2.778
	c0.685-0.362,1.731-0.685,2.416-0.685c6.886-1.047,13.45-3.101,20.375-4.47c0.686,0,1.369-0.362,2.055-0.362
	c1.73,0,3.1,1.047,3.463,2.416c0.684,1.731-0.363,2.778-1.732,3.785c-2.053,1.369-4.832,1.369-7.248,1.369
	c-6.201,0.685-5.517,0-4.832,5.879c1.047,6.886,2.416,13.812,2.779,20.698c0,2.416,0.684,4.47,1.73,6.886
	c1.047,1.731,0.686,3.785,0,5.517c-0.361,1.047-1.047,2.416-2.778,2.416c-1.369,0-2.416-0.685-3.463-2.054
	c-0.685-0.685-0.685-1.731-0.685-2.778c-1.047-9.302-1.731-19.007-2.778-28.309c0-0.685-0.362-1.731-0.362-2.416
	c-1.047-3.785-1.047-3.785-5.195-3.463C185.114,16.984,184.752,16.984,184.43,16.984z"/>
<path d="M82.229,26.97c0.362,5.88-0.685,11.034,0.362,16.229c0.685,3.463,0,7.248-0.362,10.712c0,1.731-1.369,2.416-3.101,2.416
	s-3.101-1.047-3.101-3.102c-0.363-4.47,0-8.617,0.362-13.127c0.685-7.248,0-14.134-0.362-21.423c0-1.731-1.047-2.778-1.732-4.147
	c-1.047-1.369-0.362-2.416,0.363-3.463c0.685-1.048,2.054-1.369,3.463-0.685c1.731,0.685,3.463,1.731,3.785,4.147
	c1.047,4.47,4.47,6.886,7.933,9.664c1.369,1.047,2.054,0,2.416-1.369c0.685-2.416,1.047-4.47,1.731-6.886
	c0.685-3.463,2.054-6.563,3.463-9.664c1.731-3.785,4.147-4.148,6.886-1.369c3.463,3.785,5.194,8.295,6.563,12.765
	c2.779,10.027,3.463,20.698,5.195,30.725v0.362c0,1.369,0.685,3.102-1.047,4.148c-2.054,1.047-3.101-0.685-4.148-2.054
	c-1.731-1.731-1.731-4.47-2.053-6.564c-0.685-4.47-1.047-9.302-1.369-13.812c-0.725-5.194-1.772-10.39-4.188-15.222
	c-1.047-0.685-1.369-1.369-2.417-1.369c-1.369,0-1.369,1.369-1.369,2.054c-1.047,4.147-1.731,8.295-2.053,12.765
	c0,1.732-0.363,3.102-1.732,4.148s-2.416,1.731-4.47,0.362C88.43,31.119,86.014,28.702,82.229,26.97z"/>
<path d="M163.37,0.071c2.778-0.362,5.517,0.685,7.933,2.779c0.685,0.685,1.369,1.369,1.369,2.416
	c0.362,1.369,0.362,2.778-1.047,3.785c-1.731,0.685-2.778,0-3.785-1.369c-2.779-3.785-6.886-3.463-9.302,0.362
	c-1.047,1.731-1.731,3.463-1.731,5.517c0,2.778,0.685,3.785,3.101,4.832c3.101,1.047,5.879,3.101,8.618,4.47
	c6.563,3.464,9.665,8.98,10.027,15.866c0.362,3.785-2.054,6.886-4.833,9.302c-2.778,2.416-6.563,4.147-9.664,6.201
	c-2.416,1.369-5.195,1.369-7.933,1.369c-1.731,0-3.101-1.369-3.785-2.778c-0.685-1.369-0.362-2.778,0.685-3.785
	c1.369-1.047,2.054,0,3.101,0.685c1.047,1.047,2.054,1.047,3.463,0.362c3.101-1.731,6.563-3.101,9.302-5.517
	c5.195-4.47,3.463-13.449-2.416-16.229c-3.463-1.731-6.886-3.785-10.349-5.517c-4.47-2.416-6.201-7.248-4.832-12.442
	c0.362-1.369,1.047-2.779,1.731-4.148C155.074,2.125,158.537-0.292,163.37,0.071z"/>
</svg>
