<?xml version="1.0" encoding="utf-8"?>
<!-- Generator: Adobe Illustrator 15.0.0, SVG Export Plug-In . SVG Version: 6.00 Build 0)  -->
<!DOCTYPE svg PUBLIC "-//W3C//DTD SVG 1.1//EN" "http://www.w3.org/Graphics/SVG/1.1/DTD/svg11.dtd">
<svg version="1.1" id="Layer_1" xmlns="http://www.w3.org/2000/svg" xmlns:xlink="http://www.w3.org/1999/xlink" x="0px" y="0px"
	 width="600px" height="200px" viewBox="0 0 600 200" enable-background="new 0 0 600 200" xml:space="preserve">
<path d="M477.509,36.551c0.382-6.187,1.103-11.993-1.102-18.179c-1.44-3.645,0-7.628,1.441-11.272
	c0.381-1.102,4.364-2.542,5.466-2.161c1.822,0.381,2.924,2.161,1.822,3.983c-1.822,2.543-1.44,5.085-1.102,8.009
	c0.382,3.263,0.721,6.907,0.721,10.552c0.381,8.729,1.102,17.077,3.983,25.086c0.381,1.102,0.72,2.543-0.382,3.645
	s-2.161,2.924-3.983,2.161s-3.645-1.44-4.704-3.645c-3.263-8.009-8.729-14.874-13.814-21.781h-0.381
	c-1.102,0-0.721,1.102-0.721,2.161c0,4.365-1.822,8.729-0.381,13.433c0.381,0.721,0,1.441-0.382,2.161
	c-1.102,2.924-1.822,5.466-1.822,8.348c0,2.161-1.822,2.924-3.263,3.645c-2.161,0.72-4.365-1.44-3.983-4.364
	c0.721-4.365,1.822-8.73,2.924-13.095c1.44-8.009,2.161-15.976,0.721-23.985c-0.721-3.983,1.822-6.907,5.085-5.805
	c1.102,0.381,2.161,1.102,2.542,2.542c0.721,3.983,2.925,7.627,5.467,10.551C473.525,31.084,475.687,33.627,477.509,36.551z"/>
<path d="M76.803,57.23c0.381,1.44-0.381,2.542-1.44,2.924c-1.822,0.721-3.645,0.382-4.704-1.102c-1.44-1.44-2.542-2.924-2.161-5.085
	c0.381-2.542-0.72-4.704-1.44-7.247c-1.102-3.983-3.263-5.466-7.247-5.085c-3.644,0.381-7.246,1.102-11.272,1.102
	c-2.161,0-2.542,2.161-2.542,3.263c-0.72,3.263-1.822,6.187-3.263,9.068c-0.72,1.441-1.44,2.924-2.542,3.983
	c-1.102,1.06-2.924,1.44-4.365,0.72c-1.44-0.72-1.822-3.262-0.72-4.703c6.187-9.068,7.627-19.62,10.17-30.171
	c1.102-5.467,3.263-10.552,5.085-15.637c1.102-3.645,3.983-3.983,7.627-0.381c2.924,2.924,3.645,6.907,4.704,10.551
	c1.822,6.187,3.983,11.611,6.907,17.459c2.161,3.983,4.365,8.348,5.085,13.094C74.98,52.146,77.184,54.688,76.803,57.23z
	 M54.259,20.194c-1.102,0.381-1.44,1.102-1.822,1.822c-2.161,4.365-2.161,9.068-3.644,13.814c-0.381,1.102,0.381,1.822,1.822,1.822
	c2.924-0.381,5.466-0.381,8.009-1.441c1.441-0.72,2.542-1.822,1.441-3.263c-1.441-2.542-1.822-5.466-2.924-8.009
	C56.462,22.737,56.081,20.915,54.259,20.194z"/>
<path d="M372.163,57.23c0.381,1.44-0.382,2.542-1.441,2.924c-1.822,0.721-3.645,0.382-4.703-1.102
	c-1.441-1.44-2.543-2.924-2.161-5.085c0.381-2.542-0.721-4.704-1.441-7.247c-1.102-3.983-3.263-5.466-7.246-5.085
	c-3.645,0.381-7.246,1.102-11.271,1.102c-2.161,0-2.543,2.161-2.543,3.263c-0.721,3.263-1.822,6.187-3.263,9.068
	c-0.721,1.441-1.441,2.924-2.543,3.983c-1.102,1.102-2.924,1.44-4.364,0.72c-1.441-0.72-1.822-3.262-0.721-4.703
	c6.187-9.068,7.628-19.62,10.17-30.171c0.721-4.704,2.543-10.17,4.704-15.255c1.822-4.365,4.704-4.365,8.009-1.102
	c2.924,2.924,3.645,6.907,4.704,10.552c1.822,6.187,3.983,11.611,6.907,17.459c2.161,3.983,4.364,8.348,5.085,13.094
	C370.341,52.146,372.502,54.688,372.163,57.23z M349.619,20.194c-0.721,0.381-1.103,1.102-1.822,1.822
	c-2.161,4.365-2.161,9.068-3.645,13.814c-0.382,1.102,0.381,1.822,1.822,1.822c2.924-0.381,5.466-0.381,8.009-1.441
	c1.44-0.72,2.543-1.822,1.44-3.263c-1.44-2.542-1.821-5.466-2.924-8.009C351.822,22.737,351.44,20.915,349.619,20.194z"/>
<path d="M211.22,37.992c0.72,5.805-1.822,11.272-4.365,16.696c-2.161,4.364-6.188,6.187-11.271,6.187
	c-4.365,0-8.01-1.44-10.171-5.467c-3.644-7.246-3.983-14.535-2.542-22.544c0.72-3.644,1.822-7.246,2.542-10.891
	c0.381-1.102,1.102-2.161,0.381-2.924c-1.44-1.822-0.381-3.263,0.721-4.704c0.381-0.381,0.72-1.102,1.102-1.441
	c5.084-6.187,8.729-5.805,13.433,0.381c0.721,1.102,1.44,2.162,2.161,2.543c6.188,3.983,7.246,10.551,8.01,17.077
	C211.601,34.348,211.22,35.831,211.22,37.992z M205.413,37.992c0.382-3.983,0-8.009-1.44-11.272
	c-1.44-3.644-3.983-6.525-6.907-9.068c-1.822-1.822-2.161-1.822-3.645,0.381c-5.466,9.789-7.246,20.001-3.983,30.892
	c0.72,2.924,2.542,5.085,5.466,5.806c2.925,0.72,5.467-1.102,7.247-3.263c1.102-1.102,1.821-2.161,2.16-3.644
	C204.693,44.179,206.134,41.255,205.413,37.992z"/>
<path d="M452.465,37.992c0.721,5.805-1.822,11.272-4.364,16.696c-2.161,4.364-6.188,6.187-11.272,6.187
	c-4.364,0-8.009-1.44-10.17-5.467c-3.645-7.246-3.983-14.535-2.543-22.544c0.721-3.644,1.822-7.246,2.543-10.891
	c0.381-1.102,1.102-2.161,0.381-2.924c-1.44-1.822-0.381-3.263,0.721-4.704c0.382-0.381,0.721-1.102,1.102-1.441
	c5.085-6.187,8.729-5.805,13.434,0.381c0.72,1.102,1.44,2.162,2.161,2.543c6.187,3.983,7.628,10.551,8.348,17.458
	C452.465,34.348,452.465,35.831,452.465,37.992z M446.278,37.992c0.381-3.983,0-8.009-1.441-11.272
	c-1.44-3.644-3.982-6.525-6.907-9.068c-1.822-1.822-2.161-1.822-3.644,0.381c-5.467,9.789-7.247,20.001-3.983,30.892
	c0.72,2.924,2.542,5.085,5.466,5.806c2.924,0.72,5.467-1.102,7.246-3.263c1.103-1.102,1.822-2.161,2.162-3.644
	C445.896,44.179,446.999,41.255,446.278,37.992z"/>
<path d="M113.119,36.551c0,0.381,0.381,1.441,0,2.161c-1.102,3.983-2.542,8.009-3.645,11.992c-0.381,1.441-1.102,2.542-2.542,2.924
	c-5.466,2.542-10.17,6.187-16.357,6.907c-6.187,0.721-10.17-2.161-9.068-8.009c1.44-7.246,0-14.535,0-21.781
	c0-5.466,0.381-10.551-0.721-15.976c-0.381-1.822,1.102-3.983,2.161-5.806c0.721-1.102,2.161-1.44,3.645-1.44
	c17.798,1.44,25.807,12.712,26.527,27.629C112.78,35.449,113.119,35.831,113.119,36.551z M87.693,40.535
	c0,2.161-0.381,4.704,1.102,6.526c1.102,1.102,1.822,2.542,1.822,4.365c0.382,1.822,1.822,2.542,2.924,1.102
	c1.102-1.441,2.542-1.822,3.983-1.822c1.102,0,2.162-0.381,2.543-1.102c1.102-2.161,3.263-3.983,3.983-6.526
	c1.102-5.085,1.822-9.789,0-14.874c-2.543-6.526-6.908-11.611-14.535-12.713c-2.542-0.381-2.542,0-2.542,2.542
	C87.693,25.279,86.973,32.907,87.693,40.535z"/>
<path d="M332.923,36.551c0,0.381,0.381,1.441,0,2.161c-1.102,3.983-2.543,8.009-3.645,11.992c-0.381,1.441-1.102,2.542-2.543,2.924
	c-5.466,2.542-10.17,6.187-16.356,6.907c-6.188,0.721-10.17-2.161-9.068-8.009c1.44-7.246,0-14.535,0-21.781
	c0-5.466,0.381-10.551-0.721-15.976c-0.382-1.822,1.102-3.983,2.161-5.806c0.721-1.102,2.161-1.44,3.645-1.44
	c17.798,1.44,25.807,12.712,26.527,27.629C332.541,35.449,332.923,35.831,332.923,36.551z M307.497,40.535
	c0,2.161-0.381,4.704,1.102,6.526c1.102,1.102,1.822,2.542,1.822,4.365c0.382,1.822,1.822,2.542,2.924,1.102
	s2.543-1.822,3.983-1.822c1.102,0,2.161-0.381,2.543-1.102c1.102-2.161,3.263-3.983,3.983-6.526c1.102-5.085,1.822-9.789,0-14.874
	c-2.543-6.526-6.907-11.611-14.535-12.713c-2.543-0.381-2.543,0-2.543,2.542C307.497,25.279,306.776,32.907,307.497,40.535z"/>
<path d="M374.324,19.474c-0.721,0-1.441,0-2.161,0c-1.441,0-2.543-0.72-2.543-2.161c-0.381-1.441,0.721-2.542,2.161-2.924
	c0.721-0.381,1.822-0.721,2.543-0.721c7.246-1.102,14.153-3.263,21.441-4.704c0.721,0,1.441-0.381,2.161-0.381
	c1.822,0,3.264,1.102,3.645,2.542c0.721,1.822-0.381,2.924-1.822,3.983c-2.161,1.441-5.085,1.441-7.627,1.441
	c-6.526,0.72-5.806,0-5.086,6.187c1.103,7.246,2.543,14.535,2.925,21.781c0,2.542,0.72,4.704,1.821,7.246
	c1.103,1.822,0.721,3.983,0,5.805c-0.381,1.102-1.102,2.543-2.924,2.543c-1.44,0-2.542-0.721-3.644-2.161
	c-0.721-0.721-0.721-1.822-0.721-2.925c-1.102-9.788-1.822-20.001-2.924-29.79c0-0.72-0.382-1.822-0.382-2.542
	c-1.102-3.983-1.102-3.983-5.466-3.645C375.044,19.474,374.705,19.474,374.324,19.474z"/>
<path d="M21.206,27.102c1.102,1.102,2.542,1.102,3.645,1.102c2.161,0,4.704,0,5.806,1.822c1.822,2.542,3.644,5.466,3.644,9.068
	c-0.381,6.907-3.644,11.611-9.068,15.255c-2.542,1.822-5.806,3.264-8.348,5.467c-2.542,1.822-6.187,1.102-9.068,1.102
	c-1.822,0-2.161-1.822-2.161-3.263c0.381-9.068-2.161-17.459-2.542-26.527c-0.721-6.907-0.721-13.814-2.924-20.34
	c-0.721-2.161,0.72-4.704,2.924-5.466C6.035,4.6,8.196,2.778,11.12,1.676c5.085-2.161,10.17-2.542,14.874,0.721
	c2.542,2.161,3.263,5.085,2.924,8.348c-0.381,4.704-2.542,8.729-5.466,12.332C22.308,24.177,21.587,25.661,21.206,27.102z
	 M20.485,33.627c-2.924,0.72-5.806,0.381-8.348,2.161c-1.822,1.102-2.542,2.161-2.161,3.983c0.381,3.983,1.441,8.009,2.161,11.993
	c0.381,2.161,1.441,2.161,3.645,1.441c5.085-1.822,8.009-5.806,10.551-10.17C28.833,37.992,25.952,33.627,20.485,33.627z
	 M8.875,29.644c2.161-2.161,4.704-3.983,6.526-6.187c3.263-3.645,5.805-7.627,6.907-12.332c0.381-2.161-0.381-3.263-2.161-3.983
	c-2.924-1.102-10.891,1.44-12.713,3.983c-0.381,0.381-0.72,0.721-0.72,1.441C7.434,18.033,8.154,23.838,8.875,29.644z"/>
<path d="M149.816,54.349c-0.381-10.17,0.381-20.34-1.822-30.171c-0.72-3.263,0-6.907-1.822-10.17c-1.102-1.822,0-3.263,2.542-3.983
	c5.466-2.161,11.272-2.924,17.077-3.263c1.441,0,2.924,0,4.365-0.381c2.924-1.102,5.806,0.721,8.729,0
	c1.102-0.72,2.542,1.102,3.263,2.542c0.381,0.721,0.381,1.822-0.381,1.822c-3.263,1.441-5.467,4.365-9.789,3.263
	c-5.085-1.102-10.551,0.381-15.637,0.72c-1.822,0-2.542,1.102-2.161,2.924c0.381,2.924,1.441,5.467,1.441,8.348
	c0,1.822,1.102,2.542,2.924,2.542c2.161,0,3.983-0.72,5.806-1.822c2.542-1.102,5.085-1.44,8.009,0
	c1.441,1.102,2.542,2.162,1.822,4.365c-1.102,2.543-2.924,4.365-5.085,3.645c-3.645-1.102-6.907,0.381-10.17,1.102
	c-2.161,0.381-2.542,1.441-2.161,3.263c0.381,5.085,0.72,10.17,1.441,14.874c0,1.44,0.381,2.543,0,3.983
	c-0.381,1.821-1.102,3.644-3.645,3.644c-2.161,0.382-3.263-0.381-3.983-2.924C149.816,57.23,148.715,55.79,149.816,54.349z"/>
<path d="M244.993,27.483c-0.721,5.466-0.382,10.891-0.721,16.357c-0.721,5.806-2.543,10.552-6.188,14.874
	c-2.16,2.543-7.627,2.543-10.891,0c-3.644-2.924-6.187-6.187-6.525-10.891c-1.102-10.891-3.263-21.442-5.467-31.952
	c-0.381-1.822,0.721-3.644,2.162-3.983c1.821-0.721,3.982,0.381,4.703,2.161c0.381,0.72,0.381,1.822,0.381,2.542
	c1.102,9.45,3.645,18.899,4.704,28.349c0.382,2.161,1.103,4.365,1.822,6.187c0.72,1.441,2.161,2.161,3.983,2.542
	c1.441,0,1.822-1.44,2.543-2.542c1.102-2.542,1.822-4.704,2.16-7.627c0.382-6.187,1.441-12.332,0.721-18.519
	c-0.381-3.263,0.382-6.526,1.102-9.789c0.382-2.161,2.924-3.645,5.086-2.924c0.72,0.381,1.822,1.102,1.44,1.822
	C244.272,18.372,245.713,23.118,244.993,27.483z"/>
<path d="M288.598,46.34c-1.822-8.729-0.721-17.458-1.102-25.807c0-1.822-0.721-3.263-1.103-5.085
	c-0.381-1.822,0.382-3.263,2.161-3.645c1.822-0.72,3.645,0,4.365,1.822c0.381,1.102,0.381,1.822,0.721,2.924
	c0.381,5.466,0.381,10.891,0.381,16.357c0,6.187,0.382,12.332,2.543,18.519c0.72,1.822,0,3.263,0,5.085
	c-0.382,2.16-2.161,2.924-3.645,2.924c-2.161,0-4.365-0.382-6.187-1.822c-1.822-1.441-3.645-2.162-3.984-4.704
	c-0.381-2.161-1.821-3.645-3.262-5.085c-6.526-6.907-13.095-13.814-19.621-21.061c-0.72-0.381-1.102-1.102-2.16-0.72
	c-0.721,1.822-0.721,3.983-0.382,6.187c0.72,6.907,1.102,13.433,1.44,20.34c0,1.44,0.721,3.263,0.721,4.703
	c0.381,2.543-1.102,4.704-3.264,4.704c-2.542,0.382-5.466-2.542-4.703-4.704c1.102-3.262,0.721-6.187,0.381-9.449
	c-0.381-11.272-0.72-22.163-0.72-33.435c0-1.441,0-3.263,1.822-3.645s3.644,0.381,3.983,1.822
	c2.161,5.806,6.907,8.729,10.551,13.094c5.467,6.526,11.611,12.332,18.18,18.179C286.437,44.518,286.437,46.001,288.598,46.34z"/>
<path d="M413.563,27.483c0.382,5.085,0,10.551,1.103,15.976c0.72,3.644,2.542,7.246,4.703,10.552
	c1.441,2.542,0.721,3.983-2.161,5.805c-2.161,1.102-3.263,0.721-4.703-1.822c-1.822-3.263-2.161-7.246-3.264-10.891
	c-1.44-4.704-1.44-9.45-1.44-14.153c0.382-5.085,0-10.17-1.102-14.874c0-0.72-0.382-1.102-0.382-1.822
	c-0.381-2.161,1.102-3.263,2.543-3.983c1.822-0.721,2.924,1.102,3.263,2.542C413.563,18.753,413.945,23.118,413.563,27.483z"/>
</svg>
