<?xml version="1.0" encoding="utf-8"?>
<!-- Generator: Adobe Illustrator 15.0.0, SVG Export Plug-In . SVG Version: 6.00 Build 0)  -->
<!DOCTYPE svg PUBLIC "-//W3C//DTD SVG 1.1//EN" "http://www.w3.org/Graphics/SVG/1.1/DTD/svg11.dtd">
<svg version="1.1" id="Layer_1" xmlns="http://www.w3.org/2000/svg" xmlns:xlink="http://www.w3.org/1999/xlink" x="0px" y="0px"
	 width="600px" height="200px" viewBox="0 0 600 200" enable-background="new 0 0 600 200" xml:space="preserve">
<path d="M377.271,32.267c0.595,4.797-1.506,9.314-3.607,13.796c-1.785,3.606-5.111,5.112-9.313,5.112
	c-3.606,0-6.618-1.19-8.403-4.518c-3.012-5.986-3.291-12.01-2.102-18.627c0.596-3.012,1.506-5.987,2.102-8.998
	c0.314-0.91,0.91-1.786,0.314-2.416c-1.189-1.506-0.314-2.696,0.596-3.887c0.315-0.315,0.596-0.91,0.91-1.19
	c4.202-5.112,7.213-4.797,11.1,0.315c0.596,0.91,1.191,1.785,1.786,2.101c5.112,3.291,6.302,8.718,6.897,14.426
	C377.271,29.291,377.271,30.481,377.271,32.267z M372.158,32.267c0.315-3.291,0-6.617-1.189-9.312
	c-1.191-3.012-3.292-5.393-5.708-7.494c-1.505-1.505-1.786-1.505-3.011,0.315c-4.518,8.089-5.988,16.526-3.291,25.525
	c0.595,2.416,2.1,4.202,4.516,4.797s4.518-0.91,5.988-2.696c0.91-0.91,1.506-1.785,1.785-3.011
	C371.563,37.38,372.789,34.998,372.158,32.267z"/>
<path d="M286.339,31.077c0,0.314,0.315,1.189,0,1.785c-0.91,3.291-2.101,6.617-3.011,9.909c-0.315,1.19-0.91,2.101-2.101,2.416
	c-4.517,2.101-8.403,5.112-13.516,5.707c-5.112,0.595-8.403-1.786-7.493-6.618c1.19-5.986,0-12.01,0-17.996
	c0-4.518,0.315-8.719-0.595-13.201c-0.315-1.506,0.911-3.291,1.786-4.797c0.596-0.91,1.786-1.189,3.011-1.189
	c14.706,1.189,21.324,10.504,21.919,22.828C286.339,30.481,286.339,30.481,286.339,31.077z M265.611,34.368
	c0,1.785-0.315,3.887,0.91,5.393c0.91,0.91,1.505,2.1,1.505,3.605c0.315,1.506,1.506,2.102,2.416,0.91
	c0.911-1.189,2.101-1.505,3.292-1.505c0.91,0,1.786-0.315,2.101-0.911c0.911-1.785,2.696-3.291,3.292-5.392
	c0.911-4.202,1.506-8.088,0-12.29c-2.101-5.393-5.707-9.594-12.01-10.504c-2.101-0.315-2.101,0-2.101,2.101
	C265.296,21.763,264.701,28.065,265.611,34.368z"/>
<path d="M326.256,44.907c-0.315-8.403,0.314-16.807-1.506-24.93c-0.596-2.696,0-5.707-1.506-8.404c-0.91-1.505,0-2.695,2.102-3.291
	c4.516-1.785,9.312-2.416,14.109-2.695c1.191,0,2.416,0,3.607-0.315c2.416-0.911,4.797,0.595,7.213,0
	c1.189-0.315,2.416,1.19,2.695,2.416c0.315,0.595,0.315,1.505-0.314,1.505c-2.696,1.191-4.518,3.607-8.088,2.697
	c-4.202-0.911-8.404,0.314-12.921,0.595c-1.505,0-2.101,0.91-1.786,2.416c0.315,2.416,1.191,4.517,1.191,6.897
	c0,1.506,0.91,2.102,2.416,2.102c1.785,0,3.291-0.596,4.797-1.506c2.101-1.191,4.201-1.506,6.303-0.315
	c1.189,0.91,2.1,1.786,1.505,3.606c-0.91,2.101-2.416,3.606-4.202,3.012c-3.011-0.911-5.707,0.314-8.402,0.91
	c-1.786,0.314-2.102,1.189-1.786,2.695c0.315,4.202,0.595,8.404,1.19,12.291c0,1.189,0.314,2.1,0,3.291
	c-0.314,1.506-0.91,3.011-3.012,3.011c-1.785,0.315-2.695-0.315-3.291-2.416C326.256,47.288,325.345,46.098,326.256,44.907z"/>
<path d="M134.729,31.077c0,0.314,0.315,1.189,0,1.785c-0.91,3.291-2.101,6.617-3.011,9.909c-0.315,1.19-0.911,2.101-2.101,2.416
	c-4.517,2.101-8.403,5.112-13.516,5.707c-5.112,0.595-8.403-1.786-7.493-6.618c1.19-5.986,0-12.01,0-17.996
	c0-4.518,0.315-8.719-0.595-13.201c-0.315-1.506,0.91-3.291,1.786-4.797c0.595-0.91,1.786-1.189,3.011-1.189
	c14.706,1.189,21.323,10.504,21.918,22.828C134.729,30.481,134.729,30.481,134.729,31.077z M114.036,34.368
	c0,1.785-0.315,3.887,0.91,5.393c0.911,0.91,1.505,2.1,1.505,3.605c0.315,1.506,1.506,2.102,2.416,0.91
	c0.911-1.189,2.101-1.505,3.292-1.505c0.91,0,1.786-0.315,2.101-0.911c0.91-1.785,2.696-3.291,3.291-5.392
	c0.911-4.202,1.506-8.088,0-12.29c-2.101-5.393-5.707-9.594-12.01-10.504c-2.101-0.315-2.101,0-2.101,2.101
	C113.72,21.763,113.125,28.065,114.036,34.368z"/>
<path d="M422.613,50.895c-1.189,0-2.416,0.595-3.886,0c-5.112-2.101-5.393-1.786-6.303-7.213c-0.315-1.786-0.595-3.606-0.595-5.392
	c0-2.102-1.786-3.292-2.416-5.112c-0.596-1.786,1.506-3.292,1.189-5.393c-0.91-4.517-1.189-8.999-1.785-13.515
	c-0.314-3.292-0.314-3.292,2.696-4.797c3.011-1.786,6.302-2.102,9.594-2.102c2.416,0,5.112,0,7.493,0
	c1.785,0,2.695,1.19,2.695,2.696c0,1.19-1.189,2.101-3.011,1.505c-3.606-0.91-7.213-0.595-10.819-0.314
	c-3.291,0.596-3.606,1.19-3.291,4.517c0.314,3.292,1.506,6.618,0.91,9.909c0,0.596,0.314,1.506,0.314,2.101
	c0.316,0.911,0.911,1.506,1.786,0.911c3.606-1.786,8.089-1.191,11.694-2.697c1.191-0.595,2.416,1.191,1.786,2.416
	c-0.595,0.911-1.505,2.102-2.101,2.102c-2.416,0-4.201,2.101-6.898,1.785h-0.314c-4.518,0.596-5.393,1.506-4.518,5.988
	c1.191,5.707,2.102,6.617,8.089,6.303c2.101,0,3.887-0.316,5.392-1.191c1.786-0.91,3.887-1.19,5.988-0.596
	c0.91,0.316,1.785,0.911,0.91,2.102c-1.19,1.785-2.696,3.606-4.797,3.887C429.196,49.984,426.221,51.489,422.613,50.895z"/>
<path d="M480.526,50.895c-1.189,0-2.415,0.595-3.886,0c-5.112-2.101-5.392-1.786-6.303-7.213c-0.315-1.786-0.595-3.606-0.595-5.392
	c0-2.102-1.786-3.292-2.416-5.112c-0.596-1.786,1.506-3.292,1.189-5.393c-0.91-4.517-1.189-8.999-1.785-13.515
	c-0.314-3.292-0.314-3.292,2.696-4.797c3.011-1.786,6.302-2.102,9.594-2.102c2.416,0,5.112,0,7.493,0
	c1.785,0,2.695,1.19,2.695,2.696c0,1.19-1.189,2.101-3.011,1.505c-3.606-0.91-7.213-0.595-10.819-0.314
	c-3.291,0.596-3.606,1.19-3.291,4.517c0.314,3.292,1.506,6.618,0.91,9.909c0,0.596,0.315,1.506,0.315,2.101
	c0.315,0.911,0.91,1.506,1.786,0.911c3.605-1.786,8.088-1.191,11.693-2.697c1.191-0.595,2.416,1.191,1.786,2.416
	c-0.595,0.911-1.505,2.102-2.101,2.102c-2.416,0-4.201,2.101-6.898,1.785h-0.314c-4.517,0.596-5.393,1.506-4.517,5.988
	c1.19,5.707,2.101,6.617,8.088,6.303c2.101,0,3.887-0.316,5.392-1.191c1.786-0.91,3.887-1.19,5.988-0.596
	c0.91,0.316,1.785,0.911,0.91,2.102c-1.19,1.785-2.696,3.606-4.797,3.887C487.46,49.984,484.134,51.489,480.526,50.895z"/>
<path d="M226.886,47.288c0.315,1.19-0.315,2.102-1.19,2.416c-1.506,0.596-3.011,0.314-3.887-0.91
	c-1.19-1.19-2.101-2.416-1.786-4.201c0.315-2.102-0.595-3.887-1.19-5.988c-0.911-3.291-2.696-4.517-5.987-4.201
	c-3.011,0.314-5.988,0.91-9.314,0.91c-1.786,0-2.101,1.785-2.101,2.695c-0.596,2.697-1.506,5.113-2.696,7.494
	c-0.595,1.189-1.19,2.416-2.101,3.291c-0.91,0.91-2.416,1.19-3.606,0.596c-1.19-0.596-1.505-2.697-0.595-3.887
	c5.112-7.494,6.303-16.212,8.403-24.931c0.596-3.886,2.101-8.403,3.887-12.604c1.506-3.607,3.887-3.607,6.618-0.91
	c2.416,2.416,3.011,5.707,3.887,8.718c1.505,5.112,3.291,9.595,5.707,14.426c1.786,3.292,3.606,6.897,4.202,10.819
	C225.38,43.087,227.201,45.188,226.886,47.288z M208.293,16.687c-0.91,0.314-1.19,0.91-1.505,1.505
	c-1.786,3.606-1.786,7.493-3.011,11.415c-0.315,0.91,0.315,1.506,1.505,1.506c2.416-0.316,4.517-0.316,6.618-1.191
	c1.191-0.595,2.101-1.506,1.191-2.695c-1.191-2.102-1.506-4.518-2.416-6.618C210.079,18.786,209.764,17.281,208.293,16.687z"/>
<path d="M74.995,47.288c0.315,1.19-0.315,2.102-1.19,2.416c-1.505,0.596-3.011,0.314-3.886-0.91c-1.19-1.19-2.101-2.416-1.786-4.201
	c0.315-2.102-0.595-3.887-1.191-5.988c-0.91-3.291-2.696-4.517-5.987-4.201c-3.011,0.314-5.987,0.91-9.313,0.91
	c-1.786,0-2.101,1.785-2.101,2.695c-0.595,2.697-1.505,5.113-2.696,7.494c-0.595,1.189-1.19,2.416-2.101,3.291
	c-0.91,0.91-2.416,1.19-3.606,0.596c-1.19-0.596-1.505-2.697-0.595-3.887c5.112-7.494,6.303-16.212,8.403-24.931
	c0.595-3.886,2.101-8.403,3.887-12.604c1.505-3.607,3.887-3.607,6.618-0.91c2.416,2.416,3.011,5.707,3.886,8.718
	c1.506,5.112,3.292,9.595,5.708,14.426c1.786,3.292,3.606,6.897,4.202,10.819C73.489,43.087,75.31,45.188,74.995,47.288z
	 M56.402,16.687c-0.595,0.314-1.19,0.91-1.505,1.505c-1.786,3.606-1.786,7.493-3.011,11.415c-0.315,0.91,0.315,1.506,1.505,1.506
	c2.416-0.316,4.517-0.316,6.618-1.191c1.19-0.595,2.101-1.506,1.19-2.695c-1.19-2.102-1.505-4.518-2.416-6.618
	C58.188,18.786,57.873,17.281,56.402,16.687z"/>
<path d="M191.767,32.267c0.595,4.797-1.506,9.314-3.606,13.796c-1.786,3.606-5.112,5.112-9.314,5.112
	c-3.606,0-6.618-1.19-8.403-4.518c-3.011-5.986-3.291-12.01-2.101-18.627c0.595-3.012,1.505-5.987,2.101-8.998
	c0.315-0.91,0.911-1.786,0.315-2.416c-1.19-1.506-0.315-2.696,0.595-3.887c0.315-0.315,0.595-0.91,0.91-1.19
	c4.202-5.112,7.213-4.797,11.1,0.315c0.595,0.91,1.19,1.785,1.786,2.101c5.112,3.291,6.303,8.718,6.898,14.426
	C191.767,29.291,191.767,30.481,191.767,32.267z M186.654,32.267c0.315-3.291,0-6.617-1.19-9.312
	c-1.19-3.012-3.291-5.393-5.707-7.494c-1.506-1.505-1.786-1.505-3.011,0.315c-4.517,8.089-5.987,16.526-3.292,25.525
	c0.595,2.416,2.101,4.202,4.517,4.797s4.517-0.91,5.987-2.696c0.91-0.91,1.505-1.785,1.786-3.011
	C186.375,37.38,187.25,34.998,186.654,32.267z"/>
<path d="M242.782,34.368c2.101,2.101,3.011,5.393,6.303,6.303c0.91,0.314,1.786,1.785,2.696,3.011
	c0.595,0.911,0.315,2.101-0.315,2.696c-0.91,0.91-1.505,2.101-3.011,1.506c-1.786-0.596-3.291-1.506-4.517-3.012
	c-1.506-1.785-3.292-3.291-4.517-5.393c-0.595-0.91-1.19-1.785-3.011-1.785c0.315,2.696,0.596,5.111,0.911,7.493
	c0,0.595,0.315,1.505,0.315,2.101c0,1.506-1.505,3.291-2.696,3.291c-0.911,0-3.011-1.506-3.011-2.695
	c-0.315-3.012-0.595-5.988-0.315-8.999c0-7.493,1.19-14.706-0.91-22.198c-0.91-3.012,0.595-5.708,4.202-6.898
	c4.797-2.101,9.909-1.506,14.706-0.596c2.101,0.315,3.291,2.416,3.606,4.518c0.595,3.291-0.315,6.617-1.506,9.908
	c-1.505,3.607-3.606,7.213-7.213,8.999C244.007,32.897,243.412,33.493,242.782,34.368z M243.412,13.359
	c-4.517-0.315-6.618,0.911-6.302,6.897c0,2.102,0.315,4.202,0,6.303c-0.315,0.91-0.315,2.102,0.595,3.012
	c1.19,0.91,2.101,0.314,3.291-0.315c4.202-2.416,6.303-6.302,6.898-10.819C249.399,13.675,247.614,13.079,243.412,13.359z"/>
<path d="M393.482,34.368c2.101,2.101,3.011,5.393,6.303,6.303c0.91,0.314,1.785,1.785,2.695,3.011
	c0.596,0.911,0.315,2.101-0.314,2.696c-0.91,0.91-1.506,2.101-3.012,1.506c-1.785-0.596-3.291-1.506-4.517-3.012
	c-1.506-1.785-3.292-3.291-4.517-5.393c-0.596-0.91-1.191-1.785-3.012-1.785c0.315,2.696,0.596,5.111,0.91,7.493
	c0,0.595,0.315,1.505,0.315,2.101c0,1.506-1.505,3.291-2.696,3.291c-0.91,0-3.011-1.506-3.011-2.695
	c-0.315-3.012-0.595-5.988-0.315-8.999c0-7.493,1.191-14.706-0.91-22.198c-0.91-3.012,0.596-5.708,4.201-6.898
	c4.797-1.785,9.594-1.506,14.426-0.596c2.102,0.315,3.292,2.416,3.607,4.518c0.595,3.291-0.315,6.617-1.506,9.908
	c-1.506,3.607-3.606,7.213-7.213,8.999C394.673,32.897,394.078,33.493,393.482,34.368z M394.393,13.359
	c-4.517-0.315-6.617,0.911-6.303,6.897c0,2.102,0.315,4.202,0,6.303c-0.314,0.91-0.314,2.102,0.596,3.012
	c1.19,0.91,2.101,0.314,3.291-0.315c4.201-2.416,6.303-6.302,6.898-10.819C400.1,13.675,398.279,13.079,394.393,13.359z"/>
<path d="M512.67,34.368c2.101,2.101,3.011,5.393,6.303,6.303c0.91,0.314,1.786,1.785,2.696,3.011
	c0.595,0.911,0.314,2.101-0.315,2.696c-0.911,0.91-1.506,2.101-3.011,1.506c-1.786-0.596-3.292-1.506-4.518-3.012
	c-1.506-1.785-3.291-3.291-4.517-5.393c-0.595-0.91-1.19-1.785-3.011-1.785c0.314,2.696,0.595,5.111,0.91,7.493
	c0,0.595,0.314,1.505,0.314,2.101c0,1.506-1.506,3.291-2.695,3.291c-0.91,0-3.012-1.506-3.012-2.695
	c-0.314-3.012-0.596-5.988-0.314-8.999c0-7.493,1.189-14.706-0.911-22.198c-0.91-3.012,0.596-5.708,4.202-6.898
	c4.797-1.785,9.594-1.506,14.426-0.596c2.101,0.315,3.291,2.416,3.606,4.518c0.595,3.291-0.315,6.617-1.506,9.908
	c-1.506,3.607-3.606,7.213-7.213,8.999C513.86,32.897,512.95,33.493,512.67,34.368z M513.265,13.359
	c-4.516-0.315-6.617,0.911-6.302,6.897c0,2.102,0.315,4.202,0,6.303c-0.315,0.91-0.315,2.102,0.595,3.012
	c1.191,0.91,2.102,0.314,3.291-0.315c4.202-2.416,6.303-6.302,6.898-10.819C518.973,13.675,517.151,13.079,513.265,13.359z"/>
<path d="M92.712,34.368c2.101,2.101,3.011,5.393,6.303,6.303c0.91,0.314,1.786,1.785,2.696,3.011
	c0.595,0.911,0.315,2.101-0.315,2.696c-0.911,0.91-1.506,2.101-3.011,1.506c-1.786-0.596-3.292-1.506-4.517-3.012
	c-1.505-1.785-3.291-3.291-4.517-5.393c-0.595-0.91-1.19-1.785-3.011-1.785c0.315,2.696,0.595,5.111,0.911,7.493
	c0,0.595,0.315,1.505,0.315,2.101c0,1.506-1.506,3.291-2.696,3.291c-0.91,0-3.011-1.506-3.011-2.695
	c-0.315-3.012-0.595-5.988-0.315-8.999c0-7.493,1.19-14.706-0.91-22.198c-0.911-3.012,0.595-5.708,4.202-6.898
	c4.797-2.101,9.909-1.506,14.706-0.596c2.101,0.315,3.292,2.416,3.606,4.518c0.595,3.291-0.315,6.617-1.505,9.908
	c-1.506,3.607-3.606,7.213-7.213,8.999C93.902,32.897,92.992,33.493,92.712,34.368z M93.307,13.359
	c-4.517-0.315-6.618,0.911-6.302,6.897c0,2.102,0.315,4.202,0,6.303c-0.315,0.91-0.315,2.102,0.595,3.012
	c1.19,0.91,2.101,0.314,3.291-0.315c4.202-2.416,6.303-6.302,6.898-10.819C99.015,13.675,97.229,13.079,93.307,13.359z"/>
<path d="M10.464,29.886c0,5.708,2.696,9.594,6.898,12.92c1.786,1.506,3.887,1.787,5.987,1.506c3.292-0.314,6.898-0.314,9.909-1.785
	c0.315-0.315,1.19-0.315,1.786-0.315c2.416,0,3.011,1.19,2.101,3.292c-1.19,2.695-4.202,3.291-6.302,4.797c-0.315,0-0.595,0-0.595,0
	c-3.011-1.786-5.987-0.596-8.999-0.315c-2.101,0.315-3.887-0.911-5.708-1.786c-1.505-0.91-3.011-2.416-4.517-3.605
	c-1.786-1.506-3.606-3.607-3.887-6.303c0-0.596-0.315-1.191-0.595-1.786c-1.786-2.416-1.471-4.832-1.19-7.528
	c1.19-5.987,2.416-12.01,5.707-17.402c1.19-2.1,2.101-4.201,3.887-5.986c2.101-2.102,5.112-2.416,8.088-3.012
	c1.19-0.314,5.392,3.291,5.987,4.797c0.315,0.91,0,1.785-0.91,2.696c-1.191,0.91-2.416,0.595-3.887,0
	c-0.315-0.315-0.595-0.911-1.19-1.506c-1.19-1.19-2.696-1.19-3.887,0c-3.011,3.606-6.302,6.897-6.898,12.01
	c0,2.696-1.786,5.112-1.786,7.809C10.464,28.976,10.464,29.571,10.464,29.886z"/>
<path d="M154.547,22.394c0.91,0.91,2.101,0.91,3.011,0.91c1.786,0,3.887,0,4.797,1.506c1.505,2.101,3.011,4.517,3.011,7.492
	c-0.315,5.707-3.011,9.594-7.493,12.605c-2.101,1.506-4.797,2.696-6.898,4.517c-2.101,1.506-5.112,0.911-7.493,0.911
	c-1.506,0-1.786-1.506-1.786-2.697c0.315-7.492-1.786-14.426-2.101-21.918c-0.315-5.707-0.315-11.1-2.101-16.807
	c-0.595-1.786,0.595-3.887,2.416-4.518c2.416-0.595,4.202-2.101,6.618-3.011c4.202-1.786,8.403-2.101,12.29,0.595
	c2.416,1.506,3.011,3.887,2.696,6.618c-0.315,3.887-2.101,7.213-4.797,10.188C155.737,19.978,154.862,21.168,154.547,22.394z
	 M154.231,27.785c-2.416,0.315-4.517,0.315-6.897,1.506c-1.506,0.91-2.101,1.786-1.786,3.292c0.315,3.291,1.19,6.617,1.786,9.908
	c0.315,1.785,1.19,1.785,3.011,1.19c4.202-1.505,6.617-4.797,8.718-8.403C161.165,31.392,158.749,27.785,154.231,27.785z
	 M144.638,24.494c2.101-1.786,3.887-3.292,5.392-5.112c2.696-3.012,4.797-6.303,5.708-10.189c0.315-1.785-0.315-2.695-1.786-3.291
	c-2.416-0.91-8.999,1.191-10.504,3.291c-0.315,0.315-0.595,0.596-0.595,1.191C143.447,14.865,144.042,19.662,144.638,24.494z"/>
<path d="M449.609,33.493c1.786-1.506,1.786-3.292,2.101-4.797c0.911-4.202,1.786-8.719,2.416-12.921
	c0.315-3.606,1.786-6.897,2.697-10.188c0.314-1.191,2.416-2.696,3.011-2.416c1.19,0.314,2.416,3.011,2.101,4.201
	c-0.91,2.696-1.19,5.707-1.785,8.719c-0.91,3.291-1.191,6.617-1.786,9.908c-0.911,3.887-1.506,7.809-2.416,12.01
	c-0.315,1.786-0.315,3.607,0.315,5.393c0.314,1.506,0,3.012-0.315,4.518c-0.595,1.785-1.786,2.695-3.887,2.695
	c-1.785,0-2.416-1.19-3.291-2.416c-0.91-2.101-1.19-4.201-2.102-6.617c-2.695-7.493-5.392-15.021-8.088-22.514
	c-0.314-0.596-0.596-1.191-0.596-1.786c-0.595-2.101,0-3.606,1.506-3.887c1.506-0.595,2.696,0.315,3.607,2.101
	c0.91,1.786,1.785,3.607,2.416,5.707c1.189,3.607,1.785,7.494,3.605,10.82C448.734,31.987,449.015,32.583,449.609,33.493z"/>
</svg>
