<?xml version="1.0" encoding="utf-8"?>
<!-- Generator: Adobe Illustrator 15.0.0, SVG Export Plug-In . SVG Version: 6.00 Build 0)  -->
<!DOCTYPE svg PUBLIC "-//W3C//DTD SVG 1.1//EN" "http://www.w3.org/Graphics/SVG/1.1/DTD/svg11.dtd">
<svg version="1.1" id="Layer_1" xmlns="http://www.w3.org/2000/svg" xmlns:xlink="http://www.w3.org/1999/xlink" x="0px" y="0px"
	 width="600px" height="200px" viewBox="0 0 600 200" enable-background="new 0 0 600 200" xml:space="preserve">
<path d="M291.353,34.218c0.685,5.517-1.731,10.712-4.147,15.866c-2.054,4.147-5.88,5.879-10.712,5.879
	c-4.147,0-7.61-1.369-9.664-5.194c-3.463-6.886-3.785-13.812-2.416-21.423c0.685-3.463,1.731-6.886,2.416-10.35
	c0.362-1.047,1.047-2.054,0.362-2.778c-1.369-1.731-0.362-3.101,0.685-4.47c0.363-0.362,0.685-1.047,1.047-1.369
	c4.832-5.879,8.295-5.517,12.766,0.362c0.684,1.047,1.369,2.054,2.053,2.416c5.88,3.785,7.249,10.027,7.934,16.591
	C291.353,31.118,291.353,32.527,291.353,34.218z M285.474,34.581c0.362-3.785,0-7.61-1.369-10.711
	c-1.369-3.463-3.785-6.201-6.564-8.617c-1.73-1.731-2.053-1.731-3.463,0.362c-5.194,9.302-6.886,19.007-3.785,29.355
	c0.685,2.778,2.416,4.832,5.195,5.517c2.778,0.685,5.194-1.047,6.885-3.101c1.048-1.047,1.732-2.054,2.055-3.463
	C285.151,40.46,286.198,37.36,285.474,34.581z"/>
<path d="M444.292,0.071c2.778-0.362,5.517,0.685,7.934,2.778c0.684,0.685,1.369,1.369,1.369,2.416
	c0.362,1.369,0.362,2.779-1.048,3.785c-1.731,0.685-2.778,0-3.785-1.369c-2.778-3.785-6.886-3.463-9.302,0.363
	c-1.047,1.731-1.731,3.463-1.731,5.517c0,2.778,0.685,3.785,3.101,4.832c3.101,1.047,5.879,3.101,8.617,4.47
	c6.564,3.463,9.665,8.979,10.027,15.866c0.362,3.785-2.054,6.886-4.832,9.302c-2.779,2.416-6.564,4.147-9.665,6.201
	c-2.416,1.369-5.194,1.369-7.933,1.369c-1.731,0-3.101-1.369-3.785-2.778c-0.685-1.369-0.362-2.778,0.685-3.785
	c1.369-1.047,2.054,0,3.101,0.685c1.047,1.047,2.054,1.047,3.463,0.362c3.101-1.731,6.563-3.101,9.302-5.517
	c5.195-4.47,3.464-13.45-2.416-16.229c-3.463-1.731-6.886-3.785-10.349-5.517c-4.832-2.416-6.563-7.249-4.832-12.766
	c0.362-1.369,1.047-2.778,1.731-4.147C436.359,2.125,439.46-0.292,444.292,0.071z"/>
<path d="M56.265,56.003c-1.369,0-2.778,0.685-4.47,0c-5.879-2.416-6.201-2.054-7.248-8.295c-0.362-2.054-0.685-4.147-0.685-6.201
	c0-2.416-2.054-3.785-2.779-5.88c-0.685-2.053,1.732-3.785,1.369-6.201c-1.047-5.194-1.369-10.349-2.054-15.543
	c-0.362-3.785-0.362-3.785,3.101-5.518c3.463-2.054,7.248-2.416,11.033-2.416c2.779,0,5.879,0,8.618,0
	c2.054,0,3.101,1.369,3.101,3.101c0,1.369-1.369,2.417-3.463,1.732c-4.148-1.048-8.295-0.685-12.443-0.363
	c-3.785,0.685-4.147,1.369-3.785,5.195c0.362,3.825,1.731,7.61,1.047,11.396c0,0.685,0.363,1.731,0.363,2.416
	c0.362,1.047,1.047,1.731,2.054,1.047c4.147-2.054,9.302-1.369,13.45-3.101c1.369-0.685,2.778,1.369,2.054,2.779
	c-0.685,1.047-1.732,2.416-2.417,2.416c-2.778,0-4.832,2.416-7.933,2.054h-0.362c-5.195,0.685-6.202,1.731-5.195,6.886
	c1.369,6.563,2.416,7.61,9.302,7.248c2.417,0,4.47-0.362,6.202-1.369c2.054-1.047,4.47-1.369,6.886-0.685
	c1.047,0.362,2.054,1.047,1.047,2.416c-1.369,2.054-3.101,4.147-5.517,4.47C64.198,54.594,60.413,56.326,56.265,56.003z"/>
<path d="M116.668,53.225c0.362,1.369-0.362,2.416-1.369,2.778c-1.731,0.685-3.463,0.362-4.47-1.047
	c-1.369-1.369-2.416-2.778-2.054-4.832c0.362-2.416-0.685-4.47-1.369-6.886c-1.047-3.785-3.101-5.194-6.886-4.832
	c-3.463,0.362-6.886,1.047-10.711,1.047c-2.054,0-2.416,2.054-2.416,3.101c-0.685,3.101-1.732,5.879-3.101,8.617
	c-0.685,1.369-1.369,2.778-2.416,3.785c-1.047,1.047-2.778,1.369-4.147,0.685s-1.731-3.101-0.685-4.47
	c5.879-8.617,7.248-18.645,9.665-28.671c1.047-5.194,3.101-10.027,4.832-14.859c1.731-4.147,4.47-4.147,7.611-1.047
	c2.778,3.463,3.101,7.248,4.147,10.712c1.731,5.879,3.785,11.033,6.564,16.59c2.054,3.786,4.147,7.934,4.832,12.443
	C114.937,48.715,117.03,50.809,116.668,53.225z M95.607,17.991c-1.047,0.362-1.369,1.047-1.731,1.731
	c-2.054,4.147-2.054,8.617-3.463,13.127c-0.362,1.047,0.362,1.731,1.731,1.731c2.778-0.362,5.195-0.362,7.611-1.369
	c1.369-0.685,2.416-1.731,1.369-3.101c-1.369-2.416-1.731-5.194-2.779-7.61C97.702,20.447,96.977,19.038,95.607,17.991z"/>
<path d="M202.279,34.218c0.685,5.517-1.731,10.712-4.147,15.866c-2.054,4.147-5.879,5.879-10.711,5.879
	c-4.148,0-7.611-1.369-9.665-5.194c-3.463-6.886-3.785-13.812-2.416-21.423c0.685-3.463,1.731-6.886,2.416-10.35
	c0.362-1.047,1.047-2.054,0.362-2.778c-1.369-1.731-0.362-3.101,0.685-4.47c0.362-0.362,0.685-1.047,1.047-1.369
	c4.833-5.879,8.295-5.517,12.765,0.362c0.685,1.047,1.369,2.054,2.054,2.416c5.879,3.785,7.249,10.027,7.933,16.591
	C202.641,31.118,202.279,32.527,202.279,34.218z M196.762,34.581c0.362-3.785,0-7.61-1.369-10.711
	c-1.369-3.463-3.786-6.201-6.564-8.617c-1.731-1.731-2.054-1.731-3.463,0.362c-5.195,9.302-6.886,19.007-3.785,29.355
	c0.685,2.778,2.416,4.832,5.194,5.517c2.779,0.685,5.195-1.047,6.886-3.101c1.047-1.047,1.732-2.054,2.054-3.463
	C196.078,40.46,197.447,37.36,196.762,34.581z"/>
<path d="M6.896,48.715c-0.363-9.302,0.362-19.007-1.732-28.309c-0.685-3.464,0-6.564-1.731-9.665c-1.047-1.731,0-3.101,2.416-3.785
	c5.195-2.054,10.711-2.778,16.229-3.463c1.369,0,2.778,0,4.147-0.362c2.778-1.047,5.517,0.685,8.295,0
	C35.89,2.769,36.937,4.5,37.621,5.91c0.362,0.685,0.362,1.731-0.362,1.731c-2.779,1.369-5.195,4.147-9.302,3.101
	c-4.832-1.047-9.665,0.362-14.497,0.685c-1.731,0-2.416,1.047-2.054,2.778c0.362,2.779,1.369,5.195,1.369,7.934
	c0,1.731,1.047,2.416,2.778,2.416c2.054,0,3.786-0.685,5.517-1.731c2.416-1.369,4.832-1.731,7.248-0.362
	c1.369,1.047,2.417,2.054,1.732,4.147c-1.047,2.778-2.779,4.147-4.833,3.785c-3.463-1.047-6.563,0.362-9.665,1.047
	c-2.053,0.362-2.416,1.369-2.416,3.101c0.363,4.832,0.685,9.665,1.369,14.135c0,1.369,0.362,2.416,0,3.785
	c-0.362,1.731-1.047,3.463-3.463,3.463c-2.054,0.362-3.101-0.362-3.785-2.778C7.218,51.856,6.212,50.447,6.896,48.715z"/>
<path d="M206.426,48.715c-0.362-9.665,0.363-19.329-1.731-28.671c-0.685-3.102,0-6.564-1.731-9.665
	c-1.047-1.731,0-3.101,2.416-3.785c5.195-2.054,10.711-2.778,16.228-3.101c1.369,0,2.778,0,4.147-0.362
	c2.779-1.047,5.518,0.685,8.296,0c1.369-0.362,2.778,1.369,3.101,2.778c0.362,0.685,0.362,1.731-0.362,1.731
	c-3.101,1.369-5.194,4.147-9.302,3.101c-4.832-1.047-9.665,0.362-14.859,0.685c-1.731,0-2.416,1.047-2.054,2.778
	c0.362,2.779,1.369,5.195,1.369,7.934c0,1.731,1.047,2.416,2.778,2.416c2.054,0,3.785-0.685,5.518-1.731
	c2.416-1.369,4.832-1.731,7.248-0.362c1.369,1.047,2.416,2.054,1.73,4.147c-1.047,2.416-2.777,4.147-4.832,3.463
	c-3.463-1.047-6.563,0.362-9.664,1.047c-2.054,0.362-2.416,1.369-2.054,3.101c0.362,4.832,0.685,9.665,1.369,14.135
	c0,1.369,0.362,2.416,0,3.785c-0.362,1.731-1.047,3.463-3.463,3.463c-2.054,0.362-3.101-0.362-3.785-2.778
	C206.426,51.856,205.379,50.447,206.426,48.715z"/>
<path d="M134.95,38.366c2.417,2.417,3.463,6.202,7.249,7.249c1.047,0.362,2.054,2.054,3.101,3.463
	c0.685,1.047,0.362,2.416-0.362,3.101c-1.047,1.047-1.731,2.416-3.463,1.731c-2.054-0.685-3.786-1.731-5.195-3.463
	c-1.731-2.054-3.785-3.785-5.195-6.201c-0.685-1.047-1.369-2.054-3.463-2.054c0.362,3.101,0.685,5.879,1.047,8.617
	c0,0.685,0.362,1.731,0.362,2.416c0,1.731-1.731,3.785-3.101,3.785c-1.047,0-3.463-1.731-3.463-3.101
	c-0.362-3.463-0.685-6.886-0.362-10.349c0-8.618,1.369-16.913-1.047-25.53c-1.047-3.463,0.685-6.563,4.833-7.933
	c5.517-2.054,11.034-1.732,16.59-0.685c2.417,0.362,3.786,2.778,4.148,5.194c0.685,3.785-0.363,7.61-1.731,11.396
	c-1.732,4.148-4.148,8.296-8.295,10.35C136.359,36.634,135.675,37.36,134.95,38.366z M135.675,14.568
	c-5.195-0.363-7.611,1.047-7.249,7.933c0,2.416,0.363,4.832,0,7.248c-0.362,1.047-0.362,2.416,0.685,3.463
	c1.369,1.047,2.417,0.362,3.786-0.362c4.832-2.778,7.248-7.248,7.933-12.442C142.561,14.568,140.507,14.205,135.675,14.568z"/>
<path d="M381.796,55.641c-1.369,0-2.779,0.685-4.47,0c-5.88-2.416-6.202-2.054-7.249-8.295c-0.362-2.054-0.685-4.147-0.685-6.201
	c0-2.416-2.054-3.785-2.778-5.88c-0.685-2.054,1.731-3.785,1.369-6.201c-1.047-5.194-1.369-10.349-2.054-15.544
	c-0.362-4.147-0.362-4.147,3.101-5.879c3.463-2.054,7.248-2.416,11.034-2.416c2.778,0,5.879,0,8.617,0
	c2.054,0,3.101,1.369,3.101,3.101c0,1.369-1.369,2.416-3.463,1.731c-4.147-1.047-8.296-0.685-12.443-0.362
	c-3.785,0.685-4.147,1.369-3.785,5.194c0.362,3.786,1.731,7.611,1.047,11.396c0,0.685,0.362,1.731,0.362,2.416
	c0.362,1.047,1.047,1.731,2.054,1.047c4.147-2.054,9.303-1.369,13.45-3.101c1.369-0.685,2.778,1.369,2.054,2.778
	c-0.685,1.047-1.731,2.416-2.416,2.416c-2.779,0-4.833,2.416-7.934,2.054h-0.362c-5.194,0.685-6.201,1.731-5.194,6.886
	c1.369,6.564,2.416,7.611,9.302,7.249c2.416,0,4.47-0.362,6.201-1.369c2.054-1.047,4.47-1.369,6.886-0.685
	c1.048,0.362,2.054,1.047,1.048,2.416c-1.369,2.054-3.101,4.147-5.518,4.47C389.729,54.272,385.943,56.003,381.796,55.641z"/>
<path d="M414.252,38.366c2.416,2.417,3.463,6.202,7.248,7.249c1.047,0.362,2.054,2.054,3.101,3.463
	c0.685,1.047,0.363,2.416-0.362,3.101c-1.047,1.047-1.731,2.416-3.463,1.731c-2.054-0.685-3.785-1.731-5.194-3.463
	c-1.731-2.054-3.785-3.785-5.195-6.201c-0.685-1.047-1.369-2.054-3.463-2.054c0.362,3.101,0.685,5.879,1.047,8.617
	c0,0.685,0.362,1.731,0.362,2.416c0,1.731-1.731,3.785-3.101,3.785c-1.047,0-3.463-1.731-3.463-3.101
	c-0.362-3.463-0.685-6.886-0.362-10.349c0-8.618,1.369-16.913-1.047-25.53c-1.047-3.463,0.685-6.563,4.832-7.933
	c5.517-2.054,11.034-1.732,16.591-0.685c2.416,0.362,3.785,2.778,4.147,5.194c0.685,3.785-0.362,7.61-1.731,11.396
	c-1.731,4.148-4.147,8.296-8.295,10.35C415.621,36.634,414.937,36.997,414.252,38.366z M414.937,14.205
	c-5.194-0.362-7.61,1.048-7.248,7.934c0,2.416,0.362,4.832,0,7.248c-0.362,1.047-0.362,2.416,0.685,3.463
	c1.369,1.047,2.416,0.362,3.785-0.362c4.832-2.778,7.248-7.248,7.933-12.442C421.862,14.205,419.446,13.883,414.937,14.205z"/>
<path d="M323.124,10.057c1.369,0,2.779-0.362,3.785-0.362c1.732,0,3.102,0.685,3.786,2.416s1.731,3.463,0,5.195
	c-1.369,1.369-3.101,0.685-4.47,0c-3.464-1.732-7.249-1.048-10.712-1.369c-2.416,0-3.463,1.369-3.101,3.785
	c1.369,6.886,2.416,13.449,4.147,20.376c0.685,2.778,1.731,5.194,4.47,6.563c2.054,1.047,2.054,5.194,0.685,7.248
	c-1.369,1.731-3.785,2.416-5.879,1.369c-0.362-0.362-1.047-0.685-1.369-1.047c-1.047-3.785-3.463-6.563-4.147-10.711
	c-1.047-7.611-2.416-14.859-3.785-22.43c-0.362-2.779-1.369-3.464-4.148-2.779c-2.416,0.363-4.469,1.048-6.885,1.369
	c-0.686,0-1.048,0.363-1.732,0.363c-1.369,0-2.778,0-3.101-1.369s0.362-2.779,2.054-3.101c2.054-0.686,3.785-1.369,5.879-1.732
	c6.564-1.369,13.128-2.416,19.329-3.463C320.346,9.735,321.755,10.057,323.124,10.057z"/>
<path d="M343.138,16.299c0,4.832,0,9.302,0,14.134c0,2.054,0.685,2.778,2.778,2.416c2.416-0.362,4.47-1.047,6.887-1.369
	c1.731-0.362,2.778-1.731,2.416-3.785c-0.685-5.517-1.369-11.033-3.101-16.228c-0.685-1.732-0.685-3.102,1.047-4.471
	s3.785-0.685,4.147,1.048c1.047,4.47,3.101,8.979,2.778,13.812c0,1.369,0,2.778,0.362,4.147c1.369,4.147,2.054,8.618,2.778,13.128
	c0.363,4.147,1.048,8.295,1.732,12.765c0.685,3.464,0.362,3.785-3.102,4.148c-3.101,0.362-5.194-1.369-4.832-3.786
	c0.362-2.054,0-4.147,0.362-6.201c0.363-2.054,0-4.47-0.362-6.563c0-1.369-1.047-2.054-2.054-1.731
	c-2.778,0.685-5.517,0.685-8.295,1.047s-3.101,1.047-2.778,3.785c0.362,3.101,1.731,6.201,1.369,9.664
	c-0.362,2.779-0.685,3.464-3.101,3.464s-3.101-0.685-3.101-3.101c-0.363-2.779-0.363-5.518-0.685-8.296c0-2.054,0-3.785-1.731-5.194
	c-1.048-1.047-1.369-2.778-0.363-3.785c2.779-4.147,2.054-8.296,1.732-12.766c-0.363-3.463,0-6.886-0.686-10.349
	c-0.362-1.047,0-2.054,0.686-2.778c0.684-1.369,1.731-1.731,3.101-1.731s2.416,1.047,2.416,2.416
	C343.138,11.789,343.138,14.205,343.138,16.299L343.138,16.299z"/>
</svg>
