<?xml version="1.0" encoding="utf-8"?>
<!-- Generator: Adobe Illustrator 15.0.0, SVG Export Plug-In . SVG Version: 6.00 Build 0)  -->
<!DOCTYPE svg PUBLIC "-//W3C//DTD SVG 1.1//EN" "http://www.w3.org/Graphics/SVG/1.1/DTD/svg11.dtd">
<svg version="1.1" id="Layer_1" xmlns="http://www.w3.org/2000/svg" xmlns:xlink="http://www.w3.org/1999/xlink" x="0px" y="0px"
	 width="600px" height="200px" viewBox="0 0 600 200" enable-background="new 0 0 600 200" xml:space="preserve">
<path d="M302.704,55.28c-1.369,0-2.779,0.685-4.47,0c-5.88-2.416-6.202-2.054-7.249-8.296c-0.362-2.054-0.685-4.147-0.685-6.201
	c0-2.416-2.054-3.785-2.778-5.879c-0.685-2.054,1.731-3.785,1.369-6.201c-1.047-5.195-1.369-10.35-2.054-15.544
	c-0.362-3.785-0.362-3.785,3.101-5.517c3.463-2.054,7.248-2.416,11.033-2.416c2.779,0,5.88,0,8.618,0
	c2.054,0,3.101,1.369,3.101,3.101c0,1.369-1.369,2.416-3.463,1.731c-4.148-1.047-8.296-0.685-12.443-0.362
	c-3.785,0.685-4.147,1.369-3.785,5.194c0.362,3.785,1.731,7.61,1.047,11.396c0,0.685,0.362,1.732,0.362,2.417
	c0.362,1.047,1.047,1.731,2.054,1.047c4.147-2.054,9.302-1.369,13.45-3.101c1.369-0.685,2.778,1.369,2.054,2.778
	c-0.685,1.047-1.732,2.416-2.416,2.416c-2.779,0-4.833,2.416-7.934,2.054h-0.362c-5.194,0.685-6.201,1.731-5.194,6.886
	c1.369,6.563,2.416,7.61,9.302,7.248c2.416,0,4.47-0.362,6.201-1.369c2.054-1.047,4.47-1.369,6.886-0.685
	c1.048,0.362,2.054,1.047,1.048,2.416c-1.369,2.054-3.102,4.148-5.518,4.47C310.637,53.911,306.852,56.004,302.704,55.28z"/>
<path d="M56.221,55.28c-1.369,0-2.779,0.685-4.47,0c-5.879-2.416-6.201-2.054-7.248-8.296c-0.362-2.054-0.685-4.147-0.685-6.201
	c0-2.416-2.054-3.785-2.779-5.879c-0.685-2.416,1.732-3.785,1.369-6.201c-1.047-5.195-1.369-10.35-2.054-15.544
	c-0.362-3.785-0.362-3.785,3.101-5.517c3.463-2.054,7.248-2.416,11.033-2.416c2.779,0,5.879,0,8.618,0
	c2.054,0,3.101,1.369,3.101,3.101c0,1.369-1.369,2.416-3.463,1.731c-4.148-1.047-8.295-0.685-12.443-0.362
	c-3.785,0.685-4.147,1.369-3.785,5.194c0.363,3.785,1.732,7.61,1.047,11.396c0,0.685,0.362,1.732,0.362,2.417
	c0.362,1.047,1.047,1.731,2.054,1.047c4.147-2.054,9.302-1.369,13.45-3.101c1.369-0.685,2.778,1.369,2.054,2.778
	c-0.685,1.047-1.732,2.416-2.417,2.416c-2.778,0-4.832,2.416-7.933,2.054h-0.362c-5.195,0.685-6.202,1.731-5.195,6.886
	c1.369,6.563,2.416,7.61,9.302,7.248c2.416,0,4.47-0.362,6.201-1.369c2.054-1.047,4.47-1.369,6.886-0.685
	c1.047,0.362,2.054,1.047,1.047,2.416c-1.369,2.054-3.101,4.148-5.517,4.47C64.153,53.911,60.328,56.004,56.221,55.28z"/>
<path d="M116.945,52.864c0.362,1.369-0.362,2.416-1.369,2.778c-1.731,0.685-3.463,0.362-4.47-1.047
	c-1.369-1.369-2.416-2.779-2.054-4.833c0.362-2.416-0.685-4.47-1.369-6.886c-1.047-3.785-3.101-5.194-6.886-4.832
	c-3.463,0.362-6.886,1.047-10.711,1.047c-2.054,0-2.416,2.054-2.416,3.101c-0.685,3.101-1.732,5.88-3.101,8.618
	c-0.685,1.369-1.369,2.778-2.416,3.785c-1.047,1.047-2.778,1.369-4.147,0.685s-1.731-3.101-0.685-4.47
	c5.879-8.618,7.248-18.645,9.665-28.672c0.685-4.832,2.416-9.664,4.47-14.496c1.369-4.147,4.147-4.147,7.61-1.047
	c2.779,2.778,3.463,6.563,4.47,10.026c1.731,5.879,3.785,11.034,6.563,16.591c2.054,3.785,4.148,7.933,4.833,12.442
	C115.254,48.031,117.308,50.125,116.945,52.864z M95.563,17.668c-1.047,0.362-1.369,1.047-1.732,1.731
	c-2.054,4.147-2.054,8.618-3.463,13.128c-0.362,1.047,0.362,1.731,1.731,1.731c2.779-0.362,5.195-0.362,7.611-1.369
	c1.369-0.685,2.416-1.731,1.369-3.101c-1.731-2.778-2.054-5.517-3.101-8.296C97.617,20.084,97.294,18.353,95.563,17.668z"/>
<path d="M342.046,54.273c-2.778,0.685-5.879,0.362-9.302,0.685c-2.778,0.362-4.832-1.047-5.194-3.785
	c-0.363-8.98-3.464-17.96-3.464-26.94c0-6.201-1.731-12.08-2.778-18.281c0-1.047-0.362-2.054-0.362-2.778
	c0-2.054,1.047-2.779,2.778-3.101c1.731-0.363,2.416,0.685,2.778,2.416c0.685,4.147,1.369,8.295,2.054,12.765
	c1.048,9.664,3.102,19.007,4.47,28.309c0.685,4.147,1.048,4.47,5.518,4.147c1.369,0,2.778-0.362,4.147-0.685
	c1.369-0.321,2.416,0,3.463,0.685c1.369,0.685,2.416,2.054,2.778,3.786c0.362,1.047-2.778,2.778-4.47,3.101
	C343.777,54.595,343.093,54.273,342.046,54.273z"/>
<path d="M202.233,33.535c0.686,5.517-1.73,10.711-4.146,15.865c-2.055,4.147-5.88,5.88-10.712,5.88
	c-4.148,0-7.611-1.369-9.665-5.195c-3.463-6.886-3.785-13.812-2.416-21.423c0.685-3.463,1.731-6.886,2.416-10.349
	c0.362-1.047,1.047-2.054,0.362-2.778c-1.369-1.731-0.362-3.101,0.685-4.47c0.363-0.362,0.685-1.047,1.047-1.369
	c4.47-5.88,7.933-5.518,12.443,0.362c0.686,1.047,1.369,2.054,2.055,2.416c5.879,3.785,7.248,10.026,7.932,16.591
	C202.597,30.434,202.233,31.803,202.233,33.535z M196.718,33.897c0.361-3.785,0-7.611-1.369-10.712
	c-1.369-3.463-3.786-6.201-6.564-8.617c-1.731-1.731-2.054-1.731-3.463,0.362c-5.195,9.302-6.886,19.007-3.785,29.355
	c0.685,2.779,2.416,4.833,5.194,5.518s5.194-1.047,6.886-3.101c1.047-1.048,1.732-2.054,2.054-3.464
	C196.032,39.776,197.401,36.635,196.718,33.897z"/>
<path d="M352.073,47.024c-0.363-9.664,0.362-19.328-1.732-28.671c-0.684-3.101,0-6.563-1.731-9.664
	c-1.047-1.731,0-3.101,2.416-3.785c5.195-2.054,10.712-2.778,16.229-3.101c1.369,0,2.778,0,4.147-0.362
	c2.779-1.048,5.518,0.685,8.296,0c1.369-0.363,2.778,1.369,3.101,2.778c0.362,0.685,0.362,1.731-0.362,1.731
	c-3.101,1.369-5.195,4.147-9.303,3.101c-4.832-1.047-9.664,0.362-14.858,0.685c-1.731,0-2.416,1.047-2.054,2.778
	c0.362,2.778,1.369,5.194,1.369,7.933c0,1.731,1.047,2.416,2.778,2.416c2.054,0,3.785-0.685,5.517-1.731
	c2.416-1.369,4.832-1.731,7.248-0.362c1.369,1.047,2.417,2.054,1.732,4.147c-1.048,2.417-2.779,4.148-4.833,3.464
	c-3.463-1.047-6.563,0.362-9.664,1.047c-2.054,0.362-2.416,1.369-2.054,3.101c0.362,4.832,0.685,9.664,1.369,14.134
	c0,1.369,0.362,2.416,0,3.785c-0.362,1.731-1.047,3.464-3.463,3.464c-2.054,0.362-3.101-0.363-3.785-2.779
	C352.395,50.125,351.389,48.715,352.073,47.024z"/>
<path d="M6.852,48.393C6.489,38.729,7.214,29.065,5.12,19.722c-0.685-3.101,0-6.563-1.731-9.664c-0.685-1.731,0-3.101,2.416-4.147
	c5.195-1.732,10.711-2.417,16.229-3.102c1.369,0,2.778,0,4.147-0.362c2.779-1.047,5.517,0.685,8.295,0
	c1.369-0.362,2.778,1.369,3.101,2.779c0.362,0.685,0.362,1.731-0.362,1.731c-2.779,1.369-5.195,4.147-8.98,3.463
	c-4.832-1.369-10.027,0.362-14.859,0.362c-1.731,0-2.416,1.369-2.054,3.101c0.362,2.416,1.369,5.194,1.369,7.933
	c0,1.731,1.047,2.416,2.778,2.416c2.054,0,3.785-0.685,5.517-1.731c2.416-1.369,4.832-1.731,7.248-0.362
	c1.731,1.047,2.779,2.054,1.731,4.147c-1.047,2.417-2.778,4.148-4.832,3.464c-3.463-1.047-6.564,0.362-9.665,1.047
	c-2.054,0.362-2.416,1.369-2.054,3.101c0.362,4.832,0.685,9.664,1.369,14.134c0,1.369,0.362,2.416,0,3.785
	c-0.362,1.731-1.047,3.464-3.463,3.464c-2.054,0.362-3.101-0.363-3.785-2.779C7.173,51.172,6.126,49.762,6.852,48.393z"/>
<path d="M206.382,48.393c-0.363-9.664,0.362-19.328-1.732-28.671c-0.684-3.101,0-6.563-1.73-9.664c-1.047-1.731,0-3.101,2.416-3.785
	c5.194-2.054,10.711-2.779,16.229-3.101c1.369,0,2.777,0,4.146-0.363c2.779-1.047,5.518,0.685,8.296,0
	c1.369-0.362,2.778,1.369,3.101,2.779c0.362,0.685,0.362,1.731-0.362,1.731c-3.101,1.369-5.194,4.147-9.302,3.101
	c-4.832-1.047-9.665,0.362-14.859,0.685c-1.731,0-2.416,1.047-2.054,2.778c0.362,2.778,1.369,5.194,1.369,7.933
	c0,1.731,1.369,2.416,3.101,2.416c2.054,0,3.785-0.685,5.517-1.731c2.417-1.369,4.833-1.731,7.249-0.362
	c1.369,1.047,2.416,2.054,1.73,4.147c-1.047,2.417-2.777,4.148-4.832,3.464c-3.463-1.047-6.563,0.362-9.664,1.047
	c-2.054,0.362-2.416,1.369-2.054,3.101c0.362,4.832,0.685,9.664,1.369,14.134c0,1.369,0.362,2.416,0,3.785
	c-0.362,1.731-1.047,3.464-3.463,3.464c-2.054,0.362-3.101-0.363-3.785-2.779C206.382,51.172,205.335,49.762,206.382,48.393z"/>
<path d="M268.516,1.078c2.778-0.362,5.517,0.685,7.933,2.779c0.686,0.685,1.369,1.369,1.369,2.416
	c0.363,1.369,0.363,2.778-1.047,3.785c-1.731,0.685-2.778,0-3.785-1.369c-2.778-3.785-6.886-3.463-9.302,0.362
	c-1.047,1.731-1.731,3.463-1.731,5.517c0,2.778,0.685,3.785,3.101,4.832c3.101,1.047,5.88,3.101,8.618,4.47
	c6.563,3.464,9.664,8.98,10.026,15.866c0.362,3.785-2.054,6.886-4.833,9.302c-2.777,2.416-6.562,4.147-9.664,6.201
	c-2.416,1.369-5.194,1.369-7.933,1.369c-1.731,0-3.101-1.369-3.785-2.778c-0.685-1.369-0.362-2.778,0.685-3.785
	c1.369-1.047,2.054,0,3.101,0.685c1.047,1.047,2.054,1.047,3.463,0.362c3.101-1.731,6.563-3.101,9.302-5.517
	c5.195-4.47,3.463-13.449-2.416-16.229c-3.463-1.731-6.886-3.785-10.349-5.517c-4.833-2.416-6.563-7.248-4.833-12.765
	c0.363-1.369,1.048-2.779,1.732-4.148C260.221,3.172,263.684,0.756,268.516,1.078z"/>
<path d="M134.905,38.044c2.416,2.416,3.463,6.201,7.248,7.248c1.047,0.362,2.054,2.054,3.101,3.464
	c0.685,1.047,0.363,2.416-0.362,3.101c-1.047,1.047-1.731,2.416-3.463,1.731c-2.054-0.685-3.785-1.731-5.195-3.463
	c-1.731-2.054-3.785-3.786-5.195-6.202c-0.685-1.047-1.369-2.054-3.463-2.054c0.362,3.101,0.685,5.88,1.047,8.618
	c0,0.685,0.362,1.731,0.362,2.416c0,1.731-1.731,3.785-3.101,3.785c-1.047,0-3.463-1.731-3.463-3.101
	c-0.362-3.463-0.685-6.886-0.362-10.35c0-8.617,1.369-16.912-1.047-25.53c-1.047-3.463,0.685-6.563,4.833-7.933
	c5.517-2.054,11.034-1.731,16.59-0.685c2.417,0.362,3.786,2.778,4.148,5.194c0.685,3.786-0.362,7.611-1.731,11.396
	c-1.732,4.147-4.148,8.295-8.295,10.349C136.274,35.951,135.59,36.635,134.905,38.044z M135.952,13.883
	c-5.195-0.362-7.611,1.047-7.249,7.933c0,2.416,0.362,4.833,0,7.249c-0.362,1.047-0.362,2.416,0.685,3.463
	c1.369,1.047,2.416,0.362,3.785-0.362c4.833-2.778,7.249-7.249,7.933-12.443C142.516,13.883,140.422,13.521,135.952,13.883z"/>
</svg>
