<?xml version="1.0" encoding="utf-8"?>
<!-- Generator: Adobe Illustrator 15.0.0, SVG Export Plug-In . SVG Version: 6.00 Build 0)  -->
<!DOCTYPE svg PUBLIC "-//W3C//DTD SVG 1.1//EN" "http://www.w3.org/Graphics/SVG/1.1/DTD/svg11.dtd">
<svg version="1.1" id="Layer_1" xmlns="http://www.w3.org/2000/svg" xmlns:xlink="http://www.w3.org/1999/xlink" x="0px" y="0px"
	 width="600px" height="200px" viewBox="0 0 600 200" enable-background="new 0 0 600 200" xml:space="preserve">
<path d="M272.616,59.676c-1.369,0-2.779,0.685-4.47,0c-5.88-2.416-6.202-2.054-7.249-8.295c-0.361-2.054-0.684-4.147-0.684-6.201
	c0-2.417-2.055-3.786-2.779-5.88c-0.684-2.054,1.732-3.785,1.369-6.201c-1.047-5.194-1.369-10.349-2.053-15.544
	c-0.363-3.785-0.363-3.785,3.1-5.879c3.463-2.054,7.249-2.416,11.034-2.416c2.778,0,5.879,0,8.617,0
	c2.054,0,3.101,1.369,3.101,3.101c0,1.369-1.369,2.416-3.463,1.731c-4.147-1.047-8.295-0.685-12.443-0.362
	c-3.785,0.685-4.146,1.369-3.785,5.194c0.363,3.785,1.732,7.611,1.047,11.396c0,0.685,0.363,1.731,0.363,2.416
	c0.361,1.047,1.047,1.731,2.053,1.047c4.148-2.054,9.303-1.369,13.45-3.101c1.369-0.685,2.778,1.369,2.054,2.778
	c-0.685,1.047-1.731,2.416-2.416,2.416c-2.779,0-4.832,2.416-7.934,2.054h-0.361c-5.195,0.685-6.201,1.731-5.195,6.886
	c1.369,6.564,2.416,7.611,9.303,7.249c2.416,0,4.469-0.362,6.201-1.369c2.053-1.047,4.47-1.369,6.886-0.685
	c1.047,0.362,2.054,1.047,1.047,2.416c-1.369,2.054-3.101,4.147-5.517,4.47C280.548,58.307,276.763,60.36,272.616,59.676z"/>
<path d="M98.616,33.783c0.362-5.879,1.047-11.396-1.047-17.275c-1.369-3.463,0-7.248,1.369-10.711
	c0.362-1.047,4.147-2.416,5.194-2.054c1.731,0.362,2.779,2.054,1.731,3.785c-2.053,2.054-1.731,4.47-1.369,7.248
	c0.363,3.101,0.685,6.563,0.685,10.027c0.363,8.295,1.047,16.228,3.786,23.839c0.362,1.047,0.685,2.416-0.363,3.463
	c-1.047,1.047-2.054,2.778-3.785,2.054c-1.731-0.685-3.463-1.369-4.47-3.463c-3.101-7.611-8.295-14.135-13.127-20.698h-0.362
	c-1.047,0.685-0.685,1.731-0.685,2.416c0,4.147-1.731,8.295-0.363,12.766c0.363,0.685,0,1.369-0.362,2.054
	c-1.047,2.778-1.731,5.194-1.731,7.933c0,2.054-1.731,2.778-3.101,3.463c-2.054,0.685-4.147-1.369-3.785-4.147
	c0.685-4.147,1.731-8.296,2.778-12.443c1.369-7.61,2.054-15.181,0.685-22.792c-0.685-3.785,1.731-6.563,4.833-5.517
	c1.047,0.362,2.053,1.047,2.416,2.416c0.685,3.785,2.778,7.248,5.194,10.027C94.831,28.629,96.562,31.367,98.616,33.783z"/>
<path d="M133.851,33.783c0.362-5.879,1.047-11.396-1.047-17.275c-1.369-3.463,0-7.248,1.369-10.711
	c0.362-1.047,4.147-2.416,5.194-2.054c1.732,0.362,2.779,2.054,1.732,3.785c-1.732,2.416-1.369,4.832-1.047,7.61
	c0.363,3.101,0.685,6.564,0.685,10.027c0.363,8.295,1.047,16.228,3.786,23.839c0.362,1.047,0.685,2.416-0.363,3.463
	c-1.047,1.047-2.054,2.778-3.785,2.054s-3.463-1.369-4.47-3.463c-3.101-7.611-8.295-14.135-13.127-20.698h-0.362
	c-1.047,0-0.685,1.047-0.685,2.054c0,4.147-1.732,8.295-0.363,12.765c0.363,0.686,0,1.369-0.362,2.054
	c-1.047,2.779-1.731,5.195-1.731,7.934c0,2.054-1.731,2.778-3.101,3.463c-2.054,0.685-4.148-1.369-3.785-4.147
	c0.685-4.147,1.731-8.296,2.778-12.443c1.369-7.61,2.054-15.181,0.685-22.792c-0.685-3.785,1.731-6.563,4.832-5.517
	c1.047,0.362,2.054,1.047,2.417,2.416c0.685,3.785,2.778,7.248,5.194,10.027C130.025,28.629,132.119,31.367,133.851,33.783z"/>
<path d="M188.052,56.938c0.363,1.369-0.362,2.416-1.369,2.778c-1.731,0.685-3.463,0.362-4.47-1.047
	c-1.369-1.369-2.416-2.778-2.054-4.832c0.363-2.416-0.685-4.47-1.369-6.886c-1.047-3.785-3.101-5.194-6.886-4.832
	c-3.463,0.362-6.886,1.047-10.711,1.047c-2.054,0-2.416,2.054-2.416,3.101c-0.685,3.101-1.731,5.879-3.101,8.617
	c-0.685,1.369-1.369,2.778-2.417,3.785c-1.047,1.047-2.778,1.369-4.147,0.685s-1.731-3.101-0.685-4.47
	c5.879-8.617,7.249-18.645,9.665-28.671c1.047-5.194,3.101-10.027,4.832-14.859c1.369-3.463,4.148-3.463,7.249-0.362
	c2.778,2.778,3.463,6.563,4.47,10.027c1.731,5.879,3.785,11.033,6.563,16.59c2.054,3.785,4.148,7.934,4.833,12.443
	C186.32,52.428,188.374,54.521,188.052,56.938z M166.629,22.065c-1.047,0.362-1.369,1.047-1.731,1.731
	c-2.054,4.147-2.054,8.617-3.463,13.127c-0.362,1.047,0.362,1.731,1.731,1.731c2.778-0.362,5.195-0.362,7.611-1.369
	c1.369-0.685,2.416-1.731,1.369-3.101c-1.731-2.778-2.054-5.517-2.779-8.295C169.045,24.481,168.361,22.75,166.629,22.065z"/>
<path d="M357.541,42.078c2.055,3.786,1.047,7.611,0.686,11.396c0,1.047-0.363,2.054-1.047,3.101
	c-1.047,1.369-2.416,1.731-3.785,1.047s-2.055-1.369-2.055-3.101c0.363-2.778,0.363-5.879,0.363-8.617s-0.363-5.195-1.369-7.611
	c-1.369-3.785-1.047-7.933-2.779-11.718c-0.684-1.731-1.047-3.785-2.053-5.517c-1.369-3.101-1.047-5.195,0.684-5.88
	c2.055-0.685,3.463,0.363,4.832,3.102c1.047,2.778,2.416,5.194,2.779,8.295c0,0.685,0.363,1.369,1.047,2.054
	c1.369,0.362,2.416-0.685,3.102-1.731c3.463-4.147,7.609-7.611,10.025-12.443c0.363-0.685,0.686-1.369,1.369-2.054
	c1.047-0.685,2.055-1.047,3.102-0.362c0.684,0.362,1.047,1.369,0.684,2.054c-0.361,1.731-0.361,3.463-1.73,4.47
	c-2.779,3.463-5.195,7.249-8.617,10.027c-0.686,0.362-1.047,1.047-1.369,1.369c-2.416,3.463-2.055,4.147,1.73,6.201
	c3.102,1.731,6.564,3.101,8.617,6.201c2.055,2.778,4.471,5.879,6.564,8.979c1.047,1.369,0.363,4.471-1.047,5.518
	c-1.369,1.047-3.102,1.047-4.471,0c-1.73-1.047-2.416-2.416-3.463-4.47c-2.053-4.47-5.193-7.934-9.301-10.35
	C359.957,41.716,359.273,41.394,357.541,42.078z"/>
<path d="M345.1,37.931c0.684,5.517-1.732,10.712-4.148,15.866c-2.053,4.147-5.879,5.879-10.711,5.879
	c-4.148,0-7.611-1.369-9.664-5.194c-3.465-6.886-3.785-13.812-2.416-21.423c0.684-3.463,1.73-6.886,2.416-10.35
	c0.361-1.047,1.047-2.054,0.361-2.778c-1.369-1.731-0.361-3.101,0.686-4.47c0-0.685,0.361-1.047,0.684-1.369
	c4.832-5.879,8.295-5.517,12.766,0.362c0.684,1.047,1.369,2.054,2.053,2.416c5.879,3.785,7.248,10.027,7.934,16.591
	C345.461,34.83,345.1,36.199,345.1,37.931z M339.582,38.293c0.363-3.785,0-7.61-1.369-10.711c-1.369-3.463-3.785-6.201-6.564-8.617
	c-1.73-1.731-2.053-1.731-3.463,0.362c-5.193,9.302-6.885,19.007-3.785,29.355c0.686,2.778,2.416,4.832,5.195,5.517
	s5.195-1.047,6.885-3.101c1.049-1.047,1.732-2.054,2.055-3.463C338.898,44.132,340.268,41.031,339.582,38.293z"/>
<path d="M72.723,37.931c0.685,5.517-1.731,10.712-4.148,15.866c-2.054,3.785-5.879,5.879-10.711,5.879
	c-4.147,0-7.61-1.369-9.664-5.194c-3.463-6.886-3.785-13.812-2.416-21.423c0.685-3.463,1.731-6.886,2.416-10.35
	c0-1.047,1.047-2.054,0.362-3.101c-1.369-1.731-0.362-3.101,0.685-4.47c0-0.362,0.362-0.685,0.685-1.047
	c4.832-5.879,8.295-5.517,12.765,0.362c0.685,1.047,1.369,2.054,2.054,2.416c5.879,3.785,7.248,10.027,7.933,16.591
	C73.085,34.83,72.723,36.199,72.723,37.931z M67.206,38.293c0.363-3.785,0-7.61-1.369-10.711c-1.369-3.463-3.785-6.201-6.563-8.617
	c-1.731-1.731-2.054-1.731-3.463,0.362c-5.194,9.302-6.886,19.007-3.785,29.355c0.685,2.778,2.417,4.832,5.195,5.517
	s5.195-1.047,6.886-3.101c1.047-1.047,1.731-2.054,2.054-3.463C66.521,44.132,67.891,41.031,67.206,38.293z"/>
<path d="M25.77,10.669c2.778,0,5.195,0.685,6.886,2.778c1.369,1.732,1.047,3.786-1.369,4.47c-0.685,0.363-2.054,0.685-3.463,0.685
	c-7.611-0.685-12.081,3.464-15.866,8.98c-1.731,2.778-3.101,6.201-4.148,9.302c-1.369,4.47,0,8.617,2.054,12.443
	c0.363,0.685,0.685,1.047,1.369,1.369c3.463,0.362,6.564,1.731,10.027,0.685c2.417-0.685,4.47-2.054,4.833-3.463
	c0-1.369-2.779-3.786-4.833-4.148s-3.785-1.047-5.194-2.778c-0.685-1.047-0.685-2.054,0.362-3.101
	c5.195-3.785,10.349-7.248,16.913-7.933c4.833-0.685,6.886,2.778,5.195,6.886c-1.047,2.778-1.047,5.517-1.047,8.295
	s-0.363,5.88-1.369,8.618c-0.362,1.369-1.731,2.054-3.101,1.731c-2.417-0.685-3.786,0.685-5.879,1.369
	c-6.564,2.416-12.765,2.416-19.007-1.369c-4.47-2.779-6.201-7.611-6.886-12.081c-0.685-4.147,0-8.617,2.778-12.442
	c3.101-4.47,4.833-10.027,8.618-14.135C16.105,13.407,20.616,11.676,25.77,10.669z"/>
<path d="M240.159,26.535c1.047,1.047,2.416,1.047,3.464,1.047c2.054,0,4.47,0,5.517,1.731c1.731,2.416,3.463,5.194,3.463,8.617
	c-0.362,6.564-3.463,11.034-8.617,14.497c-2.416,1.731-5.518,3.101-7.934,5.194c-2.416,1.731-5.879,1.047-8.617,1.047
	c-1.731,0-2.053-1.731-2.053-3.101c0.361-8.617-2.055-16.591-2.416-25.208c-0.363-6.563-0.363-12.765-2.417-19.329
	c-0.685-2.054,0.685-4.47,2.778-5.194c2.779-0.685,4.832-2.416,7.611-3.463c4.832-2.054,9.664-2.416,14.134,0.685
	c2.778,1.731,3.464,4.47,3.101,7.61c-0.362,4.47-2.416,8.296-5.517,11.719C241.528,23.797,240.522,25.166,240.159,26.535z
	 M239.836,32.736c-2.777,0.362-5.193,0.362-7.932,1.731c-1.732,1.047-2.416,2.054-2.055,3.785c0.363,3.785,1.369,7.611,2.055,11.396
	c0.361,2.054,1.369,2.054,3.463,1.369c4.832-1.732,7.61-5.518,10.026-9.665C247.77,36.884,244.992,32.736,239.836,32.736z
	 M228.763,28.951c2.416-2.054,4.47-3.785,6.202-5.879c3.1-3.464,5.516-7.249,6.562-11.719c0.363-2.054-0.361-3.101-2.053-3.785
	c-2.779-1.047-10.35,1.369-12.081,3.785c-0.362,0.362-0.685,1.047-0.685,1.369C227.394,17.917,228.079,23.435,228.763,28.951z"/>
</svg>
