<?xml version="1.0" encoding="utf-8"?>
<!-- Generator: Adobe Illustrator 15.0.0, SVG Export Plug-In . SVG Version: 6.00 Build 0)  -->
<!DOCTYPE svg PUBLIC "-//W3C//DTD SVG 1.1//EN" "http://www.w3.org/Graphics/SVG/1.1/DTD/svg11.dtd">
<svg version="1.1" id="Layer_1" xmlns="http://www.w3.org/2000/svg" xmlns:xlink="http://www.w3.org/1999/xlink" x="0px" y="0px"
	 width="600px" height="200px" viewBox="0 0 600 200" enable-background="new 0 0 600 200" xml:space="preserve">
<path d="M198.383,34.687c0.363-5.88,1.047-11.396-1.047-17.275c-1.369-3.463,0-7.248,1.369-10.711
	c0.363-1.048,4.148-2.417,5.195-2.054c1.73,0.362,2.778,2.054,1.73,3.785c-1.73,2.416-1.369,4.832-1.047,7.61
	s0.363,6.201,0.363,9.302c0.362,8.296,1.047,16.229,3.785,23.839c0.362,1.047,0.685,2.416-0.363,3.464
	c-1.047,1.047-2.053,2.778-3.785,2.053c-1.73-0.684-3.463-1.369-4.469-3.463c-3.102-7.61-8.296-14.134-13.128-20.697h-0.362
	c-1.047,0.685-0.685,1.731-0.685,2.416c0,4.147-1.731,8.295-0.362,12.765c0.362,0.685,0,1.369-0.363,2.054
	c-0.361,2.778-1.046,5.517-1.046,8.295c0,2.054-1.731,2.779-3.101,3.464c-2.054,0.685-4.148-1.369-3.785-4.148
	c0.685-4.147,1.731-8.295,2.778-12.442c1.369-7.611,2.054-15.182,0.685-22.792c-0.685-3.785,1.731-6.563,4.833-5.517
	c1.047,0.362,2.053,1.047,2.416,2.416c0.685,3.785,2.778,7.248,5.194,10.026C194.598,29.532,196.652,32.271,198.383,34.687z"/>
<path d="M79.269,37.787c0.685,5.517-1.731,10.711-4.147,15.865c-2.054,4.148-5.879,5.88-10.711,5.88
	c-4.148,0-7.611-1.369-9.665-5.195c-3.463-6.886-3.785-13.812-2.416-21.423c0.685-3.463,1.731-6.886,2.416-10.349
	c0.362-1.047,1.047-2.054,0.362-2.778c-1.369-1.731-0.362-3.101,0.685-4.47c0.362-0.362,0.685-1.047,1.047-1.369
	c4.833-5.88,8.295-5.517,12.765,0.362c0.685,1.047,1.369,2.054,2.054,2.416c5.879,3.785,7.249,10.026,7.933,16.591
	C79.269,34.687,79.269,36.096,79.269,37.787z M73.43,38.149c0.362-3.785,0-7.61-1.369-10.712c-1.369-3.463-3.785-6.201-6.564-8.617
	c-1.731-1.731-2.054-1.731-3.463,0.362c-5.195,9.303-6.886,19.007-3.785,29.356c0.685,2.778,2.416,4.832,5.194,5.517
	c2.779,0.685,5.195-1.047,6.886-3.101c1.047-1.047,1.731-2.054,2.054-3.463C73.068,44.028,74.115,40.928,73.43,38.149z"/>
<path d="M238.088,12.619c2.778,0,5.195,0.685,6.886,2.778c1.369,1.731,1.047,3.785-1.369,4.47c-1.047,0.362-2.416,0.685-3.785,0.362
	c-7.61-0.685-12.081,3.464-15.866,8.98c-1.73,2.778-3.1,6.201-4.146,9.302c-1.369,4.47,0,8.617,2.053,12.443
	c0.363,0.685,0.686,1.047,1.369,1.369c3.463,0.362,6.564,1.731,10.027,0.685c2.416-0.685,4.47-2.054,4.832-3.464
	c0-1.369-2.778-3.785-4.832-4.147s-3.785-1.047-5.195-2.778c-0.684-1.047-0.684-2.054,0.363-3.101
	c4.832-4.147,10.026-7.61,16.228-8.295c4.833-0.685,6.886,2.778,5.194,6.886c-1.047,2.778-1.047,5.517-1.047,8.295
	s-0.361,5.879-1.369,8.617c-0.361,1.369-1.73,2.054-3.1,1.732c-2.416-0.686-3.785,0.684-5.88,1.369
	c-6.563,2.416-12.765,2.416-19.007-1.369c-4.47-2.779-6.201-7.611-6.886-12.081c-0.685-4.147,0-8.617,2.778-12.443
	c3.102-4.47,4.832-10.026,8.617-14.134C228.424,15.357,232.893,13.626,238.088,12.619z"/>
<path d="M352.008,55.425c0.362,1.369-0.363,2.416-1.369,2.778c-1.732,0.685-3.464,0.362-4.471-1.047
	c-1.369-1.369-2.416-2.778-2.053-4.832c0.362-2.416-0.685-4.47-1.369-6.886c-1.048-3.786-3.102-5.195-6.887-4.833
	c-3.463,0.362-6.886,1.047-10.711,1.047c-2.054,0-2.416,2.054-2.416,3.102c-0.685,3.101-1.731,5.879-3.101,8.617
	c-0.685,1.369-1.369,2.778-2.416,3.785c-1.047,1.047-2.779,1.369-4.148,0.685c-1.369-0.362-1.731-2.416-1.047-3.785
	c5.88-8.617,7.249-18.645,9.665-28.671c1.047-5.195,3.101-10.027,4.832-14.859c1.731-4.147,4.47-4.147,7.61-1.047
	c2.778,2.778,3.463,6.563,4.47,10.026c1.731,5.88,3.785,11.034,6.564,16.591c2.054,3.785,4.147,7.933,4.832,12.443
	C350.275,50.593,352.37,52.646,352.008,55.425z M330.625,20.189c-1.047,0.362-1.369,1.047-1.731,1.731
	c-2.054,4.147-2.054,8.618-3.464,13.128c-0.362,1.047,0.363,1.731,1.732,1.731c2.778-0.362,5.194-0.362,7.61-1.369
	c1.369-1.047,2.054-2.054,1.369-3.463c-1.369-2.416-1.731-5.195-2.778-7.611C333.041,22.605,332.316,20.874,330.625,20.189z"/>
<path d="M386.518,35.733c0,0.362,0.362,1.369,0,2.054c-1.047,3.785-2.416,7.61-3.463,11.396c-0.363,1.369-1.047,2.416-2.416,2.779
	c-5.195,2.416-9.665,5.879-15.544,6.563s-9.665-2.054-8.617-7.611c1.369-6.886,0-13.812,0-20.697c0-5.195,0.362-10.027-0.685-15.182
	c-0.363-1.731,1.047-3.785,2.054-5.517c0.685-1.047,2.054-1.369,3.463-1.369c16.912,1.369,24.523,12.08,25.208,26.255
	C386.518,34.687,386.518,35.049,386.518,35.733z M362.719,39.519c0,2.054-0.362,4.47,1.047,6.201
	c1.047,1.047,1.731,2.416,1.731,4.147c0.362,1.731,1.731,2.416,2.778,1.047c1.048-1.369,2.417-1.731,3.786-1.731
	c1.047,0,2.054-0.362,2.416-1.047c1.047-2.054,3.101-3.785,3.785-6.201c1.047-4.832,1.731-9.302,0-14.134
	c-2.416-6.202-6.564-11.034-13.812-12.081c-2.416-0.362-2.416,0-2.416,2.416C362.719,25.021,362.034,32.271,362.719,39.519z"/>
<path d="M299.175,26.753c1.047,1.048,2.416,1.048,3.464,1.048c2.054,0,4.47,0,5.517,1.731c1.731,2.416,3.463,5.194,3.463,8.617
	c-0.362,6.563-3.463,11.033-8.617,14.497c-2.416,1.731-5.518,3.101-7.934,5.194c-2.416,1.731-5.879,1.047-8.617,1.047
	c-1.731,0-2.054-1.731-2.054-3.101c0.362-8.617-2.054-16.591-2.416-25.208c-0.362-6.563-0.362-12.766-2.416-19.329
	c-0.685-2.054,0.685-4.47,2.778-5.194c2.778-0.685,4.832-2.416,7.611-3.463c4.832-2.054,9.664-2.417,14.134,0.685
	c2.778,1.731,3.463,4.47,3.101,7.61c-0.685,4.832-2.778,8.617-5.517,12.08C300.585,24.016,299.537,25.384,299.175,26.753z
	 M298.853,32.955c-2.778,0.362-5.194,0.362-7.933,1.731c-1.731,1.047-2.416,2.054-2.054,3.785c0.362,3.785,1.369,7.61,2.054,11.396
	c0.362,2.054,1.369,2.054,3.463,1.369c4.833-1.731,7.611-5.517,10.027-9.664C306.786,37.103,304.008,32.955,298.853,32.955z
	 M287.457,29.17c2.416-2.054,4.47-3.786,6.201-5.88c3.101-3.463,5.517-7.248,6.563-11.718c0.363-2.054-0.362-3.101-2.054-3.785
	c-2.778-1.047-10.349,1.369-12.08,3.785c-0.362,0.362-0.685,1.047-0.685,1.369C286.41,18.136,287.095,23.652,287.457,29.17z"/>
<path d="M38.195,44.028c-1.731-8.295-0.685-16.591-1.047-24.523c0-1.731-0.685-3.101-1.047-4.832
	c-0.363-1.731,0.362-3.101,2.053-3.463c1.369-0.362,3.101,0.362,3.786,2.054c0.362,0.685,0.685,1.731,0.685,2.416
	c0.685,5.194,0.685,10.026,0.685,15.181c0,5.88,0.362,11.719,2.416,17.598c0.685,1.731,0,3.101,0,4.832
	c-0.362,2.054-2.054,2.778-3.463,2.778c-2.054,0-4.147-0.362-5.879-1.731s-3.463-2.054-3.785-4.47
	c-0.363-2.054-1.732-3.463-3.101-4.832c-6.201-6.563-12.443-13.127-18.644-20.014c-0.685,0-1.369-0.685-2.416-0.362
	c-0.685,1.731-0.685,3.785-0.362,5.88c0.685,6.563,1.047,12.765,1.369,19.328c0,1.369,0.685,3.101,0.685,4.47
	c0.363,2.416-1.047,4.47-3.101,4.47c-2.416,0.363-5.194-2.416-4.47-4.47c1.047-3.101,0.685-5.879,0.362-8.979
	C2.558,34.646,1.873,24.297,2.235,13.586c0-1.369,0-3.101,1.732-3.464c1.731-0.362,3.463,0.363,3.785,1.732
	c2.054,5.194,6.563,8.295,10.027,12.442c5.194,6.201,11.033,11.719,17.275,17.275C36.142,41.935,36.142,43.666,38.195,44.028z"/>
<path d="M165.604,28.122c0.363,4.833,0,10.027,1.047,15.182c0.685,3.463,2.416,6.886,4.47,10.027
	c1.369,2.416,0.685,3.785-2.054,5.517c-2.054,1.047-3.101,0.685-4.47-1.731c-1.732-3.101-2.054-6.887-3.101-10.35
	c-1.369-4.147-1.731-8.979-1.369-13.449c0.363-4.832,0-9.665-1.047-14.135c0-0.685-0.362-1.047-0.362-1.731
	c-0.362-2.054,1.047-3.101,2.416-3.785c1.731-0.685,2.779,1.047,3.101,2.416C165.604,19.867,165.604,24.016,165.604,28.122z"/>
<path d="M111.041,13.988c1.369,0,2.778-0.362,3.785-0.362c1.731,0,3.101,0.685,3.785,2.416s1.731,3.463,0,5.194
	c-1.369,1.369-3.101,0.685-4.47,0c-3.463-1.731-7.249-1.047-10.711-1.369c-2.416,0-3.463,1.369-3.101,3.785
	c1.369,6.887,2.416,13.45,4.147,20.376c0.685,2.778,1.731,5.195,4.47,6.564c2.054,1.047,2.054,5.194,0.685,7.248
	c-1.369,1.731-3.785,2.416-5.879,1.369c-0.362-0.362-1.047-0.685-1.369-1.047c-1.047-3.785-3.463-6.564-4.148-10.712
	c-1.047-7.61-2.416-14.858-3.785-22.43c-0.362-2.778-1.369-3.463-4.147-2.778c-2.416,0.362-4.47,1.047-6.886,1.369
	c-0.685,0-1.047,0.362-1.732,0.362c-1.369,0-2.778,0-3.101-1.369c-0.362-1.369,0.362-2.778,2.054-3.101
	c2.054-0.685,3.785-1.369,5.879-1.731c6.563-1.369,13.127-2.416,19.329-3.463C108.262,13.626,109.672,13.626,111.041,13.988z"/>
<path d="M131.054,19.867c0,4.833,0,9.303,0,14.135c0,2.054,0.685,2.778,2.779,2.416c2.416-0.362,4.47-1.047,6.886-1.369
	c1.731-0.362,2.778-1.731,2.416-3.785c-0.685-5.517-1.369-11.034-3.101-16.229c-0.685-1.731-0.685-3.101,1.047-4.47
	s3.785-0.685,4.148,1.047c1.047,4.47,3.101,8.98,2.778,13.812c0,1.369,0,2.778,0.362,4.147c1.369,4.147,2.054,8.617,2.779,13.127
	c0.362,4.148,1.047,8.296,1.731,12.766c0.685,3.463,0.362,3.785-3.101,4.147c-3.101,0.362-5.195-1.369-4.833-3.785
	c0.363-2.054,0-4.147,0.363-6.201c0.362-2.054,0-4.47-0.363-6.563c0-1.369-1.047-2.054-2.054-1.732
	c-2.778,0.685-5.517,0.685-8.295,1.048c-2.779,0.362-3.101,1.047-2.779,3.785c0.362,3.101,1.731,6.201,1.369,9.664
	c-0.362,2.778-0.685,3.463-3.101,3.463s-3.101-0.685-3.101-3.101c-0.362-2.778-0.362-5.517-0.685-8.295c0-2.054,0-3.785-1.731-5.195
	c-1.047-1.047-1.369-2.778-0.363-3.785c2.779-4.147,2.054-8.295,1.732-12.765c-0.363-3.463,0-6.886-0.685-10.349
	c-0.363-1.048,0-2.054,0.685-2.779c0.685-1.369,1.731-1.731,3.101-1.731s2.416,1.047,2.416,2.416
	C131.054,15.357,131.054,17.773,131.054,19.867L131.054,19.867z"/>
</svg>
