<?xml version="1.0" encoding="utf-8"?>
<!-- Generator: Adobe Illustrator 15.0.0, SVG Export Plug-In . SVG Version: 6.00 Build 0)  -->
<!DOCTYPE svg PUBLIC "-//W3C//DTD SVG 1.1//EN" "http://www.w3.org/Graphics/SVG/1.1/DTD/svg11.dtd">
<svg version="1.1" id="Layer_1" xmlns="http://www.w3.org/2000/svg" xmlns:xlink="http://www.w3.org/1999/xlink" x="0px" y="0px"
	 width="600px" height="200px" viewBox="0 0 600 200" enable-background="new 0 0 600 200" xml:space="preserve">
<path d="M48.903,56.064c-2.778,0.685-5.879,0.362-9.302,0.685c-2.778,0.362-4.832-1.047-5.194-3.785
	c-0.362-8.979-3.463-17.96-3.463-26.939c0-6.201-1.731-12.08-2.778-18.282c0-1.047-0.362-2.054-0.362-2.778
	c0-2.054,1.047-2.778,2.778-3.101s2.054,0.685,2.416,2.416c0.685,4.147,1.369,8.296,2.054,12.766
	c1.047,9.664,3.101,19.007,4.47,28.309c0.685,4.147,1.047,4.47,5.517,4.147c1.369,0,2.778-0.362,4.147-0.685
	c1.369-0.362,2.416,0,3.463,0.685c1.369,0.685,2.416,2.054,2.778,3.785c0.362,1.047-2.778,2.778-4.47,3.101
	C50.634,56.386,49.95,56.064,48.903,56.064z"/>
<path d="M250.165,55.339c-2.778,0.685-5.879,0.362-9.303,0.685c-2.777,0.362-4.832-1.047-5.193-3.785
	c-0.363-8.979-3.464-17.96-3.464-26.939c0-6.201-1.731-12.081-2.778-18.282c0-1.047-0.362-2.054-0.362-2.778
	c0-2.054,1.047-2.778,2.778-3.101c1.369-0.362,2.054,0.685,2.416,2.416c0.685,4.147,1.369,8.295,2.054,12.765
	c1.047,9.665,3.101,19.007,4.47,28.31c0.685,4.147,1.047,4.47,5.518,4.147c1.369,0,2.777-0.362,4.146-0.685s2.416,0,3.464,0.685
	c1.369,0.685,2.416,2.054,2.778,3.785c0.362,1.047-2.778,2.778-4.47,3.101C251.574,55.702,251.211,55.339,250.165,55.339z"/>
<path d="M223.95,55.339c-2.778,0.685-5.879,0.362-9.302,0.685c-2.778,0.362-4.833-1.047-5.194-3.785
	c-0.363-8.979-3.463-17.96-3.463-26.939c0-6.201-1.732-12.081-2.779-18.282c0-1.047-0.362-2.054-0.362-2.778
	c0-2.054,1.047-2.778,2.778-3.101c1.732-0.362,2.416,0.685,2.779,2.416c0.684,4.147,1.369,8.295,2.053,12.765
	c1.047,9.665,3.102,19.007,4.471,28.31c0.684,4.147,1.047,4.47,5.516,4.147c1.369,0,2.779-0.362,4.148-0.685s2.416,0,3.463,0.685
	c1.369,0.685,2.416,2.054,2.778,3.785c0.362,1.047-2.778,2.778-4.47,3.101C225.681,55.702,224.997,55.339,223.95,55.339z"/>
<path d="M84.822,35.688c0.685,5.518-1.731,10.712-4.147,15.866c-2.054,4.147-5.879,5.879-10.711,5.879
	c-4.148,0-7.611-1.369-9.665-5.194c-3.463-6.886-3.785-13.812-2.416-21.423c0.685-3.463,1.731-6.886,2.416-10.349
	c0.362-1.047,1.047-2.054,0.362-2.779c-1.369-1.731-0.362-3.101,0.685-4.47c0.362-0.362,0.685-1.047,1.047-1.369
	c4.833-5.879,8.295-5.517,12.765,0.362c0.685,1.048,1.369,2.054,2.054,2.417c5.879,3.785,7.249,10.026,7.933,16.59
	C84.822,32.225,84.822,33.594,84.822,35.688z M78.943,35.688c0.363-3.785,0-7.61-1.369-10.711c-1.369-3.463-3.785-6.201-6.563-8.617
	c-1.731-1.731-2.054-1.731-3.463,0.362c-5.194,9.302-6.886,19.007-3.785,29.355c0.685,2.778,2.416,4.832,5.195,5.517
	c2.778,0.685,5.194-1.047,6.886-3.101c1.047-1.047,1.731-2.054,2.054-3.463C78.621,41.528,79.627,38.79,78.943,35.688z"/>
<path d="M195.641,25.662c0.362,4.832,0,10.026,1.047,15.182c0.685,3.463,2.416,6.886,4.47,10.026
	c1.369,2.416,0.685,3.785-2.054,5.517c-2.054,1.047-3.101,0.685-4.47-1.731c-1.731-3.101-2.054-6.886-3.101-10.349
	c-1.369-4.47-1.369-8.98-1.369-13.45c0.362-4.832,0-9.664-1.047-14.134c0-0.685-0.362-1.047-0.362-1.731
	c-0.363-2.054,1.047-3.101,2.416-3.785c1.731-0.685,2.778,1.047,3.101,2.416C195.279,17.367,195.641,21.192,195.641,25.662z"/>
<path d="M12.339,1.863c2.779-0.362,5.517,0.685,7.933,2.778c0.685,0.685,1.369,1.369,1.369,2.416c0,1.048,0.362,2.779-1.047,3.464
	c-1.732,0.685-2.779,0-3.785-1.369C14.03,5.367,9.923,5.688,7.507,9.514c-1.047,1.731-1.731,3.463-1.731,5.517
	c-0.362,2.416,0.362,3.785,2.778,4.47c3.101,1.369,5.879,3.101,8.98,4.47c6.564,3.463,9.665,8.979,10.027,15.866
	c0.362,3.785-2.054,6.886-4.832,9.302c-2.779,2.778-6.202,4.147-9.665,6.201c-2.416,1.369-5.195,1.369-7.933,1.369
	c-1.731,0-3.101-1.369-3.785-2.778c-0.685-1.369-0.362-2.778,0.685-3.785c1.369-1.047,2.054,0,3.101,0.685
	c1.047,1.047,2.054,1.047,3.463,0.362c3.101-1.731,6.563-3.101,9.302-5.517c5.195-4.47,3.463-13.45-2.416-16.229
	c-3.463-1.731-6.886-3.785-10.349-5.517c-4.47-2.054-6.201-6.886-4.47-12.081C1.023,10.48,1.346,9.071,2.03,7.702
	C4.366,3.554,7.507,1.5,12.339,1.863z"/>
<path d="M269.171,1.863c2.778-0.362,5.517,0.685,7.933,2.778c0.685,0.685,1.369,1.369,1.369,2.416
	c0.362,1.369,0.362,2.779-1.047,3.786c-1.731,0.685-2.778,0-3.785-1.369c-2.779-3.786-6.886-3.464-9.303,0.362
	c-1.047,1.731-1.73,3.463-1.73,5.517c0,2.778,0.684,3.785,3.1,4.832c3.102,1.047,5.88,3.101,8.618,4.47
	c6.563,3.463,9.665,8.979,10.026,15.866c0.363,3.785-2.053,6.886-4.832,9.302c-2.778,2.416-6.563,4.147-9.664,6.201
	c-2.416,1.369-5.195,1.369-7.934,1.369c-1.73,0-3.1-1.369-3.785-2.778c-0.684-1.369-0.361-2.778,0.686-3.785
	c1.369-1.047,2.053,0,3.1,0.685c1.047,1.047,2.055,1.047,3.464,0.362c3.101-1.731,6.563-3.101,9.302-5.517
	c5.195-4.47,3.463-13.45-2.416-16.229c-3.463-1.731-6.886-3.785-10.35-5.517c-4.469-2.778-6.201-7.611-4.469-12.766
	c0.361-1.369,1.047-2.778,1.73-4.147C261.239,3.554,264.338,1.5,269.171,1.863z"/>
<path d="M102.419,39.474c0.363-4.471,2.054-7.934,1.731-12.081c0-2.416,1.369-3.463,3.101-4.47c1.731-1.047,2.778,0,4.147,1.369
	c2.054,2.054,3.463,4.147,4.832,6.563c1.732,3.101,3.463,6.564,5.195,9.665c1.369-0.362,0.685-1.369,0.685-2.054
	c-0.362-7.934,0.685-15.544,0-23.477c0-2.054-0.685-4.147-1.047-6.201c-0.362-1.369,0-2.779,1.047-3.786
	c1.369-1.047,2.778-2.054,4.47-1.369c1.731,0.685,3.463,4.833,3.101,6.202c-2.416,6.563-1.369,13.812-1.369,20.376
	c0.363,4.147,0.685,8.295,0.363,12.765c0,2.416-0.685,4.47-1.732,6.201c-1.731,3.463-5.517,3.785-7.933,0.362
	s-4.47-6.886-6.201-10.711c-0.685-1.369-1.369-2.778-2.779-4.147c-1.369,0-1.369,1.047-1.369,1.731
	c-0.685,3.785-2.054,7.248-2.054,11.396c0,2.416-1.047,4.832-2.054,7.248c-0.685,1.732-1.731,2.779-3.463,2.779
	c-2.054,0-3.463-1.731-3.463-3.463c-0.685-5.195-2.416-10.35-3.101-15.866s-2.416-10.349-4.147-15.544
	C88.648,17.447,86.594,11.93,84.5,6.051c-0.685-2.054-0.362-4.148,0.685-5.88c1.047,0,2.416-0.685,3.101,0.685
	c0.685,1.047,1.732,1.731,1.732,2.779c0.685,5.194,3.785,9.302,5.517,14.134c2.054,5.879,3.785,11.396,4.832,17.598
	C100.688,36.695,100.688,37.742,102.419,39.474z"/>
<path d="M161.815,47.407c-0.685-6.563,0.363-12.766-1.047-19.329c-0.685-3.101-0.685-6.201-0.362-9.302c0-1.731,0-3.101-2.054-3.785
	c-1.731-0.362-2.054-1.731-1.369-3.101v-0.362c2.416-4.833,6.563-7.249,11.034-9.303c2.054-1.047,4.147,0,6.201,1.047
	c8.618,4.47,9.302,10.027,7.249,18.282c-0.685,2.416-2.417,4.147-4.833,4.832s-4.47,1.369-6.563,2.416
	c-2.417,1.047-3.786,2.778-3.463,5.517c0.363,3.464,0,7.249,0.363,10.712c0,1.731,0.362,3.463,1.369,4.832
	c0.684,0.685,1.047,1.731,1.047,2.778c0,2.779-1.369,4.833-3.785,4.833c-1.732,0-4.148-2.417-4.148-4.471
	C161.815,50.87,161.815,49.138,161.815,47.407z M175.95,15.998c0.362-2.417-0.685-4.148-2.416-5.88
	c-1.369-1.369-2.778-1.731-4.47-1.047c-1.369,0.685-2.416,1.731-1.731,3.463c0,0.685,0,1.369-0.363,2.054
	c-1.047,2.416-0.362,4.833-0.362,7.249c0,1.047,0.362,1.731,1.731,1.731C172.165,23.608,175.95,19.783,175.95,15.998z"/>
</svg>
