<?xml version="1.0" encoding="utf-8"?>
<!-- Generator: Adobe Illustrator 15.0.0, SVG Export Plug-In . SVG Version: 6.00 Build 0)  -->
<!DOCTYPE svg PUBLIC "-//W3C//DTD SVG 1.1//EN" "http://www.w3.org/Graphics/SVG/1.1/DTD/svg11.dtd">
<svg version="1.1" id="Layer_1" xmlns="http://www.w3.org/2000/svg" xmlns:xlink="http://www.w3.org/1999/xlink" x="0px" y="0px"
	 width="600px" height="200px" viewBox="0 0 600 200" enable-background="new 0 0 600 200" xml:space="preserve">
<path d="M299.789,54.594c-1.369,0-2.778,0.685-4.47,0c-5.879-2.417-6.201-2.054-7.248-8.296c-0.362-2.054-0.685-4.147-0.685-6.201
	c0-2.416-2.054-3.785-2.778-5.879c-0.685-2.054,1.731-3.785,1.369-6.201c-1.047-5.195-1.369-10.35-2.054-15.544
	c-0.362-3.785-0.362-3.785,3.101-5.517c3.463-2.054,7.248-2.416,11.033-2.416c2.779,0,5.88,0,8.618,0
	c2.054,0,3.101,1.369,3.101,3.101c0,1.369-1.369,2.416-3.463,1.731c-4.148-1.047-8.296-0.685-12.443-0.362
	c-3.785,0.685-4.147,1.369-3.785,5.194c0.362,3.785,1.731,7.61,1.047,11.396c0,0.685,0.362,1.732,0.362,2.417
	c0.362,1.047,1.047,1.731,2.054,1.047c4.147-2.054,9.302-1.369,13.449-3.101c1.732-0.363,3.102,1.731,2.054,3.101
	c-0.685,1.047-1.731,2.416-2.416,2.416c-2.778,0-4.832,2.416-7.933,2.054h-0.362c-5.194,0.685-6.201,1.731-5.194,6.886
	c1.369,6.563,2.416,7.61,9.302,7.248c2.416,0,4.47-0.362,6.201-1.369c2.054-1.047,4.47-1.369,6.886-0.685
	c1.047,0.362,2.054,1.047,1.047,2.416c-1.369,2.054-3.101,4.147-5.517,4.47C307.4,53.587,303.938,55.279,299.789,54.594z"/>
<path d="M136.863,52.863c-1.369,0-2.778,0.684-4.47,0c-5.879-2.417-6.201-2.054-7.249-8.296c-0.362-2.054-0.685-4.147-0.685-6.201
	c0-2.416-2.054-3.785-2.778-5.879c-0.685-2.054,1.731-3.785,1.369-6.202c-1.047-5.194-1.369-10.349-2.054-15.543
	c-0.362-3.785-0.362-3.785,3.101-5.517c3.463-2.054,7.249-2.416,11.034-2.416c2.778,0,5.879,0,8.617,0
	c2.054,0,3.101,1.368,3.101,3.101c0,1.369-1.369,2.416-3.463,1.731c-4.147-1.047-8.295-0.685-12.443-0.362
	c-3.785,0.685-4.147,1.369-3.785,5.194c0.362,3.785,1.731,7.61,1.047,11.396c0,0.685,0.362,1.731,0.362,2.416
	c0.363,1.369,1.047,1.732,2.054,1.048c4.47-2.054,9.302-1.369,13.812-3.102c1.369-0.685,2.779,1.369,2.054,2.779
	c-0.685,1.047-1.731,2.416-2.416,2.416c-2.778,0-4.832,2.416-7.933,2.054h-0.363c-5.194,0.685-6.201,1.731-5.194,6.886
	c1.369,6.563,2.416,7.61,9.302,7.248c2.416,0,4.47-0.362,6.202-1.369c2.054-1.047,4.47-1.369,6.886-0.685
	c1.047,0.362,2.054,1.047,1.047,2.416c-1.369,2.054-3.101,4.147-5.517,4.47C144.434,51.494,141.011,53.225,136.863,52.863z"/>
<path d="M401.991,23.184c-0.685,5.195-0.363,10.35-0.685,15.544c-0.685,5.517-2.416,10.027-5.88,14.134
	c-2.054,2.417-7.248,2.417-10.349,0c-3.463-2.778-5.879-5.879-6.201-10.349c-1.047-10.349-3.101-20.376-5.195-30.362
	c-0.362-1.731,0.685-3.463,2.054-3.785c1.732-0.685,3.786,0.362,4.471,2.054c0.362,0.685,0.362,1.731,0.362,2.416
	c1.047,8.979,3.463,17.96,4.147,26.939c0.362,2.054,1.047,4.147,1.731,5.879c0.685,1.369,2.054,2.054,3.785,2.416
	c1.369,0,1.731-1.369,2.416-2.416c1.047-2.416,1.731-4.47,2.054-7.248c0.362-5.879,1.369-11.718,0.685-17.598
	c-0.362-3.101,0.362-6.201,1.047-9.302c0.362-2.054,2.778-3.463,4.832-2.778c0.685,0.362,1.731,1.047,1.369,1.731
	C400.944,14.567,402.312,19.037,401.991,23.184z"/>
<path d="M443.427,41.144c-1.731-8.295-0.362-16.591-1.047-24.523c0-1.731-0.685-3.101-0.685-4.832
	c-0.362-1.731,0.362-3.101,2.054-3.463c1.369-0.362,3.101,0.362,3.785,2.054c0.362,1.047,0.362,1.731,0.685,2.778
	c0.685,5.194,0.685,10.026,0.362,15.181c0,5.88,0.363,11.719,2.416,17.598c0.685,1.731,0,3.101,0,4.832
	c-0.362,2.054-2.053,2.778-3.463,2.778c-2.054,0-4.147-0.362-5.879-1.731s-3.463-2.054-3.785-4.47
	c-0.362-2.054-1.731-3.463-3.101-4.832c-6.201-6.563-12.443-13.449-18.282-20.014c-0.362-0.362-1.047-1.047-2.054-0.685
	c-0.685,1.731-0.685,3.785-0.362,5.88c0.685,6.563,1.047,12.765,1.369,19.328c0,1.369,0.685,3.102,0.685,4.471
	c0.362,2.416-1.047,4.47-3.101,4.47c-2.416,0.362-5.194-2.417-4.47-4.47c1.047-3.102,0.685-5.88,0.362-8.98
	c-0.362-10.711-1.047-21.061-0.685-31.771c0-1.369,0-3.101,1.731-3.463c1.731-0.363,3.463,0.362,3.785,1.731
	c2.054,5.194,6.564,8.295,10.027,12.442c5.194,6.201,11.033,11.719,17.275,17.275C441.333,39.413,441.333,40.782,443.427,41.144z"/>
<path d="M116.487,29.749c0,0.362,0.363,1.369,0,2.054c-1.047,3.785-2.416,7.61-3.463,11.396c-0.362,1.369-1.047,2.416-2.416,2.778
	c-5.195,2.416-9.665,5.88-15.544,6.564c-5.879,0.685-9.664-2.054-8.617-7.611c1.369-6.886,0-13.812,0-20.698
	c0-5.194,0.362-10.026-0.685-15.181C85.4,7.319,86.81,5.265,87.816,3.534c0.685-1.047,2.054-1.369,3.463-1.369
	c16.913,1.369,24.523,12.08,25.208,26.255C116.125,29.064,116.487,29.386,116.487,29.749z M92.326,33.896
	c0,2.054-0.362,4.47,1.047,6.201c1.047,1.047,1.731,2.416,1.731,4.147c0.362,1.731,1.731,2.416,2.778,1.047
	c1.047-1.369,2.416-1.731,3.785-1.731c1.047,0,2.054-0.362,2.417-1.047c1.047-2.054,3.101-3.785,3.785-6.201
	c1.047-4.832,1.731-9.302,0-14.135c-2.416-6.201-6.564-11.033-13.812-12.08c-2.417-0.362-2.417,0-2.417,2.416
	C92.326,19.037,91.642,26.648,92.326,33.896z"/>
<path d="M32.931,21.13c-0.685,5.195-0.363,10.35-0.685,15.544c-0.685,5.517-2.417,10.027-5.879,14.134
	c-2.054,2.417-7.249,2.417-10.349,0c-3.463-2.778-5.879-5.879-6.201-10.349c-1.047-9.664-3.101-20.014-5.195-30.04
	C4.259,8.688,5.306,7.319,6.675,6.634c2.054-0.685,3.785,0.362,4.47,2.054c0.363,0.685,0.363,1.731,0.363,2.416
	c1.047,8.979,3.463,17.96,4.47,26.939c0.362,2.054,1.047,4.147,1.731,5.879c0.685,1.369,2.054,2.054,3.785,2.416
	c1.369,0,1.731-1.369,2.416-2.416c1.047-2.416,1.731-4.47,2.054-7.248c0.362-5.879,1.369-11.718,0.685-17.598
	c-0.685-3.463,0-6.563,0.685-9.664c0.362-2.054,2.779-3.463,4.833-2.778c0.685,0.362,1.369,1.047,1.047,1.731
	C32.246,12.835,33.615,16.983,32.931,21.13z"/>
<path d="M74.367,39.05c-1.731-8.295-0.685-16.591-1.047-24.523c0-1.731-0.685-3.101-1.047-4.832
	c-0.362-1.731,0.363-3.101,2.054-3.464c1.369-0.362,3.101,0.363,3.786,2.054c0.362,1.048,0.362,1.732,0.685,2.779
	c0.685,5.194,0.685,10.026,0.685,15.181c0,5.88,0.362,11.719,2.416,17.598c0.685,1.731,0,3.101,0,4.832
	c-0.362,2.054-2.054,2.778-3.463,2.778c-2.054,0-4.147-0.362-5.879-1.731s-3.463-2.054-3.785-4.47
	c-0.363-2.054-1.732-3.463-3.101-4.832c-6.201-6.563-12.443-13.128-18.644-20.014c-0.362-0.362-1.047-1.047-2.054-0.685
	c-0.685,1.731-0.685,3.785-0.362,5.879c0.685,6.564,1.047,12.766,1.369,19.329c0,1.369,0.685,3.101,0.685,4.47
	c0.362,2.416-1.047,4.47-3.101,4.47c-2.417,0.362-5.195-2.416-4.47-4.47c1.047-3.101,0.685-5.879,0.363-8.979
	c-0.363-10.712-1.047-21.061-0.685-31.771c0-1.369,0-3.102,1.731-3.464s3.463,0.362,3.785,1.731
	c2.054,5.195,6.563,8.296,10.027,12.443c5.195,6.201,11.034,11.718,17.275,17.275C72.313,37.359,72.313,38.728,74.367,39.05z"/>
<path d="M356.77,0.071c2.778-0.363,5.517,0.685,7.933,2.778c0.685,0.685,1.369,1.369,1.369,2.416
	c0.362,1.369,0.362,2.778-1.047,3.785c-1.731,0.685-2.778,0-3.785-1.369c-2.778-3.785-6.886-3.463-9.302,0.362
	c-1.047,1.731-1.731,3.463-1.731,5.517c0,2.778,0.684,3.785,3.101,4.832c3.101,1.048,5.879,3.101,8.617,4.47
	c6.563,3.464,9.664,8.98,10.026,15.866c0.362,3.785-2.054,6.886-4.832,9.302s-6.563,4.147-9.664,6.201
	c-2.416,1.369-5.195,1.369-7.933,1.369c-1.732,0-3.102-1.369-3.786-2.778c-0.685-1.369-0.362-2.778,0.685-3.785
	c1.369-1.047,2.054,0,3.101,0.685c1.048,1.047,2.054,1.047,3.464,0.362c3.101-1.731,6.563-3.101,9.302-5.517
	c5.194-4.47,3.463-13.449-2.416-16.229c-3.463-1.731-6.886-3.785-10.35-5.517c-4.832-2.416-6.563-7.248-4.832-12.765
	c0.362-1.369,1.047-2.778,1.731-4.147C348.474,2.125,351.938-0.292,356.77,0.071z"/>
<path d="M169.32,35.627c2.416,2.416,3.463,6.201,7.248,7.248c1.047,0.362,2.054,2.054,3.101,3.463
	c0.685,1.048,0.362,2.417-0.363,3.101c-1.047,1.048-1.731,2.417-3.463,1.732c-2.054-0.685-3.785-1.732-5.195-3.464
	c-1.731-2.054-3.785-3.785-5.194-6.201c-0.685-1.047-1.369-2.054-3.463-2.054c0.362,3.101,0.685,5.88,1.047,8.618
	c0,0.685,0.363,1.731,0.363,2.416c0,1.731-1.732,3.785-3.101,3.785c-1.047,0-3.463-1.731-3.463-3.101
	c-0.362-3.464-0.685-6.887-0.362-10.35c0-8.617,1.369-16.912-1.047-25.53c-1.047-3.463,0.685-6.563,4.832-7.933
	c5.517-2.054,11.034-1.731,16.591-0.685c2.778,0.362,3.785,2.416,4.47,5.194c0.685,3.785-0.363,7.611-1.732,11.396
	c-1.731,4.147-4.147,8.295-8.295,10.349C170.326,33.896,169.642,34.581,169.32,35.627z M170.004,11.466
	c-5.195-0.362-7.611,1.047-7.249,7.933c0,2.416,0.362,4.832,0,7.249c-0.362,1.047-0.362,2.416,0.685,3.463
	c1.731,1.047,2.779,0.362,4.147-0.362c4.833-2.779,6.886-7.611,7.933-12.443C176.568,11.789,174.474,11.104,170.004,11.466z"/>
<path d="M241.44,9.05c1.369,0,2.779-0.362,3.785-0.362c1.731,0,3.101,0.685,3.785,2.416s1.732,3.463,0,5.194
	c-1.369,1.369-3.101,0.685-4.47,0c-3.463-1.731-7.248-1.047-10.712-1.369c-2.416,0-3.463,1.369-3.1,3.785
	c1.369,6.886,2.416,13.45,4.147,20.376c0.685,2.778,1.731,5.194,4.47,6.563c2.054,1.048,2.054,5.195,0.685,7.249
	c-1.369,1.731-3.785,2.416-5.88,1.369c-0.361-0.362-1.047-0.685-1.369-1.047c-1.047-3.785-3.463-6.564-4.146-10.712
	c-1.047-7.61-2.416-14.859-3.785-22.43c-0.363-2.778-1.369-3.463-4.148-2.778c-2.416,0.362-4.47,1.047-6.886,1.369
	c-0.685,0-1.047,0.362-1.731,0.362c-1.369,0-2.779,0-3.101-1.369c-0.362-1.369,0.362-2.778,2.054-3.101
	c2.053-0.685,3.785-1.369,5.879-1.731c6.564-1.369,13.127-2.416,19.329-3.463C238.34,8.688,240.071,9.05,241.44,9.05z"/>
<path d="M261.132,14.889c0,4.832,0,9.302,0,14.134c0,2.054,0.685,2.779,2.778,2.417c2.416-0.363,4.47-1.048,6.886-1.369
	c1.732-0.363,2.779-1.732,2.416-3.786c-0.684-5.517-1.369-11.033-3.1-16.228c-0.686-1.731-0.686-3.101,1.047-4.47
	c1.369-1.369,3.463-0.685,4.146,1.369c1.047,4.47,3.102,8.979,2.779,13.812c0,1.369,0,2.778,0.362,4.147
	c1.369,4.148,2.054,8.618,2.778,13.128c0.363,4.147,1.047,8.295,1.731,12.765c0.685,3.464,0.362,3.786-3.101,4.148
	c-3.101,0.362-5.194-1.369-4.832-3.785c0.362-2.054,0-4.148,0.362-6.202s0-4.47-0.362-6.563c0-1.369-1.047-2.054-2.054-1.731
	c-2.778,0.685-5.517,0.685-8.296,1.047c-2.777,0.362-3.1,1.047-2.777,3.785c0.361,3.101,1.73,6.201,1.369,9.665
	c-0.363,2.778-0.686,3.463-3.102,3.463s-3.101-0.685-3.101-3.101c-0.362-2.779-0.362-5.517-0.685-8.296c0-2.054,0-3.785-1.731-5.194
	c-1.047-1.047-1.369-2.778-0.362-3.785c2.778-4.147,2.054-8.295,1.731-12.766c-0.362-3.463,0-6.886-0.685-10.349
	c-0.362-1.047,0-2.054,0.685-2.778c0.685-1.369,1.731-1.731,3.101-1.731s2.416,1.047,2.416,2.416
	C261.494,10.742,261.132,12.835,261.132,14.889L261.132,14.889z"/>
</svg>
