<?xml version="1.0" encoding="utf-8"?>
<!-- Generator: Adobe Illustrator 15.0.0, SVG Export Plug-In . SVG Version: 6.00 Build 0)  -->
<!DOCTYPE svg PUBLIC "-//W3C//DTD SVG 1.1//EN" "http://www.w3.org/Graphics/SVG/1.1/DTD/svg11.dtd">
<svg version="1.1" id="Layer_1" xmlns="http://www.w3.org/2000/svg" xmlns:xlink="http://www.w3.org/1999/xlink" x="0px" y="0px"
	 width="600px" height="200px" viewBox="0 0 600 200" enable-background="new 0 0 600 200" xml:space="preserve">
<path d="M66.647,54.958c-1.369,0-2.778,0.685-4.47,0c-5.879-2.416-6.201-2.054-7.248-8.295c-0.363-2.054-0.685-4.148-0.685-6.202
	c0-2.416-2.054-3.785-2.779-5.879c-0.685-2.054,1.731-3.785,1.369-6.201c-1.047-5.194-1.369-10.349-2.054-15.544
	c-0.362-3.785-0.362-3.785,3.101-5.879c3.463-2.054,7.249-2.416,11.034-2.416c2.779,0,5.879,0,8.618,0
	c2.054,0,3.101,1.369,3.101,3.101c0,1.369-1.369,2.416-3.463,1.731c-4.147-1.047-8.295-0.685-12.443-0.362
	c-3.463,1.047-3.785,1.731-3.463,5.517s1.731,7.611,1.047,11.396c0,0.685,0.362,1.731,0.362,2.416
	c0.362,1.047,1.047,1.731,2.054,1.047c4.148-2.054,9.302-1.369,13.45-3.101c1.369-0.685,2.779,1.369,2.054,2.778
	c-0.685,1.047-1.731,2.416-2.416,2.416c-2.778,0-4.832,2.416-7.933,2.054H65.52c-5.194,0.685-6.201,1.731-5.194,6.886
	c1.369,6.563,2.416,7.611,9.302,7.248c2.416,0,4.47-0.362,6.201-1.369c2.054-1.047,4.47-1.369,6.886-0.685
	c1.047,0.363,2.054,1.048,1.047,2.417c-1.369,2.054-3.101,4.147-5.517,4.47C74.58,53.588,70.795,55.642,66.647,54.958z"/>
<path d="M171.587,54.958c-1.369,0-2.779,0.685-4.47,0c-5.879-2.416-6.201-2.054-7.248-8.295c-0.362-2.054-0.685-4.148-0.685-6.202
	c0-2.416-2.054-3.785-2.779-5.879c-0.685-2.054,1.732-3.785,1.369-6.201c-1.047-5.194-1.369-10.349-2.053-15.544
	c-0.363-3.785-0.363-3.785,3.101-5.517c3.463-2.054,7.248-2.416,11.033-2.416c2.779,0,5.879,0,8.618,0
	c2.054,0,3.101,1.369,3.101,3.101c0,1.369-1.369,2.416-3.463,1.731c-4.148-1.047-8.295-0.685-12.443-0.362
	c-3.786,0.685-4.148,1.369-3.786,5.194c0.363,3.785,1.732,7.611,1.047,11.396c0,0.685,0.362,1.731,0.362,2.416
	c0.362,1.047,1.047,1.731,2.054,1.047c4.147-2.054,9.302-1.369,13.45-3.101c1.369-0.685,2.778,1.369,2.054,2.778
	c-0.685,1.047-1.731,2.416-2.416,2.416c-2.779,0-4.833,2.416-7.933,2.054h-0.362c-5.195,0.685-6.202,1.731-5.195,6.886
	c1.369,6.564,2.416,7.611,9.302,7.249c2.416,0,4.47-0.362,6.201-1.369c2.054-1.047,4.47-1.369,6.886-0.685
	c1.047,0.362,2.054,1.047,1.047,2.416c-1.369,2.054-3.101,4.147-5.517,4.47C179.52,53.588,175.734,55.642,171.587,54.958z"/>
<path d="M205.412,54.958c-1.369,0-2.778,0.685-4.47,0c-5.879-2.416-6.201-2.054-7.248-8.295c-0.363-2.054-0.685-4.148-0.685-6.202
	c0-2.416-2.054-3.785-2.779-5.879c-0.725-2.094,1.731-3.785,1.369-6.201c-1.047-5.194-1.369-10.349-2.054-15.544
	c-0.362-3.785-0.362-3.785,3.101-5.517c3.463-2.054,7.249-2.416,11.034-2.416c2.778,0,5.879,0,8.618,0
	c2.054,0,3.101,1.369,3.101,3.101c0,1.369-1.369,2.416-3.463,1.731c-4.147-1.047-8.295-0.685-12.443-0.362
	c-3.785,0.685-4.147,1.369-3.785,5.194c0.362,3.826,1.731,7.611,1.047,11.396c0,0.685,0.363,1.731,0.363,2.416
	c0.362,1.047,1.047,1.731,2.053,1.047c4.148-2.054,9.302-1.369,13.45-3.101c1.369-0.685,2.779,1.369,2.054,2.778
	c-0.685,1.047-1.731,2.416-2.416,2.416c-2.778,0-4.832,2.416-7.933,2.054h-0.363c-5.194,0.685-6.201,1.731-5.194,6.886
	c1.369,6.564,2.416,7.611,9.302,7.249c2.416,0,4.47-0.362,6.202-1.369c2.054-1.047,4.47-1.369,6.886-0.685
	c1.047,0.362,2.054,1.047,1.047,2.416c-1.369,2.054-3.101,4.147-5.517,4.47C213.345,53.588,209.56,55.642,205.412,54.958z"/>
<path d="M22.795,30.796c-2.054,6.563-5.879,12.081-4.47,19.329c0.362,2.054-0.685,3.101-2.054,4.147
	c-1.732,1.047-3.463,1.047-4.833-0.362c-1.047-1.047-1.369-2.054-1.731-3.101c-1.047-6.564-3.463-13.128-4.832-19.691
	c-0.363-4.47-0.685-8.295-4.148-11.396c-1.369-1.369-0.685-3.101,1.047-4.147c1.369-1.369,3.786-1.047,5.195,0.362
	c1.047,2.054,2.054,4.148,2.416,6.202c1.369,4.832,2.779,9.664,4.148,14.858c2.054-2.416,2.778-5.517,3.785-8.295
	c0.685-2.416,1.731-4.832,1.731-7.248c0.362-1.732,1.369-2.417,2.778-3.102c1.732-0.362,3.101,0,4.148,1.369
	c0.685,1.369,1.369,2.779,2.054,4.148c2.416,4.832,4.47,10.026,6.886,14.858c0.362,0.685,0.685,1.369,2.054,1.731
	c1.369-3.101,2.054-6.563,2.416-9.664c0.685-5.194,1.369-10.349,0.685-15.181c-0.362-1.732,0.362-3.464,0.685-4.833
	c0.685-2.054,2.054-2.416,3.785-1.369c2.054,1.369,3.101,3.464,2.779,6.202c-0.685,3.101-0.685,6.563-0.685,10.026
	c-0.362,5.517-2.054,10.349-2.416,15.866c-0.363,3.785-1.047,7.248-1.047,11.033c0,1.731-1.047,2.054-2.416,2.778
	c-1.369,0.685-2.778,0-3.785-1.047c-1.047-1.369-1.731-2.778-2.778-4.147c-3.463-5.194-5.879-10.027-7.933-15.182
	C25.573,33.535,24.889,32.166,22.795,30.796z"/>
<path d="M142.916,30.434c0.362-5.879,1.047-11.396-1.047-17.275c-1.369-3.463,0-7.248,1.369-10.711c0-1.047,3.785-2.416,4.832-2.416
	c1.731,0.362,2.779,2.054,1.731,3.785c-1.731,2.416-1.369,4.832-1.047,7.61c0.363,3.101,0.685,6.563,0.685,10.027
	c0.363,8.295,1.047,16.228,3.785,23.839c0.363,1.047,0.685,2.416-0.362,3.463s-2.054,2.778-3.785,2.054
	c-1.731-0.685-3.463-1.369-4.47-3.463c-3.101-7.611-8.295-14.135-13.127-20.698h-0.282c-1.047,0.685-0.685,1.731-0.685,2.416
	c0,4.147-1.731,8.295-0.362,12.765c0.362,0.685,0,1.369-0.362,2.054c-1.047,2.779-1.731,5.195-1.731,7.934
	c0,2.054-1.731,2.778-3.101,3.463c-2.054,0.685-4.148-1.369-3.786-4.147c0.685-4.148,1.732-8.296,2.779-12.443
	c1.731-7.61,2.416-15.181,1.047-23.114c-0.685-3.785,1.731-6.563,4.832-5.517c1.047,0.362,2.054,1.047,2.417,2.416
	c0.685,3.785,2.778,7.248,5.194,10.027C139.13,25.28,140.862,27.696,142.916,30.434z"/>
<path d="M468.486,52.542c0.362,1.369-0.362,2.416-1.369,2.778c-1.731,0.685-3.464,0.362-4.47-1.047
	c-1.369-1.369-2.416-2.778-2.054-4.832c0.362-2.416-0.685-4.47-1.369-6.886c-1.047-3.785-3.101-5.195-6.886-4.833
	c-3.464,0.363-6.887,1.048-10.712,1.048c-2.054,0-2.416,2.054-2.416,3.101c-0.685,3.101-1.731,5.879-3.101,8.617
	c-0.685,1.369-1.369,2.778-2.416,3.785s-2.778,1.369-4.147,0.685s-1.732-3.101-0.685-4.47c5.879-8.617,7.248-18.645,9.664-28.671
	c1.047-5.195,3.101-10.027,4.832-14.859c1.731-4.147,4.47-4.147,7.611-1.047c2.778,2.778,3.463,6.563,4.47,10.026
	c1.731,5.88,3.785,11.034,6.563,16.591c2.054,3.785,4.147,7.933,4.832,12.443C466.755,47.709,468.809,49.763,468.486,52.542z
	 M447.063,17.306c-1.047,0.362-1.369,1.047-1.731,1.731c-2.054,4.148-2.054,8.618-3.464,13.128
	c-0.362,1.047,0.363,1.731,1.732,1.731c2.778-0.362,5.194-0.362,7.61-1.369c1.369-0.685,2.416-1.731,1.369-3.101
	c-1.369-2.416-1.731-5.194-2.778-7.61C449.479,19.722,448.795,17.991,447.063,17.306z"/>
<path d="M489.868,54.273c-2.778,0.685-5.879,0.362-9.302,0.685c-2.778,0.362-4.832-1.047-5.194-3.785
	c-0.362-8.979-3.463-17.96-3.463-26.939c0-6.201-1.731-12.081-2.779-18.282c0-1.047-0.362-2.054-0.362-2.778
	c0-2.054,1.047-2.778,2.779-3.101c1.731-0.362,2.416,0.685,2.778,2.416c0.685,4.147,1.369,8.295,2.054,12.765
	c1.047,9.665,3.101,19.007,4.47,28.31c0.685,4.147,1.047,4.47,5.517,4.147c1.369,0,2.778-0.362,4.147-0.685s2.416,0,3.463,0.685
	c1.369,0.685,2.416,2.054,2.779,3.785c0.362,1.047-2.779,2.778-4.471,3.101C491.601,54.595,490.916,54.273,489.868,54.273z"/>
<path d="M507.144,39.414c2.054,3.785,1.047,7.611,0.685,11.396c0,1.047-0.362,2.054-1.047,3.101
	c-1.047,1.369-2.416,1.731-3.785,1.047s-2.054-1.369-2.054-3.101c0.362-2.778,0.362-5.879,0.362-8.617s-0.362-5.195-1.369-7.611
	c-1.369-3.785-1.047-7.933-2.778-11.718c-0.685-1.731-1.047-3.785-2.054-5.517c-1.369-3.101-1.047-5.195,0.685-5.88
	c2.054-0.685,3.463,0.363,4.832,3.101c1.047,2.779,2.416,5.195,2.778,8.296c0,0.685,0.362,1.369,1.047,2.054
	c1.369,0.362,2.417-0.685,3.101-1.731c3.464-4.147,7.611-7.611,10.027-12.443c0.362-0.685,0.685-1.369,1.369-2.054
	c1.047-0.685,2.054-1.047,3.101-0.362c1.369,0.362,1.369,1.047,1.369,2.054c-0.362,1.731-0.362,3.463-1.731,4.47
	c-2.778,3.463-5.194,7.248-8.617,10.027c-0.685,0.362-1.047,1.047-1.369,1.369c-2.416,3.463-2.054,4.147,1.731,6.201
	c3.101,1.731,6.563,3.101,8.617,6.201c2.054,2.778,4.47,5.879,6.563,8.979c1.047,1.369,0.363,4.47-1.047,5.518
	c-1.369,1.047-3.101,1.047-4.47,0c-1.731-1.048-2.416-2.417-3.463-4.471c-2.054-4.47-5.194-7.933-9.302-10.349
	C509.56,39.051,508.875,38.729,507.144,39.414z"/>
<path d="M321.063,9.374c1.369,0,2.778-0.362,3.785-0.362c1.731,0,3.101,0.685,3.785,2.416s1.731,3.463,0,5.194
	c-1.369,1.369-3.101,0.685-4.47,0c-3.464-1.731-7.249-1.047-10.712-1.369c-2.416,0-3.463,1.369-3.1,3.785
	c1.369,6.887,2.416,13.45,4.146,20.376c0.686,2.779,1.732,5.195,4.471,6.564c2.053,1.047,2.053,5.194,0.684,7.248
	c-1.369,1.731-3.785,2.416-5.879,1.369c-0.362-0.362-1.047-0.685-1.369-1.047c-1.047-3.785-3.463-6.563-4.147-10.712
	c-1.047-7.61-2.416-14.858-3.785-22.43c-0.362-2.778-1.369-3.463-4.147-2.778c-2.416,0.362-4.47,1.047-6.887,1.369
	c-0.684,0-1.047,0.362-1.73,0.362c-1.369,0-2.779,0-3.102-1.369s0.363-2.778,2.055-3.101c2.053-0.685,3.785-1.369,5.879-1.731
	c6.563-1.369,13.127-2.416,19.328-3.463C317.962,9.051,319.694,9.051,321.063,9.374z"/>
<path d="M359.398,33.212c0.685,5.517-1.731,10.712-4.147,15.866c-2.054,4.147-5.879,5.879-10.711,5.879
	c-4.148,0-7.611-1.369-9.665-5.194c-3.463-6.886-3.785-13.812-2.416-21.423c0.685-3.463,1.731-6.886,2.416-10.35
	c0.362-1.047,1.047-2.054,0.362-2.778c-1.369-1.731-0.362-3.101,0.685-4.47c0.363-0.362,0.685-1.047,1.048-1.369
	c4.832-5.879,8.295-5.517,12.765,0.362c0.685,1.047,1.369,2.054,2.054,2.416c5.879,3.785,7.248,10.027,7.933,16.591
	C359.398,30.112,359.398,31.481,359.398,33.212z M353.52,33.535c0.362-3.785,0-7.61-1.369-10.711
	c-1.369-3.464-3.785-6.202-6.563-8.618c-1.731-1.731-2.054-1.731-3.463,0.362c-5.195,9.303-6.887,19.007-3.786,29.356
	c0.685,2.778,2.417,4.832,5.195,5.517s5.194-1.047,6.886-3.101c1.047-1.047,1.731-2.054,2.054-3.463
	C352.835,39.414,354.204,36.313,353.52,33.535z"/>
<path d="M256.513,32.166c0,0.362,0.363,1.369,0,2.054c-1.047,3.785-2.416,7.61-3.463,11.396c-0.362,1.369-1.047,2.417-2.416,2.779
	c-5.195,2.416-9.664,5.879-15.544,6.563c-5.879,0.685-9.664-2.054-8.617-7.61c1.369-6.887,0-13.812,0-20.698
	c0-5.194,0.362-10.027-0.685-15.182c-0.362-1.731,1.047-3.785,2.054-5.517c0.685-1.047,2.054-1.369,3.463-1.369
	c16.913,1.369,24.523,12.081,25.208,26.255C256.513,31.119,256.513,31.481,256.513,32.166z M232.674,35.951
	c0,2.054-0.362,4.47,1.047,6.201c1.048,1.047,1.731,2.416,1.731,4.148c0.363,1.731,1.732,2.416,2.779,1.047s2.416-1.731,3.785-1.731
	c1.047,0,2.053-0.363,2.416-1.048c1.047-2.054,3.101-3.785,3.785-6.201c1.047-4.832,1.731-9.302,0-14.134
	c-2.416-6.201-6.564-11.034-13.812-12.081c-2.416-0.362-2.416,0-2.416,2.416C232.674,21.455,231.989,28.703,232.674,35.951z"/>
<path d="M402.204,17.668c-0.685,0-1.369,0-2.054,0c-1.369,0-2.416-0.685-2.416-2.053c-0.362-1.369,0.685-2.417,2.054-2.779
	c0.685-0.362,1.731-0.685,2.416-0.685c6.886-1.047,13.45-3.101,20.376-4.47c0.685,0,1.369-0.362,2.054-0.362
	c1.731,0,3.101,1.047,3.463,2.416c0.685,1.731-0.362,2.778-1.731,3.785c-2.054,1.369-4.832,1.369-7.248,1.369
	c-6.202,0.685-5.517,0-4.833,5.88c1.048,6.886,2.417,13.812,2.779,20.697c0,2.416,0.685,4.47,1.731,6.886
	c1.047,1.732,0.685,3.786,0,5.518c-0.362,1.047-1.047,2.416-2.778,2.416c-1.369,0-2.416-0.685-3.464-2.054
	c-0.685-0.685-0.685-1.731-0.685-2.778c-1.047-9.303-1.731-19.007-2.778-28.31c0-0.685-0.362-1.731-0.362-2.416
	c-1.047-3.785-1.047-3.785-5.194-3.463C402.889,17.668,402.526,17.668,402.204,17.668z"/>
</svg>
