<?xml version="1.0" encoding="utf-8"?>
<!-- Generator: Adobe Illustrator 15.0.0, SVG Export Plug-In . SVG Version: 6.00 Build 0)  -->
<!DOCTYPE svg PUBLIC "-//W3C//DTD SVG 1.1//EN" "http://www.w3.org/Graphics/SVG/1.1/DTD/svg11.dtd">
<svg version="1.1" id="Layer_1" xmlns="http://www.w3.org/2000/svg" xmlns:xlink="http://www.w3.org/1999/xlink" x="0px" y="0px"
	 width="600px" height="200px" viewBox="0 0 600 200" enable-background="new 0 0 600 200" xml:space="preserve">
<path d="M117.396,57.011c-1.369,0-2.778,0.685-4.47,0c-5.879-2.416-6.201-2.054-7.248-8.295c-0.363-2.054-0.685-4.147-0.685-6.201
	c0-2.416-2.054-3.785-2.779-5.88c-0.685-2.054,1.731-3.785,1.369-6.201c-1.047-5.194-1.369-10.349-2.054-15.544
	c-0.362-3.785-0.362-3.785,3.101-5.517c3.463-2.054,7.249-2.416,11.034-2.416c2.778,0,5.879,0,8.618,0
	c2.054,0,3.101,1.369,3.101,3.101c0,1.369-1.369,2.416-3.463,1.731c-4.147-1.047-8.295-0.685-12.443-0.362
	c-3.785,0.685-4.147,1.369-3.785,5.195c0.362,3.785,1.731,7.61,1.047,11.396c0,0.685,0.362,1.731,0.362,2.416
	c0.363,1.047,1.047,1.731,2.054,1.047c4.148-2.054,9.302-1.369,13.45-3.101c1.369-0.685,2.779,1.369,2.054,2.778
	c-0.685,1.047-1.731,2.416-2.416,2.416c-2.778,0-4.832,2.417-7.933,2.054h-0.363c-5.194,0.685-6.201,1.732-5.194,6.887
	c1.369,6.563,2.416,7.61,9.302,7.248c2.416,0,4.47-0.362,6.202-1.369c2.054-1.047,4.47-1.369,6.886-0.685
	c1.047,0.362,2.054,1.047,1.047,2.416c-1.369,2.054-3.101,4.147-5.517,4.47C125.329,55.642,121.544,57.695,117.396,57.011z"/>
<path d="M210.255,17.991c-0.685,0-1.369,0-2.054,0c-1.369,0-2.417-0.685-2.417-2.054c-0.362-1.369,0.685-2.417,2.054-2.779
	c0.685-0.362,1.732-0.685,2.417-0.685c6.886-1.047,13.45-3.101,20.375-4.47c0.685,0,1.369-0.362,2.054-0.362
	c1.731,0,3.101,1.047,3.464,2.416c0.684,1.731-0.363,2.778-1.732,3.785c-2.054,1.369-4.832,1.369-7.248,1.369
	c-6.201,0.685-5.517,0-4.832,5.88c1.047,6.886,2.416,13.812,2.778,20.697c0,2.416,0.685,4.47,1.731,6.887
	c1.047,1.731,0.685,3.785,0,5.517c-0.362,1.047-1.047,2.416-2.778,2.416c-1.369,0-2.416-0.685-3.464-2.054
	c-0.684-0.685-0.684-1.731-0.684-2.778c-1.047-9.303-1.732-19.007-2.779-28.309c0-0.686-0.362-1.732-0.362-2.417
	c-1.047-3.785-1.047-3.785-5.195-3.463C211.302,17.669,210.618,17.991,210.255,17.991z"/>
<path d="M199.906,25.602c-0.685,5.194-0.362,10.349-0.685,15.544c-0.685,5.517-2.416,10.026-5.879,14.134
	c-2.054,2.416-7.248,2.416-10.349,0c-3.463-2.778-5.879-5.879-6.202-10.349c-1.047-10.35-3.101-20.376-5.194-30.362
	c-0.363-1.732,0.685-3.464,2.054-3.785c1.731-0.685,3.785,0.362,4.47,2.053c0,0.685,0.362,1.732,0.362,2.417
	c1.047,8.979,3.463,17.959,4.47,26.939c0.362,2.054,1.047,4.147,1.731,5.879c0.685,1.369,2.054,2.054,3.785,2.416
	c1.369,0,1.732-1.369,2.417-2.416c1.047-2.416,1.731-4.47,2.053-7.248c0.363-5.88,1.369-11.719,0.685-17.598
	c-0.362-3.101,0.363-6.201,1.047-9.302c0.362-2.054,2.778-3.463,4.832-2.778c0.685,0.362,1.731,1.047,1.369,1.731
	C198.859,16.984,200.591,21.132,199.906,25.602z"/>
<path d="M294.135,23.548c0.362,4.832,0,10.026,1.047,15.182c0.684,3.463,2.416,6.886,4.47,10.026
	c1.369,2.416,0.685,3.785-2.054,5.517c-2.054,1.047-3.102,0.685-4.47-1.731c-1.731-3.101-2.054-6.886-3.101-10.349
	c-1.369-4.47-1.369-8.98-1.369-13.45c0.362-4.832,0-9.664-1.047-14.134c0-0.685-0.363-1.047-0.363-1.731
	c-0.361-2.054,1.047-3.101,2.416-3.785c1.732-0.685,2.779,1.047,3.102,2.416C293.812,15.253,294.135,19.4,294.135,23.548z"/>
<path d="M313.463,39.776c-1.73-4.47-3.785-9.303-4.832-14.497c-0.685-3.463-0.362-7.248,0.363-11.033
	c0.361-2.778-0.686-3.785-4.148-4.147c-2.416-0.363-3.101,0.685-3.463,3.463c-0.362,3.463,0.362,7.248,0.685,10.711
	c0.362,4.47,2.054,8.98,3.785,13.128c2.054,4.47,3.463,8.979,4.47,13.812c0,0.685,0,1.047,0.362,1.731
	c0.362,2.054,2.054,2.779,3.785,2.417c2.054,0,2.054-1.732,2.054-3.464C316.242,47.347,315.194,43.562,313.463,39.776z"/>
<path d="M308.309,26.286c-4.832,0.362-10.026,0-15.182,1.047c-3.463,0.685-6.885,2.416-10.026,4.47
	c-2.416,1.369-3.785,0.685-5.517-2.054c-1.047-2.054-0.685-3.101,1.731-4.47c3.101-1.731,6.886-2.054,10.349-3.101
	c4.471-1.369,8.98-1.369,13.45-1.369c4.832,0.362,9.665,0,14.134-1.047c0.685,0,1.047-0.362,1.732-0.362
	c2.053-0.362,3.101,1.047,3.785,2.416c0.685,1.731-0.685,2.416-2.416,3.101C316.563,25.964,312.779,26.286,308.309,26.286z"/>
<path d="M292.402,45.615c4.471-1.731,9.303-3.785,14.497-4.832c3.463-0.685,7.248-0.363,11.033,0.362
	c2.779,0.362,3.786-0.685,4.148-4.148c0.362-2.416-0.685-3.101-3.464-3.463c-3.463-0.362-7.248,0.362-10.711,0.685
	c-4.47,0.362-8.98,2.054-13.127,3.785c-4.471,2.054-8.98,3.464-13.812,4.47c-0.685,0-1.047,0-1.732,0.363
	c-2.053,0.362-2.777,2.054-2.416,3.785c0,2.054,1.732,2.054,3.464,2.054C284.832,48.394,288.617,47.347,292.402,45.615z"/>
<path d="M64.242,23.548c0.362,4.832,0,10.026,1.047,15.182c0.685,3.463,2.417,6.886,4.47,10.026
	c1.369,2.416,0.685,3.785-2.054,5.517c-2.054,1.047-3.101,0.685-4.47-1.731c-1.731-3.101-2.054-6.886-3.101-10.349
	c-1.369-4.47-1.369-8.98-1.369-13.45c0.362-4.832,0-9.664-1.047-14.134c0-0.685-0.362-1.047-0.362-1.731
	c-0.362-2.054,1.047-3.101,2.416-3.785c1.731-0.685,2.778,1.047,3.101,2.416C64.242,15.253,64.242,19.4,64.242,23.548z"/>
<path d="M165.034,35.266c0.685,5.518-1.731,10.712-4.147,15.866c-2.054,4.147-5.879,5.879-10.711,5.879
	c-4.148,0-7.611-1.369-9.665-5.194c-3.463-6.886-3.785-13.812-2.416-21.423c0.685-3.463,1.731-6.886,2.416-10.349
	c0.362-1.048,1.047-2.054,0.362-2.779c-1.369-1.731-0.362-3.101,0.685-4.47c0.362-0.362,0.685-1.047,1.047-1.369
	c4.833-5.879,8.295-5.517,12.765,0.362c0.685,1.047,1.369,2.054,2.054,2.416c5.879,3.786,7.249,10.027,7.933,16.591
	C165.356,32.165,165.034,33.534,165.034,35.266z M159.517,35.628c0.362-3.785,0-7.61-1.369-10.711
	c-1.369-3.463-3.786-6.201-6.564-8.617c-1.731-1.731-2.054-1.731-3.463,0.362c-5.195,9.302-6.886,19.007-3.785,29.355
	c0.685,2.778,2.416,4.832,5.194,5.517c2.779,0.685,5.195-1.047,6.886-3.101c1.047-1.047,1.732-2.054,2.054-3.463
	C158.833,41.468,160.202,38.729,159.517,35.628z"/>
<path d="M76.645,45.978c-0.685-6.563,0.362-12.766-1.047-19.329c-0.685-3.101-0.685-6.201-0.685-9.664c0-1.731,0-3.101-2.054-3.785
	c-1.732-0.362-2.054-1.731-1.369-3.101V9.735c2.416-4.832,6.563-7.248,11.033-9.302c2.054-1.047,4.148,0,6.202,1.047
	c8.617,4.47,9.302,10.027,7.248,18.282c-0.685,2.416-2.416,4.147-4.832,4.832s-4.47,1.369-6.564,2.416
	c-2.416,1.047-3.785,2.778-3.463,5.517c0.362,3.464,0,7.249,0.362,10.712c0,1.731,0.362,3.463,1.369,4.832
	c0.685,0.685,1.047,1.731,1.047,2.778c0,2.778-1.369,4.832-3.785,4.832c-1.731,0-4.147-2.416-4.147-4.47
	C76.322,49.078,76.645,47.709,76.645,45.978z M90.819,14.205c0.362-2.416-0.685-4.147-2.416-5.879
	c-1.369-1.369-2.778-1.731-4.47-1.047c-1.369,0.685-2.416,1.731-1.731,3.463c0,0.685,0,1.369-0.363,2.054
	c-1.047,2.416-0.362,4.832-0.362,7.249c0,1.047,0.362,1.731,1.731,1.731C86.671,22.139,90.819,18.354,90.819,14.205z"/>
<path d="M25.222,30.796c-2.054,6.564-5.879,12.081-4.47,19.329c0.362,2.054-0.685,3.101-2.054,4.147
	c-1.731,1.047-3.463,1.047-4.833-0.362c-1.047-1.047-1.369-2.054-1.731-3.101c-1.047-6.563-3.463-13.128-4.832-19.691
	c-0.362-4.147-0.685-8.295-4.148-11.033c-1.369-1.369-0.685-3.463,0.685-4.47c1.732-1.047,4.148-1.047,5.195,0.685
	c1.369,1.731,2.054,3.785,2.778,5.879c1.369,4.832,2.779,9.664,4.148,14.859c2.054-2.779,2.778-5.518,3.785-8.296
	c0.685-2.416,1.731-4.832,1.731-7.248c0.362-2.054,1.369-2.778,2.779-3.101c1.731-0.362,3.101,0,4.147,1.369
	c0.685,1.369,1.369,2.778,2.054,4.147c2.416,4.832,4.47,10.027,6.886,14.859c0.362,0.685,0.685,1.369,2.054,1.731
	c1.369-3.101,2.054-6.563,2.416-9.665c0.685-5.194,1.369-10.026,0.363-15.181c-0.363-1.731,0.362-3.463,0.685-4.832
	c0.685-2.054,2.054-2.416,3.785-1.369c2.054,1.369,3.101,3.463,2.778,6.201c-0.685,3.101-0.685,6.563-0.685,10.026
	c-0.362,5.518-2.054,10.35-2.416,15.866c-0.362,3.785-1.047,7.248-1.047,11.033c0,1.731-1.047,2.054-2.416,2.779
	c-1.369,0.685-2.779,0-3.786-1.048c-1.047-1.369-1.731-2.778-2.778-4.147c-2.778-4.832-5.195-9.664-7.249-14.858
	C27.96,33.534,27.275,32.165,25.222,30.796z"/>
<path d="M356.269,16.984c-0.362,6.201-1.731,11.718-4.47,17.274c-2.054,3.464-3.463,7.611-5.879,10.712
	c-1.047,1.369-0.685,2.054,1.047,2.778c1.047,0.362,2.054,1.047,3.463,0.685c1.369,0,2.778,0.362,4.147,0.685
	c1.731,0.362,2.778,1.369,2.778,3.101c0,2.054-1.369,3.463-3.463,3.785c-5.194,0.685-10.711,0.362-15.543-2.054
	c-2.417-1.369-3.102-3.463-1.732-5.879c1.369-3.101,3.102-6.563,4.833-9.664c2.416-3.463,3.785-7.249,5.517-11.034
	c1.047-2.416,1.369-4.832,1.731-7.61c0.362-2.054-0.362-3.463-2.416-4.147c-4.147-1.731-7.933-2.778-12.081,0
	c-2.054,1.369-4.147,2.054-6.201,3.101c-1.369,0.685-2.778,1.047-3.785-0.362c-1.047-1.369-0.685-2.778,0.685-3.785
	c4.47-3.464,9.302-6.564,14.859-7.934c2.416-0.685,5.194,0.685,7.61,1.369c1.047,0.362,2.054,0.685,3.101,1.047
	C354.215,10.742,356.269,13.158,356.269,16.984z"/>
</svg>
