<?xml version="1.0" encoding="utf-8"?>
<!-- Generator: Adobe Illustrator 18.0.0, SVG Export Plug-In . SVG Version: 6.00 Build 0)  -->
<!DOCTYPE svg PUBLIC "-//W3C//DTD SVG 1.1//EN" "http://www.w3.org/Graphics/SVG/1.1/DTD/svg11.dtd">
<svg version="1.1" id="Layer_1" xmlns="http://www.w3.org/2000/svg" xmlns:xlink="http://www.w3.org/1999/xlink" x="0px" y="0px"
	 viewBox="0 436.3 1490 205.2" enable-background="new 0 436.3 1490 205.2" xml:space="preserve">
<path fill="#E9E76A" d="M1192.9,594c-3.4,0-6.9,1.7-11.1,0c-14.6-6-15.4-5.1-18-20.6c-0.9-5.1-1.7-10.3-1.7-15.4
	c0-6-5.1-9.4-6.9-14.6c-1.7-5.1,4.3-9.4,3.4-15.4c-2.6-12.9-3.4-25.7-5.1-38.6c-0.9-9.4-0.9-9.4,7.7-13.7c8.6-5.1,18-6,27.4-6
	c6.9,0,14.6,0,21.4,0c5.1,0,7.7,3.4,7.7,7.7c0,3.4-3.4,6-8.6,4.3c-10.3-2.6-20.6-1.7-30.9-0.9c-9.4,1.7-10.3,3.4-9.4,12.9
	c0.9,9.4,4.3,18.9,2.6,28.3c0,1.7,0.9,4.3,0.9,6c0.9,2.6,2.6,4.3,5.1,2.6c10.3-5.1,23.1-3.4,33.4-7.7c3.4-1.7,6.9,3.4,5.1,6.9
	c-1.7,2.6-4.3,6-6,6c-6.9,0-12,6-19.7,5.1h-0.9c-12.9,1.7-15.4,4.3-12.9,17.1c3.4,16.3,6,18.9,23.1,18c6,0,11.1-0.9,15.4-3.4
	c5.1-2.6,11.1-3.4,17.1-1.7c2.6,0.9,5.1,2.6,2.6,6c-3.4,5.1-7.7,10.3-13.7,11.1C1211.7,590.6,1203.1,594.9,1192.9,594z"/>
<path fill="#E9E76A" d="M1111.4,534c0.9-14.6,2.6-28.3-2.6-42.9c-3.4-8.6,0-18,3.4-26.6c0.9-2.6,10.3-6,12.9-5.1
	c4.3,0.9,6.9,5.1,4.3,9.4c-4.3,6-3.4,12-2.6,18.9c0.9,7.7,1.7,16.3,1.7,24.9c0.9,20.6,2.6,40.3,9.4,59.2c0.9,2.6,1.7,6-0.9,8.6
	c-2.6,2.6-5.1,6.9-9.4,5.1c-4.3-1.7-8.6-3.4-11.1-8.6c-7.7-18.9-20.6-35.1-32.6-51.4h-0.9c-2.6,1.7-1.7,4.3-1.7,6
	c0,10.3-4.3,20.6-0.9,31.7c0.9,1.7,0,3.4-0.9,5.1c-2.6,6.9-4.3,12.9-4.3,19.7c0,5.1-4.3,6.9-7.7,8.6c-5.1,1.7-10.3-3.4-9.4-10.3
	c1.7-10.3,4.3-20.6,6.9-30.9c3.4-18.9,5.1-37.7,1.7-56.6c-1.7-10.3,5.1-17.1,12-15.4c2.6,0.9,5.1,2.6,6,6c1.7,9.4,6.9,18,12.9,24.9
	C1102,521.1,1107.1,528,1111.4,534z"/>
<path fill="#E9E76A" d="M381.8,582.9c0.9,3.4-0.9,6-3.4,6.9c-4.3,1.7-8.6,0.9-11.1-2.6c-3.4-3.4-6-6.9-5.1-12
	c0.9-6-1.7-11.1-3.4-17.1c-2.6-9.4-7.7-12.9-17.1-12c-8.6,0.9-17.1,2.6-26.6,2.6c-5.1,0-6,5.1-6,7.7c-1.7,9.4-5.1,16.3-7.7,23.1
	c-1.7,3.4-3.4,6.9-6,9.4c-2.6,2.6-6.9,3.4-10.3,1.7c-3.4-2.6-4.3-7.7-2.6-11.1c14.6-21.4,18-46.3,24-71.2c3.4-12.9,7.7-24.9,12-36.9
	c4.3-10.3,11.1-10.3,18.9-2.6c6.9,6.9,8.6,16.3,11.1,24.9c4.3,14.6,9.4,27.4,16.3,41.2c5.1,9.4,10.3,19.7,12,30.9
	C377.6,571.7,382.7,576.9,381.8,582.9z M329.5,495.4c-2.6,0.9-3.4,2.6-4.3,4.3c-5.1,10.3-6,21.4-9.4,32.6c-0.9,2.6,0.9,4.3,4.3,4.3
	c6-0.9,12.9-0.9,18.9-4.3c3.4-0.9,6-4.3,3.4-7.7c-4.3-6-4.3-12.9-6.9-18.9C334.7,501.4,333,497.1,329.5,495.4z"/>
<path fill="#E9E76A" d="M434.1,588.9c-6.9,1.7-15.4,1.7-23.1,2.6c-6.9,0.9-12-2.6-12.9-9.4c-0.9-22.3-8.6-44.6-8.6-66.9
	c0-15.4-4.3-30-6.9-45.4c0-2.6-0.9-5.1-0.9-6.9c0-5.1,2.6-6.9,6.9-7.7c4.3-0.9,6,1.7,6.9,6c1.7,10.3,3.4,20.6,5.1,31.7
	c2.6,24,7.7,47.2,11.1,70.3c1.7,10.3,2.6,11.1,13.7,10.3c3.4,0,6.9-0.9,10.3-1.7s6,0,8.6,1.7c3.4,1.7,6,5.1,6.9,9.4
	c0.9,2.6-6.9,6.9-11.1,7.7C438.4,589.7,436.7,589.7,434.1,588.9z"/>
<path fill="#E9E76A" d="M641.6,540c1.7,13.7-4.3,26.6-10.3,39.4c-5.1,10.3-14.6,14.6-26.6,14.6c-10.3,0-18.9-3.4-24-12.9
	c-8.6-17.1-9.4-34.3-6-53.2c1.7-8.6,4.3-17.1,6-25.7c0.9-2.6,2.6-5.1,0.9-6.9c-3.4-4.3-0.9-7.7,1.7-11.1c0.9-0.9,1.7-2.6,2.6-3.4
	c12-14.6,20.6-13.7,31.7,0.9c1.7,2.6,3.4,5.1,5.1,6c13.7,9.4,17.1,24.9,18.9,41.2C641.6,531.4,641.6,535.7,641.6,540z M627.9,540
	c0.9-9.4,0-18.9-3.4-26.6c-3.4-8.6-9.4-15.4-16.3-21.4c-4.3-4.3-5.1-4.3-8.6,0.9c-12.9,23.1-17.1,47.2-9.4,72.9
	c1.7,6.9,6,12,12.9,13.7s12.9-2.6,17.1-7.7c2.6-2.6,4.3-5.1,5.1-8.6C626.2,555.4,629.6,547.7,627.9,540z"/>
<path fill="#E9E76A" d="M1051.4,540c1.7,13.7-4.3,26.6-10.3,39.4c-5.1,10.3-14.6,14.6-26.6,14.6c-10.3,0-18.9-3.4-24-12.9
	c-8.6-17.1-9.4-34.3-6-53.2c1.7-8.6,4.3-17.1,6-25.7c0.9-2.6,2.6-5.1,0.9-6.9c-3.4-4.3-0.9-7.7,1.7-11.1c-0.9-1.7,0-3.4,0.9-4.3
	c12-14.6,20.6-13.7,31.7,0.9c1.7,2.6,3.4,5.1,5.1,6c14.6,9.4,18,24.9,19.7,41.2C1051.4,531.4,1051.4,535.7,1051.4,540z M1036.8,540
	c0.9-9.4,0-18.9-3.4-26.6c-3.4-8.6-9.4-15.4-16.3-21.4c-4.3-4.3-5.1-4.3-8.6,0.9c-12.9,23.1-17.1,47.2-9.4,72.9
	c1.7,6.9,6,12,12.9,13.7s12.9-2.6,17.1-7.7c2.6-2.6,4.3-5.1,5.1-8.6C1036,555.4,1038.5,547.7,1036.8,540z"/>
<path fill="#E9E76A" d="M965.7,536.6c0,0.9,0.9,3.4,0,5.1c-2.6,9.4-6,18.9-8.6,28.3c-0.9,3.4-2.6,6-6,6.9c-12.9,6-24,14.6-38.6,16.3
	s-24-5.1-21.4-18.9c3.4-17.1,0-34.3,0-51.4c0-12.9,0.9-24.9-1.7-37.7c-0.9-4.3,2.6-9.4,5.1-13.7c1.7-2.6,5.1-3.4,8.6-3.4
	c42,3.4,60.9,30,62.6,65.2C965.7,534.9,965.7,534.9,965.7,536.6z M906.5,546c0,5.1-0.9,11.1,2.6,15.4c2.6,2.6,4.3,6,4.3,10.3
	c0.9,4.3,4.3,6,6.9,2.6c2.6-3.4,6-4.3,9.4-4.3c2.6,0,5.1-0.9,6-2.6c2.6-5.1,7.7-9.4,9.4-15.4c2.6-12,4.3-23.1,0-35.1
	c-6-15.4-16.3-27.4-34.3-30c-6-0.9-6,0-6,6C906.5,510,904.8,528,906.5,546z"/>
<path fill="#E9E76A" d="M732.5,496.3c-1.7,0-3.4,0-5.1,0c-3.4,0-6-1.7-6-5.1c-0.9-3.4,1.7-6,5.1-6.9c1.7-0.9,4.3-1.7,6-1.7
	c17.1-2.6,33.4-7.7,50.6-11.1c1.7,0,3.4-0.9,5.1-0.9c4.3,0,7.7,2.6,8.6,6c1.7,4.3-0.9,6.9-4.3,9.4c-5.1,3.4-12,3.4-18,3.4
	c-15.4,1.7-13.7,0-12,14.6c2.6,17.1,6,34.3,6.9,51.4c0,6,1.7,11.1,4.3,17.1c2.6,4.3,1.7,9.4,0,13.7c-0.9,2.6-2.6,6-6.9,6
	c-3.4,0-6-1.7-8.6-5.1c-1.7-1.7-1.7-4.3-1.7-6.9c-2.6-23.1-4.3-47.2-6.9-70.3c0-1.7-0.9-4.3-0.9-6c-2.6-9.4-2.6-9.4-12.9-8.6
	C734.2,496.3,733.3,496.3,732.5,496.3z"/>
<path fill="#E9E76A" d="M478.7,521.1c0.9,14.6-1.7,27.4,0.9,40.3c1.7,8.6,0,18-0.9,26.6c0,4.3-3.4,6-7.7,6s-7.7-2.6-7.7-7.7
	c-0.9-11.1,0-21.4,0.9-32.6c1.7-18,0-35.1-0.9-53.2c0-4.3-2.6-6.9-4.3-10.3c-2.6-3.4-0.9-6,0.9-8.6c1.7-2.6,5.1-3.4,8.6-1.7
	c4.3,1.7,8.6,4.3,9.4,10.3c2.6,11.1,11.1,17.1,19.7,24c3.4,2.6,5.1,0,6-3.4c1.7-6,2.6-11.1,4.3-17.1c1.7-8.6,5.1-16.3,8.6-24
	c4.3-9.4,10.3-10.3,17.1-3.4c8.6,9.4,12.9,20.6,16.3,31.7c6.9,24.9,8.6,51.4,12.9,76.3v0.9c0,3.4,1.7,7.7-2.6,10.3
	c-5.1,2.6-7.7-1.7-10.3-5.1c-4.3-4.3-4.3-11.1-5.1-16.3c-1.7-11.1-2.6-23.1-3.4-34.3C539.6,516.9,537,504,531,492
	c-2.6-1.7-3.4-3.4-6-3.4c-3.4,0-3.4,3.4-3.4,5.1c-2.6,10.3-4.3,20.6-5.1,31.7c0,4.3-0.9,7.7-4.3,10.3c-3.4,2.6-6,4.3-11.1,0.9
	C494.1,531.4,488.1,525.4,478.7,521.1z"/>
<path fill="#E9E76A" d="M680.2,454.3c6.9-0.9,13.7,1.7,19.7,6.9c1.7,1.7,3.4,3.4,3.4,6c0.9,3.4,0.9,6.9-2.6,9.4
	c-4.3,1.7-6.9,0-9.4-3.4c-6.9-9.4-17.1-8.6-23.1,0.9c-2.6,4.3-4.3,8.6-4.3,13.7c0,6.9,1.7,9.4,7.7,12c7.7,2.6,14.6,7.7,21.4,11.1
	c16.3,8.6,24,22.3,24.9,39.4c0.9,9.4-5.1,17.1-12,23.1c-6.9,6-16.3,10.3-24,15.4c-6,3.4-12.9,3.4-19.7,3.4c-4.3,0-7.7-3.4-9.4-6.9
	c-1.7-3.4-0.9-6.9,1.7-9.4c3.4-2.6,5.1,0,7.7,1.7c2.6,2.6,5.1,2.6,8.6,0.9c7.7-4.3,16.3-7.7,23.1-13.7c12.9-11.1,8.6-33.4-6-40.3
	c-8.6-4.3-17.1-9.4-25.7-13.7c-11.1-6-15.4-18-12-30.9c0.9-3.4,2.6-6.9,4.3-10.3C659.6,459.4,668.2,453.4,680.2,454.3z"/>
<path fill="#9290A8" d="M259.7,562.4C241,553.7,206,525,186,503.8c13.7-10,42.5-38.7,28.7-59.9c-8.7-2.5-12.5,3.7-18.7,8.7
	c-21.2,7.5-41.2,15-61.2,22.5c-22.5-13.7-51.2-21.2-64.9-38.7c-7.5,0-13.7,2.5-18.7,6.2c7.5,25,22.5,47.4,25,73.7
	C53.7,543.7,23.7,553.7,0,578.7c1.2,2.5,1.2,5,1.2,7.5c3.7,1.2,6.2,2.5,10,3.7c23.7-8.7,44.9-20,73.7-16.2
	c10,22.5,28.7,41.2,31.2,67.4c7.5,2.5,10-7.5,18.7-1.2c3.7-6.2-1.2-8.7,2.5-13.7c1.2,1.2,1.2,2.5,2.5,2.5c1.2,0,1.2-1.2,0-1.2
	c-3.7-21.2,8.7-53.7,28.7-57.4c5-1.2,11.2,2.5,18.7,2.5c6.2,0,15-5,20-5c11.2,0,22.5,6.2,32.5,3.7
	C246,567.4,252.2,564.9,259.7,562.4z"/>
<path fill="#E8E76A" d="M82.4,467.6c5,22.5,21.2,47.4,3.7,68.7c-7.5,8.7-23.7,12.5-28.7,22.5c15,0,27.5-6.2,44.9-2.5
	c5,13.7,7.5,28.7,18.7,40c15-15,13.7-37.5,30-43.7c23.7,8.7,40,0,59.9-2.5c-16.2-13.7-33.7-26.2-49.9-40c0-11.2,8.7-16.2,15-27.5
	c5,3.7,13.7,0,16.2-11.2c-21.2,5-42.5,11.2-58.7,27.5C116.1,488.8,104.9,477.5,82.4,467.6z"/>
</svg>
