<?xml version="1.0" encoding="utf-8"?>
<!-- Generator: Adobe Illustrator 18.0.0, SVG Export Plug-In . SVG Version: 6.00 Build 0)  -->
<!DOCTYPE svg PUBLIC "-//W3C//DTD SVG 1.1//EN" "http://www.w3.org/Graphics/SVG/1.1/DTD/svg11.dtd">
<svg version="1.1" id="Layer_1" xmlns="http://www.w3.org/2000/svg" xmlns:xlink="http://www.w3.org/1999/xlink" x="0px" y="0px"
	 viewBox="0 -28.5 1415.9 207.7" enable-background="new 0 -28.5 1415.9 207.7" xml:space="preserve">
<path fill="#E9E76A" d="M1388.5,101.8c0.9-14.6,2.6-28.3-2.6-42.9c-3.4-8.6,0-18,3.4-26.6c0.9-2.6,10.3-6,12.9-5.1
	c4.3,0.9,6.9,5.1,4.3,9.4c-4.3,6-3.4,12-2.6,18.9c0.9,7.7,1.7,16.3,1.7,24.9c0.9,20.6,2.6,40.3,9.4,59.2c0.9,2.6,1.7,6-0.9,8.6
	c-2.6,2.6-5.1,6.9-9.4,5.1s-8.6-3.4-11.1-8.6c-7.7-18.9-20.6-35.1-32.6-51.4h-0.9c-2.6,0-1.7,2.6-1.7,5.1c0,10.3-4.3,20.6-0.9,31.7
	c0.9,1.7,0,3.4-0.9,5.1c-2.6,6.9-4.3,12.9-4.3,19.7c0,5.1-4.3,6.9-7.7,8.6c-5.1,1.7-10.3-3.4-9.4-10.3c1.7-10.3,4.3-20.6,6.9-30.9
	c3.4-18.9,5.1-37.7,1.7-56.6c-1.7-9.4,4.3-16.3,12-13.7c2.6,0.9,5.1,2.6,6,6c1.7,9.4,6.9,18,12.9,24.9
	C1379.1,88.9,1384.2,94.9,1388.5,101.8z"/>
<path fill="#E9E76A" d="M442.9,150.6c0.9,3.4-0.9,6-3.4,6.9c-4.3,1.7-8.6,0.9-11.1-2.6c-3.4-3.4-6-6.9-5.1-12
	c0.9-6-1.7-11.1-3.4-17.1c-2.6-9.4-7.7-12.9-17.1-12c-8.6,0.9-17.1,2.6-26.6,2.6c-5.1,0-6,5.1-6,7.7c-1.7,7.7-4.3,14.6-7.7,21.4
	c-1.7,3.4-3.4,6.9-6,9.4s-6.9,3.4-10.3,1.7c-3.4-1.7-4.3-7.7-1.7-11.1c14.6-21.4,18-46.3,24-71.2c2.6-12.9,7.7-24.9,12-36.9
	c2.6-8.6,9.4-9.4,18-0.9c6.9,6.9,8.6,16.3,11.1,24.9c4.3,14.6,9.4,27.4,16.3,41.2c5.1,9.4,10.3,19.7,12,30.9
	C438.6,138.6,443.8,144.6,442.9,150.6z M389.7,63.2c-2.6,0.9-3.4,2.6-4.3,4.3c-5.1,10.3-5.1,21.4-8.6,32.6c-0.9,2.6,0.9,4.3,4.3,4.3
	c6.9-0.9,12.9-0.9,18.9-3.4c3.4-1.7,6-4.3,3.4-7.7c-3.4-6-4.3-12.9-6.9-18.9C394.9,69.2,394,64.9,389.7,63.2z"/>
<path fill="#E9E76A" d="M1139.9,150.6c0.9,3.4-0.9,6-3.4,6.9c-4.3,1.7-8.6,0.9-11.1-2.6c-3.4-3.4-6-6.9-5.1-12
	c0.9-6-1.7-11.1-3.4-17.1c-2.6-9.4-7.7-12.9-17.1-12c-8.6,0.9-17.1,2.6-26.6,2.6c-5.1,0-6,5.1-6,7.7c-1.7,7.7-4.3,14.6-7.7,21.4
	c-1.7,3.4-3.4,6.9-6,9.4c-2.6,2.6-6.9,3.4-10.3,1.7c-3.4-1.7-4.3-7.7-1.7-11.1c14.6-21.4,18-46.3,24-71.2c1.7-11.1,6-24,11.1-36
	c4.3-10.3,11.1-10.3,18.9-2.6c6.9,6.9,8.6,16.3,11.1,24.9c4.3,14.6,9.4,27.4,16.3,41.2c5.1,9.4,10.3,19.7,12,30.9
	C1135.6,138.6,1140.7,144.6,1139.9,150.6z M1086.7,63.2c-1.7,0.9-2.6,2.6-4.3,4.3c-5.1,10.3-5.1,21.4-8.6,32.6
	c-0.9,2.6,0.9,4.3,4.3,4.3c6.9-0.9,12.9-0.9,18.9-3.4c3.4-1.7,6-4.3,3.4-7.7c-3.4-6-4.3-12.9-6.9-18.9
	C1091.9,69.2,1091,64.9,1086.7,63.2z"/>
<path fill="#E9E76A" d="M760.1,105.2c1.7,13.7-4.3,26.6-10.3,39.4c-5.1,10.3-14.6,14.6-26.6,14.6c-10.3,0-18.9-3.4-24-12.9
	c-8.6-17.1-9.4-34.3-6-53.2c1.7-8.6,4.3-17.1,6-25.7c0.9-2.6,2.6-5.1,0.9-6.9c-3.4-4.3-0.9-7.7,1.7-11.1c0.9-0.9,1.7-2.6,2.6-3.4
	c12-14.6,20.6-13.7,31.7,0.9c1.7,2.6,3.4,5.1,5.1,6c14.6,9.4,17.1,24.9,18.9,40.3C761,96.6,760.1,100.1,760.1,105.2z M746.4,105.2
	c0.9-9.4,0-18.9-3.4-26.6c-3.4-8.6-9.4-15.4-16.3-21.4c-4.3-4.3-5.1-4.3-8.6,0.9c-12.9,23.1-17.1,47.2-9.4,72.9
	c1.7,6.9,6,12,12.9,13.7s12.9-2.6,17.1-7.7c2.6-2.6,4.3-5.1,5.1-8.6C744.7,119.8,748.1,112.9,746.4,105.2z"/>
<path fill="#E9E76A" d="M1329.4,105.2c1.7,13.7-4.3,26.6-10.3,39.4c-5.1,10.3-14.6,14.6-26.6,14.6c-10.3,0-18.9-3.4-24-12.9
	c-8.6-17.1-9.4-34.3-6-53.2c1.7-8.6,4.3-17.1,6-25.7c0.9-2.6,2.6-5.1,0.9-6.9c-3.4-4.3-0.9-7.7,1.7-11.1c0.9-0.9,1.7-2.6,2.6-3.4
	c12-14.6,20.6-13.7,31.7,0.9c1.7,2.6,3.4,5.1,5.1,6c14.6,9.4,18,24.9,19.7,41.2C1329.4,96.6,1329.4,100.1,1329.4,105.2z
	 M1314.8,105.2c0.9-9.4,0-18.9-3.4-26.6c-3.4-8.6-9.4-15.4-16.3-21.4c-4.3-4.3-5.1-4.3-8.6,0.9c-12.9,23.1-17.1,47.2-9.4,72.9
	c1.7,6.9,6,12,12.9,13.7c6.9,1.7,12.9-2.6,17.1-7.7c2.6-2.6,4.3-5.1,5.1-8.6C1313.9,119.8,1316.5,112.9,1314.8,105.2z"/>
<path fill="#E9E76A" d="M528.6,101.8c0,0.9,0.9,3.4,0,5.1c-2.6,9.4-6,18.9-8.6,28.3c-0.9,3.4-2.6,6-6,6.9c-12.9,6-24,14.6-38.6,16.3
	c-14.6,1.7-24-5.1-21.4-18.9c3.4-17.1,0-34.3,0-51.4c0-12.9,0.9-24.9-1.7-37.7c-0.9-4.3,2.6-9.4,5.1-13.7c1.7-2.6,5.1-3.4,8.6-3.4
	c42,3.4,60.9,30,62.6,65.2C527.8,99.2,528.6,100.1,528.6,101.8z M468.6,111.2c0,5.1-0.9,11.1,2.6,15.4c2.6,2.6,4.3,6,4.3,10.3
	c0.9,4.3,4.3,6,6.9,2.6c2.6-3.4,6-4.3,9.4-4.3c2.6,0,5.1-0.9,6-2.6c2.6-5.1,7.7-9.4,9.4-15.4c2.6-12,4.3-23.1,0-35.1
	c-6-15.4-16.3-27.4-34.3-30c-6-0.9-6,0-6,6C468.6,75.2,466.9,93.2,468.6,111.2z"/>
<path fill="#E9E76A" d="M1047.3,101.8c0,0.9,0.9,3.4,0,5.1c-2.6,9.4-6,18.9-8.6,28.3c-0.9,3.4-2.6,6-6,6.9
	c-12.9,6-24,14.6-38.6,16.3c-14.6,1.7-24-5.1-21.4-18.9c3.4-17.1,0-34.3,0-51.4c0-12.9,0.9-24.9-1.7-37.7c-0.9-4.3,2.6-9.4,5.1-13.7
	c1.7-2.6,5.1-3.4,8.6-3.4c42,3.4,60.9,30,62.6,65.2C1046.4,99.2,1047.3,100.1,1047.3,101.8z M987.3,111.2c0,5.1-0.9,11.1,2.6,15.4
	c2.6,2.6,4.3,6,4.3,10.3c0.9,4.3,4.3,6,6.9,2.6c2.6-3.4,6-4.3,9.4-4.3c2.6,0,5.1-0.9,6-2.6c2.6-5.1,7.7-9.4,9.4-15.4
	c2.6-12,4.3-23.1,0-35.1c-6-15.4-16.3-27.4-34.3-30c-6-0.9-6,0-6,6C987.3,75.2,985.6,93.2,987.3,111.2z"/>
<path fill="#E9E76A" d="M1145,61.5c-1.7,0-3.4,0-5.1,0c-3.4,0-6-1.7-6-5.1c-0.9-3.4,1.7-6,5.1-6.9c1.7-0.9,4.3-1.7,6-1.7
	c17.1-2.6,33.4-7.7,50.6-11.1c1.7,0,3.4-0.9,5.1-0.9c4.3,0,7.7,2.6,8.6,6c1.7,4.3-0.9,6.9-4.3,9.4c-5.1,3.4-12,3.4-18,3.4
	c-15.4,1.7-13.7,0-12,14.6c2.6,17.1,6,34.3,6.9,51.4c0,6,1.7,11.1,4.3,17.1c2.6,4.3,1.7,9.4,0,13.7c-0.9,2.6-2.6,6-6.9,6
	c-3.4,0-6-1.7-8.6-5.1c-1.7-1.7-1.7-4.3-1.7-6.9c-2.6-23.1-4.3-47.2-6.9-70.3c0-1.7-0.9-4.3-0.9-6c-2.6-9.4-2.6-9.4-12.9-8.6
	C1146.7,61.5,1145.9,61.5,1145,61.5z"/>
<path fill="#E9E76A" d="M311.7,79.5c2.6,2.6,6,2.6,8.6,2.6c5.1,0,11.1,0,13.7,4.3c4.3,6,8.6,12.9,8.6,21.4
	c-0.9,16.3-8.6,27.4-21.4,36c-6,4.3-13.7,7.7-19.7,12.9c-6,4.3-14.6,2.6-21.4,2.6c-4.3,0-5.1-4.3-5.1-7.7c0.9-21.4-5.1-41.2-6-62.6
	c-1.7-16.3-1.7-32.6-6.9-48c-1.7-5.1,1.7-11.1,6.9-12.9c6.9-1.7,12-6,18.9-8.6c12-5.1,24-6,35.1,1.7c6,5.1,7.7,12,6.9,19.7
	c-0.9,11.1-6,20.6-12.9,29.1C314.3,72.6,312.6,76.1,311.7,79.5z M310,94.9c-6.9,1.7-13.7,0.9-19.7,5.1c-4.3,2.6-6,5.1-5.1,9.4
	c0.9,9.4,3.4,18.9,5.1,28.3c0.9,5.1,3.4,5.1,8.6,3.4c12-4.3,18.9-13.7,24.9-24C329.7,105.2,322.9,94.9,310,94.9z M282.6,85.5
	c5.1-5.1,11.1-9.4,15.4-14.6c7.7-8.6,13.7-18,16.3-29.1c0.9-5.1-0.9-7.7-5.1-9.4c-6.9-2.6-25.7,3.4-30,9.4c-0.9,0.9-1.7,1.7-1.7,3.4
	C279.2,58.1,280.9,71.8,282.6,85.5z"/>
<path fill="#E9E76A" d="M615.2,143.8c-0.9-24,0.9-48-4.3-71.2c-1.7-7.7,0-16.3-4.3-24c-2.6-4.3,0-7.7,6-9.4
	c12.9-5.1,26.6-6.9,40.3-7.7c3.4,0,6.9,0,10.3-0.9c6.9-2.6,13.7,1.7,20.6,0c2.6-1.7,6,2.6,7.7,6c0.9,1.7,0.9,4.3-0.9,4.3
	c-7.7,3.4-12.9,10.3-23.1,7.7c-12-2.6-24.9,0.9-36.9,1.7c-4.3,0-6,2.6-5.1,6.9c0.9,6.9,3.4,12.9,3.4,19.7c0,4.3,2.6,6,6.9,6
	c5.1,0,9.4-1.7,13.7-4.3c6-2.6,12-3.4,18.9,0c3.4,2.6,6,5.1,4.3,10.3c-2.6,6-6.9,10.3-12,8.6c-8.6-2.6-16.3,0.9-24,2.6
	c-5.1,0.9-6,3.4-5.1,7.7c0.9,12,1.7,24,3.4,35.1c0,3.4,0.9,6,0,9.4c-0.9,4.3-2.6,8.6-8.6,8.6c-5.1,0.9-7.7-0.9-9.4-6.9
	C615.2,150.6,612.6,147.2,615.2,143.8z"/>
<path fill="#E9E76A" d="M839.8,80.4c-1.7,12.9-0.9,25.7-1.7,38.6c-1.7,13.7-6,24.9-14.6,35.1c-5.1,6-18,6-25.7,0
	c-8.6-6.9-14.6-14.6-15.4-25.7c-2.6-25.7-7.7-50.6-12.9-75.4c-0.9-4.3,1.7-8.6,5.1-9.4c4.3-1.7,9.4,0.9,11.1,5.1
	c0.9,1.7,0.9,4.3,0.9,6c2.6,22.3,8.6,44.6,11.1,66.9c0.9,5.1,2.6,10.3,4.3,14.6c1.7,3.4,5.1,5.1,9.4,6c3.4,0,4.3-3.4,6-6
	c2.6-6,4.3-11.1,5.1-18c0.9-14.6,3.4-29.1,1.7-43.7c-0.9-7.7,0.9-15.4,2.6-23.1c0.9-5.1,6.9-8.6,12-6.9c1.7,0.9,4.3,2.6,3.4,4.3
	C838.1,58.9,841.5,70.1,839.8,80.4z"/>
<path fill="#E9E76A" d="M942.7,124.9c-4.3-20.6-1.7-41.2-2.6-60.9c0-4.3-1.7-7.7-2.6-12c-0.9-4.3,0.9-7.7,5.1-8.6
	c4.3-1.7,8.6,0,10.3,4.3c0.9,2.6,0.9,4.3,1.7,6.9c0.9,12.9,0.9,25.7,0.9,38.6c0,14.6,0.9,29.1,6,43.7c1.7,4.3,0,7.7,0,12
	c-0.9,5.1-5.1,6.9-8.6,6.9c-5.1,0-10.3-0.9-14.6-4.3c-4.3-3.4-8.6-5.1-9.4-11.1c-0.9-5.1-4.3-8.6-7.7-12
	c-15.4-16.3-30.9-32.6-46.3-49.7c-1.7-0.9-2.6-2.6-5.1-1.7c-1.7,4.3-1.7,9.4-0.9,14.6c1.7,16.3,2.6,31.7,3.4,48
	c0,3.4,1.7,7.7,1.7,11.1c0.9,6-2.6,11.1-7.7,11.1c-6,0.9-12.9-6-11.1-11.1c2.6-7.7,1.7-14.6,0.9-22.3c-0.9-26.6-1.7-52.3-1.7-78.9
	c0-3.4,0-7.7,4.3-8.6c4.3-0.9,8.6,0.9,9.4,4.3c5.1,13.7,16.3,20.6,24.9,30.9c12.9,15.4,27.4,29.1,42.9,42.9
	C937.6,120.6,937.6,124.1,942.7,124.9z"/>
<path fill="#E9E76A" d="M1237.6,80.4c0.9,12,0,24.9,2.6,37.7c1.7,8.6,6,17.1,11.1,24.9c3.4,6,1.7,9.4-5.1,13.7
	c-5.1,2.6-7.7,1.7-11.1-4.3c-4.3-7.7-5.1-17.1-7.7-25.7c-3.4-11.1-3.4-22.3-3.4-33.4c0.9-12,0-24-2.6-35.1c0-1.7-0.9-2.6-0.9-4.3
	c-0.9-5.1,2.6-7.7,6-9.4c4.3-1.7,6.9,2.6,7.7,6C1237.6,59.8,1238.5,70.1,1237.6,80.4z"/>
<path fill="#9290A8" d="M259.7,97.6C241,88.8,206,60.1,186,38.9c13.7-10,42.5-38.7,28.7-59.9c-8.7-2.5-12.5,3.7-18.7,8.7
	c-21.2,7.5-41.2,15-61.2,22.5C112.4-3.6,83.7-11.1,69.9-28.5c-7.5,0-13.7,2.5-18.7,6.2c7.5,25,22.5,47.4,25,73.7
	C53.7,78.8,23.7,88.8,0,113.8c1.2,2.5,1.2,5,1.2,7.5c3.7,1.2,6.2,2.5,10,3.7c23.7-8.7,44.9-20,73.7-16.2
	c10,22.5,28.7,41.2,31.2,67.4c7.5,2.5,10-7.5,18.7-1.2c3.7-6.2-1.2-8.7,2.5-13.7c1.2,1.2,1.2,2.5,2.5,2.5c1.2,0,1.2-1.2,0-1.2
	c-3.7-21.2,8.7-53.7,28.7-57.4c5-1.2,11.2,2.5,18.7,2.5c6.2,0,15-5,20-5c11.2,0,22.5,6.2,32.5,3.7C246,102.5,252.2,100.1,259.7,97.6
	z"/>
<path fill="#E8E76A" d="M82.4,2.7c5,22.5,21.2,47.4,3.7,68.7c-7.5,8.7-23.7,12.5-28.7,22.5c15,0,27.5-6.2,44.9-2.5
	c5,13.7,7.5,28.7,18.7,40c15-15,13.7-37.5,30-43.7c23.7,8.7,40,0,59.9-2.5c-16.2-13.7-33.7-26.2-49.9-40c0-11.2,8.7-16.2,15-27.5
	c5,3.7,13.7,0,16.2-11.2c-21.2,5-42.5,11.2-58.7,27.5C116.1,23.9,104.9,12.7,82.4,2.7z"/>
</svg>
