<?xml version="1.0" encoding="utf-8"?>
<!-- Generator: Adobe Illustrator 18.0.0, SVG Export Plug-In . SVG Version: 6.00 Build 0)  -->
<!DOCTYPE svg PUBLIC "-//W3C//DTD SVG 1.1//EN" "http://www.w3.org/Graphics/SVG/1.1/DTD/svg11.dtd">
<svg version="1.1" id="Layer_1" xmlns="http://www.w3.org/2000/svg" xmlns:xlink="http://www.w3.org/1999/xlink" x="0px" y="0px"
	 viewBox="-223.6 122.5 1713.6 214.3" enable-background="new -223.6 122.5 1713.6 214.3" xml:space="preserve">
<path fill="#E9E76A" d="M1063.9,282.8c1.7,13.7-4.3,26.6-10.3,39.4c-5.1,10.3-14.6,14.6-26.6,14.6c-10.3,0-18.9-3.4-24-12.9
	c-8.6-17.1-9.4-34.3-6-53.2c1.7-8.6,4.3-17.1,6-25.7c0.9-2.6,2.6-5.1,0.9-6.9c-3.4-4.3-0.9-7.7,1.7-11.1c0.9-0.9,1.7-2.6,2.6-3.4
	c12-14.6,20.6-13.7,31.7,0.9c1.7,2.6,3.4,5.1,5.1,6c14.6,9.4,18,24.9,19.7,41.2C1063.9,274.3,1063.9,277.7,1063.9,282.8z
	 M1049.3,282.8c0.9-9.4,0-18.9-3.4-26.6c-3.4-8.6-9.4-15.4-16.3-21.4c-4.3-4.3-5.1-4.3-8.6,0.9c-12.9,23.1-17.1,47.2-9.4,72.9
	c1.7,6.9,6,12,12.9,13.7c6.9,1.7,12.9-2.6,17.1-7.7c2.6-2.6,4.3-5.1,5.1-8.6C1047.6,297.4,1051.1,290.6,1049.3,282.8z"/>
<path fill="#E9E76A" d="M804.2,279.4c0,0.9,0.9,3.4,0,5.1c-2.6,9.4-6,18.9-8.6,28.3c-0.9,3.4-2.6,6-6,6.9c-12.9,6-24,14.6-38.6,16.3
	c-14.6,1.7-24-5.1-21.4-18.9c3.4-17.1,0-34.3,0-51.4c0-12.9,0.9-24.9-1.7-37.7c-0.9-4.3,2.6-9.4,5.1-13.7c1.7-2.6,5.1-3.4,8.6-3.4
	c42,3.4,60.9,30,62.6,65.2C804.2,277.7,804.2,277.7,804.2,279.4z M745,288.8c0,5.1-0.9,11.1,2.6,15.4c2.6,2.6,4.3,6,4.3,10.3
	c0.9,4.3,4.3,6,6.9,2.6s6-4.3,9.4-4.3c2.6,0,5.1-0.9,6-2.6c2.6-5.1,7.7-9.4,9.4-15.4c2.6-12,4.3-23.1,0-35.1
	c-6-15.4-16.3-27.4-34.3-30c-6-0.9-6,0-6,6C744.1,252.8,742.4,270.8,745,288.8z"/>
<path fill="#E9E76A" d="M918.2,318.9c-0.9-24,0.9-48-4.3-71.2c-1.7-7.7,0-16.3-4.3-24c-2.6-4.3,0-7.7,6-9.4
	c12.9-5.1,26.6-6.9,40.3-7.7c3.4,0,6.9,0,10.3-0.9c6.9-2.6,13.7,1.7,20.6,0c3.4-0.9,6.9,3.4,7.7,6.9c0.9,1.7,0.9,4.3-0.9,4.3
	c-7.7,3.4-12.9,10.3-23.1,7.7c-12-2.6-24,0.9-36.9,1.7c-4.3,0-6,2.6-5.1,6.9c0.9,6.9,3.4,12.9,3.4,19.7c0,4.3,2.6,6,6.9,6
	c5.1,0,9.4-1.7,13.7-4.3c6-3.4,12-4.3,18-0.9c3.4,2.6,6,5.1,4.3,10.3c-2.6,6-6.9,10.3-12,8.6c-8.6-2.6-16.3,0.9-24,2.6
	c-5.1,0.9-6,3.4-5.1,7.7c0.9,12,1.7,24,3.4,35.1c0,3.4,0.9,6,0,9.4c-0.9,4.3-2.6,8.6-8.6,8.6c-5.1,0.9-7.7-0.9-9.4-6.9
	C918.2,325.7,915.6,322.3,918.2,318.9z"/>
<path fill="#E9E76A" d="M371.2,279.4c0,0.9,0.9,3.4,0,5.1c-2.6,9.4-6,18.9-8.6,28.3c-0.9,3.4-2.6,6-6,6.9c-12.9,6-24,14.6-38.6,16.3
	c-14.6,1.7-24-5.1-21.4-18.9c3.4-17.1,0-34.3,0-51.4c0-12.9,0.9-24.9-1.7-37.7c-0.9-4.3,2.6-9.4,5.1-13.7c1.7-2.6,5.1-3.4,8.6-3.4
	c42,3.4,60.9,30,62.6,65.2C371.2,277.7,371.2,277.7,371.2,279.4z M312.1,288.8c0,5.1-0.9,11.1,2.6,15.4c2.6,2.6,4.3,6,4.3,10.3
	c0.9,4.3,4.3,6,6.9,2.6c2.6-3.4,6-4.3,9.4-4.3c2.6,0,5.1-0.9,6-2.6c2.6-5.1,7.7-9.4,9.4-15.4c2.6-12,4.3-23.1,0-35.1
	c-6-15.4-16.3-27.4-34.3-30c-6-0.9-6,0-6,6C311.2,252.8,309.5,270.8,312.1,288.8z"/>
<path fill="#E9E76A" d="M1193.4,336c-3.4,0-6.9,1.7-11.1,0c-14.6-6-15.4-5.1-18-20.6c-0.9-5.1-1.7-10.3-1.7-15.4
	c0-6-5.1-9.4-6.9-14.6c-1.7-5.1,4.3-9.4,3.4-15.4c-2.6-12.9-3.4-25.7-5.1-38.6c-0.9-9.4-0.9-9.4,7.7-13.7c8.6-5.1,18-6,27.4-6
	c6.9,0,14.6,0,21.4,0c5.1,0,7.7,3.4,7.7,7.7c0,3.4-3.4,6-8.6,4.3c-10.3-2.6-20.6-1.7-30.9-0.9c-9.4,1.7-10.3,3.4-9.4,12.9
	c0.9,9.4,4.3,18.9,2.6,28.3c0,1.7,0.9,4.3,0.9,6c0.9,2.6,2.6,4.3,5.1,2.6c10.3-5.1,23.1-3.4,33.4-7.7c3.4-1.7,6.9,3.4,5.1,6.9
	c-1.7,2.6-4.3,6-6,6c-6.9,0-12,6-19.7,5.1h-0.9c-12.9,1.7-15.4,4.3-12.9,17.1c3.4,16.3,6,18.9,23.1,18c6,0,11.1-0.9,15.4-3.4
	c5.1-2.6,11.1-3.4,17.1-1.7c2.6,0.9,5.1,2.6,2.6,6c-3.4,5.1-7.7,10.3-13.7,11.1C1212.2,333.4,1203.7,337.7,1193.4,336z"/>
<path fill="#E9E76A" d="M1358.8,336c-3.4,0-6.9,1.7-11.1,0c-14.6-6-15.4-5.1-18-20.6c-0.9-5.1-1.7-10.3-1.7-15.4
	c0-6-5.1-9.4-6.9-14.6c-1.7-5.1,4.3-9.4,3.4-15.4c-2.6-12.9-3.4-25.7-5.1-38.6c-0.9-9.4-0.9-9.4,7.7-13.7c8.6-5.1,18-6,27.4-6
	c6.9,0,14.6,0,21.4,0c5.1,0,7.7,3.4,7.7,7.7c0,3.4-3.4,6-8.6,4.3c-10.3-2.6-20.6-1.7-30.9-0.9c-9.4,1.7-10.3,3.4-9.4,12.9
	c0.9,9.4,4.3,18.9,2.6,28.3c0,1.7,0.9,4.3,0.9,6c0.9,2.6,2.6,4.3,5.1,2.6c10.3-5.1,23.1-3.4,33.4-7.7c3.4-1.7,6.9,3.4,5.1,6.9
	c-1.7,2.6-4.3,6-6,6c-6.9,0-12,6-19.7,5.1h-0.9c-12.9,1.7-15.4,4.3-12.9,17.1c3.4,16.3,6,18.9,23.1,18c6,0,11.1-0.9,15.4-3.4
	c5.1-2.6,11.1-3.4,17.1-1.7c2.6,0.9,5.1,2.6,2.6,6c-3.4,5.1-7.7,10.3-13.7,11.1C1378.6,333.4,1369.1,337.7,1358.8,336z"/>
<path fill="#E9E76A" d="M634.4,325.7c0.9,3.4-0.9,6-3.4,6.9c-4.3,1.7-8.6,0.9-11.1-2.6c-3.4-3.4-6-6.9-5.1-12
	c0.9-6-1.7-11.1-3.4-17.1c-2.6-9.4-7.7-12.9-17.1-12c-8.6,0.9-17.1,2.6-26.6,2.6c-5.1,0-6,5.1-6,7.7c-1.7,7.7-4.3,14.6-7.7,21.4
	c-1.7,3.4-3.4,6.9-6,9.4c-2.6,2.6-6.9,3.4-10.3,1.7c-3.4-1.7-4.3-7.7-1.7-11.1c14.6-21.4,18-46.3,24-71.2c1.7-11.1,6-24,11.1-36
	c4.3-10.3,11.1-10.3,18.9-2.6c6.9,6.9,8.6,16.3,11.1,24.9c4.3,14.6,9.4,27.4,16.3,41.2c5.1,9.4,10.3,19.7,12,30.9
	C630.1,313.7,635.3,319.7,634.4,325.7z M581.3,238.3c-2.6,0.9-3.4,2.6-4.3,4.3c-5.1,10.3-5.1,21.4-8.6,32.6
	c-0.9,2.6,0.9,4.3,4.3,4.3c6.9-0.9,12.9-0.9,18.9-3.4c3.4-1.7,6-4.3,3.4-7.7c-3.4-6-4.3-12.9-6.9-18.9
	C586.4,244.3,585.5,240,581.3,238.3z"/>
<path fill="#E9E76A" d="M200.6,325.7c0.9,3.4-0.9,6-3.4,6.9c-4.3,1.7-8.6,0.9-11.1-2.6c-3.4-3.4-6-6.9-5.1-12
	c0.9-6-1.7-11.1-3.4-17.1c-2.6-9.4-7.7-12.9-17.1-12c-8.6,0.9-17.1,2.6-26.6,2.6c-5.1,0-6,5.1-6,7.7c-1.7,7.7-4.3,14.6-7.7,21.4
	c-1.7,3.4-3.4,6.9-6,9.4c-2.6,2.6-6.9,3.4-10.3,1.7c-3.4-1.7-4.3-7.7-1.7-11.1c14.6-21.4,18-46.3,24-71.2c1.7-11.1,6-24,11.1-36
	c4.3-10.3,11.1-10.3,18.9-2.6c6.9,6.9,8.6,16.3,11.1,24.9c4.3,14.6,9.4,27.4,16.3,41.2c5.1,9.4,10.3,19.7,12,30.9
	C196.3,313.7,201.5,319.7,200.6,325.7z M147.5,238.3c-1.7,0.9-3.4,2.6-4.3,4.3c-5.1,10.3-5.1,21.4-8.6,32.6
	c-0.9,2.6,0.9,4.3,4.3,4.3c6.9-0.9,12.9-0.9,18.9-3.4c3.4-1.7,6-4.3,3.4-7.7c-3.4-6-4.3-12.9-6.9-18.9
	C152.6,244.3,151.7,240,147.5,238.3z"/>
<path fill="#E9E76A" d="M534.1,282.8c1.7,13.7-4.3,26.6-10.3,39.4c-5.1,10.3-14.6,14.6-26.6,14.6c-10.3,0-18.9-3.4-24-12.9
	c-8.6-17.1-9.4-34.3-6-53.2c1.7-8.6,4.3-17.1,6-25.7c0.9-2.6,2.6-5.1,0.9-6.9c-3.4-4.3-0.9-7.7,1.7-11.1c0.9-0.9,1.7-2.6,2.6-3.4
	c12-14.6,20.6-13.7,31.7,0.9c1.7,2.6,3.4,5.1,5.1,6c14.6,9.4,18,24.9,19.7,41.2C534.1,274.3,534.1,277.7,534.1,282.8z M519.5,282.8
	c0.9-9.4,0-18.9-3.4-26.6c-3.4-8.6-9.4-15.4-16.3-21.4c-4.3-4.3-5.1-4.3-8.6,0.9c-12.9,23.1-17.1,47.2-9.4,72.9
	c1.7,6.9,6,12,12.9,13.7c6.9,1.7,12.9-2.6,17.1-7.7c2.6-2.6,4.3-5.1,5.1-8.6C518.7,297.4,521.2,290.6,519.5,282.8z"/>
<path fill="#E9E76A" d="M679.8,288.8c6,6,8.6,15.4,18,18c2.6,0.9,5.1,5.1,7.7,8.6c1.7,2.6,0.9,6-0.9,7.7c-2.6,2.6-4.3,6-8.6,4.3
	c-5.1-1.7-9.4-4.3-12.9-8.6c-4.3-5.1-9.4-9.4-12.9-15.4c-1.7-2.6-3.4-5.1-8.6-5.1c0.9,7.7,1.7,14.6,2.6,21.4c0,1.7,0.9,4.3,0.9,6
	c0,4.3-4.3,9.4-7.7,9.4c-2.6,0-8.6-4.3-8.6-7.7c-0.9-8.6-1.7-17.1-0.9-25.7c0-21.4,3.4-42-2.6-63.4c-2.6-8.6,1.7-16.3,12-19.7
	c13.7-6,28.3-4.3,42-1.7c6,0.9,9.4,6.9,10.3,12.9c1.7,9.4-0.9,18.9-4.3,28.3c-4.3,10.3-10.3,20.6-20.6,25.7
	C683.3,284.6,681.6,286.3,679.8,288.8z M681.6,228.8c-12.9-0.9-18.9,2.6-18,19.7c0,6,0.9,12,0,18c-0.9,2.6-0.9,6,1.7,8.6
	c3.4,2.6,6,0.9,9.4-0.9c12-6.9,18-18,19.7-30.9C698.7,229.7,693.6,228,681.6,228.8z"/>
<path fill="#E9E76A" d="M1110.2,288.8c6,6,8.6,15.4,18,18c2.6,0.9,5.1,5.1,7.7,8.6c1.7,2.6,0.9,6-0.9,7.7c-2.6,2.6-4.3,6-8.6,4.3
	c-5.1-1.7-9.4-4.3-12.9-8.6c-4.3-5.1-9.4-9.4-12.9-15.4c-1.7-2.6-3.4-5.1-8.6-5.1c0.9,7.7,1.7,14.6,2.6,21.4c0,1.7,0.9,4.3,0.9,6
	c0,4.3-4.3,9.4-7.7,9.4c-2.6,0-8.6-4.3-8.6-7.7c-0.9-8.6-1.7-17.1-0.9-25.7c0-21.4,3.4-42-2.6-63.4c-2.6-8.6,1.7-16.3,12-19.7
	c13.7-5.1,27.4-4.3,41.2-1.7c6,0.9,9.4,6.9,10.3,12.9c1.7,9.4-0.9,18.9-4.3,28.3c-4.3,10.3-10.3,20.6-20.6,25.7
	C1113.6,284.6,1111.9,286.3,1110.2,288.8z M1112.8,228.8c-12.9-0.9-18.9,2.6-18,19.7c0,6,0.9,12,0,18c-0.9,2.6-0.9,6,1.7,8.6
	c3.4,2.6,6,0.9,9.4-0.9c12-6.9,18-18,19.7-30.9C1129.1,229.7,1123.9,228,1112.8,228.8z"/>
<path fill="#E9E76A" d="M1450.6,288.8c6,6,8.6,15.4,18,18c2.6,0.9,5.1,5.1,7.7,8.6c1.7,2.6,0.9,6-0.9,7.7c-2.6,2.6-4.3,6-8.6,4.3
	c-5.1-1.7-9.4-4.3-12.9-8.6c-4.3-5.1-9.4-9.4-12.9-15.4c-1.7-2.6-3.4-5.1-8.6-5.1c0.9,7.7,1.7,14.6,2.6,21.4c0,1.7,0.9,4.3,0.9,6
	c0,4.3-4.3,9.4-7.7,9.4c-2.6,0-8.6-4.3-8.6-7.7c-0.9-8.6-1.7-17.1-0.9-25.7c0-21.4,3.4-42-2.6-63.4c-2.6-8.6,1.7-16.3,12-19.7
	c13.7-5.1,27.4-4.3,41.2-1.7c6,0.9,9.4,6.9,10.3,12.9c1.7,9.4-0.9,18.9-4.3,28.3c-4.3,10.3-10.3,20.6-20.6,25.7
	C1454,284.6,1451.4,286.3,1450.6,288.8z M1452.3,228.8c-12.9-0.9-18.9,2.6-18,19.7c0,6,0.9,12,0,18c-0.9,2.6-0.9,6,1.7,8.6
	c3.4,2.6,6,0.9,9.4-0.9c12-6.9,18-18,19.7-30.9C1468.6,229.7,1463.4,228,1452.3,228.8z"/>
<path fill="#E9E76A" d="M251.2,288.8c6,6,8.6,15.4,18,18c2.6,0.9,5.1,5.1,7.7,8.6c1.7,2.6,0.9,6-0.9,7.7c-2.6,2.6-4.3,6-8.6,4.3
	c-5.1-1.7-9.4-4.3-12.9-8.6c-4.3-5.1-9.4-9.4-12.9-15.4c-1.7-2.6-3.4-5.1-8.6-5.1c0.9,7.7,1.7,14.6,2.6,21.4c0,1.7,0.9,4.3,0.9,6
	c0,4.3-4.3,9.4-7.7,9.4c-2.6,0-8.6-4.3-8.6-7.7c-0.9-8.6-1.7-17.1-0.9-25.7c0-21.4,3.4-42-2.6-63.4c-2.6-8.6,1.7-16.3,12-19.7
	c13.7-6,28.3-4.3,42-1.7c6,0.9,9.4,6.9,10.3,12.9c1.7,9.4-0.9,18.9-4.3,28.3c-4.3,10.3-10.3,20.6-20.6,25.7
	C254.6,284.6,252,286.3,251.2,288.8z M252.9,228.8c-12.9-0.9-18.9,2.6-18,19.7c0,6,0.9,12,0,18c-0.9,2.6-0.9,6,1.7,8.6
	c3.4,2.6,6,0.9,9.4-0.9c12-6.9,18-18,19.7-30.9C269.2,229.7,264.1,228,252.9,228.8z"/>
<path fill="#E9E76A" d="M16.3,276c0,16.3,7.7,27.4,19.7,36.9c5.1,4.3,11.1,5.1,17.1,4.3c9.4-0.9,19.7-0.9,28.3-5.1
	c0.9-0.9,3.4-0.9,5.1-0.9c6.9,0,8.6,3.4,6,9.4c-3.4,7.7-12,9.4-18,13.7c-0.9,0-1.7,0-1.7,0c-8.6-5.1-17.1-1.7-25.7-0.9
	c-6,0.9-11.1-2.6-16.3-5.1c-4.3-2.6-8.6-6.9-12.9-10.3c-5.1-4.3-10.3-10.3-11.1-18c0-1.7-0.9-3.4-1.7-5.1C0,288,0.9,281.1,1.7,273.4
	c3.4-17.1,6.9-34.3,16.3-49.7c3.4-6,6-12,11.1-17.1c6-6,14.6-6.9,23.1-8.6c3.4-0.9,15.4,9.4,17.1,13.7c0.9,2.6,0,5.1-2.6,7.7
	c-3.4,2.6-6.9,1.7-11.1,0c-0.9-0.9-1.7-2.6-3.4-4.3c-3.4-3.4-7.7-3.4-11.1,0c-8.6,10.3-18,19.7-19.7,34.3c0,7.7-5.1,14.6-5.1,22.3
	C16.3,273.4,16.3,275.1,16.3,276z"/>
<path fill="#E9E76A" d="M427.8,254.6c2.6,2.6,6,2.6,8.6,2.6c5.1,0,11.1,0,13.7,4.3c4.3,6,8.6,12.9,8.6,21.4
	c-0.9,16.3-8.6,27.4-21.4,36c-6,4.3-13.7,7.7-19.7,12.9c-6,4.3-14.6,2.6-21.4,2.6c-4.3,0-5.1-4.3-5.1-7.7c0.9-21.4-5.1-41.2-6-62.6
	c-0.9-16.3-0.9-31.7-6-48c-1.7-5.1,1.7-11.1,6.9-12.9c6.9-1.7,12-6,18.9-8.6c12-5.1,24-6,35.1,1.7c6.9,4.3,8.6,11.1,7.7,18.9
	c-0.9,11.1-6,20.6-13.7,29.1C431.2,247.7,428.7,251.1,427.8,254.6z M426.9,270c-6.9,0.9-12.9,0.9-19.7,4.3c-4.3,2.6-6,5.1-5.1,9.4
	c0.9,9.4,3.4,18.9,5.1,28.3c0.9,5.1,3.4,5.1,8.6,3.4c12-4.3,18.9-13.7,24.9-24C446.7,280.3,439.8,270,426.9,270z M399.5,260.6
	c6-5.1,11.1-9.4,15.4-14.6c7.7-8.6,13.7-18,16.3-29.1c0.9-5.1-0.9-7.7-5.1-9.4c-6.9-2.6-25.7,3.4-30,9.4c-0.9,0.9-1.7,1.7-1.7,3.4
	C396.1,233.1,397.8,246.8,399.5,260.6z"/>
<path fill="#E9E76A" d="M1270.5,286.3c5.1-4.3,5.1-9.4,6-13.7c2.6-12,5.1-24.9,6.9-36.9c0.9-10.3,5.1-19.7,7.7-29.1
	c0.9-3.4,6.9-7.7,8.6-6.9c3.4,0.9,6.9,8.6,6,12c-2.6,7.7-3.4,16.3-5.1,24.9c-2.6,9.4-3.4,18.9-5.1,28.3c-2.6,11.1-4.3,22.3-6.9,34.3
	c-0.9,5.1-0.9,10.3,0.9,15.4c0.9,4.3,0,8.6-0.9,12.9c-1.7,5.1-5.1,7.7-11.1,7.7c-5.1,0-6.9-3.4-9.4-6.9c-2.6-6-3.4-12-6-18.9
	c-7.7-21.4-15.4-42.9-23.1-64.3c-0.9-1.7-1.7-3.4-1.7-5.1c-1.7-6,0-10.3,4.3-11.1c4.3-1.7,7.7,0.9,10.3,6c2.6,5.1,5.1,10.3,6.9,16.3
	c3.4,10.3,5.1,21.4,10.3,30.9C1268,282,1268.8,283.7,1270.5,286.3z"/>
<path fill="#9290A8" d="M-221.2,316.1c11.4-12.5,29.1-45.8,38.5-68.6c-13.5-3.1-44.7-16.6-40.6-37.4c6.2-4.2,11.4,0,17.7,1
	c17.7-1,36.4-1,54.1-1c12.5-16.6,32.2-31.2,37.4-49.9c5.2-2.1,11.4-2.1,16.6-1c2.1,21.8-2.1,43.7,3.1,65.5c26,14.6,52,12.5,79,23.9
	c0,2.1,1,4.2,1,6.2c-2.1,2.1-4.2,4.2-6.2,6.2c-20.8,1-41.6-1-61.4,10.4c0,20.8-9.4,41.6-3.1,61.4c-5.2,5.2-10.4-3.1-14.6,4.2
	c-5.2-3.1-2.1-6.2-6.2-9.4c-1,1,0,2.1-1,3.1s-1,0-1-1c-4.2-17.7-23.9-38.5-40.6-35.4c-4.2,1-7.3,6.2-13.5,8.3
	c-6.2,2.1-13.5,1-17.7,2.1c-8.3,3.1-15.6,11.4-23.9,13.5C-209.7,316.1-214.9,316.1-221.2,316.1z"/>
<path fill="#E8E76A" d="M-114.1,188.1c3.1,18.7-1,42.6,18.7,54.1c8.3,5.2,21.8,2.1,30.2,8.3c-11.4,4.2-23.9,3.1-35.4,12.5
	c0,12.5,3.1,25-2.1,37.4c-16.6-7.3-21.8-23.9-37.4-25c-15.6,14.6-31.2,12.5-46.8,16.6c8.3-15.6,17.7-31.2,26-46.8
	c-4.2-9.4-12.5-9.4-20.8-16.6c-2.1,5.2-10.4,4.2-15.6-3.1c17.7-3.1,36.4-5.2,54.1,2.1C-133.8,215.2-127.6,202.7-114.1,188.1z"/>
</svg>
