<?xml version="1.0" encoding="utf-8"?>
<!-- Generator: Adobe Illustrator 18.0.0, SVG Export Plug-In . SVG Version: 6.00 Build 0)  -->
<!DOCTYPE svg PUBLIC "-//W3C//DTD SVG 1.1//EN" "http://www.w3.org/Graphics/SVG/1.1/DTD/svg11.dtd">
<svg version="1.1" id="Layer_1" xmlns="http://www.w3.org/2000/svg" xmlns:xlink="http://www.w3.org/1999/xlink" x="0px" y="0px"
	 viewBox="0 431 1490 216" enable-background="new 0 431 1490 216" xml:space="preserve">
<path fill="#E9E76A" d="M948.1,539.1c1.7,13.7-4.3,26.6-10.3,39.4c-5.1,10.3-14.6,14.6-26.6,14.6c-10.3,0-18.9-3.4-24-12.9
	c-8.6-17.1-9.4-34.3-6-53.2c1.7-8.6,4.3-17.1,6-25.7c0.9-2.6,2.6-5.1,0.9-6.9c-3.4-4.3-0.9-7.7,1.7-11.1c0.9-0.9,1.7-2.6,2.6-3.4
	c12-14.6,20.6-13.7,31.7,0.9c1.7,2.6,3.4,5.1,5.1,6c14.6,9.4,18,24.9,19.7,41.2C948.1,531.4,948.1,534.9,948.1,539.1z M933.5,540
	c0.9-9.4,0-18.9-3.4-26.6c-3.4-8.6-9.4-15.4-16.3-21.4c-4.3-4.3-5.1-4.3-8.6,0.9c-12.9,23.1-17.1,47.2-9.4,72.9
	c1.7,6.9,6,12,12.9,13.7c6.9,1.7,12.9-2.6,17.1-7.7c2.6-2.6,4.3-5.1,5.1-8.6C932.7,554.6,935.3,546.9,933.5,540z"/>
<path fill="#E9E76A" d="M1327.9,454.3c6.9-0.9,13.7,1.7,19.7,6.9c1.7,1.7,3.4,3.4,3.4,6c0.9,3.4,0.9,6.9-2.6,9.4
	c-4.3,1.7-6.9,0-9.4-3.4c-6.9-9.4-17.1-8.6-23.1,0.9c-2.6,4.3-4.3,8.6-4.3,13.7c0,6.9,1.7,9.4,7.7,12c7.7,2.6,14.6,7.7,21.4,11.1
	c16.3,8.6,24,22.3,24.9,39.4c0.9,9.4-5.1,17.1-12,23.1c-6.9,6-16.3,10.3-24,15.4c-6,3.4-12.9,3.4-19.7,3.4c-4.3,0-7.7-3.4-9.4-6.9
	c-1.7-3.4-0.9-6.9,1.7-9.4c3.4-2.6,5.1,0,7.7,1.7c2.6,2.6,5.1,2.6,8.6,0.9c7.7-4.3,16.3-7.7,23.1-13.7c12.9-11.1,8.6-33.4-6-40.3
	c-8.6-4.3-17.1-9.4-25.7-13.7c-12-6-16.3-18-12-31.7c0.9-3.4,2.6-6.9,4.3-10.3C1308.2,459.4,1315.9,453.4,1327.9,454.3z"/>
<path fill="#E9E76A" d="M364.3,593.2c-3.4,0-6.9,1.7-11.1,0c-14.6-6-15.4-5.1-18-20.6c-0.9-5.1-1.7-10.3-1.7-15.4
	c0-6-5.1-9.4-6.9-14.6c-1.7-5.1,4.3-9.4,3.4-15.4c-2.6-12.9-3.4-25.7-5.1-38.6c-0.9-9.4-0.9-9.4,7.7-13.7c8.6-5.1,18-6,27.4-6
	c6.9,0,14.6,0,21.4,0c5.1,0,7.7,3.4,7.7,7.7c0,3.4-3.4,6-8.6,4.3c-10.3-2.6-20.6-1.7-30.9-0.9c-9.4,1.7-10.3,3.4-9.4,12.9
	s4.3,18.9,2.6,28.3c0,1.7,0.9,4.3,0.9,6c0.9,2.6,2.6,4.3,5.1,2.6c10.3-5.1,23.1-3.4,33.4-7.7c3.4-1.7,6.9,3.4,5.1,6.9
	c-1.7,2.6-4.3,6-6,6c-6.9,0-12,6-19.7,5.1h-0.9c-12.9,1.7-15.4,4.3-12.9,17.1c3.4,16.3,6,18.9,23.1,18c6,0,11.1-0.9,15.4-3.4
	c5.1-2.6,11.1-3.4,17.1-1.7c2.6,0.9,5.1,2.6,2.6,6c-3.4,5.1-7.7,10.3-13.7,11.1C384,589.7,374.6,594,364.3,593.2z"/>
<path fill="#E9E76A" d="M514.3,586.3c0.9,3.4-0.9,6-3.4,6.9c-4.3,1.7-8.6,0.9-11.1-2.6c-3.4-3.4-6-6.9-5.1-12
	c0.9-6-1.7-11.1-3.4-17.1c-2.6-9.4-7.7-12.9-17.1-12c-8.6,0.9-17.1,2.6-26.6,2.6c-5.1,0-6,5.1-6,7.7c-1.7,7.7-4.3,14.6-7.7,21.4
	c-1.7,3.4-3.4,6.9-6,9.4c-2.6,2.6-6.9,3.4-10.3,1.7c-3.4-1.7-4.3-7.7-1.7-11.1c14.6-21.4,18-46.3,24-71.2c2.6-12.9,7.7-24.9,12-36.9
	c4.3-10.3,11.1-10.3,18.9-2.6c6.9,8.6,7.7,18,10.3,26.6c4.3,14.6,9.4,27.4,16.3,41.2c5.1,9.4,10.3,19.7,12,30.9
	C510,575.1,515.2,580.3,514.3,586.3z M462,498.8c-2.6,0.9-3.4,2.6-4.3,4.3c-5.1,10.3-5.1,21.4-8.6,32.6c-0.9,2.6,0.9,4.3,4.3,4.3
	c6.9-0.9,12.9-0.9,18.9-3.4c3.4-1.7,6-4.3,3.4-7.7c-3.4-6-4.3-12.9-6.9-18.9C467.2,504.9,465.4,501.4,462,498.8z"/>
<path fill="#E9E76A" d="M726.9,539.1c1.7,13.7-4.3,26.6-10.3,39.4c-5.1,10.3-14.6,14.6-26.6,14.6c-10.3,0-18.9-3.4-24-12.9
	c-8.6-17.1-9.4-34.3-6-53.2c1.7-8.6,4.3-17.1,6-25.7c0.9-2.6,2.6-5.1,0.9-6.9c-3.4-4.3-0.9-7.7,1.7-11.1c0.9-0.9,1.7-2.6,2.6-3.4
	c12-14.6,20.6-13.7,31.7,0.9c1.7,2.6,3.4,5.1,5.1,6c14.6,9.4,18,24.9,19.7,41.2C727.8,531.4,726.9,534.9,726.9,539.1z M713.2,540
	c0.9-9.4,0-18.9-3.4-26.6c-3.4-8.6-9.4-15.4-16.3-21.4c-4.3-4.3-5.1-4.3-8.6,0.9c-12.9,23.1-17.1,47.2-9.4,72.9
	c1.7,6.9,6,12,12.9,13.7c6.9,1.7,12.9-2.6,17.1-7.7c2.6-2.6,4.3-5.1,5.1-8.6C711.5,554.6,714.9,546.9,713.2,540z"/>
<path fill="#E9E76A" d="M241.7,575.1c-0.9-23.1,0.9-47.2-4.3-70.3c-1.7-8.6,0-16.3-4.3-24c-2.6-4.3,0-7.7,6-9.4
	c12.9-5.1,26.6-6.9,40.3-8.6c3.4,0,6.9,0,10.3-0.9c6.9-2.6,13.7,1.7,20.6,0c3.4-0.9,6,3.4,7.7,6.9c0.9,1.7,0.9,4.3-0.9,4.3
	c-6.9,3.4-12.9,10.3-23.1,7.7c-12-2.6-24,0.9-36,1.7c-4.3,0-6,2.6-5.1,6.9c0.9,6.9,3.4,12.9,3.4,19.7c0,4.3,2.6,6,6.9,6
	c5.1,0,9.4-1.7,13.7-4.3c6-3.4,12-4.3,18-0.9c3.4,2.6,6,5.1,4.3,10.3c-2.6,6.9-6.9,10.3-12,9.4c-8.6-2.6-16.3,0.9-24,2.6
	c-5.1,0.9-6,3.4-6,7.7c0.9,12,1.7,24,3.4,35.1c0,3.4,0.9,6,0,9.4c-0.9,4.3-2.6,8.6-8.6,8.6c-5.1,0.9-7.7-0.9-9.4-6.9
	C242.5,582.9,240,579.4,241.7,575.1z"/>
<path fill="#E9E76A" d="M737.2,575.1c-0.9-24,0.9-48-4.3-71.2c-1.7-7.7,0-16.3-4.3-24c-2.6-4.3,0-7.7,6-9.4
	c12.9-5.1,26.6-6.9,40.3-7.7c3.4,0,6.9,0,10.3-0.9c6.9-2.6,13.7,1.7,20.6,0c3.4-0.9,6.9,3.4,7.7,6.9c0.9,1.7,0.9,4.3-0.9,4.3
	c-7.7,3.4-12.9,10.3-23.1,7.7c-12-2.6-24,0.9-36.9,1.7c-4.3,0-6,2.6-5.1,6.9c0.9,6.9,3.4,12.9,3.4,19.7c0,4.3,2.6,6,6.9,6
	c5.1,0,9.4-1.7,13.7-4.3c6-3.4,12-4.3,18-0.9c3.4,2.6,6,5.1,4.3,10.3c-2.6,6-6.9,10.3-12,8.6c-8.6-2.6-16.3,0.9-24,2.6
	c-5.1,0.9-6,3.4-5.1,7.7c0.9,12,1.7,24,3.4,35.1c0,3.4,0.9,6,0,9.4c-0.9,4.3-2.6,8.6-8.6,8.6c-5.1,0.9-7.7-0.9-9.4-6.9
	C737.2,582.9,734.6,579.4,737.2,575.1z"/>
<path fill="#E9E76A" d="M559.7,549.4c6,6,8.6,15.4,18,18c2.6,0.9,5.1,5.1,7.7,8.6c1.7,2.6,0.9,6-0.9,7.7c-2.6,2.6-4.3,6-8.6,4.3
	c-5.1-1.7-9.4-4.3-12.9-8.6c-4.3-5.1-9.4-9.4-12.9-15.4c-1.7-2.6-3.4-5.1-8.6-5.1c0.9,7.7,1.7,14.6,2.6,21.4c0,1.7,0.9,4.3,0.9,6
	c0,4.3-4.3,9.4-7.7,9.4c-2.6,0-8.6-4.3-8.6-7.7c-0.9-8.6-1.7-17.1-0.9-25.7c0-21.4,3.4-42-2.6-63.4c-2.6-8.6,1.7-16.3,12-19.7
	c13.7-5.1,27.4-4.3,41.2-1.7c6,0.9,9.4,6.9,10.3,12.9c1.7,9.4-0.9,18.9-4.3,28.3c-4.3,10.3-10.3,20.6-20.6,25.7
	C563.2,545.1,561.5,546.9,559.7,549.4z M561.5,490.3c-12.9-0.9-18.9,2.6-18,19.7c0,6,0.9,12,0,18c-0.9,2.6-0.9,6,1.7,8.6
	c3.4,2.6,6,0.9,9.4-0.9c12-6.9,18-18,19.7-30.9C578.6,490.3,573.5,489.4,561.5,490.3z"/>
<path fill="#E9E76A" d="M1172.7,592.3c-3.4,0-6.9,1.7-11.1,0c-14.6-6-15.4-5.1-18-20.6c-0.9-5.1-1.7-10.3-1.7-15.4
	c0-6-5.1-9.4-6.9-14.6c-1.7-5.1,4.3-9.4,3.4-15.4c-2.6-12.9-3.4-25.7-5.1-38.6c-0.9-10.3-0.9-10.3,7.7-14.6c8.6-5.1,18-6,27.4-6
	c6.9,0,14.6,0,21.4,0c5.1,0,7.7,3.4,7.7,7.7c0,3.4-3.4,6-8.6,4.3c-10.3-2.6-20.6-1.7-30.9-0.9c-9.4,1.7-10.3,3.4-9.4,12.9
	c0.9,9.4,4.3,18.9,2.6,28.3c0,1.7,0.9,4.3,0.9,6c0.9,2.6,2.6,4.3,5.1,2.6c10.3-5.1,23.1-3.4,33.4-7.7c3.4-1.7,6.9,3.4,5.1,6.9
	c-1.7,2.6-4.3,6-6,6c-6.9,0-12,6-19.7,5.1h-0.9c-12.9,1.7-15.4,4.3-12.9,17.1c3.4,16.3,6,18.9,23.1,18c6,0,11.1-0.9,15.4-3.4
	c5.1-2.6,11.1-3.4,17.1-1.7c2.6,0.9,5.1,2.6,2.6,6c-3.4,5.1-7.7,10.3-13.7,11.1C1192.4,588.9,1183,593.2,1172.7,592.3z"/>
<path fill="#E9E76A" d="M1253.3,549.4c6,6,8.6,15.4,18,18c2.6,0.9,5.1,5.1,7.7,8.6c1.7,2.6,0.9,6-0.9,7.7c-2.6,2.6-4.3,6-8.6,4.3
	c-5.1-1.7-9.4-4.3-12.9-8.6c-4.3-5.1-9.4-9.4-12.9-15.4c-1.7-2.6-3.4-5.1-8.6-5.1c0.9,7.7,1.7,14.6,2.6,21.4c0,1.7,0.9,4.3,0.9,6
	c0,4.3-4.3,9.4-7.7,9.4c-2.6,0-8.6-4.3-8.6-7.7c-0.9-8.6-1.7-17.1-0.9-25.7c0-21.4,3.4-42-2.6-63.4c-2.6-8.6,1.7-16.3,12-19.7
	c13.7-5.1,27.4-4.3,41.2-1.7c6,0.9,9.4,6.9,10.3,12.9c1.7,9.4-0.9,18.9-4.3,28.3c-4.3,10.3-10.3,20.6-20.6,25.7
	C1256.7,545.1,1255,546,1253.3,549.4z M1255,489.4c-12.9-0.9-18.9,2.6-18,19.7c0,6,0.9,12,0,18c-0.9,2.6-0.9,6,1.7,8.6
	c3.4,2.6,6,0.9,9.4-0.9c12-6.9,18-18,19.7-30.9C1272.2,489.4,1266.2,488.6,1255,489.4z"/>
<path fill="#E9E76A" d="M1027,479.1c3.4,0,6.9-0.9,9.4-0.9c4.3,0,7.7,1.7,9.4,6c1.7,4.3,4.3,8.6,0,12.9c-3.4,3.4-7.7,1.7-11.1,0
	c-8.6-4.3-18-2.6-26.6-3.4c-6,0-8.6,3.4-7.7,9.4c3.4,17.1,6,33.4,10.3,50.6c1.7,6.9,4.3,12.9,11.1,16.3c5.1,2.6,5.1,12.9,1.7,18
	c-3.4,4.3-9.4,6-14.6,3.4c-0.9-0.9-2.6-1.7-3.4-2.6c-2.6-9.4-8.6-16.3-10.3-26.6c-2.6-18.9-6-36.9-9.4-55.7
	c-0.9-6.9-3.4-8.6-10.3-6.9c-6,0.9-11.1,2.6-17.1,3.4c-1.7,0-2.6,0.9-4.3,0.9c-3.4,0-6.9,0-7.7-3.4s0.9-6.9,5.1-7.7
	c5.1-1.7,9.4-3.4,14.6-4.3c16.3-3.4,32.6-6,48-8.6C1020.1,478.3,1023.6,479.1,1027,479.1z"/>
<path fill="#E9E76A" d="M1076.7,494.6c0,12,0,23.1,0,35.1c0,5.1,1.7,6.9,6.9,6c6-0.9,11.1-2.6,17.1-3.4c4.3-0.9,6.9-4.3,6-9.4
	c-1.7-13.7-3.4-27.4-7.7-40.3c-1.7-4.3-1.7-7.7,2.6-11.1c4.3-3.4,9.4-1.7,10.3,2.6c2.6,11.1,7.7,22.3,6.9,34.3c0,3.4,0,6.9,0.9,10.3
	c3.4,10.3,5.1,21.4,6.9,32.6c0.9,10.3,2.6,20.6,4.3,31.7c1.7,8.6,0.9,9.4-7.7,10.3c-7.7,0.9-12.9-3.4-12-9.4
	c0.9-5.1,0-10.3,0.9-15.4s0-11.1-0.9-16.3c0-3.4-2.6-5.1-5.1-4.3c-6.9,1.7-13.7,1.7-20.6,2.6c-6.9,0.9-7.7,2.6-6.9,9.4
	c0.9,7.7,4.3,15.4,3.4,24c-0.9,6.9-1.7,8.6-7.7,8.6c-6,0-7.7-1.7-7.7-7.7c-0.9-6.9-0.9-13.7-1.7-20.6c0-5.1,0-9.4-4.3-12.9
	c-2.6-2.6-3.4-6.9-0.9-9.4c6.9-10.3,5.1-20.6,4.3-31.7c-0.9-8.6,0-17.1-1.7-25.7c-0.9-2.6,0-5.1,1.7-6.9c1.7-3.4,4.3-4.3,7.7-4.3
	c3.4,0,6,2.6,6,6C1076.7,483.4,1076.7,489.4,1076.7,494.6L1076.7,494.6z"/>
<path fill="#9290A8" d="M80.9,647c-1.1-19.2-12.4-57.7-22.6-82.6c-13.6,7.9-47.5,21.5-59.9,2.3c1.1-7.9,7.9-9,13.6-12.4
	c13.6-14.7,27.1-29.4,40.7-43c-3.4-22.6,0-48.6-9-66.7c2.3-5.7,6.8-10.2,11.3-13.6c18.1,14.7,31.7,35.1,53.2,47.5
	c31.7-9,49.8-30.5,79.2-41.8c1.1,2.3,3.4,2.3,5.7,4.5c0,3.4,0,6.8,0,9c-14.7,17-32.8,30.5-39.6,55.4c15.8,15.8,24.9,38.5,45.2,49.8
	c0,7.9-10.2,5.7-7.9,14.7c-6.8,1.1-6.8-3.4-12.4-2.3c0,1.1,1.1,1.1,1.1,2.3c0,1.1-1.1,1.1-1.1,0c-15.8-10.2-47.5-11.3-58.8,4.5
	c-2.3,3.4-1.1,10.2-4.5,15.8c-2.3,5.7-9,10.2-11.3,14.7c-3.4,10.2-2.3,21.5-7.9,29.4C90,636.8,85.4,642.5,80.9,647z"/>
<path fill="#E8E76A" d="M65.1,466.1c17,11.3,31.7,33.9,55.4,27.1c10.2-3.4,19.2-15.8,29.4-15.8c-5.7,12.4-15.8,20.4-18.1,36.2
	c10.2,9,21.5,17,27.1,29.4c-18.1,6.8-36.2-2.3-47.5,9c-1.1,22.6-14.7,33.9-22.6,48.6c-5.7-18.1-10.2-37.3-15.8-55.4
	c-10.2-4.5-17,2.3-28.3,2.3c2.3,5.7-4.5,11.3-14.7,9c11.3-15.8,23.7-31.7,43-39.6C69.6,501.1,65.1,487.5,65.1,466.1z"/>
</svg>
