<?xml version="1.0" encoding="utf-8"?>
<!-- Generator: Adobe Illustrator 18.0.0, SVG Export Plug-In . SVG Version: 6.00 Build 0)  -->
<!DOCTYPE svg PUBLIC "-//W3C//DTD SVG 1.1//EN" "http://www.w3.org/Graphics/SVG/1.1/DTD/svg11.dtd">
<svg version="1.1" id="Layer_1" xmlns="http://www.w3.org/2000/svg" xmlns:xlink="http://www.w3.org/1999/xlink" x="0px" y="0px"
	 viewBox="0 437.8 1490 206.4" enable-background="new 0 437.8 1490 206.4" xml:space="preserve">
<path fill="#E9E76A" d="M1040.7,591.4c-3.4,0-6.9,1.7-11.1,0c-14.6-6-15.4-5.1-18-20.6c-0.9-5.1-1.7-10.3-1.7-15.4
	c0-6-5.1-9.4-6.9-14.6c-1.7-5.1,4.3-9.4,3.4-15.4c-2.6-12.9-3.4-25.7-5.1-38.6c-0.9-9.4-0.9-9.4,7.7-13.7c8.6-5.1,18-6,27.4-6
	c6.9,0,14.6,0,21.4,0c5.1,0,7.7,3.4,7.7,7.7c0,3.4-3.4,6-8.6,4.3c-10.3-2.6-20.6-1.7-30.9-0.9c-9.4,1.7-10.3,3.4-9.4,12.9
	c0.9,9.4,4.3,18.9,2.6,28.3c0,1.7,0.9,4.3,0.9,6c0.9,2.6,2.6,4.3,5.1,2.6c10.3-5.1,23.1-3.4,33.4-7.7c3.4-1.7,6.9,3.4,5.1,6.9
	c-1.7,2.6-4.3,6-6,6c-6.9,0-12,6-19.7,5.1h-0.9c-12.9,1.7-15.4,4.3-12.9,17.1c3.4,16.3,6,18.9,23.1,18c6,0,11.1-0.9,15.4-3.4
	c5.1-2.6,11.1-3.4,17.1-1.7c2.6,0.9,5.1,2.6,2.6,6c-3.4,5.1-7.7,10.3-13.7,11.1C1060.4,588,1051,593.2,1040.7,591.4z"/>
<path fill="#E9E76A" d="M428.6,591.4c-3.4,0-6.9,1.7-11.1,0c-14.6-6-15.4-5.1-18-20.6c-0.9-5.1-1.7-10.3-1.7-15.4
	c0-6-5.1-9.4-6.9-14.6c-1.7-6,4.3-9.4,3.4-15.4c-2.6-12.9-3.4-25.7-5.1-38.6c-0.9-9.4-0.9-9.4,7.7-13.7c8.6-5.1,18-6,27.4-6
	c6.9,0,14.6,0,21.4,0c5.1,0,7.7,3.4,7.7,7.7c0,3.4-3.4,6-8.6,4.3c-10.3-2.6-20.6-1.7-30.9-0.9c-9.4,1.7-10.3,3.4-9.4,12.9
	c0.9,9.4,4.3,18.9,2.6,28.3c0,1.7,0.9,4.3,0.9,6c0.9,2.6,2.6,4.3,5.1,2.6c10.3-5.1,23.1-3.4,33.4-7.7c3.4-1.7,6.9,3.4,5.1,6.9
	c-1.7,2.6-4.3,6-6,6c-6.9,0-12,6-19.7,5.1h-0.9c-12.9,1.7-15.4,4.3-12.9,17.1c3.4,16.3,6,18.9,23.1,18c6,0,11.1-0.9,15.4-3.4
	c5.1-2.6,11.1-3.4,17.1-1.7c2.6,0.9,5.1,2.6,2.6,6c-3.4,5.1-7.7,10.3-13.7,11.1C448.3,588,438.8,593.2,428.6,591.4z"/>
<path fill="#E9E76A" d="M579.4,585.4c0.9,3.4-0.9,6-3.4,6.9c-4.3,1.7-8.6,0.9-11.1-2.6c-3.4-3.4-6-6.9-5.1-12
	c0.9-6-1.7-11.1-3.4-17.1c-2.6-9.4-7.7-12.9-17.1-12c-8.6,0.9-17.1,2.6-26.6,2.6c-5.1,0-6,5.1-6,7.7c-1.7,7.7-4.3,14.6-7.7,21.4
	c-1.7,3.4-3.4,6.9-6,9.4c-2.6,2.6-6.9,3.4-10.3,1.7c-3.4-1.7-4.3-7.7-1.7-11.1c14.6-21.4,18-46.3,24-71.2c1.7-12,6-24,11.1-36
	c3.4-10.3,10.3-10.3,18.9-2.6c6.9,6.9,8.6,16.3,11.1,24.9c4.3,14.6,9.4,27.4,16.3,41.2c5.1,9.4,10.3,19.7,12,30.9
	C575.2,573.4,580.3,578.6,579.4,585.4z M526.3,498c-2.6,0.9-3.4,2.6-4.3,4.3c-5.1,10.3-5.1,21.4-8.6,32.6c-0.9,2.6,0.9,4.3,4.3,4.3
	c6.9-0.9,12.9-0.9,18.9-3.4c3.4-1.7,6-4.3,3.4-7.7c-4.3-6.9-5.1-13.7-7.7-20.6C531.4,504,530.6,499.7,526.3,498z"/>
<path fill="#E9E76A" d="M1138.4,588.9c-6.9,1.7-14.6,0.9-23.1,1.7c-6.9,0.9-12-2.6-12.9-9.4c-0.9-22.3-8.6-44.6-8.6-66.9
	c0-15.4-4.3-30-6.9-45.4c0-2.6-0.9-5.1-0.9-6.9c0-5.1,2.6-6.9,6.9-7.7c4.3-0.9,6,1.7,6.9,6c1.7,10.3,3.4,20.6,5.1,31.7
	c2.6,24,7.7,47.2,11.1,70.3c1.7,10.3,2.6,11.1,13.7,10.3c3.4,0,6.9-0.9,10.3-1.7s6,0,8.6,1.7c3.4,1.7,6,5.1,6.9,9.4
	c0.9,2.6-6.9,6.9-11.1,7.7C1142.7,589.7,1141,588.9,1138.4,588.9z"/>
<path fill="#E9E76A" d="M791.2,537.4c1.7,13.7-4.3,26.6-10.3,39.4c-5.1,10.3-14.6,14.6-26.6,14.6c-10.3,0-18.9-3.4-24-12.9
	c-8.6-17.1-9.4-34.3-6-53.2c1.7-8.6,4.3-17.1,6-25.7c0.9-2.6,2.6-5.1,0.9-6.9c-3.4-4.3-0.9-7.7,1.7-11.1c0.9-0.9,1.7-2.6,2.6-3.4
	c11.1-14.6,19.7-13.7,30.9,0.9c1.7,2.6,3.4,5.1,5.1,6c14.6,9.4,18,24.9,19.7,41.2C792.1,529.7,791.2,533.1,791.2,537.4z
	 M777.5,538.3c0.9-9.4,0-18.9-3.4-26.6c-3.4-8.6-9.4-15.4-16.3-21.4c-4.3-4.3-5.1-4.3-8.6,0.9c-12.9,23.1-17.1,47.2-9.4,72.9
	c1.7,6.9,6,12,12.9,13.7c6.9,1.7,12.9-2.6,17.1-7.7c2.6-2.6,4.3-5.1,5.1-8.6C775.8,552.9,779.2,545.1,777.5,538.3z"/>
<path fill="#E9E76A" d="M1163.3,570.9c-0.9-24,0.9-48-4.3-71.2c-1.7-7.7,0-16.3-4.3-24c-2.6-4.3,0-7.7,6-9.4
	c12.9-5.1,26.6-6.9,40.3-7.7c3.4,0,6.9,0,10.3-0.9c6.9-2.6,13.7,1.7,20.6,0c3.4-0.9,6.9,3.4,7.7,6.9c0.9,1.7,0.9,4.3-0.9,4.3
	c-7.7,3.4-12.9,10.3-23.1,7.7c-12-2.6-24,0.9-36.9,1.7c-4.3,0-6,2.6-5.1,6.9c0.9,6.9,3.4,12.9,3.4,19.7c0,4.3,2.6,6,6.9,6
	c5.1,0,9.4-1.7,13.7-4.3c6-3.4,12-4.3,18-0.9c3.4,2.6,6,5.1,4.3,10.3c-2.6,6-6.9,10.3-12,8.6c-8.6-2.6-16.3,0.9-24,2.6
	c-5.1,0.9-6,3.4-5.1,7.7c0.9,12,1.7,24,3.4,35.1c0,3.4,0.9,6,0,9.4c-0.9,4.3-2.6,8.6-8.6,8.6c-5.1,0.9-7.7-0.9-9.4-6.9
	C1164.1,578.6,1161.6,575.1,1163.3,570.9z"/>
<path fill="#E9E76A" d="M306,574.3c-0.9-24,0.9-48-4.3-71.2c-1.7-7.7,0-16.3-4.3-24c-1.7-4.3,0-7.7,6-10.3c12.9-4.3,26.6-6,40.3-7.7
	c3.4,0,6.9,0,10.3-0.9c6.9-2.6,13.7,1.7,20.6,0c3.4-0.9,6.9,3.4,7.7,6.9c0.9,1.7,0.9,4.3-0.9,4.3c-6.9,3.4-12.9,10.3-22.3,8.6
	c-12-3.4-24.9,0.9-36.9,0.9c-4.3,0-6,3.4-5.1,7.7c0.9,6,3.4,12.9,3.4,19.7c0,4.3,2.6,6,6.9,6c5.1,0,9.4-1.7,13.7-4.3
	c6-3.4,12-4.3,18-0.9c4.3,2.6,6.9,5.1,4.3,10.3c-2.6,6-6.9,10.3-12,8.6c-8.6-2.6-16.3,0.9-24,2.6c-5.1,0.9-6,3.4-5.1,7.7
	c0.9,12,1.7,24,3.4,35.1c0,3.4,0.9,6,0,9.4c-0.9,4.3-2.6,8.6-8.6,8.6c-5.1,0.9-7.7-0.9-9.4-6.9C306.8,581.2,304.2,577.7,306,574.3z"
	/>
<path fill="#E9E76A" d="M801.5,574.3c-0.9-24,0.9-48-4.3-71.2c-1.7-7.7,0-16.3-4.3-24c-2.6-4.3,0-7.7,6-9.4
	c12.9-5.1,26.6-6.9,40.3-7.7c3.4,0,6.9,0,10.3-0.9c6.9-2.6,13.7,1.7,20.6,0c3.4-0.9,6.9,3.4,7.7,6.9c0.9,1.7,0.9,4.3-0.9,4.3
	c-7.7,3.4-12.9,10.3-23.1,7.7c-12-2.6-24,0.9-36.9,1.7c-4.3,0-6,2.6-5.1,6.9c0.9,6.9,3.4,12.9,3.4,19.7c0,4.3,3.4,6,7.7,6
	c5.1,0,9.4-1.7,13.7-4.3c6-3.4,12-4.3,18-0.9c3.4,2.6,6,5.1,4.3,10.3c-2.6,6-6.9,10.3-12,8.6c-8.6-2.6-16.3,0.9-24,2.6
	c-5.1,0.9-6,3.4-5.1,7.7c0.9,12,1.7,24,3.4,35.1c0,3.4,0.9,6,0,9.4c-0.9,4.3-2.6,8.6-8.6,8.6c-5.1,0.9-7.7-0.9-9.4-6.9
	C801.5,581.2,798.9,577.7,801.5,574.3z"/>
<path fill="#E9E76A" d="M955.8,456.8c6.9-0.9,13.7,1.7,19.7,6.9c1.7,1.7,3.4,3.4,3.4,6c0.9,3.4,0.9,6.9-2.6,9.4
	c-4.3,1.7-6.9,0-9.4-3.4c-6.9-9.4-17.1-8.6-23.1,0.9c-2.6,4.3-4.3,8.6-4.3,13.7c0,6.9,1.7,9.4,7.7,12c7.7,2.6,14.6,7.7,21.4,11.1
	c16.3,8.6,24,22.3,24.9,39.4c0.9,9.4-5.1,17.1-12,23.1c-6.9,6-16.3,10.3-24,15.4c-6,3.4-12.9,3.4-19.7,3.4c-4.3,0-7.7-3.4-9.4-6.9
	c-1.7-3.4-0.9-6.9,1.7-9.4c3.4-2.6,5.1,0,7.7,1.7c2.6,2.6,5.1,2.6,8.6,0.9c7.7-4.3,16.3-7.7,23.1-13.7c12.9-11.1,8.6-33.4-6-40.3
	c-8.6-4.3-17.1-9.4-25.7-13.7c-12-6-16.3-18-12-31.7c0.9-3.4,2.6-6.9,4.3-10.3C935.2,462,943.8,456,955.8,456.8z"/>
<path fill="#E9E76A" d="M624,548.6c6,6,8.6,15.4,18,18c2.6,0.9,5.1,5.1,7.7,8.6c1.7,2.6,0.9,6-0.9,7.7c-2.6,2.6-4.3,6-8.6,4.3
	c-5.1-1.7-9.4-4.3-12.9-8.6c-4.3-5.1-9.4-9.4-12.9-15.4c-1.7-2.6-3.4-5.1-8.6-5.1c0.9,7.7,1.7,14.6,2.6,21.4c0,1.7,0.9,4.3,0.9,6
	c0,4.3-4.3,9.4-7.7,9.4c-2.6,0-8.6-4.3-8.6-7.7c-0.9-8.6-1.7-17.1-0.9-25.7c0-21.4,3.4-42-2.6-63.4c-2.6-8.6,1.7-16.3,12-19.7
	c13.7-5.1,27.4-4.3,41.2-1.7c6,0.9,9.4,6.9,10.3,12.9c1.7,9.4-0.9,18.9-4.3,28.3c-4.3,10.3-10.3,20.6-20.6,25.7
	C627.4,543.4,625.7,545.1,624,548.6z M626.6,488.6c-12.9-0.9-18.9,2.6-18,19.7c0,6,0.9,12,0,18c-0.9,2.6-0.9,6,1.7,8.6
	c3.4,2.6,6,0.9,9.4-0.9c12-6.9,18-18,19.7-30.9C642.9,488.6,637.7,487.7,626.6,488.6z"/>
<path fill="#9290A8" d="M259.7,518.1c-18.7,8.7-53.7,37.5-73.7,58.7c13.7,10,42.5,38.7,28.7,59.9c-8.7,2.5-12.5-3.7-18.7-8.7
	c-21.2-7.5-41.2-15-61.2-22.5c-21.2,12.5-49.9,20-63.7,38.7c-7.5,0-13.7-2.5-18.7-6.2c7.5-25,22.5-47.4,25-73.7
	C53.7,535.6,23.7,525.6,0,500.6c1.2-2.5,1.2-5,1.2-7.5c3.7-1.2,6.2-2.5,10-3.7c23.7,8.7,44.9,20,73.7,16.2
	c10-22.5,28.7-41.2,31.2-67.4c7.5-2.5,10,7.5,18.7,1.2c3.7,6.2-1.2,8.7,2.5,13.7c1.2-1.2,1.2-2.5,2.5-2.5s1.2,1.2,0,1.2
	c-3.7,21.2,8.7,53.7,28.7,57.4c5,1.2,11.2-2.5,18.7-2.5c6.2,0,15,5,20,5c11.2,0,22.5-6.2,32.5-3.7
	C246,513.1,252.2,515.6,259.7,518.1z"/>
<path fill="#E8E76A" d="M82.4,611.8c5-22.5,20-47.4,3.7-68.7c-7.5-10-23.7-12.5-30-23.7c15,0,27.5,6.2,44.9,2.5
	c5-13.7,7.5-28.7,18.7-40c15,15,13.7,37.5,30,43.7c23.7-8.7,40,0,59.9,2.5c-16.2,13.7-33.7,26.2-49.9,40c0,11.2,8.7,16.2,15,27.5
	c5-3.7,13.7,0,16.2,11.2c-21.2-5-42.5-11.2-58.7-27.5C116.1,591.8,104.9,603,82.4,611.8z"/>
</svg>
