<?xml version="1.0" encoding="utf-8"?>
<!-- Generator: Adobe Illustrator 18.0.0, SVG Export Plug-In . SVG Version: 6.00 Build 0)  -->
<!DOCTYPE svg PUBLIC "-//W3C//DTD SVG 1.1//EN" "http://www.w3.org/Graphics/SVG/1.1/DTD/svg11.dtd">
<svg version="1.1" id="Layer_1" xmlns="http://www.w3.org/2000/svg" xmlns:xlink="http://www.w3.org/1999/xlink" x="0px" y="0px"
	 viewBox="0 431.8 1490 214.3" enable-background="new 0 431.8 1490 214.3" xml:space="preserve">
<path fill="#E9E76A" d="M955.7,600c-3.4,0-6.9,1.7-11.1,0c-14.6-6-15.4-5.1-18-20.6c-0.9-5.1-1.7-10.3-1.7-15.4
	c0-6-5.1-9.4-6.9-14.6c-1.7-5.1,4.3-9.4,3.4-15.4c-2.6-12.9-3.4-25.7-5.1-38.6c-0.9-9.4-0.9-9.4,7.7-14.6c8.6-5.1,18-6,27.4-6
	c6.9,0,14.6,0,21.4,0c5.1,0,7.7,3.4,7.7,7.7c0,3.4-3.4,6-8.6,4.3c-10.3-2.6-20.6-1.7-30.9-0.9c-9.4,1.7-10.3,3.4-9.4,12.9
	c0.9,9.4,4.3,18.9,2.6,28.3c0,1.7,0.9,4.3,0.9,6c0.9,2.6,2.6,4.3,5.1,2.6c10.3-5.1,23.1-3.4,33.4-7.7c3.4-1.7,6.9,3.4,5.1,6.9
	c-1.7,2.6-4.3,6-6,6c-6.9,0-12,6-19.7,5.1h-0.9c-12.9,1.7-15.4,4.3-12.9,17.1c3.4,16.3,6,18.9,23.1,18c6,0,11.1-0.9,15.4-3.4
	c5.1-2.6,11.1-3.4,17.1-1.7c2.6,0.9,5.1,2.6,2.6,6c-3.4,5.1-7.7,10.3-13.7,11.1C975.4,596.6,966,601.7,955.7,600z"/>
<path fill="#E9E76A" d="M523.6,535.7c0.9-14.6,2.6-28.3-2.6-42.9c-3.4-8.6,0-18,3.4-26.6c0.9-2.6,10.3-6,12.9-5.1
	c4.3,0.9,6.9,5.1,4.3,9.4c-5.1,5.1-4.3,11.1-3.4,18c0.9,7.7,1.7,16.3,1.7,24.9c0.9,20.6,2.6,40.3,9.4,59.2c0.9,2.6,1.7,6-0.9,8.6
	c-2.6,2.6-5.1,6.9-9.4,5.1c-4.3-1.7-8.6-3.4-11.1-8.6c-7.7-18.9-20.6-35.1-32.6-51.4h-0.9c-2.6,1.7-1.7,4.3-1.7,6
	c0,10.3-4.3,20.6-0.9,31.7c0.9,1.7,0,3.4-0.9,5.1c-2.6,6.9-4.3,12.9-4.3,19.7c0,5.1-4.3,6.9-7.7,8.6c-5.1,1.7-10.3-3.4-9.4-10.3
	c1.7-10.3,4.3-20.6,6.9-30.9c3.4-18.9,5.1-37.7,1.7-56.6c-1.7-9.4,4.3-16.3,12-13.7c2.6,0.9,5.1,2.6,6,6c1.7,9.4,6.9,18,12.9,24.9
	C514.2,522.9,518.5,529.7,523.6,535.7z"/>
<path fill="#E9E76A" d="M611.1,535.7c0.9-14.6,2.6-28.3-2.6-42.9c-3.4-8.6,0-18,3.4-26.6c0.9-2.6,10.3-6,12.9-5.1
	c4.3,0.9,6.9,5.1,4.3,9.4c-4.3,6-3.4,12-2.6,18.9c0.9,7.7,1.7,16.3,1.7,24.9c0.9,20.6,2.6,40.3,9.4,59.2c0.9,2.6,1.7,6-0.9,8.6
	c-2.6,2.6-5.1,6.9-9.4,5.1s-8.6-3.4-11.1-8.6c-7.7-18.9-20.6-35.1-32.6-51.4h-0.9c-2.6,0-1.7,2.6-1.7,5.1c0,10.3-4.3,20.6-0.9,31.7
	c0.9,1.7,0,3.4-0.9,5.1c-2.6,6.9-4.3,12.9-4.3,19.7c0,5.1-4.3,6.9-7.7,8.6c-5.1,1.7-10.3-3.4-9.4-10.3c1.7-10.3,4.3-20.6,6.9-30.9
	c3.4-18.9,5.1-37.7,1.7-56.6c-1.7-9.4,4.3-16.3,12-13.7c2.6,0.9,5.1,2.6,6,6c1.7,9.4,6.9,18,12.9,24.9
	C601.6,522.9,606.8,529.7,611.1,535.7z"/>
<path fill="#E9E76A" d="M745.7,593.2c0.9,3.4-0.9,6-3.4,6.9c-4.3,1.7-8.6,0.9-11.1-2.6c-3.4-3.4-6-6.9-5.1-12
	c0.9-6-1.7-11.1-3.4-17.1c-2.6-9.4-7.7-12.9-17.1-12c-8.6,0.9-17.1,2.6-26.6,2.6c-5.1,0-6,5.1-6,7.7c-1.7,7.7-4.3,14.6-7.7,21.4
	c-1.7,3.4-3.4,6.9-6,9.4c-2.6,2.6-6.9,3.4-10.3,1.7c-3.4-1.7-4.3-7.7-1.7-11.1c14.6-21.4,18-46.3,24-71.2c2.6-12.9,7.7-24.9,12-36.9
	c3.4-8.6,10.3-8.6,18-0.9c6.9,6.9,8.6,16.3,11.1,24.9c4.3,14.6,9.4,27.4,16.3,41.2c5.1,9.4,10.3,19.7,12,30.9
	C741.4,582,746.5,587.2,745.7,593.2z M692.5,506.6c-2.6,0.9-3.4,2.6-4.3,4.3c-5.1,10.3-5.1,21.4-8.6,32.6c-0.9,2.6,0.9,4.3,4.3,4.3
	c6.9-0.9,12.9-0.9,18.9-3.4c3.4-1.7,6-4.3,3.4-7.7c-4.3-6.9-5.1-13.7-6.9-20.6C698.5,512.6,696.8,508.3,692.5,506.6z"/>
<path fill="#E9E76A" d="M1166.6,556.3c5.1,9.4,2.6,18.9,1.7,28.3c0,2.6-0.9,5.1-2.6,7.7c-2.6,3.4-6,4.3-9.4,2.6
	c-3.4-1.7-5.1-3.4-5.1-7.7c0.9-6.9,0.9-14.6,0.9-21.4s-0.9-12.9-3.4-18.9c-3.4-9.4-2.6-19.7-6.9-29.1c-1.7-4.3-2.6-9.4-5.1-13.7
	c-3.4-7.7-2.6-12.9,1.7-14.6c5.1-1.7,8.6,0.9,12,7.7c2.6,6.9,6,12.9,6.9,20.6c0,1.7,0.9,3.4,2.6,5.1c3.4,0.9,6-1.7,7.7-4.3
	c8.6-10.3,18.9-18.9,24.9-30.9c0.9-1.7,1.7-3.4,3.4-5.1c2.6-1.7,5.1-2.6,7.7-0.9c1.7,0.9,2.6,3.4,1.7,5.1c-0.9,4.3-0.9,8.6-4.3,11.1
	c-6.9,8.6-12.9,18-21.4,24.9c-1.7,0.9-2.6,2.6-3.4,3.4c-6,8.6-5.1,10.3,4.3,15.4c7.7,4.3,16.3,7.7,21.4,15.4
	c5.1,6.9,11.1,14.6,16.3,22.3c2.6,3.4,0.9,11.1-2.6,13.7c-3.4,2.6-7.7,2.6-11.1,0c-4.3-2.6-6-6-8.6-11.1
	c-5.1-11.1-12.9-19.7-23.1-25.7C1172.6,555.4,1170.9,554.6,1166.6,556.3z"/>
<path fill="#E9E76A" d="M1135.7,546c1.7,13.7-4.3,26.6-10.3,39.4c-5.1,10.3-14.6,14.6-26.6,14.6c-10.3,0-18.9-3.4-24-12.9
	c-8.6-17.1-9.4-34.3-6-53.2c1.7-8.6,4.3-17.1,6-25.7c0.9-2.6,2.6-5.1,0.9-6.9c-3.4-4.3-0.9-7.7,1.7-11.1c0-1.7,0.9-2.6,1.7-3.4
	c12-14.6,20.6-13.7,31.7,0.9c1.7,2.6,3.4,5.1,5.1,6c14.6,9.4,18,24.9,19.7,41.2C1136.6,538.3,1135.7,541.7,1135.7,546z M1122,546.9
	c0.9-9.4,0-18.9-3.4-26.6c-3.4-8.6-9.4-15.4-16.3-21.4c-4.3-4.3-5.1-4.3-8.6,0.9c-12.9,23.1-17.1,47.2-9.4,72.9
	c1.7,6.9,6,12,12.9,13.7c6.9,1.7,12.9-2.6,17.1-7.7c2.6-2.6,4.3-5.1,5.1-8.6C1120.3,561.4,1123.7,553.7,1122,546.9z"/>
<path fill="#E9E76A" d="M459.3,546c1.7,13.7-4.3,26.6-10.3,39.4c-5.1,9.4-14.6,14.6-26.6,14.6c-10.3,0-18.9-3.4-24-12.9
	c-8.6-17.1-9.4-34.3-6-53.2c1.7-8.6,4.3-17.1,6-25.7c0-2.6,2.6-5.1,0.9-7.7c-3.4-4.3-0.9-7.7,1.7-11.1c0-0.9,0.9-1.7,1.7-2.6
	c12-14.6,20.6-13.7,31.7,0.9c1.7,2.6,3.4,5.1,5.1,6c14.6,9.4,18,24.9,19.7,41.2C460.2,538.3,459.3,541.7,459.3,546z M445.6,546.9
	c0.9-9.4,0-18.9-3.4-26.6c-3.4-8.6-9.4-15.4-16.3-21.4c-4.3-4.3-5.1-4.3-8.6,0.9c-12.9,23.1-17.1,47.2-9.4,72.9
	c1.7,6.9,6,12,12.9,13.7c6.9,1.7,12.9-2.6,17.1-7.7c2.6-2.6,4.3-5.1,5.1-8.6C443.9,561.4,447.3,553.7,445.6,546.9z"/>
<path fill="#E9E76A" d="M342.7,478.3c6.9,0,12.9,1.7,17.1,6.9c3.4,4.3,2.6,9.4-3.4,11.1c-1.7,0.9-5.1,1.7-8.6,1.7
	c-18.9-1.7-30,8.6-39.4,22.3c-4.3,6.9-7.7,15.4-10.3,23.1c-3.4,11.1,0,21.4,5.1,30.9c0.9,1.7,1.7,2.6,3.4,3.4
	c8.6,0.9,16.3,4.3,24.9,1.7c6-1.7,11.1-5.1,12-8.6c0-3.4-6.9-9.4-12-10.3c-5.1-0.9-9.4-2.6-12.9-6.9c-1.7-2.6-1.7-5.1,0.9-7.7
	c12.9-9.4,25.7-18,42-19.7c12-1.7,17.1,6.9,12.9,17.1c-2.6,6.9-2.6,13.7-2.6,20.6c0,6.9-0.9,14.6-3.4,21.4c-0.9,3.4-4.3,5.1-7.7,4.3
	c-6-1.7-9.4,1.7-14.6,3.4c-16.3,6-31.7,6-47.2-3.4c-11.1-6.9-15.4-18.9-17.1-30c-1.7-10.3,0-21.4,6.9-30.9
	c7.7-11.1,12-24.9,21.4-35.1C318.7,485.1,329.9,480.8,342.7,478.3z"/>
<path fill="#E9E76A" d="M875.1,517.7c2.6,2.6,6,2.6,8.6,2.6c5.1,0,11.1,0,13.7,4.3c4.3,6,8.6,12.9,8.6,21.4
	c-0.9,16.3-8.6,27.4-21.4,36c-6,4.3-13.7,7.7-19.7,12.9c-6,4.3-14.6,2.6-21.4,2.6c-4.3,0-5.1-4.3-5.1-7.7c0.9-21.4-5.1-41.2-6-62.6
	c-0.9-16.3-0.9-31.7-6-48c-1.7-5.1,1.7-11.1,6.9-12.9c6.9-1.7,12-6,18.9-8.6c12-5.1,24-6,35.1,1.7c6.9,4.3,8.6,11.1,7.7,18.9
	c-0.9,11.1-6,20.6-13.7,29.1C878.5,510.9,876,514.3,875.1,517.7z M874.3,533.1c-6.9,0.9-12.9,0.9-19.7,4.3c-4.3,2.6-6,5.1-5.1,9.4
	c0.9,9.4,3.4,18.9,5.1,28.3c0.9,5.1,3.4,5.1,8.6,3.4c12-4.3,18.9-13.7,24.9-24C894,543.4,887.1,533.1,874.3,533.1z M846.8,523.7
	c6-5.1,11.1-9.4,15.4-14.6c7.7-8.6,13.7-18,16.3-29.1c0.9-5.1-0.9-7.7-5.1-9.4c-6.9-2.6-25.7,3.4-30,9.4c-0.9,0.9-1.7,2.6-1.7,3.4
	C843.4,496.3,845.1,510,846.8,523.7z"/>
<path fill="#9290A8" d="M3.2,621.1c13.7-15,35-54.9,46.2-82.4c-16.2-3.7-53.7-20-48.7-44.9c7.5-5,13.7,0,21.2,1.2
	c21.2-1.2,43.7-1.2,64.9-1.2c15-20,38.7-37.5,44.9-59.9c6.2-2.5,13.7-2.5,20-1.2c2.5,26.2-2.5,52.4,3.7,78.7
	c31.2,17.5,62.4,15,94.9,28.7c0,2.5,1.2,5,1.2,7.5c-2.5,2.5-5,5-7.5,7.5c-25,1.2-49.9-1.2-73.7,12.5c0,25-11.2,49.9-3.7,73.7
	c-6.2,6.2-12.5-3.7-17.5,5c-6.2-3.7-2.5-7.5-7.5-11.2c-1.2,1.2,0,2.5-1.2,3.7c-1.2,1.2-1.2,0-1.2-1.2c-5-21.2-28.7-46.2-48.7-42.5
	c-5,1.2-8.7,7.5-16.2,10c-7.5,2.5-16.2,1.2-21.2,2.5c-10,3.7-18.7,13.7-28.7,16.2C16.9,621.1,10.7,621.1,3.2,621.1z"/>
<path fill="#E8E76A" d="M131.8,467.6c3.7,22.5-1.2,51.2,22.5,64.9c10,6.2,26.2,2.5,36.2,10c-13.7,5-28.7,3.7-42.5,15
	c0,15,3.7,30-2.5,44.9c-20-8.7-26.2-28.7-44.9-30c-18.7,17.5-37.5,15-56.2,20c10-18.7,21.2-37.5,31.2-56.2c-5-11.2-15-11.2-25-20
	c-2.5,6.2-12.5,5-18.7-3.7c21.2-3.7,43.7-6.2,64.9,2.5C108.1,500,115.6,485,131.8,467.6z"/>
</svg>
