<?xml version="1.0" encoding="utf-8"?>
<!-- Generator: Adobe Illustrator 18.0.0, SVG Export Plug-In . SVG Version: 6.00 Build 0)  -->
<!DOCTYPE svg PUBLIC "-//W3C//DTD SVG 1.1//EN" "http://www.w3.org/Graphics/SVG/1.1/DTD/svg11.dtd">
<svg version="1.1" id="Layer_1" xmlns="http://www.w3.org/2000/svg" xmlns:xlink="http://www.w3.org/1999/xlink" x="0px" y="0px"
	 viewBox="0 436.3 1490 205.2" enable-background="new 0 436.3 1490 205.2" xml:space="preserve">
<path fill="#E9E76A" d="M780.5,543.4c0.9-14.6,2.6-28.3-2.6-42.9c-3.4-8.6,0-18,3.4-26.6c0.9-2.6,10.3-6,12.9-5.1
	c4.3,0.9,6.9,5.1,4.3,9.4c-4.3,6-3.4,12-2.6,18.9s0.9,15.4,0.9,23.1c0.9,20.6,2.6,40.3,9.4,59.2c0.9,2.6,1.7,6-0.9,8.6
	c-2.6,2.6-5.1,6.9-9.4,5.1c-4.3-1.7-8.6-3.4-11.1-8.6c-7.7-18.9-20.6-35.1-32.6-51.4h-0.9c-2.6,1.7-1.7,4.3-1.7,6
	c0,10.3-4.3,20.6-0.9,31.7c0.9,1.7,0,3.4-0.9,5.1c-0.9,6.9-2.6,13.7-2.6,20.6c0,5.1-4.3,6.9-7.7,8.6c-5.1,1.7-10.3-3.4-9.4-10.3
	c1.7-10.3,4.3-20.6,6.9-30.9c3.4-18.9,5.1-37.7,1.7-56.6c-1.7-9.4,4.3-16.3,12-13.7c2.6,0.9,5.1,2.6,6,6c1.7,9.4,6.9,18,12.9,24.9
	C771.1,530.6,776.2,537.4,780.5,543.4z"/>
<path fill="#E9E76A" d="M484.7,551.1c1.7,13.7-4.3,26.6-10.3,39.4c-5.1,10.3-14.6,14.6-26.6,14.6c-10.3,0-18.9-3.4-24-12.9
	c-8.6-17.1-9.4-34.3-6-53.2c1.7-8.6,4.3-17.1,6-25.7c0.9-2.6,2.6-5.1,0.9-6.9c-3.4-4.3-0.9-7.7,1.7-11.1c0.9-0.9,1.7-2.6,2.6-3.4
	c12-14.6,20.6-13.7,31.7,0.9c1.7,2.6,3.4,5.1,5.1,6c14.6,9.4,18,24.9,19.7,41.2C484.7,543.4,484.7,546.9,484.7,551.1z M470.2,552
	c0.9-9.4,0-18.9-3.4-26.6c-3.4-8.6-9.4-15.4-16.3-21.4c-4.3-4.3-5.1-4.3-8.6,0.9c-12.9,23.1-17.1,47.2-9.4,72.9
	c1.7,6.9,6,12,12.9,13.7c6.9,1.7,12.9-2.6,17.1-7.7c2.6-2.6,4.3-5.1,5.1-8.6C469.3,566.6,471.9,558.9,470.2,552z"/>
<path fill="#E9E76A" d="M879.1,488.6c6.9,0,12.9,1.7,17.1,6.9c3.4,4.3,2.6,9.4-3.4,11.1c-2.6,0.9-6,1.7-9.4,0.9
	c-18.9-1.7-30,8.6-39.4,22.3c-4.3,6.9-7.7,15.4-10.3,23.1c-3.4,11.1,0,21.4,5.1,30.9c0.9,1.7,1.7,2.6,3.4,3.4
	c8.6,0.9,16.3,4.3,24.9,1.7c6-1.7,11.1-5.1,12-8.6c0-3.4-6.9-9.4-12-10.3c-5.1-0.9-9.4-2.6-12.9-6.9c-1.7-2.6-1.7-5.1,0.9-7.7
	c12-10.3,24.9-18.9,40.3-20.6c12-1.7,17.1,6.9,12.9,17.1c-2.6,6.9-2.6,13.7-2.6,20.6s-0.9,14.6-3.4,21.4c-0.9,3.4-4.3,5.1-7.7,4.3
	c-6-1.7-9.4,1.7-14.6,3.4c-16.3,6-31.7,6-47.2-3.4c-11.1-6.9-15.4-18.9-17.1-30c-1.7-10.3,0-21.4,6.9-30.9
	c7.7-11.1,12-24.9,21.4-35.1C855.1,495.4,866.2,491.1,879.1,488.6z"/>
<path fill="#E9E76A" d="M1162,594.9c0.9,3.4-0.9,6-3.4,6.9c-4.3,1.7-8.6,0.9-11.1-2.6c-3.4-3.4-6-6.9-5.1-12
	c0.9-6-1.7-11.1-3.4-17.1c-2.6-9.4-7.7-12.9-17.1-12c-8.6,0.9-17.1,2.6-26.6,2.6c-5.1,0-6,5.1-6,7.7c-1.7,7.7-4.3,14.6-7.7,21.4
	c-1.7,3.4-3.4,6.9-6,9.4c-2.6,2.6-6.9,3.4-10.3,1.7c-3.4-0.9-4.3-6-2.6-9.4c14.6-21.4,18-46.3,24-71.2c2.6-12.9,7.7-24.9,12-36.9
	c4.3-10.3,11.1-10.3,18.9-2.6c6.9,6.9,8.6,16.3,11.1,24.9c4.3,14.6,9.4,27.4,16.3,41.2c5.1,9.4,10.3,19.7,12,30.9
	C1157.7,582.9,1162.9,588,1162,594.9z M1108.9,507.4c-2.6,0.9-3.4,2.6-4.3,4.3c-5.1,10.3-5.1,21.4-8.6,32.6
	c-0.9,2.6,0.9,4.3,4.3,4.3c6.9-0.9,12.9-0.9,18.9-3.4c3.4-2.6,5.1-5.1,3.4-8.6c-3.4-6-4.3-12.9-6.9-18.9
	C1114.9,513.4,1113.1,509.1,1108.9,507.4z"/>
<path fill="#E9E76A" d="M1247.7,546c0,0.9,0.9,3.4,0,5.1c-2.6,9.4-6,18.9-8.6,28.3c-0.9,3.4-2.6,6-6,6.9c-12.9,6-24,14.6-38.6,16.3
	c-14.6,1.7-24-5.1-21.4-18.9c3.4-17.1,0-34.3,0-51.4c0-12.9,0.9-24.9-1.7-37.7c-0.9-4.3,2.6-9.4,5.1-13.7c1.7-2.6,5.1-3.4,8.6-3.4
	c42,3.4,60.9,30,62.6,65.2C1247.7,543.4,1247.7,544.3,1247.7,546z M1188.6,555.4c0,5.1-0.9,11.1,2.6,15.4c2.6,2.6,4.3,6,4.3,10.3
	c0.9,4.3,4.3,6,6.9,2.6c2.6-3.4,6-4.3,9.4-4.3c2.6,0,5.1-0.9,6-2.6c2.6-5.1,7.7-9.4,9.4-15.4c2.6-12,4.3-23.1,0-35.1
	c-6-15.4-16.3-27.4-34.3-30c-6-0.9-6,0-6,6C1188.6,519.4,1186.9,537.4,1188.6,555.4z"/>
<path fill="#E9E76A" d="M1030.8,523.7c2.6,2.6,6,2.6,8.6,2.6c5.1,0,11.1,0,13.7,4.3c4.3,6,8.6,12.9,8.6,21.4
	c-0.9,16.3-8.6,27.4-21.4,36c-6,4.3-13.7,7.7-19.7,12.9c-6,4.3-14.6,2.6-21.4,2.6c-4.3,0-5.1-4.3-5.1-7.7c0.9-21.4-5.1-41.2-6-62.6
	c-0.9-16.3-0.9-31.7-6-48c-1.7-5.1,1.7-11.1,6.9-12.9c6.9-1.7,12-6,18.9-8.6c12-5.1,24-6,35.1,1.7c6.9,4.3,8.6,11.1,7.7,18.9
	c-1.7,12-6.9,21.4-13.7,30C1034.3,516.9,1031.7,520.3,1030.8,523.7z M1030,539.1c-6.9,0.9-12.9,0.9-19.7,4.3c-4.3,2.6-6,5.1-5.1,9.4
	c0.9,9.4,3.4,18.9,5.1,28.3c0.9,5.1,3.4,5.1,8.6,3.4c12-4.3,18.9-13.7,24.9-24C1049.7,549.4,1042.8,539.1,1030,539.1z M1001.7,529.7
	c6-5.1,11.1-9.4,15.4-14.6c7.7-8.6,13.7-18,16.3-29.1c0.9-5.1-0.9-7.7-5.1-9.4c-6.9-2.6-25.7,3.4-30,9.4c-0.9,0.9-1.7,2.6-1.7,3.4
	C999.1,502.3,1000.8,516,1001.7,529.7z"/>
<path fill="#E9E76A" d="M382.7,566.6c-4.3-20.6-1.7-41.2-2.6-60.9c0-4.3-1.7-7.7-2.6-12c-0.9-4.3,0.9-7.7,5.1-8.6
	c3.4-0.9,7.7,0.9,9.4,5.1c0.9,1.7,1.7,4.3,1.7,6c1.7,12.9,1.7,24.9,1.7,37.7c0,14.6,0.9,29.1,6,43.7c1.7,4.3,0,7.7,0,12
	c-0.9,5.1-5.1,6.9-8.6,6.9c-5.1,0-10.3-0.9-14.6-4.3c-4.3-3.4-8.6-5.1-9.4-11.1c-0.9-5.1-4.3-8.6-7.7-12
	c-15.4-16.3-30.9-32.6-46.3-49.7c-1.7,0-3.4-1.7-6-0.9c-1.7,4.3-1.7,9.4-0.9,14.6c1.7,16.3,2.6,31.7,3.4,48c0,3.4,1.7,7.7,1.7,11.1
	c0.9,6-2.6,11.1-7.7,11.1c-6,0.9-12.9-6-11.1-11.1c2.6-7.7,1.7-14.6,0.9-22.3c-0.9-26.6-2.6-52.3-1.7-78.9c0-3.4,0-7.7,4.3-8.6
	s8.6,0.9,9.4,4.3c5.1,12.9,16.3,20.6,24.9,30.9c12.9,15.4,27.4,29.1,42.9,42.9C377.6,561.4,377.6,565.7,382.7,566.6z"/>
<path fill="#E9E76A" d="M699.1,527.1c0.9,12,0,24.9,2.6,37.7c1.7,8.6,6,17.1,11.1,24.9c3.4,6,1.7,9.4-5.1,13.7
	c-5.1,2.6-7.7,1.7-11.1-4.3c-4.3-7.7-5.1-17.1-7.7-25.7c-3.4-10.3-4.3-22.3-3.4-33.4c0.9-12,0-24-2.6-35.1c0-1.7-0.9-2.6-0.9-4.3
	c-0.9-5.1,2.6-7.7,6-9.4c4.3-1.7,6.9,2.6,7.7,6C699.1,506.6,699.1,516.9,699.1,527.1z"/>
<path fill="#E9E76A" d="M563.6,492c3.4,0,6.9-0.9,9.4-0.9c4.3,0,7.7,1.7,9.4,6c1.7,4.3,4.3,8.6,0,12.9c-3.4,3.4-7.7,1.7-11.1,0
	c-8.6-4.3-18-2.6-26.6-3.4c-6,0-8.6,3.4-7.7,9.4c3.4,17.1,6,33.4,10.3,50.6c1.7,6.9,4.3,12.9,11.1,16.3c5.1,2.6,5.1,12.9,1.7,18
	c-3.4,4.3-9.4,6-14.6,3.4c-0.9-0.9-2.6-1.7-3.4-2.6c-2.6-9.4-8.6-16.3-10.3-26.6c-2.6-18.9-6-36.9-9.4-55.7
	c-0.9-6.9-3.4-8.6-10.3-6.9c-6,0.9-11.1,2.6-17.1,3.4c-1.7,0-2.6,0.9-4.3,0.9c-3.4,0-6.9,0-7.7-3.4c-0.9-3.4,0.9-6.9,5.1-7.7
	c5.1-1.7,9.4-3.4,14.6-4.3c16.3-3.4,32.6-6,48-8.6C556.7,491.1,560.2,491.1,563.6,492z"/>
<path fill="#E9E76A" d="M613.3,506.6c0,12,0,23.1,0,35.1c0,5.1,1.7,6.9,6.9,6c6-0.9,11.1-2.6,17.1-3.4c4.3-0.9,6.9-4.3,6-9.4
	c-1.7-13.7-3.4-27.4-7.7-40.3c-1.7-4.3-1.7-7.7,2.6-11.1c4.3-3.4,9.4-1.7,10.3,2.6c2.6,11.1,7.7,22.3,6.9,34.3c0,3.4,0,6.9,0.9,10.3
	c3.4,10.3,5.1,21.4,6.9,32.6c0.9,10.3,2.6,20.6,4.3,31.7c1.7,8.6,0.9,9.4-7.7,10.3c-7.7,0.9-12.9-3.4-12-9.4
	c0.9-5.1,0-10.3,0.9-15.4s0-11.1-0.9-16.3c0-3.4-2.6-5.1-5.1-4.3c-6.9,1.7-13.7,1.7-20.6,2.6c-6.9,0.9-7.7,2.6-6.9,9.4
	c0.9,7.7,4.3,15.4,3.4,24c-0.9,6.9-1.7,8.6-7.7,8.6s-7.7-1.7-7.7-7.7c-0.9-6.9-0.9-13.7-1.7-20.6c0-5.1,0-9.4-4.3-12.9
	c-2.6-2.6-3.4-6.9-0.9-9.4c6.9-10.3,5.1-20.6,4.3-31.7c-0.9-8.6,0-17.1-1.7-25.7c-0.9-2.6,0-5.1,1.7-6.9c1.7-3.4,4.3-4.3,7.7-4.3
	c3.4,0,6,2.6,6,6C613.3,495.4,613.3,501.4,613.3,506.6L613.3,506.6z"/>
<path fill="#9290A8" d="M259.7,562.4C241,553.7,206,525,186,503.8c13.7-10,42.5-38.7,28.7-59.9c-8.7-2.5-12.5,3.7-18.7,8.7
	c-21.2,7.5-41.2,15-61.2,22.5c-22.5-13.7-51.2-21.2-64.9-38.7c-7.5,0-13.7,2.5-18.7,6.2c7.5,25,22.5,47.4,25,73.7
	C53.7,543.7,23.7,553.7,0,578.7c1.2,2.5,1.2,5,1.2,7.5c3.7,1.2,6.2,2.5,10,3.7c23.7-8.7,44.9-20,73.7-16.2
	c10,22.5,28.7,41.2,31.2,67.4c7.5,2.5,10-7.5,18.7-1.2c3.7-6.2-1.2-8.7,2.5-13.7c1.2,1.2,1.2,2.5,2.5,2.5c1.2,0,1.2-1.2,0-1.2
	c-3.7-21.2,8.7-53.7,28.7-57.4c5-1.2,11.2,2.5,18.7,2.5c6.2,0,15-5,20-5c11.2,0,22.5,6.2,32.5,3.7
	C246,567.4,252.2,564.9,259.7,562.4z"/>
<path fill="#E8E76A" d="M82.4,467.6c5,22.5,21.2,47.4,3.7,68.7c-7.5,8.7-23.7,12.5-28.7,22.5c15,0,27.5-6.2,44.9-2.5
	c5,13.7,7.5,28.7,18.7,40c15-15,13.7-37.5,30-43.7c23.7,8.7,40,0,59.9-2.5c-16.2-13.7-33.7-26.2-49.9-40c0-11.2,8.7-16.2,15-27.5
	c5,3.7,13.7,0,16.2-11.2c-21.2,5-42.5,11.2-58.7,27.5C116.1,488.8,104.9,477.5,82.4,467.6z"/>
</svg>
