<?xml version="1.0" encoding="utf-8"?>
<!-- Generator: Adobe Illustrator 18.0.0, SVG Export Plug-In . SVG Version: 6.00 Build 0)  -->
<!DOCTYPE svg PUBLIC "-//W3C//DTD SVG 1.1//EN" "http://www.w3.org/Graphics/SVG/1.1/DTD/svg11.dtd">
<svg version="1.1" id="Layer_1" xmlns="http://www.w3.org/2000/svg" xmlns:xlink="http://www.w3.org/1999/xlink" x="0px" y="0px"
	 viewBox="0 431 1490 216" enable-background="new 0 431 1490 216" xml:space="preserve">
<path fill="#E9E76A" d="M367.8,593.2c-6.9,1.7-14.6,0.9-23.1,1.7c-6.9,0.9-12-2.6-12.9-9.4c-0.9-22.3-8.6-44.6-8.6-66.9
	c0-15.4-4.3-30-6.9-45.4c0-2.6-0.9-5.1-0.9-6.9c0-5.1,2.6-6.9,6.9-7.7s5.1,1.7,6,6c1.7,10.3,3.4,20.6,5.1,31.7
	c2.6,24,7.7,47.2,11.1,70.3c1.7,10.3,2.6,11.1,13.7,10.3c3.4,0,6.9-0.9,10.3-1.7c3.4-0.9,6,0,8.6,1.7c3.4,1.7,6,5.1,6.9,9.4
	c0.9,2.6-6.9,6.9-11.1,7.7C372.1,594,370.4,593.2,367.8,593.2z"/>
<path fill="#E9E76A" d="M867.6,591.4c-6.9,1.7-14.6,0.9-23.1,1.7c-6.9,0.9-12-2.6-12.9-9.4c-0.9-22.3-8.6-44.6-8.6-66.9
	c0-15.4-4.3-30-6.9-45.4c0-2.6-0.9-5.1-0.9-6.9c0-5.1,2.6-6.9,6.9-7.7c3.4-0.9,5.1,1.7,6,6c1.7,10.3,3.4,20.6,5.1,31.7
	c2.6,24,7.7,47.2,11.1,70.3c1.7,10.3,2.6,11.1,13.7,10.3c3.4,0,6.9-0.9,10.3-1.7s6,0,8.6,1.7c3.4,1.7,6,5.1,6.9,9.4
	c0.9,2.6-6.9,6.9-11.1,7.7C871.1,592.3,870.2,591.4,867.6,591.4z"/>
<path fill="#E9E76A" d="M802.5,591.4c-6.9,1.7-14.6,0.9-23.1,1.7c-6.9,0.9-12-2.6-12.9-9.4c-0.9-22.3-8.6-44.6-8.6-66.9
	c0-15.4-4.3-30-6.9-45.4c0-2.6-0.9-5.1-0.9-6.9c0-5.1,2.6-6.9,6.9-7.7c4.3-0.9,6,1.7,6.9,6c1.7,10.3,3.4,20.6,5.1,31.7
	c2.6,24,7.7,47.2,11.1,70.3c1.7,10.3,2.6,11.1,13.7,10.3c3.4,0,6.9-0.9,10.3-1.7s6,0,8.6,1.7c3.4,1.7,6,5.1,6.9,9.4
	c0.9,2.6-6.9,6.9-11.1,7.7C806.8,592.3,805.1,591.4,802.5,591.4z"/>
<path fill="#E9E76A" d="M457,542.6c1.7,13.7-4.3,26.6-10.3,39.4c-5.1,10.3-14.6,14.6-26.6,14.6c-10.3,0-18.9-3.4-24-12.9
	c-8.6-17.1-9.4-34.3-6-53.2c1.7-8.6,4.3-17.1,6-25.7c0.9-2.6,2.6-5.1,0.9-6.9c-3.4-4.3-0.9-7.7,1.7-11.1c0.9-0.9,1.7-2.6,2.6-3.4
	c12-14.6,20.6-13.7,31.7,0.9c1.7,2.6,3.4,5.1,5.1,6c14.6,9.4,18,24.9,19.7,41.2C457,534,457,537.4,457,542.6z M442.4,542.6
	c0.9-9.4,0-18.9-3.4-26.6c-3.4-8.6-9.4-15.4-16.3-21.4c-4.3-4.3-5.1-4.3-8.6,0.9c-12.9,23.1-17.1,47.2-9.4,72.9
	c1.7,6.9,6,12,12.9,13.7s12.9-2.6,17.1-7.7c2.6-2.6,4.3-5.1,5.1-8.6C441.6,557.1,444.1,550.3,442.4,542.6z"/>
<path fill="#E9E76A" d="M732.2,517.7c0.9,12,0,24.9,2.6,37.7c1.7,8.6,6,17.1,11.1,24.9c3.4,6,1.7,9.4-5.1,13.7
	c-5.1,2.6-7.7,1.7-11.1-4.3c-4.3-7.7-5.1-17.1-7.7-25.7c-3.4-11.1-3.4-22.3-3.4-33.4c0.9-12,0-24-2.6-35.1c0-1.7-0.9-2.6-0.9-4.3
	c-0.9-5.1,2.6-7.7,6-9.4c4.3-1.7,6.9,2.6,7.7,6C731.3,497.1,732.2,506.6,732.2,517.7z"/>
<path fill="#E9E76A" d="M277,458.6c6.9-0.9,13.7,1.7,19.7,6.9c1.7,1.7,3.4,3.4,3.4,6c0,2.6,0.9,6.9-2.6,8.6c-4.3,1.7-6.9,0-9.4-3.4
	c-6.9-9.4-17.1-8.6-23.1,0.9c-2.6,4.3-4.3,8.6-4.3,13.7c-0.9,6,0.9,9.4,6.9,11.1c7.7,3.4,14.6,7.7,22.3,11.1
	c16.3,8.6,24,22.3,24.9,39.4c0.9,9.4-5.1,17.1-12,23.1c-6.9,6.9-15.4,10.3-24,15.4c-6,3.4-12.9,3.4-19.7,3.4c-4.3,0-7.7-3.4-9.4-6.9
	c-1.7-3.4-0.9-6.9,1.7-9.4c3.4-2.6,5.1,0,7.7,1.7c2.6,2.6,5.1,2.6,8.6,0.9c7.7-4.3,16.3-7.7,23.1-13.7c12.9-11.1,8.6-33.4-6-40.3
	c-8.6-4.3-17.1-9.4-25.7-13.7c-11.1-5.1-15.4-17.1-11.1-30c0.9-3.4,1.7-6.9,3.4-10.3C257.2,462.8,265,457.7,277,458.6z"/>
<path fill="#E9E76A" d="M914.8,458.6c6.9-0.9,13.7,1.7,19.7,6.9c1.7,1.7,3.4,3.4,3.4,6c0.9,3.4,0.9,6.9-2.6,9.4
	c-4.3,1.7-6.9,0-9.4-3.4c-6.9-9.4-17.1-8.6-23.1,0.9c-2.6,4.3-4.3,8.6-4.3,13.7c0,6.9,1.7,9.4,7.7,12c7.7,2.6,14.6,7.7,21.4,11.1
	c16.3,8.6,24,22.3,24.9,39.4c0.9,9.4-5.1,17.1-12,23.1c-6.9,6-16.3,10.3-24,15.4c-6,3.4-12.9,3.4-19.7,3.4c-4.3,0-7.7-3.4-9.4-6.9
	c-1.7-3.4-0.9-6.9,1.7-9.4c3.4-2.6,5.1,0,7.7,1.7c2.6,2.6,5.1,2.6,8.6,0.9c7.7-4.3,16.3-7.7,23.1-13.7c12.9-11.1,8.6-33.4-6-40.3
	c-8.6-4.3-17.1-9.4-25.7-13.7c-11.1-6.9-15.4-18.9-11.1-31.7c0.9-3.4,2.6-6.9,4.3-10.3C895.1,462.8,902.8,457.7,914.8,458.6z"/>
<path fill="#E9E76A" d="M500.7,552c0.9-11.1,5.1-19.7,4.3-30c0-6,3.4-8.6,7.7-11.1c4.3-2.6,6.9,0,10.3,3.4c5.1,5.1,8.6,10.3,12,16.3
	c4.3,7.7,8.6,16.3,12.9,24c3.4-0.9,1.7-3.4,1.7-5.1c-0.9-19.7,1.7-38.6,0-58.3c0-5.1-1.7-10.3-2.6-15.4c-0.9-3.4,0-6.9,2.6-9.4
	c3.4-2.6,6.9-5.1,11.1-3.4c4.3,1.7,8.6,12,7.7,15.4c-6,16.3-3.4,34.3-3.4,50.6c0.9,10.3,1.7,20.6,0.9,31.7c0,6-1.7,11.1-4.3,15.4
	c-4.3,8.6-13.7,9.4-19.7,0.9s-11.1-17.1-15.4-26.6c-1.7-3.4-3.4-6.9-6.9-10.3c-3.4,0-3.4,2.6-3.4,4.3c-1.7,9.4-5.1,18-5.1,28.3
	c0,6-2.6,12-5.1,18c-1.7,4.3-4.3,6.9-8.6,6.9c-5.1,0-8.6-4.3-8.6-8.6c-1.7-12.9-6-25.7-7.7-39.4c-1.7-13.7-6-25.7-10.3-38.6
	c-4.3-13.7-9.4-27.4-14.6-42c-1.7-5.1-0.9-10.3,1.7-14.6c2.6,0,6-1.7,7.7,1.7c1.7,2.6,4.3,4.3,4.3,6.9c1.7,12.9,9.4,23.1,13.7,35.1
	c5.1,14.6,9.4,28.3,12,43.7C496.4,545.1,496.4,547.7,500.7,552z"/>
<path fill="#E9E76A" d="M648.2,571.7c-1.7-16.3,0.9-31.7-2.6-48c-1.7-7.7-1.7-15.4-0.9-23.1c0-4.3,0-7.7-5.1-9.4
	c-4.3-0.9-5.1-4.3-3.4-7.7v-0.9c6-12,16.3-18,27.4-23.1c5.1-2.6,10.3,0,15.4,2.6c21.4,11.1,23.1,24.9,18,45.4c-1.7,6-6,10.3-12,12
	c-6,1.7-11.1,3.4-16.3,6c-6,2.6-9.4,6.9-8.6,13.7c0.9,8.6,0,18,0.9,26.6c0,4.3,0.9,8.6,3.4,12c1.7,1.7,2.6,4.3,2.6,6.9
	c0,6.9-3.4,12-9.4,12c-4.3,0-10.3-6-10.3-11.1C648.2,580.3,648.2,576,648.2,571.7z M683.3,493.7c0.9-6-1.7-10.3-6-14.6
	c-3.4-3.4-6.9-4.3-11.1-2.6c-3.4,1.7-6,4.3-4.3,8.6c0,1.7,0,3.4-0.9,5.1c-2.6,6-0.9,12-0.9,18c0,2.6,0.9,4.3,4.3,4.3
	C673.9,512.6,683.3,503.1,683.3,493.7z"/>
<path fill="#9290A8" d="M82.6,647c-1.1-19.2-12.4-57.7-22.6-82.6c-13.6,7.9-47.5,21.5-59.9,2.3c1.1-7.9,7.9-9,13.6-12.4
	c13.6-14.7,27.1-29.4,40.7-43c-3.4-22.6,0-48.6-9-66.7c2.3-5.7,6.8-10.2,11.3-13.6c18.1,14.7,31.7,35.1,53.2,47.5
	c31.7-9,49.8-30.5,79.2-41.8c1.1,2.3,3.4,2.3,5.7,4.5c0,3.4,0,6.8,0,9c-14.7,17-32.8,30.5-39.6,55.4c15.8,15.8,24.9,38.5,45.2,49.8
	c0,7.9-10.2,5.7-7.9,14.7c-6.8,1.1-6.8-3.4-12.4-2.3c0,1.1,1.1,1.1,1.1,2.3c0,1.1-1.1,1.1-1.1,0c-15.8-10.2-47.5-11.3-58.8,4.5
	c-2.3,3.4-1.1,10.2-4.5,15.8c-2.3,5.7-9,10.2-11.3,14.7c-3.4,10.2-2.3,21.5-7.9,29.4C91.6,636.8,87.1,642.5,82.6,647z"/>
<path fill="#E8E76A" d="M66.7,466.1c17,11.3,31.7,33.9,55.4,27.1c10.2-3.4,19.2-15.8,29.4-15.8c-5.7,12.4-15.8,20.4-18.1,36.2
	c10.2,9,21.5,17,27.1,29.4c-18.1,6.8-36.2-2.3-47.5,9c-1.1,22.6-14.7,33.9-22.6,48.6c-5.7-18.1-10.2-37.3-15.8-55.4
	c-10.2-4.5-17,2.3-28.3,2.3c2.3,5.7-4.5,11.3-14.7,9c11.3-15.8,23.7-31.7,43-39.6C71.2,501.1,66.7,487.5,66.7,466.1z"/>
</svg>
