<?xml version="1.0" encoding="utf-8"?>
<!-- Generator: Adobe Illustrator 18.0.0, SVG Export Plug-In . SVG Version: 6.00 Build 0)  -->
<!DOCTYPE svg PUBLIC "-//W3C//DTD SVG 1.1//EN" "http://www.w3.org/Graphics/SVG/1.1/DTD/svg11.dtd">
<svg version="1.1" id="Layer_1" xmlns="http://www.w3.org/2000/svg" xmlns:xlink="http://www.w3.org/1999/xlink" x="0px" y="0px"
	 viewBox="0 437.8 1490 206.4" enable-background="new 0 437.8 1490 206.4" xml:space="preserve">
<path fill="#E9E76A" d="M1010.4,589.7c-3.4,0-6.9,1.7-11.1,0c-14.6-6-15.4-5.1-18-20.6c-0.9-5.1-1.7-10.3-1.7-15.4
	c0-6-5.1-9.4-6.9-14.6c-1.7-5.1,4.3-9.4,3.4-15.4c-2.6-12.9-3.4-25.7-5.1-38.6c-0.9-9.4-0.9-9.4,7.7-13.7c8.6-5.1,18-6,27.4-6
	c6.9,0,14.6,0,21.4,0c5.1,0,7.7,3.4,7.7,7.7c0,3.4-3.4,6-8.6,4.3c-10.3-2.6-20.6-1.7-30.9-0.9c-9.4,1.7-10.3,3.4-9.4,12.9
	c0.9,9.4,4.3,18.9,2.6,28.3c0,1.7,0.9,4.3,0.9,6c0.9,2.6,2.6,4.3,5.1,2.6c10.3-5.1,23.1-3.4,33.4-7.7c4.3-0.9,7.7,4.3,5.1,7.7
	c-1.7,2.6-4.3,6-6,6c-6.9,0-12,6-19.7,5.1h-0.9c-12.9,1.7-15.4,4.3-12.9,17.1c3.4,16.3,6,18.9,23.1,18c6,0,11.1-0.9,15.4-3.4
	c5.1-2.6,11.1-3.4,17.1-1.7c2.6,0.9,5.1,2.6,2.6,6c-3.4,5.1-7.7,10.3-13.7,11.1C1029.3,587.2,1020.7,591.4,1010.4,589.7z"/>
<path fill="#E9E76A" d="M605.8,585.4c-3.4,0-6.9,1.7-11.1,0c-14.6-6-15.4-5.1-18-20.6c-0.9-5.1-1.7-10.3-1.7-15.4
	c0-6-5.1-9.4-6.9-14.6c-1.7-5.1,4.3-9.4,3.4-15.4c-2.6-12.9-3.4-25.7-5.1-38.6c-0.9-9.4-0.9-9.4,7.7-13.7c8.6-5.1,18-6,27.4-6
	c6.9,0,14.6,0,21.4,0c5.1,0,7.7,3.4,7.7,7.7c0,3.4-3.4,6-8.6,4.3c-10.3-2.6-20.6-1.7-30.9-0.9c-9.4,1.7-10.3,3.4-9.4,12.9
	c0.9,9.4,4.3,18.9,2.6,28.3c0,1.7,0.9,4.3,0.9,6c0.9,3.4,2.6,4.3,5.1,2.6c11.1-5.1,23.1-3.4,34.3-7.7c3.4-1.7,6.9,3.4,5.1,6.9
	c-1.7,2.6-4.3,6-6,6c-6.9,0-12,6-19.7,5.1h-0.9c-12.9,1.7-15.4,4.3-12.9,17.1c3.4,16.3,6,18.9,23.1,18c6,0,11.1-0.9,15.4-3.4
	c5.1-2.6,11.1-3.4,17.1-1.7c2.6,0.9,5.1,2.6,2.6,6c-3.4,5.1-7.7,10.3-13.7,11.1C624.6,582,616.1,586.3,605.8,585.4z"/>
<path fill="#E9E76A" d="M1264.2,511.7c-1.7,12.9-0.9,25.7-1.7,38.6c-1.7,13.7-6,24.9-14.6,35.1c-5.1,6-18,6-25.7,0
	c-8.6-6.9-14.6-14.6-15.4-25.7c-2.6-25.7-7.7-50.6-12.9-75.4c-0.9-4.3,1.7-8.6,5.1-9.4c4.3-1.7,9.4,0.9,11.1,5.1
	c0.9,1.7,0.9,4.3,0.9,6c2.6,22.3,8.6,44.6,10.3,66.9c0.9,5.1,2.6,10.3,4.3,14.6c1.7,3.4,5.1,5.1,9.4,6c3.4,0,4.3-3.4,6-6
	c2.6-6,4.3-11.1,5.1-18c0.9-14.6,3.4-29.1,1.7-43.7c-0.9-7.7,0.9-15.4,2.6-23.1c0.9-5.1,6.9-8.6,12-6.9c1.7,0.9,4.3,2.6,3.4,4.3
	C1261.6,490.3,1265,501.4,1264.2,511.7z"/>
<path fill="#E9E76A" d="M1367.1,556.3c-4.3-20.6-0.9-41.2-2.6-60.9c0-4.3-1.7-7.7-1.7-12c-0.9-4.3,0.9-7.7,5.1-8.6
	c3.4-0.9,7.7,0.9,9.4,5.1c0.9,2.6,0.9,4.3,1.7,6.9c1.7,12.9,1.7,24.9,0.9,37.7c0,14.6,0.9,29.1,6,43.7c1.7,4.3,0,7.7,0,12
	c-0.9,5.1-5.1,6.9-8.6,6.9c-5.1,0-10.3-0.9-14.6-4.3c-4.3-3.4-8.6-5.1-9.4-11.1c-0.9-5.1-4.3-8.6-7.7-12
	c-15.4-16.3-30.9-33.4-45.4-49.7c-0.9-0.9-2.6-2.6-5.1-1.7c-1.7,4.3-1.7,9.4-0.9,14.6c1.7,16.3,2.6,31.7,3.4,48
	c0,3.4,1.7,7.7,1.7,11.1c0.9,6-2.6,11.1-7.7,11.1c-6,0.9-12.9-6-11.1-11.1c2.6-7.7,1.7-14.6,0.9-22.3c-0.9-26.6-2.6-52.3-1.7-78.9
	c0-3.4,0-7.7,4.3-8.6s8.6,0.9,9.4,4.3c5.1,12.9,16.3,20.6,24.9,30.9c12.9,15.4,27.4,29.1,42.9,42.9
	C1361.9,552,1361.9,555.4,1367.1,556.3z"/>
<path fill="#E9E76A" d="M555.2,528c0,0.9,0.9,3.4,0,5.1c-2.6,9.4-6,18.9-8.6,28.3c-0.9,3.4-2.6,6-6,6.9c-12.9,6-24,14.6-38.6,16.3
	c-14.6,1.7-24-5.1-21.4-18.9c3.4-17.1,0-34.3,0-51.4c0-12.9,0.9-24.9-1.7-37.7c-0.9-4.3,2.6-9.4,5.1-13.7c1.7-2.6,5.1-3.4,8.6-3.4
	c42,3.4,60.9,30,62.6,65.2C554.3,526.3,555.2,527.1,555.2,528z M495.2,538.3c0,5.1-0.9,11.1,2.6,15.4c2.6,2.6,4.3,6,4.3,10.3
	c0.9,4.3,4.3,6,6.9,2.6s6-4.3,9.4-4.3c2.6,0,5.1-0.9,6-2.6c2.6-5.1,7.7-9.4,9.4-15.4c2.6-12,4.3-23.1,0-35.1
	c-6-15.4-16.3-27.4-34.3-30c-6-0.9-6,0-6,6C495.2,501.4,493.5,520.3,495.2,538.3z"/>
<path fill="#E9E76A" d="M347.7,506.6c-1.7,12.9-0.9,25.7-1.7,38.6c-1.7,13.7-6,24.9-14.6,35.1c-5.1,6-18,6-25.7,0
	c-8.6-6.9-14.6-14.6-15.4-25.7c-2.6-24-7.7-49.7-12.9-74.6c-0.9-4.3,1.7-7.7,5.1-9.4c5.1-1.7,9.4,0.9,11.1,5.1
	c0.9,1.7,0.9,4.3,0.9,6c2.6,22.3,8.6,44.6,11.1,66.9c0.9,5.1,2.6,10.3,4.3,14.6c1.7,3.4,5.1,5.1,9.4,6c3.4,0,4.3-3.4,6-6
	c2.6-6,4.3-11.1,5.1-18c0.9-14.6,3.4-29.1,1.7-43.7c-1.7-8.6,0-16.3,1.7-24c0.9-5.1,6.9-8.6,12-6.9c1.7,0.9,3.4,2.6,2.6,4.3
	C346,486,349.4,496.3,347.7,506.6z"/>
<path fill="#E9E76A" d="M450.6,551.1c-4.3-20.6-1.7-41.2-2.6-60.9c0-4.3-1.7-7.7-2.6-12c-0.9-4.3,0.9-7.7,5.1-8.6
	c3.4-0.9,7.7,0.9,9.4,5.1c0.9,2.6,0.9,4.3,1.7,6.9c1.7,12.9,1.7,24.9,1.7,37.7c0,14.6,0.9,29.1,6,43.7c1.7,4.3,0,7.7,0,12
	c-0.9,5.1-5.1,6.9-8.6,6.9c-5.1,0-10.3-0.9-14.6-4.3c-4.3-3.4-8.6-5.1-9.4-11.1c-0.9-5.1-4.3-8.6-7.7-12
	c-15.4-16.3-30.9-32.6-46.3-49.7c-0.9-0.9-2.6-2.6-5.1-1.7c-1.7,4.3-1.7,9.4-0.9,14.6c1.7,16.3,2.6,31.7,3.4,48
	c0,3.4,1.7,7.7,1.7,11.1c0.9,6-2.6,11.1-7.7,11.1c-6,0.9-12.9-6-11.1-11.1c2.6-7.7,1.7-14.6,0.9-22.3c-0.9-26.6-2.6-52.3-1.7-78.9
	c0-3.4,0-7.7,4.3-8.6s8.6,0.9,9.4,4.3c5.1,12.9,16.3,20.6,24.9,30.9c12.9,15.4,27.4,29.1,42.9,42.9
	C445.5,546.9,445.5,550.3,450.6,551.1z"/>
<path fill="#E9E76A" d="M1151.9,454.3c6.9-0.9,13.7,1.7,19.7,6.9c1.7,1.7,3.4,3.4,3.4,6c0.9,3.4,0.9,6.9-2.6,9.4
	c-4.3,1.7-6.9,0-9.4-3.4c-6.9-9.4-17.1-8.6-23.1,0.9c-2.6,4.3-4.3,8.6-4.3,13.7c0,6.9,1.7,9.4,7.7,12c7.7,2.6,14.6,7.7,21.4,11.1
	c16.3,8.6,24,22.3,24.9,39.4c0.9,9.4-5.1,17.1-12,23.1s-16.3,10.3-24,15.4c-6,3.4-12.9,3.4-19.7,3.4c-4.3,0-7.7-3.4-9.4-6.9
	c-1.7-3.4-0.9-6.9,1.7-9.4c3.4-2.6,5.1,0,7.7,1.7c2.6,2.6,5.1,2.6,8.6,0.9c7.7-4.3,16.3-7.7,23.1-13.7c12.9-11.1,8.6-33.4-6-40.3
	c-8.6-4.3-17.1-9.4-25.7-13.7c-12-6-16.3-18-12-31.7c0.9-3.4,2.6-6.9,4.3-10.3C1131.3,459.4,1139.9,453.4,1151.9,454.3z"/>
<path fill="#E9E76A" d="M686.4,542.6c6,6,8.6,15.4,18,18c2.6,0.9,5.1,5.1,7.7,8.6c1.7,2.6,0.9,6-0.9,7.7c-2.6,2.6-4.3,6-8.6,4.3
	c-5.1-1.7-9.4-4.3-12.9-8.6c-4.3-5.1-9.4-9.4-12.9-15.4c-1.7-2.6-3.4-5.1-8.6-5.1c0.9,7.7,1.7,14.6,2.6,21.4c0,1.7,0.9,4.3,0.9,6
	c0,4.3-4.3,9.4-7.7,9.4c-2.6,0-8.6-4.3-8.6-7.7c-0.9-8.6-1.7-17.1-0.9-25.7c0-21.4,3.4-42-2.6-63.4c-2.6-8.6,1.7-16.3,12-19.7
	c13.7-5.1,27.4-4.3,41.2-1.7c6.9,0.9,9.4,6,11.1,12.9c1.7,9.4-0.9,18.9-4.3,28.3c-4.3,10.3-10.3,20.6-20.6,25.7
	C688.9,538.3,687.2,540,686.4,542.6z M688.1,482.6c-12.9-0.9-18.9,2.6-18,19.7c0,6,0.9,12,0,18c-0.9,2.6-0.9,6,1.7,8.6
	c4.3,2.6,6.9,0.9,10.3-0.9c12-6.9,17.1-18.9,19.7-30.9C704.4,483.4,699.2,481.7,688.1,482.6z"/>
<path fill="#E9E76A" d="M865.5,476.6c3.4,0,6.9-0.9,9.4-0.9c4.3,0,7.7,1.7,9.4,6s4.3,8.6,0,12.9c-3.4,3.4-7.7,1.7-11.1,0
	c-8.6-4.3-18-2.6-26.6-3.4c-6,0-8.6,3.4-7.7,9.4c3.4,17.1,6,33.4,10.3,50.6c1.7,6.9,4.3,12.9,11.1,16.3c5.1,2.6,5.1,12.9,1.7,18
	c-3.4,4.3-9.4,6-14.6,3.4c-0.9-0.9-2.6-1.7-3.4-2.6c-2.6-9.4-8.6-16.3-10.3-26.6c-2.6-18.9-6-36.9-9.4-55.7
	c-0.9-6.9-3.4-8.6-10.3-6.9c-6,0.9-11.1,2.6-17.1,3.4c-1.7,0-2.6,0.9-4.3,0.9c-3.4,0-6.9,0-7.7-3.4c-0.9-3.4,0.9-6.9,5.1-7.7
	c5.1-1.7,9.4-3.4,14.6-4.3c16.3-3.4,32.6-6,48-8.6C857.8,475.7,862.1,476.6,865.5,476.6z"/>
<path fill="#E9E76A" d="M914.4,491.1c0,12,0,23.1,0,35.1c0,5.1,1.7,6.9,6.9,6c6-0.9,11.1-2.6,17.1-3.4c4.3-0.9,6.9-4.3,6-9.4
	c-1.7-13.7-3.4-27.4-7.7-40.3c-1.7-4.3-1.7-7.7,2.6-11.1c3.4-3.4,8.6-1.7,10.3,3.4c2.6,11.1,7.7,22.3,6.9,34.3c0,3.4,0,6.9,0.9,10.3
	c3.4,10.3,5.1,21.4,6.9,32.6c0.9,10.3,2.6,20.6,4.3,31.7c1.7,8.6,0.9,9.4-7.7,10.3c-7.7,0.9-12.9-3.4-12-9.4
	c0.9-5.1,0-10.3,0.9-15.4s0-11.1-0.9-16.3c0-3.4-2.6-5.1-5.1-4.3c-6.9,1.7-13.7,1.7-20.6,2.6c-6.9,0.9-7.7,2.6-6.9,9.4
	c0.9,7.7,4.3,15.4,3.4,24c-0.9,6.9-1.7,8.6-7.7,8.6s-7.7-1.7-7.7-7.7c-0.9-6.9-0.9-13.7-1.7-20.6c0-5.1,0-9.4-4.3-12.9
	c-2.6-2.6-3.4-6.9-0.9-9.4c6.9-10.3,5.1-20.6,4.3-31.7c-0.9-8.6,0-17.1-1.7-25.7c-0.9-2.6,0-5.1,1.7-6.9c1.7-3.4,4.3-4.3,7.7-4.3
	s6,2.6,6,6C915.3,480.8,914.4,486,914.4,491.1L914.4,491.1z"/>
<path fill="#9290A8" d="M259.7,518.1c-18.7,8.7-53.7,37.5-73.7,58.7c13.7,10,42.5,38.7,28.7,59.9c-8.7,2.5-12.5-3.7-18.7-8.7
	c-21.2-7.5-41.2-15-61.2-22.5c-21.2,12.5-49.9,20-63.7,38.7c-7.5,0-13.7-2.5-18.7-6.2c7.5-25,22.5-47.4,25-73.7
	C53.7,535.6,23.7,525.6,0,500.6c1.2-2.5,1.2-5,1.2-7.5c3.7-1.2,6.2-2.5,10-3.7c23.7,8.7,44.9,20,73.7,16.2
	c10-22.5,28.7-41.2,31.2-67.4c7.5-2.5,10,7.5,18.7,1.2c3.7,6.2-1.2,8.7,2.5,13.7c1.2-1.2,1.2-2.5,2.5-2.5s1.2,1.2,0,1.2
	c-3.7,21.2,8.7,53.7,28.7,57.4c5,1.2,11.2-2.5,18.7-2.5c6.2,0,15,5,20,5c11.2,0,22.5-6.2,32.5-3.7
	C246,513.1,252.2,515.6,259.7,518.1z"/>
<path fill="#E8E76A" d="M82.4,611.8c5-22.5,20-47.4,3.7-68.7c-7.5-10-23.7-12.5-30-23.7c15,0,27.5,6.2,44.9,2.5
	c5-13.7,7.5-28.7,18.7-40c15,15,13.7,37.5,30,43.7c23.7-8.7,40,0,59.9,2.5c-16.2,13.7-33.7,26.2-49.9,40c0,11.2,8.7,16.2,15,27.5
	c5-3.7,13.7,0,16.2,11.2c-21.2-5-42.5-11.2-58.7-27.5C116.1,591.8,104.9,603,82.4,611.8z"/>
</svg>
