<?xml version="1.0" encoding="utf-8"?>
<!-- Generator: Adobe Illustrator 18.0.0, SVG Export Plug-In . SVG Version: 6.00 Build 0)  -->
<!DOCTYPE svg PUBLIC "-//W3C//DTD SVG 1.1//EN" "http://www.w3.org/Graphics/SVG/1.1/DTD/svg11.dtd">
<svg version="1.1" id="Layer_1" xmlns="http://www.w3.org/2000/svg" xmlns:xlink="http://www.w3.org/1999/xlink" x="0px" y="0px"
	 viewBox="0 431.8 1490 214.3" enable-background="new 0 431.8 1490 214.3" xml:space="preserve">
<path fill="#E9E76A" d="M341.7,590.6c-3.4,0-6.9,1.7-11.1,0c-14.6-6-15.4-5.1-18-20.6c-0.9-5.1-1.7-10.3-1.7-15.4
	c0-6-5.1-9.4-6.9-14.6c-1.7-5.1,4.3-9.4,3.4-15.4c-2.6-12.9-3.4-25.7-5.1-38.6c-0.9-9.4-0.9-9.4,7.7-14.6c8.6-5.1,18-6,27.4-6
	c6.9,0,14.6,0,21.4,0c5.1,0,7.7,3.4,7.7,7.7c0,3.4-3.4,6-8.6,4.3c-10.3-2.6-20.6-1.7-30.9-0.9c-8.6,2.6-9.4,4.3-8.6,13.7
	s4.3,18.9,2.6,28.3c0,1.7,0.9,4.3,0.9,6c0.9,2.6,2.6,4.3,5.1,2.6c10.3-5.1,23.1-3.4,33.4-7.7c3.4-1.7,6.9,3.4,5.1,6.9
	c-1.7,2.6-4.3,6-6,6c-6.9,0-12,6-19.7,5.1h-0.9c-12.9,1.7-15.4,4.3-12.9,17.1c3.4,16.3,6,18.9,23.1,18c6,0,11.1-0.9,15.4-3.4
	c5.1-2.6,11.1-3.4,17.1-1.7c2.6,0.9,5.1,2.6,2.6,6c-3.4,5.1-7.7,10.3-13.7,11.1C361.4,587.2,352,592.3,341.7,590.6z"/>
<path fill="#E9E76A" d="M602.3,590.6c-3.4,0-6.9,1.7-11.1,0c-14.6-6-15.4-5.1-18-20.6c-0.9-5.1-1.7-10.3-1.7-15.4
	c0-6-5.1-9.4-6.9-14.6c-1.7-5.1,4.3-9.4,3.4-15.4c-2.6-12.9-3.4-25.7-5.1-38.6c-0.9-9.4-0.9-9.4,7.7-13.7c8.6-5.1,18-6,27.4-6
	c6.9,0,14.6,0,21.4,0c5.1,0,7.7,3.4,7.7,7.7c0,3.4-3.4,6-8.6,4.3c-10.3-2.6-20.6-1.7-30.9-0.9c-9.4,1.7-10.3,3.4-9.4,12.9
	c0.9,9.4,4.3,18.9,2.6,28.3c0,1.7,0.9,4.3,0.9,6c0.9,2.6,2.6,4.3,5.1,2.6c10.3-5.1,23.1-3.4,33.4-7.7c3.4-1.7,6.9,3.4,5.1,6.9
	c-1.7,2.6-4.3,6-6,6c-6.9,0-12,6-19.7,5.1h-0.9c-12.9,1.7-15.4,4.3-12.9,17.1c3.4,16.3,6,18.9,23.1,18c6,0,11.1-0.9,15.4-3.4
	c5.1-2.6,11.1-3.4,17.1-1.7c2.6,0.9,5.1,2.6,2.6,6c-3.4,5.1-7.7,10.3-13.7,11.1C622,587.2,612.6,592.3,602.3,590.6z"/>
<path fill="#E9E76A" d="M686.3,590.6c-3.4,0-6.9,1.7-11.1,0c-14.6-6-15.4-5.1-18-20.6c-0.9-5.1-1.7-10.3-1.7-15.4
	c0-6-5.1-9.4-6.9-14.6s4.3-9.4,3.4-15.4c-2.6-12.9-3.4-25.7-5.1-38.6c-0.9-9.4-0.9-9.4,7.7-13.7c8.6-5.1,18-6,27.4-6
	c6.9,0,14.6,0,21.4,0c5.1,0,7.7,3.4,7.7,7.7c0,3.4-3.4,6-8.6,4.3c-10.3-2.6-20.6-1.7-30.9-0.9c-9.4,1.7-10.3,3.4-9.4,12.9
	s4.3,18.9,2.6,28.3c0,1.7,0.9,4.3,0.9,6c0.9,2.6,2.6,4.3,5.1,2.6c10.3-5.1,23.1-3.4,33.4-7.7c3.4-1.7,6.9,3.4,5.1,6.9
	c-1.7,2.6-4.3,6-6,6c-6.9,0-12,6-19.7,5.1h-0.9c-12.9,1.7-15.4,4.3-12.9,17.1c3.4,16.3,6,18.9,23.1,18c6,0,11.1-0.9,15.4-3.4
	c5.1-2.6,11.1-3.4,17.1-1.7c2.6,0.9,5.1,2.6,2.6,6c-3.4,5.1-7.7,10.3-13.7,11.1C706,587.2,696.6,592.3,686.3,590.6z"/>
<path fill="#E9E76A" d="M232.8,530.6c-5.1,16.3-14.6,30-11.1,48c0.9,5.1-1.7,7.7-5.1,10.3c-4.3,2.6-8.6,2.6-12-0.9
	c-2.6-2.6-3.4-5.1-4.3-7.7c-2.6-16.3-8.6-32.6-12-48.9c-0.9-11.1-1.7-20.6-10.3-28.3c-3.4-3.4-1.7-7.7,2.6-10.3
	c3.4-3.4,9.4-2.6,12.9,0.9c2.6,5.1,5.1,10.3,6,15.4c3.4,12,6.9,24,10.3,36.9c5.1-6,6.9-13.7,9.4-20.6c1.7-6,4.3-12,4.3-18
	c0.9-4.3,3.4-6,6.9-7.7c4.3-0.9,7.7,0,10.3,3.4c1.7,3.4,3.4,6.9,5.1,10.3c6,12,11.1,24.9,17.1,36.9c0.9,1.7,1.7,3.4,5.1,4.3
	c3.4-7.7,5.1-16.3,6-24c1.7-12.9,3.4-25.7,1.7-37.7c-0.9-4.3,0.9-8.6,1.7-12c1.7-5.1,5.1-6,9.4-3.4c5.1,3.4,7.7,8.6,6.9,15.4
	c-1.7,7.7-1.7,16.3-1.7,24.9c-0.9,13.7-5.1,25.7-6,39.4c-0.9,9.4-2.6,18-2.6,27.4c0,4.3-2.6,5.1-6,6.9c-3.4,1.7-6.9,0-9.4-2.6
	c-2.6-3.4-4.3-6.9-6.9-10.3c-8.6-12.9-14.6-24.9-19.7-37.7C239.7,537.4,238,534,232.8,530.6z"/>
<path fill="#E9E76A" d="M531.1,529.7c0.9-14.6,2.6-28.3-2.6-42.9c-3.4-8.6,0-18,3.4-26.6c0-2.6,9.4-6,12-6c4.3,0.9,6.9,5.1,4.3,9.4
	c-4.3,6-3.4,12-2.6,18.9c0.9,7.7,1.7,16.3,1.7,24.9c0.9,20.6,2.6,40.3,9.4,59.2c0.9,2.6,1.7,6-0.9,8.6c-2.6,2.6-5.1,6.9-9.4,5.1
	c-4.3-1.7-8.6-3.4-11.1-8.6c-7.7-18.9-20.6-35.1-32.6-51.4H502c-2.6,1.7-1.7,4.3-1.7,6c0,10.3-4.3,20.6-0.9,31.7
	c0.9,1.7,0,3.4-0.9,5.1c-2.6,6.9-4.3,12.9-4.3,19.7c0,5.1-4.3,6.9-7.7,8.6c-5.1,1.7-10.3-3.4-9.4-10.3c1.7-10.3,4.3-20.6,6.9-30.9
	c4.3-18.9,6-37.7,2.6-57.4c-1.7-9.4,4.3-16.3,12-13.7c2.6,0.9,5.1,2.6,6,6c1.7,9.4,6.9,18,12.9,24.9
	C521.7,516.9,526,522.9,531.1,529.7z"/>
<path fill="#E9E76A" d="M1339.6,584.6c0.9,3.4-0.9,6-3.4,6.9c-4.3,1.7-8.6,0.9-11.1-2.6c-3.4-3.4-6-6.9-5.1-12
	c0.9-6-1.7-11.1-3.4-17.1c-2.6-9.4-7.7-12.9-17.1-12c-8.6,0.9-17.1,2.6-26.6,2.6c-5.1,0-6,5.1-6,7.7c-1.7,7.7-4.3,14.6-7.7,21.4
	c-1.7,3.4-3.4,6.9-6,9.4s-6.9,3.4-10.3,1.7c-3.4-1.7-4.3-7.7-1.7-11.1c14.6-21.4,18-46.3,24-71.2c2.6-12.9,7.7-24.9,12-36.9
	c4.3-10.3,11.1-10.3,18.9-2.6c6.9,6.9,8.6,16.3,11.1,24.9c4.3,14.6,9.4,27.4,16.3,41.2c5.1,9.4,10.3,19.7,12,30.9
	C1335.3,572.6,1340.4,577.7,1339.6,584.6z M1286.4,497.1c-2.6,0.9-3.4,2.6-4.3,4.3c-5.1,10.3-5.1,21.4-8.6,32.6
	c-0.9,2.6,0.9,4.3,4.3,4.3c6.9-0.9,12.9-0.9,18.9-3.4c3.4-1.7,6-4.3,3.4-7.7c-3.4-6-4.3-12.9-6.9-18.9
	C1292.4,503.1,1290.7,498.8,1286.4,497.1z"/>
<path fill="#E9E76A" d="M1392.7,588.9c-6.9,1.7-14.6,0.9-23.1,1.7c-6.9,0.9-12-2.6-12.9-9.4c-0.9-22.3-8.6-44.6-8.6-66.9
	c0-15.4-4.3-30-6.9-45.4c0-2.6-0.9-5.1-0.9-6.9c0-5.1,2.6-6.9,6.9-7.7c4.3-0.9,6,1.7,6.9,6c1.7,10.3,3.4,20.6,5.1,31.7
	c2.6,24,7.7,47.2,11.1,70.3c1.7,10.3,2.6,11.1,13.7,10.3c3.4,0,6.9-0.9,10.3-1.7s6,0,8.6,1.7c3.4,1.7,6,5.1,6.9,9.4
	c0.9,2.6-6.9,6.9-11.1,7.7C1397,589.7,1395.3,588.9,1392.7,588.9z"/>
<path fill="#E9E76A" d="M1435.6,552c5.1,9.4,2.6,18.9,1.7,28.3c0,2.6-0.9,5.1-2.6,7.7c-2.6,3.4-6,4.3-9.4,2.6
	c-3.4-1.7-5.1-3.4-5.1-7.7c0.9-6.9,0.9-14.6,0.9-21.4s-0.9-12.9-3.4-18.9c-3.4-9.4-2.6-19.7-6.9-29.1c-1.7-4.3-2.6-9.4-5.1-13.7
	c-3.4-7.7-2.6-12.9,1.7-14.6c5.1-1.7,8.6,0.9,12,7.7c2.6,6.9,6,12.9,6.9,20.6c0,1.7,0.9,3.4,2.6,5.1c3.4,0.9,6-1.7,7.7-4.3
	c8.6-10.3,18.9-18.9,24.9-30.9c0.9-1.7,1.7-3.4,3.4-5.1c2.6-1.7,5.1-2.6,7.7-0.9c3.4,0.9,3.4,2.6,3.4,5.1c-0.9,4.3-0.9,8.6-4.3,11.1
	c-6.9,8.6-12.9,18-21.4,24.9c-1.7,0.9-2.6,2.6-3.4,3.4c-6,8.6-5.1,10.3,4.3,15.4c7.7,4.3,16.3,7.7,21.4,15.4
	c5.1,6.9,11.1,14.6,16.3,22.3c2.6,3.4,0.9,11.1-2.6,13.7c-3.4,2.6-7.7,2.6-11.1,0c-4.3-2.6-6-6-8.6-11.1
	c-5.1-11.1-12.9-19.7-23.1-25.7C1441.6,551.1,1439.9,550.3,1435.6,552z"/>
<path fill="#E9E76A" d="M973.5,477.4c3.4,0,6.9-0.9,9.4-0.9c4.3,0,7.7,1.7,9.4,6s4.3,8.6,0,12.9c-3.4,3.4-7.7,1.7-11.1,0
	c-8.6-4.3-18-2.6-26.6-3.4c-6,0-8.6,3.4-7.7,9.4c3.4,17.1,6,33.4,10.3,50.6c1.7,6.9,4.3,12.9,11.1,16.3c5.1,2.6,5.1,12.9,1.7,18
	c-3.4,4.3-9.4,6-14.6,3.4c-0.9-0.9-2.6-1.7-3.4-2.6c-2.6-9.4-8.6-16.3-10.3-26.6c-2.6-18.9-6-36.9-9.4-55.7
	c-0.9-6.9-3.4-8.6-10.3-6.9c-6,0.9-11.1,2.6-17.1,3.4c-1.7,0-2.6,0.9-4.3,0.9c-3.4,0-6.9,0-7.7-3.4s0.9-6.9,5.1-7.7
	c5.1-1.7,9.4-3.4,14.6-4.3c16.3-3.4,32.6-6,48-8.6C965.8,476.6,970.1,476.6,973.5,477.4z"/>
<path fill="#E9E76A" d="M1068.7,536.6c1.7,13.7-4.3,26.6-10.3,39.4c-5.1,10.3-14.6,14.6-26.6,14.6c-10.3,0-18.9-3.4-24-12.9
	c-8.6-17.1-9.4-34.3-6-53.2c1.7-8.6,4.3-17.1,6-25.7c0.9-2.6,2.6-5.1,0.9-6.9c-3.4-4.3-0.9-7.7,1.7-11.1c0.9-0.9,1.7-2.6,2.6-3.4
	c12-14.6,20.6-13.7,31.7,0.9c1.7,2.6,3.4,5.1,5.1,6c14.6,9.4,18,24.9,19.7,41.2C1068.7,528.9,1068.7,532.3,1068.7,536.6z
	 M1054.1,537.4c0.9-9.4,0-18.9-3.4-26.6c-3.4-8.6-9.4-15.4-16.3-21.4c-4.3-4.3-5.1-4.3-8.6,0.9c-12.9,23.1-17.1,47.2-9.4,72.9
	c1.7,6.9,6,12,12.9,13.7c6.9,1.7,12.9-2.6,17.1-7.7c2.6-2.6,4.3-5.1,5.1-8.6C1052.4,552,1055.8,544.3,1054.1,537.4z"/>
<path fill="#E9E76A" d="M813.2,534c0,0.9,0.9,3.4,0,5.1c-2.6,9.4-6,18.9-8.6,28.3c-0.9,3.4-2.6,6-6,6.9c-12.9,6-24,14.6-38.6,16.3
	c-14.6,1.7-24-5.1-21.4-18.9c3.4-17.1,0-34.3,0-51.4c0-12.9,0.9-24.9-1.7-37.7c-0.9-4.3,2.6-9.4,5.1-13.7c1.7-2.6,5.1-3.4,8.6-3.4
	c42,3.4,60.9,30,62.6,65.2C813.2,531.4,813.2,532.3,813.2,534z M754,543.4c0,5.1-0.9,11.1,2.6,15.4c2.6,2.6,4.3,6,4.3,10.3
	c0.9,4.3,4.3,6,6.9,2.6c2.6-3.4,6-4.3,9.4-4.3c2.6,0,5.1-0.9,6-2.6c2.6-5.1,7.7-9.4,9.4-15.4c2.6-12,4.3-23.1,0-35.1
	c-6-15.4-16.3-27.4-34.3-30c-6-0.9-6,0-6,6C754,507.4,752.3,525.4,754,543.4z"/>
<path fill="#E9E76A" d="M1175,498c-1.7,0-3.4,0-5.1,0c-3.4,0-6-1.7-6-5.1c-0.9-3.4,1.7-6,5.1-6.9c1.7-0.9,4.3-1.7,6-1.7
	c17.1-2.6,33.4-7.7,50.6-11.1c1.7,0,3.4-0.9,5.1-0.9c4.3,0,7.7,2.6,8.6,6c1.7,4.3-0.9,6.9-4.3,9.4c-5.1,3.4-12,3.4-18,3.4
	c-15.4,1.7-13.7,0-12,14.6c2.6,17.1,6,34.3,6.9,51.4c0,6,1.7,11.1,4.3,17.1c2.6,4.3,1.7,9.4,0,13.7c-0.9,2.6-2.6,6-6.9,6
	c-3.4,0-6-1.7-8.6-5.1c-1.7-1.7-1.7-4.3-1.7-6.9c-2.6-23.1-4.3-47.2-6.9-70.3c0-1.7-0.9-4.3-0.9-6c-2.6-9.4-2.6-9.4-12.9-8.6
	C1176.7,498,1175.8,498,1175,498z"/>
<path fill="#9290A8" d="M48,614.1c3.6-15.1,2.9-49.7,0.2-72.2C36,545.5,5,548.6-1,530c3.1-6.1,9.2-5.1,14.6-7.1
	c13.7-8.7,28.7-17.1,42.9-25c2.6-18.9,11.9-39.4,7.7-56.7c3.2-4,8.2-6.8,12.9-8.3c11.4,16.6,17.8,35.9,31.7,51.1
	c27.3,0.1,47.2-13.2,74-16.1c0.9,1.7,2.7,2.9,3.6,4.5c-0.7,2.6-1.5,5.2-2.2,7.8c-16.2,10.1-33.8,17.7-44.5,35.7
	c9.3,16.7,11.1,37.5,24.9,50.6c-1.8,6.5-9.7,2.1-9.8,9.8c-5.6-0.2-4.4-4.1-9.2-4.7c-0.4,1.3,0.9,1.7,0.6,3c-0.4,1.3-0.8,0.5-1.3-0.4
	c-11.2-12.3-36.3-20.2-48.3-10.2c-2.9,2.7-3,8.2-7.1,12.7c-4.1,4.4-10.4,6.9-13.2,9.6c-5.3,6.2-7.4,16.1-13.1,21.5
	C57.2,609,53,611.3,48,614.1z"/>
<path fill="#E8E76A" d="M76.8,463.8c10.9,13.6,18.2,34.6,39.1,35c9,0.5,18.4-8.1,27.9-6.8c-7.3,8.4-17.8,13.2-22.8,25.8
	c5.6,10,13.6,18.6,15,30.9c-16.6,1.6-28.2-9.4-41.1-3.3c-6,18.6-19.4,23.9-30.1,34.2c-0.3-16.2,0.2-32.9,0-49.1
	c-7.5-5.6-14.2-1.9-24.1-4.1c0.7,5.1-6.5,8-13.9,4.5c12.8-10.4,26.8-20.4,44.3-22.5C73,494.3,72.4,481.5,76.8,463.8z"/>
</svg>
