<?xml version="1.0" encoding="utf-8"?>
<!-- Generator: Adobe Illustrator 17.1.0, SVG Export Plug-In . SVG Version: 6.00 Build 0)  -->
<!DOCTYPE svg PUBLIC "-//W3C//DTD SVG 1.1//EN" "http://www.w3.org/Graphics/SVG/1.1/DTD/svg11.dtd">
<svg version="1.1" xmlns="http://www.w3.org/2000/svg" xmlns:xlink="http://www.w3.org/1999/xlink" x="0px" y="0px"
	 viewBox="0 0 91 90" enable-background="new 0 0 91 90" xml:space="preserve">
<g id="Layer_2">
</g>
<g id="Layer_1">
</g>
<g id="Layer_3">
	<g>
		<path fill="#3A6CAF" d="M4.7,31c0.6,3.9-3.3,8-3.7,11.9c-0.3,3.5-0.2,7.5,1.3,10.7c1.9,4.1,4,8.3,6.1,12.3
			c2.2,4.1,5.9,10.3,9.9,12.7c2.2,1.3,4.8,1.6,7,2.7c1.9,0.9,3.5,2.8,5.4,3.6c5.6,2.3,12.7,4,18.9,3.8c10.3-0.4,21.5-8.6,28.8-15.3
			c3.7-3.4,8.6-7.8,9.7-13c1.1-5.5,0.5-12.3-0.7-17.7c-1.2-5.2-1.3-10-2-15.3c-0.8-6-4.2-8.8-8.9-12.4c-7.7-5.7-14.7-13-25-13.3
			c-4.6-0.1-8.7-0.6-13.1,0.7C32,4.1,28,6.4,22.7,10c-4.5,3.1-10.8,6.5-14.1,10.7c-3,3.8-6.5,11.6-6,16.3"/>
		<g>
			<g>
				<g>
					<g>
						<path fill="#4D4D4D" d="M2,37.1c0.1,0.1,0.3,0,0.2-0.4l-0.3-0.3L2,37.1z"/>
						<path fill="#4D4D4D" d="M2.7,34.3c-0.1-0.5-0.3-1.1-0.6-0.8c0.2,0.5,0.1,0.6,0.4,1.2c0,0.4-0.2,0.7-0.3,0.6
							c0.1,0.2-0.1,0.7,0.1,0.9c0.3-0.5,0.3-1.2,0.2-1.9C2.6,34.1,2.6,34.2,2.7,34.3z"/>
						<path fill="#4D4D4D" d="M28.9,6.7l-0.2,0.1C28.8,6.7,28.9,6.7,28.9,6.7z"/>
						<path fill="#4D4D4D" d="M52.4,2.4c-0.2,0-0.3,0-0.3,0.1C52.3,2.4,52.5,2.4,52.4,2.4z"/>
						<path fill="#4D4D4D" d="M56.4,3.5c-0.1,0-0.2-0.1-0.2-0.1C56.2,3.4,56.3,3.5,56.4,3.5z"/>
						<path fill="#4D4D4D" d="M28.9,6.7l0.6-0.2C29.6,6.3,29.2,6.5,28.9,6.7z"/>
						<path fill="#4D4D4D" d="M3.3,28.7c0,0.1,0,0.3,0,0.4L3.3,28.7C3.4,28.7,3.4,28.7,3.3,28.7z"/>
						<path fill="#4D4D4D" d="M19.9,12.7l-0.2,0.1c0,0.1-0.1,0.1-0.1,0.2L19.9,12.7z"/>
						<path fill="#4D4D4D" d="M13.2,17.4c0.2-0.1,0-0.4,0-0.5c0,0.2-0.1,0.3-0.2,0.4C13,17.4,13.1,17.4,13.2,17.4z"/>
						<path fill="#4D4D4D" d="M5.1,27.4l-0.1,0.2C5.1,27.5,5.1,27.4,5.1,27.4z"/>
						<path fill="#4D4D4D" d="M25,9.5c0,0,0.1,0,0.1,0C25.1,9.5,25,9.5,25,9.5z"/>
						<path fill="#4D4D4D" d="M0.5,39.6C0.6,39.6,0.6,39.6,0.5,39.6C0.6,39.5,0.6,39.5,0.5,39.6z"/>
						<path fill="#4D4D4D" d="M4.7,31l0,0.1c0.1,0,0.1,0,0.2,0L4.7,31z"/>
						<path fill="#4D4D4D" d="M62.9,6.8C62.9,6.8,62.9,6.8,62.9,6.8C62.7,6.7,62.8,6.7,62.9,6.8z"/>
						<path fill="#4D4D4D" d="M84.6,65c0.3-0.2,0.2,0.1,0.1,0.3c-0.1,0.3-0.2,0.5,0.3,0.1C84.9,65.4,85.2,64.3,84.6,65z"/>
						<path fill="#4D4D4D" d="M3.5,28.5l0.1-0.3C3.5,28.3,3.5,28.4,3.5,28.5z"/>
						<path fill="#4D4D4D" d="M85,65.4L85,65.4L85,65.4C85.1,65.4,85.1,65.4,85,65.4z"/>
						<path fill="#4D4D4D" d="M77.1,17.1c0-0.1,0-0.1-0.1-0.2C77.1,16.9,77.1,17,77.1,17.1z"/>
						<path fill="#4D4D4D" d="M66.9,8.8L67.2,9C67.1,8.9,67,8.8,66.9,8.8z"/>
						<path fill="#4D4D4D" d="M82.1,21.4c0.1,0.1,0.1,0.2,0.2,0.4c0,0,0,0,0-0.1C82.2,21.7,82.2,21.6,82.1,21.4z"/>
						<path fill="#4D4D4D" d="M84.5,27.7c0,0,0-0.1,0-0.1c0-0.1,0-0.1-0.1-0.2C84.5,27.3,84.5,27.7,84.5,27.7z"/>
						<path fill="#4D4D4D" d="M4.7,61.2c0-0.2,0-0.3,0.1-0.4C4.6,61,4.1,60.1,4.7,61.2z"/>
						<path fill="#4D4D4D" d="M3.5,28.7c-0.1-0.1-0.1-0.1,0-0.2c0,0.1,0,0.2-0.1,0.2C3.4,28.8,3.5,28.8,3.5,28.7z"/>
						<path fill="#4D4D4D" d="M84.1,20.4c0,0,0.2,0.3,0.3,0.5c0.2,0.3,0.3,0.6,0.3,0.6C84.6,21.2,84.3,20.8,84.1,20.4z"/>
						<path fill="#4D4D4D" d="M45.1,89.7l-0.3,0C45,89.7,45.1,89.7,45.1,89.7z"/>
						<path fill="#4D4D4D" d="M86.2,24.9c0,0.2-0.1,0.5,0,0.7c0,0,0.1,0.1,0.1,0.1L86.2,24.9z"/>
						<path fill="#4D4D4D" d="M4.8,60.8L4.8,60.8L4.8,60.8z"/>
						<path fill="#4D4D4D" d="M0.8,54.3c0.5,1,0.6,0.3,0.8,0.4c0.7,1.1,0,0.7,0,1.1c0.5,0.7,1,1.1,1.3,1.6c0,0.1,0,0.2-0.1,0.1
							c0.6,0.6,1.1,2.3,1.9,3c0,0.1,0,0.1,0,0.2c0.1-0.2,0.3-0.3,0.4-0.4c0.2,0.4,0.6,0.7,0.5,1c-0.1-0.3-0.2-0.2-0.4-0.3l0.3,0.4
							C5.5,62,5.2,60.9,4.9,61c0.5,0.8,1.3,1.7,1.6,2.5c-0.2,0.3-0.9-1.5-0.7-0.5l-0.4-1.1c-0.1,1.1-0.3-0.7-0.4,0.3
							c0.6,1.4,0.9,1.5,1.5,2.9c0.3,0.2,0.2-0.2,0.5,0c1.3,1.8,0,1.9,1.2,3.2c0.4,0.3,0.9,0.2,1.3,1.3L9,69.4
							c0.7,1.3,0.9,0.5,1.5,1.9c-0.3-0.2-0.7-0.9-0.7-0.7c0.3,1,0.6,0.5,1,1.2l-0.2,0.3c1,1.3,2.2,2.7,3.5,4c-0.1,0-0.4-0.2-0.2,0.2
							c0.4,0.4,0.8,0.8,1.3,1.3c0.5,0.4,0.9,0.9,1.4,1.3c1,0.9,2.1,1.5,3.2,2l0.9,0c0.2,0.1,0.3,0.2,0.1,0.2
							c0.8,0.4,0.1-0.2,0.5-0.1c0.5,0.1,0.5,0.4,0.2,0.3c0.7,0.1,1.8,0.3,2.7,0.6c0.2,0.1,0.5,0.2,0.7,0.3c0.2,0.1,0.4,0.2,0.6,0.3
							c0.4,0.3,0.7,0.5,1,0.8l-0.3-0.1c0.9,0.8,1.4,0.3,2.2,1.3l-0.2-0.1c0.5,0.4,1.1,0.9,1.8,1.2c0.7,0.3,1.3,0.5,1.9,0.8
							c1.2,0.5,2.4,0.9,3.3,1.4c0.5-0.3,2.5,0.9,2.8,0.3c1.4,0.6,1,0.7,3.1,1.2c0.6,0.1,0.9-0.2,1.6-0.2l0,0.3l1-0.2l0.5,0.4
							c0,0,0.2,0,0.3,0c0.2,0,0.3,0,0.3,0c-0.3,0-0.6-0.2-0.5-0.3c1,0,2.5,0.4,2.6,0.6c0,0,0.2,0,0.4,0c0.2,0,0.5-0.1,0.9-0.1
							c0.6-0.1,1.2-0.1,1.2-0.1c-0.1,0.1-0.5,0.2-0.8,0.2c1.3-0.3,0.2,0.4,1.5,0c-0.2-0.1,0.1-0.2,0.1-0.3c0.3,0.1,0.8,0.1,1.4,0
							c0.6-0.1,1.2-0.2,1.7-0.3l-0.2,0.2c1.9-0.3,3.8-1,5.8-1.8c-0.7,0.2-0.7-0.2-0.1-0.5l0.3,0.2c0.3-0.3-0.6,0.1,0-0.4
							c0.7-0.2,0.6,0.2,0.2,0.4c0,0,0.2-0.1,0.4-0.2c0.2-0.1,0.4-0.2,0.4-0.2c0.1,0.1-0.1,0.2-0.1,0.3c0.3-0.3,1.6-0.4,2-0.9
							l0.1,0.1c1.9-0.9,2.6-1.5,4.1-2.4c-0.1-0.3,0.5-0.5,0.8-1c1.1-0.6,2.3-1.1,3.5-2c0.8-0.7,0.1-0.4,0.4-0.8
							c0.2,0.2,1.4-0.7,0.9-0.1c1.4-1.1,1.8-1.4,3.4-3c-0.3,0.1-0.5,0.2-0.4,0.1c0.3-0.3,0.8-0.5,0.8-0.4l-0.1,0.1
							c1.7-1.9,4.8-3.3,5.9-5l-0.1,0.1c0,0,0.3-0.4,0.7-0.8c0.3-0.4,0.6-0.8,0.6-0.8c0.7-0.7-0.3,0.5,0.3,0.2
							c1.3-1.9,2.5-2.6,3.4-4.3c0.7-0.4,1.5-1.5,2-2.9c0.1-0.3,0.3-0.6,0.4-1c0.1-0.4,0.2-0.7,0.3-1c0.1-0.3,0.2-0.7,0.3-0.9
							c0.1-0.3,0.2-0.6,0.3-0.8l-0.2,0.1c-0.1-0.5,0.2-0.6,0.3-1c-0.1,0-0.2,0.5-0.3,0.2c0.2-2.2,0.4-4.4,0.4-6.6
							c0.1-2.2,0-4.5-0.3-6.6c-0.2-1.6-1-0.7-1-2.8l0.4,0.5c-0.5-1.6-0.8-3-1.1-4.6c-0.2-1.6-0.4-3.1-0.7-4.6
							c0.1,0.2,0.2,0.2,0.2,0.5c0.2-0.7-0.2-2.4-0.4-2.4c0-0.5,0.2-0.1,0.2-0.4c0.1-0.7-0.5-1.6-0.3-2c0-0.1,0.1,0.2,0.1,0.3
							c-0.2-0.4-0.2-2-0.4-1.6c0-0.6-0.1-1.1-0.2-1.7c-0.1-0.5-0.3-1.1-0.3-1.6c-0.4-0.6-0.5-2.1-1-2.1c0.5-0.1-0.6-2.2-1.2-2.7
							c0.3,0.1-0.3-0.6,0.1-0.5c-0.3-0.4-0.5-0.7-0.8-0.9c-0.2-0.2-0.4-0.3-0.4-0.1c-0.3-0.8-1-1.3-1.6-1.7
							c-0.6-0.4-1.1-0.8-1.2-1.3c-2.1-1.5-4.1-2.6-5.9-3.9c0.3-0.3,2,1.5,2.2,1c-1.8-1.1-3-1.6-4.5-3c-0.4-0.4,0.4,0,0.6,0.1
							c-1.8-1.2-3.2-2.6-4.9-3.5c0,0,0.2,0.1,0.4,0.1c-0.3-0.2-0.7-0.6-0.8-0.4l0.3,0.2c0.3,0.6-1.6-0.3-1.7-0.2
							c0.9-0.1-1.5-1.2-0.2-1.2c-0.2-0.1-0.6-0.2-0.6,0c-0.3-0.2-0.4-0.4,0.1-0.3c-1.2-0.6-0.9-0.2-2-0.8c0.1-0.1,0.3,0,0.5,0
							c-0.6-0.1-1.3-0.3-2.2-0.8c0.1,0,0-0.1,0.3,0c-1.6-0.8-3-0.8-4.8-1.5c0.7-0.3-0.6-0.3-0.6-0.7c0,0-1.1-0.2-1.1-0.1
							c0,0,0.1,0.1,0.2,0.1c0.1,0.1,0.2,0.1,0.2,0.1c-0.9-0.2-1.8-0.1-2.5-0.2c0,0,0.2,0,0.4-0.1c0.2,0,0.4,0,0.4,0s-0.1,0-0.3,0
							c-0.2,0-0.4,0-0.6,0c-0.4,0-0.9,0-0.9,0l1,0.2c-0.9,0.1,0.1,0.5-1.1,0.3c0.2,0-0.9-0.1-1.4-0.3l0,0c-0.4,0.1-0.9,0.2-1.6,0.1
							c-0.2-0.1,0.2-0.4,0-0.5c-0.4,0.3-2.1,0-2.7,0.3c0.2-0.1,0.2-0.3,0.1-0.3l-0.4,0.3C45.4,1,45.4,1,45.4,0.8
							c-1.3,0,0.4,0.5-1.1,0.3c0.1,0,0.1-0.1,0.3-0.1c-1.5-0.1-2.9,0.3-4.3,0.4c-0.5-0.3,1.2-0.3,0.7-0.5c-1,0.2-2,0.5-3,0.9
							c-1,0.4-1.9,0.8-2.8,1.1l0.4-0.1c-0.1,0.6-1.5,0.2-2.3,0.8c0.2-0.1,0.2-0.4,0.1-0.3c-0.6,0.2-1.2,0.5-1.9,0.9
							c-0.7,0.4-1.4,0.8-2.3,1.4l0.2-0.2c-0.7,0.3-1.8,1-2.6,1.3c-0.1,0.2-0.6,0.5-0.2,0.5c-2.6,0.7-3.9,3-6.2,3.8
							c0.2-0.1,0.5-0.5,0.3-0.3l-1.6,1.2c0.3,0.1,0.3,0,0.7-0.1c-0.1,0.2-0.5,0.6-0.9,0.9c0.7-0.6-0.2-0.3-0.6-0.2
							c0.1,0,0,0.2,0.1,0.2c-1.1,0.2,0.1,0.5-1.2,1l0-0.1c-0.4,0.3-0.7,0.7-1.2,1c-0.3-0.1,0.4-0.4,0.3-0.6c-0.6,0.5-1,1.3-1.7,1.5
							c0.2-0.3,0.6-0.5,0.9-0.8c-0.8,0.2-0.8,0.3-1.3,0.6l0.1,0l-1.2,0.7l0.3-0.1c-0.2,0.6-0.6,0.9-1,1.3c-0.4,0.3-0.9,0.7-1.2,1.3
							c0.7-1.2,0-0.3-0.1-0.6c-0.3,0.2-0.8,0.5-0.7,0.3c-0.3,0.6-0.9,0.6-1.3,1.5c-0.1,0-0.5,0.5-0.6,0.2c-0.5,0.7,0.3,0,0.3,0.1
							c-0.6,1.1-2.2,2.2-2.7,4C5.3,25.2,5.5,25.6,5,27c-0.3,0.4-0.2-0.5-0.2-0.5c-0.5,0.7-0.7,1.2-0.8,2c0-0.2-0.1-0.1-0.3,0.1
							c-0.2,0.6,0.2,0.5-0.2,1.2c-0.1-0.2-0.2-0.4-0.2-0.7c-0.2,0.7-0.2,1.4-0.3,2.2c-0.2,0.1-0.1-0.5-0.2-0.8
							c-0.2,0.8-0.4,2.1-0.2,2.4l0.2-0.5c-0.1,0.3-0.3,0.1-0.3-0.1c0-0.8,0.4-1,0.5-1l-0.1,0.5c0.7-0.4,0.5-2,0.9-3l0.2,0.6
							c0,0,0-0.3,0-0.6c0-0.3,0-0.6,0-0.6C4.3,28,4.6,28,4.5,28.5c0.5-0.6,0.1-0.7,0.6-1.2c0.1,0,0.1,0,0.1,0.1l0.2-0.7
							c0,0.2,0.3,0,0.1,0.4C6.1,26,6,25,6.5,24.7l0,0.1c0.7-1.6-0.2-0.3,0.2-1.7c0,0,0.3-0.1,0.6-0.2c0.3-0.1,0.6-0.2,0.6-0.2
							l-0.2-0.3C7.7,22.3,8,22,8,22.2c0.2-0.7-0.2,0-0.1-0.4c0.7-0.6,1.5-2,2-1.8c0-0.4-0.7,0.5-0.2-0.3c0.5,0.1,0.7-0.9,1.5-1.2
							c0,0.4-0.7,0.8,0.1,0.4c0-0.3,0.3-0.6,0.7-0.8c0.4-0.2,0.8-0.4,1-0.6c-0.1-0.2,0.2-0.4,0.6-0.7c0.4-0.3,1-0.7,1.4-1.1
							c0,0.1,1.9-1.1,2.9-1.6l0,0.1c0-0.4,0.9-1,1.6-1.5c0.1,0.2,0,0.4-0.3,0.7l0.6-0.4c0.1-0.2,0.3-0.4,0.7-0.7l0,0.3
							c0.9-0.6,1.5-1.4,2.8-2c-0.1-0.3-1.3,0-0.2-0.9c0.1,0.1,0.3,0.3,0,0.5c0.1-0.1,0.3-0.3,0.5-0.4l-0.3,0.5
							c0.6-0.2,0.2-0.3,0.6-0.6c0.1,0.2,0.4-0.1,0.4,0.1c-0.1,0.1-0.4,0.2-0.5,0.3c0.5-0.3,1.1-0.5,1.3-0.5
							c-0.1-0.1-0.1-0.2,0.2-0.5c0.8-0.6,0.4,0,1-0.2c0.1-0.3,0.7-0.5,0.6-0.7C27,7.9,27.1,8,27.2,8c0.4-0.4,2.1-1.2,1.4-1.2l-0.1,0
							c0,0,0,0,0.1-0.1l0,0l0,0c0.7-0.5,1.5-1,2.3-1.3c0.8-0.3,1.7-0.6,2.4-1l0,0.1c0.2-0.1,0.5-0.3,0.7-0.4
							c0.3-0.1,0.5-0.2,0.8-0.3c0.5-0.2,0.9-0.4,1.3-0.6c0.3-0.1,0.7-0.1,0.6,0.1c0.7-0.3,0.8-0.5,1.9-0.6c-0.7,0.4,0.3,0.1-0.7,0.4
							c1-0.2,1.2-0.1,2.2-0.6c-0.3,0.3,0.8,0.2,1.2,0.1l-0.7-0.1c0.5-0.1,1-0.2,1.4-0.2l-0.2,0.4c2,0.2,3.6-0.9,5.2-0.2
							c0.6-0.2-1.1-0.2-0.6-0.5c1,0.1,1.9,0.6,2.2,0.6c1.3,0.2,1.2-0.4,2.6-0.3c-0.2-0.1-0.3-0.5,0.7-0.5c1,0.1,1.1,0.6,0.5,0.6
							c-0.2,0-0.3-0.1-0.3-0.1c-0.3,0-0.7,0-0.3,0.2l0.1-0.1c0.5,0.1,1.7,0.3,1.4,0.4c0.7,0,0.3-0.1-0.2-0.3C54.3,3,55,3,56.1,3.4
							C56,3.3,55.8,3.1,56,3.1c1.7,0.6,0.8,0,2,0.3c0.6,0.4-0.4,0.3,0.8,0.6c0.6,0.4,0,0.4-0.3,0.3c1.1,0.2,1.8,1,2.4,1.3l-0.6-0.2
							c0.3,0.1,0.6,0.2,0.8,0.4L61,5.5c0.3,0.2,0.5,0.3,0.5,0.4c0.4,0-0.1-0.5,0.7-0.3c0.4,0.3,1.3,0.6,1.3,1
							c-1.2-0.9,0,0.3-1.1-0.2c0.2,0.1,0.5,0.2,0.7,0.4c0,0.1-0.1,0-0.2,0c1,1,0.7,0,1.9,0.8c-0.3,0,0.1,0.5,0.3,0.6
							c-0.5-0.3-0.1-0.4,0.5-0.2c0.7,0.7,0.9,0.5,1.3,0.8l-0.4-0.4c0.3,0,0.6,0.3,1.2,0.6c0,0.1-0.5-0.3-0.4-0.1
							c0.8,0.2,1.1,1.2,2.1,1.7c0.3,0.4-0.2,0.3,0.1,0.6c1,0.5,0.8,1,1.9,1.6c-0.1-0.4-0.2-0.4,0.6,0l-1.7-1.1l1.2,0.5
							c-0.5-0.4-1.1-0.7-1.3-0.9c0.6,0.2,0.5,0.2,0.4-0.1c0.4,0.8,1.4,0.8,2,1.6l-0.4,0.4c1,1.1,2.2,1.3,3.6,2.6l-0.4-0.4
							c0.3,0,0.9,0.7,1.5,1c-0.2,0.1,0.1,0.4,0.2,0.7c0.1-0.1,1,0.8,1.4,0.6l0.5,0.7c1,1.1,1.6,0.7,2.5,1.8
							c-0.4-0.2-0.1,0.4-0.9-0.2c0.3,0.3,0.5,0.7,0.7,0.6c0.1,0.2,1,0.8,1.1,1.3c0.2,0.1,0.4,0,0.7,0.5c0,0.1-0.1,0-0.1,0
							c0.1-0.1,0.5,0.7,0.5,0.1c0,0.4,0.2,0.8,0.3,1.2c0.1,0.4,0.3,0.9,0.5,1.4c0.2,0.4,0.3,0.9,0.3,1.4c0.1,0.4,0.1,0.8,0,1.2
							c0.2,1,0.4,2.3,0.5,3.2c-0.1-0.1-0.1,0-0.1-0.2c0,1.3,0.7,0.7,0.6,2.2c-0.2,0.8-0.3-0.8-0.3-0.3c-0.6,0.3,0.3,1.8,0,2.8
							l-0.1-0.2c-0.1,0.8,0.5,1.9,0.6,3.1c0,0-0.1-0.1-0.1,0c0.4,0.8,0.9,2.4,1.2,3.6c-0.3-0.3-0.2-0.5-0.4-0.2
							c0.1,0.5,0.4-0.2,0.6,0.8c-0.1,0.4,0,1.2-0.3,1.3l-0.2-1c-0.2,0.6,0.3,1.3,0.3,1.8l-0.2,0c0.3,1.5,0.7,1.5,0.9,3.1l0.1-0.2
							c0.5,0.9-0.1,0.8,0.3,1.7l-0.4,0.3c0.1,0.6,0.6,2.1,0.7,3.1c-0.3-0.6-0.5-1.8-0.8-2.6c0,0.6,0.2,2,0.4,2.3
							c0-0.2-0.1-0.5-0.1-0.8c0.3,0.7,0.5,1.7,0.5,2.9c-0.4-0.1-0.4,0.7-0.5,1.6c-0.1,0.9-0.2,1.9-0.5,2.3c0,2.1-0.9,3.8-2,5.8
							c1-0.4-0.4,0.6,0.2,0.8c-0.3,0.5-0.4,0.7-0.4,0.7c0,0-0.1,0.1-0.2,0.2c-0.1,0.1-0.3,0.2-0.5,0.4c-0.3,0.3-0.7,0.6-0.7,0.6
							c-0.4,0.2,0.2-0.5,0.1-0.5c-0.8,0.9-0.5,0.2-1.1,0.7c0.3,0,0,0.5-0.6,1l0.9-0.5c-0.9,1.5-1.3,0.8-2.3,2.2l0.2-0.5
							c-0.5,0.7-2.4,2.3-2.7,3.3c-0.2,0.1-0.4,0.1-0.2-0.2c-1.6,1.4-3.2,3.6-4.7,4.4l0-0.2c-0.3,0.3-0.4,0.7-0.9,0.9
							c0-0.1,0-0.2-0.1-0.1c-0.1,0.2-0.7,0.9-1.1,1.1l0.3-0.4c-1.8,1.1-2.3,2.2-3.7,3.3c-0.2-0.4-1.7,0.4-2.4,0.8l0-0.1
							C63.3,82.8,62,83.9,60,85c-0.7,0.1-1.8,0.5-3,0.9c-0.6,0.2-1.2,0.4-1.8,0.6c-0.6,0.1-1.2,0.3-1.8,0.3c0.3,0,0,0.4-0.4,0.5
							c-0.5,0-1.4,0.5-1.3,0.1l0.2,0c-0.4-0.3-1.4-0.1-2.2-0.1l-0.1,0.5c-1.1-0.4-2.5-0.3-3.8-0.3c-1.3,0-2.5-0.1-3-0.5
							c-0.5,0.1-1.2-0.1-1.7,0l0.1-0.3c-0.7-0.2-1.2-0.3-1.8-0.5c-0.6-0.2-1.2-0.3-2.1-0.5l0.4-0.1c-1-0.3-1.5,0.4-2.4,0.2L35,85.3
							c-0.8-0.3-1.7-0.6-2.5-1c-0.4-0.2-0.8-0.4-1.2-0.5c-0.4-0.1-0.7-0.3-1.1-0.4c0.1,0,0.2-0.1,0.4,0c-0.3-0.2-0.9-0.6-1.4-1.1
							c-0.5-0.4-1-0.7-1.1-0.4c0.1-0.2-0.3-0.5-0.8-0.8c-0.6-0.3-1.3-0.6-1.8-0.8l0.3-0.2c-1,0-1,0.1-2.2-0.3
							c-0.3-0.1-0.2-0.3,0.2-0.1c-0.8-0.4-0.8,0-1.8-0.4l0.5,0c-0.9-0.3-0.8-0.2-1.4-0.2c-0.6,0-1.6-0.7-1.6-1c-0.1,0-0.3,0.1-0.5,0
							c-0.2,0-0.5-0.1-0.6-0.3c0-0.1,0.2-0.1,0.3,0c-0.5-0.5-1-0.7-1.5-1c-0.4-0.3-0.8-0.6-1.1-1c0-0.1,0-0.2,0-0.2
							c0.9,0.8,1.4,1.4,1.5,1.4c0.1-0.2-0.5-0.9,0.3-0.6c-0.7-0.4-1.9-0.9-2.5-1.8c0-0.1,0-0.1,0-0.2l0.1,0.1
							c-0.1-0.2-0.3-0.3-0.4-0.4c-0.2-0.2-0.3-0.4-0.4-0.7c0.1-0.2-0.6-1-0.9-1.4c-0.2,0.2-0.5-0.4-0.4,0.3c0-0.1,0.1,0.1,0.3,0.3
							c0.1,0.1,0.1,0.1,0.2,0.1l0,0c0.2,0.3,0.5,0.6,0.8,1c-0.3-0.2-0.7-0.5-0.9-1c-0.3-0.1-0.6-0.2-0.8-0.3c-0.1-0.8-0.6-2-0.5-2.3
							c-1-1.2-2-3-2.9-3.6c-0.3-0.3-0.1-0.5-0.1-0.7c0.2,0.2,0.3,0.5,0.4,0.5c-0.6-0.7-1.2-2.3-1.7-2.3c-0.3-1.1,0.6,0.4-0.2-0.9
							l0.2,0.1c-0.8-2.9-3-3.9-3.8-7.2c0.1,0.2,0.1,0.3,0.1,0.4c-0.7-1.8-1.7-3.4-2.3-5.2c-0.6-1.8-0.7-3.7-0.5-5.5
							c0.1-1-0.1-1.1-0.2-1.8l0.3-0.2c0,0-0.3-1.1-0.3-1.1c0-0.8,0.3-1.4,0.7-2c0.4-0.6,0.8-1.2,1-2.2l-0.3,0.1
							c0.3-0.6,0.9-2.1,1-1.9c0-0.1-0.1-0.3,0.1-0.5l0.2,0c0,0,0.1-0.4,0.2-0.9c0.1-0.4,0.2-0.9,0.2-0.9c0.3-0.6,0.4-0.6,0.6-0.5
							c0.1,0,0.3,0,0.5-1.1c0-0.4,0-1-0.2-1.5c-0.2-0.4-0.3-0.7-0.4-0.6c0,0.3,0,0.8-0.2,0.8c0,0-0.1-0.7-0.1-0.7
							c-0.2,0-0.5-0.1-0.7-0.1c-0.2,0.1-0.3,0.4-0.5,1c0,0,0.2,1,0.2,1l-0.3,0.3c0,0,0-0.2,0.1-0.4c0-0.2,0.1-0.4,0.1-0.4
							c-0.3,0.4-0.2,0.7-0.1,1.1c-0.1,0-0.3,0.2-0.4,0.3c0,0,0,0.3,0,0.6c0,0.3,0,0.6,0,0.6c-0.2,0-0.2-0.6-0.5,0
							c0,0.5,0.6-0.3,0.4,0.5c-0.4,0.4-0.5,0.2-0.6,0.8c-0.1,0-0.2-0.1-0.1-0.4c-0.1,0.6-0.6,1.4-0.5,1.8c-0.5,0.4-0.8,1.8-1.1,1.6
							c0,0.2-0.1,1.1-0.2,1.7c-0.1-0.6-0.3-0.1-0.4,0.6c-0.1,0.3-0.1,0.7-0.2,0.9c-0.1,0.2-0.1,0.4-0.3,0.3c0.4,0.8,0,2.7,0.3,4
							c0-0.1-0.1-0.2-0.1-0.3c0,0.7-0.1,1-0.2,1.5c0.4,0.1,0.6,1.2,0.9,1.8c-0.2,1-0.6-0.5-0.9-0.1c0.3-0.1,0.6,1.5,0.8,1.2
							c-0.1,0.7,0,0.6-0.2,1.1c0.5,0,0.2,0.6,0.8,1.1c0.2,1-0.3,0.5,0.3,1.4C1.4,55.1,0.8,54.3,0.8,54.3z M14.2,76L14.2,76
							c-0.2-0.2-0.3-0.3-0.4-0.4C13.9,75.7,14,75.8,14.2,76z M15.7,77.6c-0.2-0.2-0.4-0.4-0.7-0.7c0-0.1,0.1-0.1,0.3,0
							C15.2,76.9,15.5,77.3,15.7,77.6z M14.2,73c0.2,0.2,0.3,0.4,0.2,0.4c-0.1-0.1-0.2-0.3-0.4-0.4c0,0,0,0-0.1,0
							C14.1,73,14.1,72.9,14.2,73z"/>
						<path fill="#4D4D4D" d="M13.6,72.7C13.5,72.7,13.5,72.7,13.6,72.7C13.5,72.7,13.5,72.8,13.6,72.7c0,0.1,0.1,0.1,0.1,0.1
							C13.6,72.8,13.6,72.8,13.6,72.7z"/>
						<path fill="#4D4D4D" d="M28.7,6.8L28.7,6.8C28.7,6.8,28.6,6.8,28.7,6.8C28.6,6.8,28.6,6.8,28.7,6.8z"/>
						<polygon fill="#4D4D4D" points="42.7,89.5 42.7,89.5 42.5,89.5 						"/>
						<path fill="#4D4D4D" d="M18.3,12.2c0,0-0.1,0-0.2,0C18.2,12.3,18.2,12.2,18.3,12.2z"/>
						<path fill="#4D4D4D" d="M14.1,15l-0.6,0.3C13.7,15.2,13.9,15.1,14.1,15z"/>
						<path fill="#4D4D4D" d="M10.9,17.3c0,0.1,0,0.1,0,0.1l0,0L10.9,17.3z"/>
						<path fill="#4D4D4D" d="M67.8,7.1c0,0,0.1,0.1,0.1,0.1C68.3,7.3,68.1,7.2,67.8,7.1z"/>
						<path fill="#4D4D4D" d="M50.3,1.2c0.2,0,0.4-0.1,0.6-0.1C50.6,1.1,50.3,1,50.3,1.2z"/>
						<polygon fill="#4D4D4D" points="84,20.3 84,20.3 84.1,20.4 						"/>
						<path fill="#4D4D4D" d="M51.8,1.1c-0.3-0.1-0.6-0.1-0.9-0.1C51.2,1.1,51.5,1.2,51.8,1.1z"/>
						<path fill="#4D4D4D" d="M2.3,32.1l-0.1,0.2c0,0,0,0,0,0L2.3,32.1z"/>
						<path fill="#4D4D4D" d="M2.2,32.3l0,0.2C2.3,32.4,2.3,32.3,2.2,32.3z"/>
						<path fill="#4D4D4D" d="M2.2,33l0-0.5C2.2,32.7,2.1,32.9,2.2,33z"/>
						<path fill="#4D4D4D" d="M4.1,27.1L4.1,27.1C4,27.1,4,27.1,4.1,27.1z"/>
						<path fill="#4D4D4D" d="M4.7,25.7C4.5,26,4.1,26.4,4,27L4,27C4,26.7,4.7,26.1,4.7,25.7z"/>
						<path fill="#4D4D4D" d="M9.2,20.8c0,0-0.8,1-0.8,1c0.2-0.1,0.5-0.3,0.2,0.2C9.8,20.9,8.1,22.1,9.2,20.8z"/>
						<path fill="#4D4D4D" d="M12.1,18.1c-0.5,0.5,0.1,0.1,0.1,0.2C12.5,17.9,12.6,17.8,12.1,18.1z"/>
						<path fill="#4D4D4D" d="M37,3.4l0,0.3C37.5,3.5,37,3.6,37,3.4z"/>
						<polygon fill="#4D4D4D" points="42.3,0.9 41.7,0.8 41.5,1.1 						"/>
						<polygon fill="#4D4D4D" points="45.6,2.6 45.4,2.7 46.3,2.6 						"/>
						<path fill="#4D4D4D" d="M84,26.5l0.3-0.2C84.1,26,83.8,26,84,26.5z"/>
						<path fill="#4D4D4D" d="M87.4,47.4c-0.1,0.2-0.2,0.8,0,1.2C87.4,48.2,87.5,47.7,87.4,47.4z"/>
						<polygon fill="#4D4D4D" points="48.5,87.4 48.9,87.3 48.1,87.4 						"/>
					</g>
				</g>
			</g>
		</g>
	</g>
	<g>
		<path fill="#73BA76" d="M35.7,3.7c-0.1,2-1.8,3.1-2.6,4.7c2.5-0.1,1.9,2.1,3.7,3c1.7,0.9,4.8-1.2,4.7,2.3
			c-0.1,4.2-9.7,3.7-12.1,2.7c-2-0.9-3.4-3.4-6-1.9c-0.5,0.3-1,2.3-1.7,2.9c-0.7,0.7-2.2,0.9-3,1.5c-2.1,1.5-3.2,4-4.9,5.9
			c-1.9,2-4.7,3-6.3,5.3c-3.5,5.4,2.9,4.9,6.3,4c3.7-0.9,7.1-1.7,10.6,0.7c4.3,3,5.9,3.8,11,4.4c5.3,0.6,5.8,4.3,6,9.1
			c0.1,2.5,0.2,4.7-0.9,6.7c-1.6,2.7-3.6,2.8-4.4,6c-0.2,0.7,0.6,1.7,0.4,2.3c-0.5,1.2-1.7,1.2-2.4,2c-1.6,1.9-3,3.9-4.3,6
			c-2.3,3.6-5.1,9.5-5.1,1.2c0-4.3-0.7-9-2.8-12.9c-0.8-1.6-1.9-3.6-3.3-4.7c-2.3-1.7-4.7-0.5-6.9-1.7c-3.9-2.1-2.7-7.5-3-11
			c-0.4-4.6-4.9-8.4-5-12.7c-0.1-5,5.7-10.2,9-13.2C14.5,14.4,34.3-1.8,35,5.3"/>
		<g>
			<g>
				<g>
					<g>
						<path fill="#4D4D4D" d="M34.3,5.4c0.1,0.1,0.3,0,0.2-0.3c0,0-0.4-0.1-0.4-0.1L34.3,5.4z"/>
						<path fill="#4D4D4D" d="M33.7,3.7c-0.2,0-0.4,0.1-0.6,0.2C33,4,32.9,4.2,33,4.3c0.4-0.3,0.4-0.2,0.8-0.4
							C34,4,34.1,4.1,34.2,4.1c0,0.1,0,0.2-0.1,0.2c0.1,0,0.1,0.1,0.2,0.2c0,0.1,0.1,0.2,0.2,0.2c0.2-0.5-0.4-1-0.9-0.9
							C33.5,3.8,33.6,3.7,33.7,3.7z"/>
						<path fill="#4D4D4D" d="M5.9,22.5l0.2-0.2C6,22.4,5.9,22.5,5.9,22.5z"/>
						<path fill="#4D4D4D" d="M8,42.3C8,42.2,8,42.1,8,42.1C8,42.2,8,42.3,8,42.3z"/>
						<path fill="#4D4D4D" d="M7.7,45.9c0-0.1,0-0.1,0-0.2C7.7,45.7,7.7,45.8,7.7,45.9z"/>
						<path fill="#4D4D4D" d="M5.9,22.5L5.5,23C5.5,23,5.7,22.8,5.9,22.5z"/>
						<path fill="#4D4D4D" d="M29.5,5.4c0.1-0.1,0.2-0.1,0.2-0.2L29.5,5.4C29.5,5.4,29.5,5.4,29.5,5.4z"/>
						<path fill="#4D4D4D" d="M12.2,15.5l0.1-0.1c0-0.1,0-0.1,0-0.2L12.2,15.5z"/>
						<path fill="#4D4D4D" d="M17.8,11c-0.1,0.1,0,0.3,0,0.5c0-0.1,0.1-0.3,0.2-0.4C17.9,11,17.9,11,17.8,11z"/>
						<path fill="#4D4D4D" d="M27.6,5.1L27.7,5C27.7,5,27.6,5.1,27.6,5.1z"/>
						<path fill="#4D4D4D" d="M8.4,19.1c0,0-0.1,0-0.1,0C8.3,19.1,8.4,19.1,8.4,19.1z"/>
						<path fill="#4D4D4D" d="M34.1,10.4C34.1,10.3,34.2,10.3,34.1,10.4C34.1,10.3,34.1,10.3,34.1,10.4z"/>
						<path fill="#4D4D4D" d="M35.7,3.7l0,0.1c0.1,0,0.1,0,0.2,0L35.7,3.7z"/>
						<path fill="#4D4D4D" d="M9.4,53C9.4,53,9.4,53,9.4,53C9.2,52.8,9.3,52.9,9.4,53z"/>
						<path fill="#4D4D4D" d="M41.9,54.3C41.4,55,42,53,41.4,54C41.6,54,41.3,55.2,41.9,54.3z"/>
						<path fill="#4D4D4D" d="M29.3,5.5l-0.3,0.1C29.2,5.5,29.3,5.5,29.3,5.5z"/>
						<path fill="#4D4D4D" d="M41.4,54L41.4,54L41.4,54C41.3,54.1,41.4,54.1,41.4,54z"/>
						<path fill="#4D4D4D" d="M21.1,60.5c0,0,0-0.1,0-0.2C21.1,60.3,21.1,60.4,21.1,60.5z"/>
						<path fill="#4D4D4D" d="M13.8,54.4l0.3,0.1C14,54.4,13.9,54.4,13.8,54.4z"/>
						<path fill="#4D4D4D" d="M23.3,65.7c0,0.1,0,0.2,0,0.4c0,0,0,0,0-0.1C23.3,66,23.3,65.9,23.3,65.7z"/>
						<path fill="#4D4D4D" d="M23.9,71.6c0,0,0-0.1,0.1-0.1c0-0.1,0-0.1,0-0.2L23.9,71.6z"/>
						<path fill="#4D4D4D" d="M32.7,15.7c0.1,0.1,0.2,0.2,0.2,0.3C32.9,15.8,33.7,15.8,32.7,15.7z"/>
						<path fill="#4D4D4D" d="M29.4,5.3c0,0.1,0,0.1-0.1,0.2C29.4,5.4,29.4,5.4,29.4,5.3C29.5,5.3,29.5,5.3,29.4,5.3z"/>
						<path fill="#4D4D4D" d="M25.5,65.5l0.1,1C25.6,66.2,25.6,65.9,25.5,65.5z"/>
						<path fill="#4D4D4D" d="M13.9,35l-0.2,0.1C13.8,35.1,13.9,35.1,13.9,35z"/>
						<path fill="#4D4D4D" d="M26,69.5c-0.1,0.2-0.1,0.4-0.2,0.6c0,0,0,0.1,0.1,0.1L26,69.5z"/>
						<path fill="#4D4D4D" d="M33,16L33,16L33,16z"/>
						<path fill="#4D4D4D" d="M38.6,14.7c-0.7,0.2-0.2,0.5-0.3,0.7c-0.9,0.4-0.5-0.1-0.9-0.2c-0.6,0.2-1,0.6-1.5,0.7
							c0-0.1-0.1-0.1,0-0.2c-0.7,0.4-2,0.1-2.9,0.4C33,16.1,33,16,33,16c0.1,0.2,0.1,0.4,0.1,0.5c-0.4,0-0.8,0.2-0.9-0.1
							c0.2,0,0.3-0.1,0.4-0.1l-0.4,0.1c-0.3-0.4,0.6-0.1,0.6-0.3c-0.8,0.1-1.8,0.2-2.4-0.1c-0.1-0.3,1.4,0.2,0.7-0.3
							c0,0,0.2,0.1,0.5,0.1c0.2,0.1,0.5,0.1,0.5,0.1c-0.7-0.6,0.6,0.1,0-0.5c-0.6-0.1-0.9-0.2-1.3-0.2c-0.3,0-0.6-0.1-1-0.3
							c-0.3,0.1-0.1,0.3-0.4,0.3c-0.8-0.3-1-0.7-1.1-1.1c-0.1-0.3-0.2-0.7-1-0.9c-0.3,0-0.5,0.1-0.7,0.1c-0.3,0-0.6-0.1-1.2-0.3
							c0,0,0.5-0.3,0.5-0.3c-0.5-0.1-0.8-0.1-1,0c-0.2,0-0.3,0.1-0.5,0.2c-0.1,0.1-0.2,0.1-0.4,0.2c-0.1,0-0.2,0.1-0.3,0.1
							c-0.1,0-0.3,0.1-0.6,0.2c0.2-0.2,0.4-0.4,0.7-0.4c0.2-0.1,0.4-0.2,0.3-0.1c-0.4,0-0.6,0.1-0.8,0.2c-0.1,0.1-0.2,0.2-0.3,0.4
							c-0.1,0.1-0.2,0.3-0.4,0.5c0,0-0.4,0-0.4,0c-0.1,0.1-0.2,0.3-0.2,0.4l-0.1,0.3c-0.1,0.2-0.1,0.3-0.2,0.5
							c-0.1,0.3-0.2,0.7-0.3,0.9c-0.1,0.1-0.1,0.3-0.2,0.3c0,0.1-0.1,0.2-0.2,0.2c-0.2,0.2-0.5,0.3-0.8,0.5c0-0.1,0.2-0.3-0.1-0.3
							c-0.4,0.2-0.9,0.4-1.4,0.7c-0.1,0.1-0.3,0.2-0.4,0.3c-0.1,0.1-0.2,0.2-0.4,0.3c-0.2,0.2-0.5,0.3-0.7,0.5
							c-0.9,0.7-1.6,1.6-2.2,2.3l-0.2,0.8c-0.1,0.1-0.3,0.2-0.2,0c-0.5,0.5,0.1,0.1,0,0.5c-0.2,0.3-0.4,0.3-0.4,0.1
							c-0.3,0.6-0.7,1.3-1.2,2c-0.5,0.6-1.2,1.1-1.9,1.4l0.2-0.2c-0.9,0.5-0.6,1.1-1.6,1.5l0.1-0.2c-1,0.6-2,1.4-2.7,2.5
							c-0.7,1-1.3,1.9-1.7,3.2c0.1,0.1,0.2,0.4,0.2,0.8c0,0.2,0.1,0.4,0.2,0.6c0.1,0.2,0.2,0.4,0.3,0.6c0.1,0.2,0.3,0.3,0.4,0.5
							c0.2,0.1,0.3,0.2,0.4,0.3c0.3,0.1,0.5,0.1,0.6,0c0.3,0.2,0.6,0.3,0.8,0.4c0.2,0.1,0.3,0.2,0.5,0.2c0.3,0.1,0.7,0.2,1.8,0.3
							c0.5,0,0.8-0.4,1.4-0.6l0.1,0.3c0,0,0.2-0.1,0.4-0.2c0.2-0.1,0.4-0.2,0.4-0.2l0.5,0.3l0.6-0.2c-0.2,0-0.5,0-0.5-0.1
							c0.9-0.3,2.1-0.3,2.2-0.1c0,0,0.5-0.2,0.9-0.3c0.5-0.2,0.9-0.3,0.9-0.3c0,0.1-0.3,0.2-0.6,0.3c1-0.5,0.2,0.3,1.1-0.1
							c-0.1,0,0-0.2,0.1-0.3c0.2,0.1,0.6,0.1,1,0.1c0.4,0,0.8,0,1.2,0L20,34.5c1.3,0.2,2.6,0.5,4,1.5c-0.5-0.4-0.1-0.7,0.3-0.4
							l0,0.4c0.4,0-0.4-0.4,0.3-0.2c0.5,0.4,0.2,0.6-0.2,0.4l0.7,0.4c0,0.1-0.2,0-0.3,0.1c0.4,0,1,1,1.6,1l0,0.1
							c1.6,0.9,2.4,1.2,3.9,1.7c0.1-0.2,0.7,0,1.2-0.1c1,0.4,2.2,0.8,3.5,0.9c0.9,0,0.3-0.2,0.7-0.3c0,0.1,0.3,0.2,0.5,0.3
							c0.2,0.1,0.3,0.2,0,0.2c0.6,0.1,1,0.2,1.4,0.4c0.4,0.2,0.8,0.3,1.4,0.8c0-0.2-0.1-0.4,0-0.3c0.2,0.2,0.3,0.6,0.2,0.6l-0.1,0
							c0.7,0.6,0.9,1.7,0.9,2.8c0,1.1-0.1,2.2,0.2,3l0-0.1l0.4,1.7c0,0.8-0.2-0.5-0.3,0.1c0.5,1.8-0.1,2.8-0.2,4.1
							c-0.3,0.2-0.5,0.4-0.7,0.7c-0.3,0.3-0.5,0.7-0.8,1.1c-0.6,0.7-1.5,1.6-2.3,2.2l0.2,0c-0.2,0.5-0.5,0.4-0.7,0.7
							c0.1,0,0.5-0.4,0.3-0.1c-0.1,0.2-0.3,0.5-0.4,0.7c-0.1,0.2-0.2,0.5-0.3,0.7l-0.3,0.8c-0.1,0.3-0.1,0.8-0.1,1.1
							c0.1,0.4,0.2,0.6,0.2,0.9c0.1,0.2,0,0.2,0.1,0.2c0,0.1-0.1,0.2-0.2,0.3c0,0-0.2,0.1-0.3,0.2l-0.3,0.1l-0.4,0.2
							c-0.3,0.2-0.6,0.3-0.8,0.6c-0.2,0.1-0.2,0.2-0.3,0.3l-0.2,0.3c-0.6,0.7-1.3,1.4-1.9,2.2c-0.8,1.1,0.3,1.2-1,2.4l0-0.6
							c-0.6,1.2-1.4,2.4-2.1,3.6c-0.3,0.5-0.7,1.1-1,1.6c-0.1,0.2-0.1,0.3-0.3,0.6c0-0.2,0-0.3,0-0.3c-0.1-0.1-0.1-0.1-0.2,0
							c-0.1,0.1-0.2,0.2-0.3,0.3c0-0.1,0.1-0.3,0.2-0.5c0-0.1,0-0.1-0.1-0.1c-0.1,0-0.1-0.1,0-0.1c0,0,0.1,0,0.1,0
							c-0.1,0.3,0-1.1-0.3-0.8c0.1-0.9-0.1-1.9,0-2.7c-0.3-0.5,0-1.8-0.4-1.9c0.2,0,0.3-0.4,0.2-1c-0.1-0.5-0.3-1.2-0.4-1.5
							c0.2,0.2,0-0.6,0.3-0.4c-0.2-0.7-0.4-1.4-0.6-1.2c0.1-0.7-0.2-1.4-0.5-1.9c-0.3-0.6-0.6-1-0.4-1.5c-0.5-1-1.1-1.9-1.7-2.8
							c-0.6-0.8-1.1-1.7-1.8-2.5c0.2-0.1,0.6,0.3,0.9,0.8c0.3,0.5,0.6,0.9,0.8,0.7c-0.6-0.8-1.1-1.4-1.7-1.9
							c-0.6-0.5-1.2-1.1-2.1-1.6c-0.5-0.3,0.4,0,0.6,0c-1-0.6-2.1-0.8-3-0.9c-0.9-0.1-1.7-0.1-2.4-0.1c0,0,0.2-0.1,0.3-0.1
							c-0.3,0-0.6-0.2-0.6,0l0.3,0c0.2,0.2-0.1,0.3-0.5,0.4c-0.4,0.1-0.8,0-0.9,0.1c0.3-0.2,0-0.3-0.2-0.5c-0.2-0.2-0.4-0.4,0.1-0.5
							c-0.2-0.1-0.4-0.1-0.4,0c-0.2-0.2-0.2-0.3,0.1-0.3c-0.4-0.2-0.5-0.3-0.7-0.4c-0.1-0.1-0.3-0.1-0.5-0.5c0.1,0,0.2,0.1,0.3,0.1
							c-0.4-0.2-0.8-0.6-0.9-1.4c0.1,0,0.1-0.1,0.2,0.1c-0.4-1.2-0.9-2.3-0.8-3.9c0.4,0.5,0.1-0.5,0.5-0.6l-0.1-0.9l-0.2,0.4
							c0-0.8-0.3-1.5-0.2-2.2l0.2,0.6c0,0,0-0.4-0.1-0.8c0-0.4-0.1-0.8-0.1-0.8s0,0.2,0,0.4c0,0.2,0,0.4,0,0.4
							c-0.3-0.8-0.4,0.1-0.5-0.9c0,0.1,0-0.1,0-0.4c0-0.3-0.1-0.6,0-0.9l0,0c-0.2-0.3-0.5-0.7-0.6-1.3c0.1-0.2,0.4,0,0.5-0.2
							c-0.4-0.3-0.9-1.7-1.4-1.9c0.1,0.1,0.3,0,0.3,0l-0.4-0.2c-0.1-0.4-0.1-0.4,0.1-0.4c-0.5-1-0.2,0.5-0.7-0.7
							c0.1,0.1,0.1,0,0.2,0.2c-0.5-1.2-1.4-2.1-1.8-3.2c0.2-0.5,0.5,0.9,0.6,0.4c-0.4-0.7-0.8-1.4-1.1-2.2c-0.3-0.8-0.4-1.6-0.3-2.3
							l-0.1,0.3c-0.3-0.1-0.2-0.4,0-0.8c0.1-0.3,0.4-0.7,0.4-1.1c0,0.2,0.2,0.3,0.2,0.3c0.4-1,0.7-2,1.5-3.5l0,0.2
							c0.5-0.5,1-1.3,1.6-1.8c0-0.2,0.3-0.5,0-0.5c2-1.1,2.6-3.3,4.5-4.2c-0.2,0.2-0.3,0.5-0.2,0.3l1.1-1.2c-0.2-0.1-0.3,0-0.6,0.1
							c0.1-0.2,0.3-0.6,0.6-0.9c-0.5,0.6,0.2,0.3,0.6,0.2c-0.1,0-0.1-0.1-0.1-0.2c0.9-0.2-0.2-0.5,0.9-1l0,0.1
							c0.3-0.3,0.5-0.7,0.9-1c0.3,0.1-0.3,0.4-0.2,0.6c0.5-0.4,0.7-1.2,1.4-1.4c-0.2,0.2-0.5,0.5-0.7,0.7c0.7-0.2,0.7-0.3,1.1-0.5
							l0,0l1-0.6l-0.3,0.1c0.2-1.1,1.3-1.1,1.9-2.2c-0.6,1,0,0.3,0.1,0.6c0.3-0.1,0.7-0.3,0.6-0.1c0.3-0.5,0.8-0.4,1.2-1.1
							c0.1,0.1,0.5-0.3,0.5,0c0.5-0.5-0.2,0-0.3-0.2c0.7-0.9,2.3-1.1,3.4-2.3c1-0.8,1.1-1.3,2.1-2c0.4-0.1-0.1,0.5-0.1,0.5
							c0.7-0.2,1.1-0.4,1.6-0.8c-0.1,0.1,0.1,0.1,0.3,0.2C29.7,5,29.4,4.8,30,4.7C30,4.8,29.9,5,29.7,5.2c0.5-0.3,1-0.7,1.5-1
							c0.2,0.1-0.3,0.3-0.4,0.5c0.6-0.3,1.6-0.6,1.7-0.9c0,0-0.4-0.1-0.4,0c0.2-0.1,0.2,0.2,0,0.3c-0.5,0.3-0.8,0.1-0.9,0
							c0,0,0.4-0.2,0.4-0.2c-0.6-0.4-1.6,0.6-2.4,1l0.2-0.5c0,0-0.2,0.2-0.3,0.3c-0.2,0.2-0.3,0.4-0.3,0.4c-0.2,0-0.4-0.2-0.1-0.4
							c-0.7,0.1-0.4,0.4-1,0.4c-0.1,0-0.1,0,0-0.1l-0.5,0.4c0.1-0.1-0.2-0.2,0.1-0.3c-1.1,0.3-1.4,1.2-2,1.1l0.1-0.1
							c-1.3,0.9,0,0.3-0.8,1.3l-1.1-0.2l0,0.3c-0.1,0.1-0.4,0.2-0.4,0.1c-0.4,0.5,0.2,0.1,0,0.4c-0.8,0.2-1.7,1.3-2.1,1
							c-0.1,0.3,0.7-0.3,0.1,0.3c-0.5-0.3-0.7,0.6-1.4,0.8c0-0.3,0.6-0.6-0.1-0.4c-0.1,0.6-1.2,0.7-1.6,1.2c0.2,0.3-1,0.9-1.7,1.6
							c0-0.1-1.6,1-2.4,1.5l0-0.1c0.1,0.4-0.7,1-1.2,1.5c-0.1-0.2-0.1-0.3,0.1-0.7l-0.5,0.4c0,0.2-0.2,0.4-0.4,0.7l-0.1-0.3
							c-0.6,0.6-1.1,1.4-2,2.1c0.1,0.2,1.1-0.1,0.4,0.8c-0.1-0.1-0.3-0.2-0.1-0.5c-0.1,0.1-0.2,0.3-0.4,0.4l0.2-0.5
							c-0.4,0.3-0.1,0.3-0.4,0.6c-0.1-0.1-0.3,0.1-0.4,0c0.1-0.1,0.3-0.2,0.4-0.4c-0.4,0.3-0.8,0.6-1.1,0.7c0.1,0,0.2,0.2,0,0.5
							c-0.6,0.7-0.4,0.1-0.8,0.4c0,0.3-0.5,0.6-0.3,0.8c-0.2,0.2-0.3,0.1-0.4,0.2c-0.2,0.4-1.3,1.7-0.8,1.5l0.1-0.1c0,0,0,0,0,0.1
							l0,0l0,0c-0.7,1.4-1.9,2.5-2.4,4l-0.1,0c-0.2,0.9-0.5,2-0.3,2.7c0,0.3-0.2,0.6-0.3,0.5c0.1,0.7,0.2,0.8,0.3,1.8
							c-0.4-0.6-0.1,0.3-0.3-0.7c0.1,0.9,0.1,1.2,0.7,2c-0.4-0.2,0,0.8,0.3,1.1c0,0,0-0.2-0.1-0.3C4,33.3,4,33.2,4,33.2
							c0.2,0.4,0.4,0.8,0.6,1.2l-0.4,0c0.5,1.8,2.2,2.5,2.2,4c0.4,0.3-0.3-0.9,0.1-0.7c0.4,0.7,0.2,1.7,0.3,1.9
							c0.2,1,0.8,0.7,0.9,1.8c0.1-0.2,0.4-0.4,0.6,0.5c0,0.8-0.4,1-0.5,0.5c0-0.2,0-0.3,0.1-0.3c-0.1-0.2-0.2-0.5-0.3-0.2l0.1,0.1
							c-0.1,0.4,0,1.5-0.2,1.2c0.1,0.6,0.2,0.3,0.3-0.2c-0.1,1,0,1.6-0.1,2.7c0.1-0.2,0.2-0.3,0.2-0.2c-0.1,1.6,0.2,0.7,0.3,1.8
							c-0.1,0.6-0.5-0.2-0.2,0.9c0,0.7-0.3,0.2-0.4-0.1c0.3,1,0.2,2.1,0.4,2.7c0,0-0.3-0.6-0.3-0.6c0.2,0.4,0.3,0.6,0.4,0.9l0.1-0.4
							c0.1,0.4,0.2,0.6,0.1,0.7c0.3,0.3,0.2-0.4,0.8,0.1c0.1,0.5,1,1,0.9,1.4c-0.5-0.6-0.5-0.5-0.5-0.4c0,0.1,0,0.3-0.5-0.2
							c0.2,0.2,0.4,0.4,0.6,0.7c0,0.1-0.1,0-0.2-0.1c0.5,0.6,0.7,0.7,0.9,0.7c0.2,0,0.4,0,1.1,0.3c-0.3,0.1,0.2,0.5,0.5,0.5
							c-0.6-0.3-0.2-0.4,0.4-0.3c0.9,0.3,1,0.1,1.5,0.2l-0.5-0.1c0.2-0.2,0.6-0.1,1.2-0.1c0,0.1-0.5,0.1-0.3,0.1
							c0.7-0.3,1.4,0.4,2.2,0.3c0.3,0.2,0,0.3,0.2,0.5c0.8,0,0.6,0.5,1.4,0.8c0-0.3-0.1-0.3,0.5-0.1c0,0-0.3-0.2-0.6-0.4
							c-0.3-0.1-0.6-0.3-0.6-0.3c0,0,0.9,0.1,1,0.1c-0.4-0.2-0.9-0.4-1.1-0.4c0.5,0,0.4,0,0.3-0.2c0.2,0.3,0.5,0.4,0.8,0.5
							c0.3,0.1,0.6,0.3,0.8,0.7l-0.4,0.4c0.5,0.9,1.4,1.4,2.1,2.8l-0.2-0.5c0.3,0.1,0.5,0.8,0.8,1.2c-0.2,0.1-0.1,0.4-0.1,0.6
							c0.1-0.1,0.5,1,0.9,1l0,0.7c0.2,0.6,0.4,0.9,0.7,1.2c0.2,0.3,0.5,0.6,0.6,1.2c-0.3-0.3-0.3,0.3-0.7-0.5
							c0.1,0.4,0.2,0.7,0.3,0.7c-0.1,0.3,0.5,1,0.4,1.4c0.1,0.2,0.3,0.2,0.4,0.6c0,0.1-0.1,0-0.1,0c0.1,0,0.2,0.7,0.4,0.3
							c-0.4,1.3,0.4,3.5-0.1,4.6C24,72,24,72.5,24,73c0,0.3,0,0.5,0.1,0.8c0,0.3,0.1,0.6,0.1,0.9c-0.1,0-0.1,0-0.1-0.2
							c0,0.8,0.2,1,0.4,1.1c0.2,0.1,0.3,0.2,0.6,0.9c0.2,0.4,0,0.3-0.1,0.2c-0.1-0.2-0.3-0.4-0.2-0.1c-0.1,0.4,0.1,0.8,0.8,0.8
							c0.6,0,1.1-0.5,1.6-0.7c0,0-0.2,0.2-0.2,0.2c0.4-0.1,0.8-0.7,1.1-1.3c0.4-0.7,0.5-1.1,0.8-1.6c0,0,0,0.1,0.1,0.1
							c0.1-0.8,0.7-2.1,1.2-3c0,0.4-0.1,0.5,0.2,0.4c0.2-0.4-0.4-0.1,0-0.9c0.3-0.2,0.7-0.7,1-0.6l-0.5,0.7c0.5-0.2,0.6-0.9,0.9-1.3
							l0.1,0.1c0.7-1.1,0.4-1.4,1.3-2.5L33,67c0.2-0.9,0.6-0.4,0.8-1.2l0.4,0.1c0.1-0.1,0.1-0.3,0.2-0.5c0.1-0.2,0.2-0.3,0.3-0.5
							c0.3-0.3,0.8-0.6,1.2-1c-0.1,0.3-0.5,0.6-0.8,0.9c-0.2,0.1-0.3,0.3-0.4,0.4c-0.1,0.2-0.1,0.2-0.2,0.4c0.1-0.1,0.2-0.2,0.2-0.3
							c0.1-0.1,0.2-0.2,0.4-0.3c0.3-0.2,0.7-0.5,0.7-0.6c-0.2,0.2-0.4,0.4-0.6,0.4c0.2-0.3,0.5-0.6,0.9-1c0.1-0.2,0.3-0.4,0.4-0.7
							c0.2-0.2,0.1-0.5,0.1-0.8c0.2,0,0.3-0.1,0.2-0.5c0-0.2-0.1-0.3-0.1-0.5c0-0.2-0.1-0.3-0.1-0.4c0-0.1,0-0.2,0.1-0.3
							c0.1-0.2,0.1-0.3,0.2-0.4c0.1-0.3,0.3-0.5,0.6-0.6c0.2-0.7,0.8-1.3,1.5-1.9c0.7-0.6,1.6-1.3,2.2-2.4c-1,0.4,0.4-0.6-0.3-0.8
							c0.2-0.5,0.3-0.7,0.3-0.7c0,0,0.2-0.3,0.4-0.7c0.2-0.4,0.4-0.8,0.4-0.8c0.2-0.4,0,0.5,0.2,0.5c0.3-1.2,0.3-0.5,0.6-1.3
							c-0.2,0.1-0.3-0.4-0.2-1.1l-0.3,0.9c-0.1-0.8,0-1.2,0.1-1.5c0.1-0.3,0.2-0.7,0.1-1.5l0.2,0.5c-0.1-0.8-0.1-2.9-0.7-3.7
							c0.1-0.1,0.2-0.4,0.3,0c-0.1-1-0.4-2.1-0.9-3.1c-0.5-1-1.2-1.9-1.7-2.6l0.2,0c-0.3-0.3-0.7-0.3-1.1-0.7c0.1,0,0.2,0,0.1-0.1
							c-0.1,0-0.4-0.1-0.7-0.2c-0.3-0.1-0.6-0.2-0.9-0.3l0.5,0c-1-0.5-1.8-0.5-2.5-0.5c-0.7,0-1.3,0.2-2,0.1
							c0.1-0.4-1.2-0.8-1.8-1.1l0-0.1c-1.8-0.6-3.1-0.9-4.9-1.8c-0.2-0.3-0.5-0.5-0.8-0.8c-0.4-0.3-0.7-0.6-1.3-0.9
							c-0.5-0.3-1.1-0.7-1.7-0.9c-0.3-0.1-0.6-0.3-0.9-0.4c-0.3-0.1-0.6-0.2-0.9-0.3c0.3,0.1-0.1,0.3-0.5,0.3
							c-0.5-0.1-1.4,0.2-1.3-0.2l0.2,0c-0.2-0.2-0.6-0.3-1-0.3c-0.4,0-0.9,0-1.3,0.1l-0.1,0.5c-1.1-0.3-2.3,0.1-3.4,0.5
							c-1.1,0.4-2,0.6-2.6,0.3c-0.4,0.2-0.9,0.2-1.4,0.4l0-0.3c-0.6,0-1-0.1-1.3-0.2c-0.2,0-0.3-0.1-0.5-0.1
							c-0.1-0.1-0.2-0.1-0.2-0.1c0,0,0.2-0.1,0.2-0.1c0,0-0.2,0.1-0.4,0c-0.1,0-0.2-0.1-0.3-0.2c-0.1-0.1-0.1-0.3-0.1-0.4
							c0,0,0.4-0.1,0.5-0.1c0.1-0.3,0.2-0.6,0.5-0.9c0.2-0.3,0.4-0.6,0.6-0.8L9,29.9c0.1-0.1,0.2-0.2,0.4-0.4
							c0.2-0.3,0.5-0.5,0.7-0.8c0,0.1,0.1,0.2-0.1,0.3c0.2-0.2,0.8-0.5,1.3-0.9c0.5-0.3,0.8-0.7,0.5-0.8c0.2,0.3,1.4-0.9,2-1.7
							l0.1,0.3c0.3-0.8,0.3-0.9,0.9-1.7c0.2-0.2,0.3,0,0,0.2c0.6-0.6,0.2-0.7,0.9-1.4l-0.1,0.4c0.5-0.7,0.4-0.7,0.5-1.1
							c0.2-0.5,0.9-1.2,1.2-1.1c-0.1-0.2,0.1-0.6,0.4-0.9c0.1,0,0,0.2,0,0.3c0.5-0.4,0.8-0.8,1.1-1.1c0.3-0.3,0.5-0.5,1-0.6
							c0.1,0.1,0.1,0.1,0.2,0.1c-0.2,0.1-0.4,0.2-0.6,0.3c-0.1,0-0.1,0.1-0.2,0.1c-0.1,0.1-0.1,0.1-0.2,0.2
							c-0.2,0.2-0.4,0.3-0.4,0.3c0.2,0.2,0.8-0.2,0.5,0.4c0.1-0.1,0.2-0.3,0.3-0.5c0.1-0.1,0.2-0.3,0.3-0.4c0.3-0.3,0.8-0.5,1.2-0.6
							c0.1,0,0.1,0,0.2,0L21,18.9c0.2-0.1,0.4-0.2,0.6-0.3c0.3-0.1,0.6-0.2,0.9-0.5c0.1,0,0.5-0.3,0.7-0.6c0.2-0.3,0.3-0.7,0.4-0.9
							c-0.3-0.1,0-0.6-0.4-0.2c0-0.1,0,0.1-0.1,0.4c0,0.1-0.1,0.1-0.1,0.2l0,0c-0.1,0.1-0.2,0.3-0.3,0.5c-0.1,0.2-0.3,0.5-0.6,0.6
							c0.1-0.2,0.3-0.5,0.4-0.7c0.1-0.2,0.2-0.4,0.4-0.6c0-0.3-0.1-0.6-0.1-0.8c0.3-0.2,0.6-0.5,0.9-0.7c0.2-0.1,0.4-0.1,0.5,0
							c0,0,0,0,0,0c0,0,0.1-0.1,0.2-0.2c0.1-0.1,0.2-0.1,0.3-0.1c0.2-0.1,0.4-0.1,0.7-0.1c0.5,0,1,0.3,1.5,0.3
							c0.3,0.2,0.2,0.4,0.3,0.5c-0.2-0.1-0.4-0.2-0.5-0.2c0.3,0.1,0.8,0.5,1.2,0.7c0.4,0.3,0.9,0.4,1.1,0.3c0.9,0.6-0.7,0.1,0.7,0.6
							l-0.2,0c1.3,0.7,2.5,0.6,3.6,0.4c1.1-0.2,2.2-0.3,3.7-0.1c-0.2,0-0.3,0-0.4-0.1c0.8,0,1.7-0.1,2.5-0.4
							c0.8-0.3,1.7-0.7,2.3-1.5c0.3-0.4,0.6-0.9,0.6-1.4c0.1-0.5,0.1-0.9,0-1.5c-0.1-0.5-0.3-1.1-0.7-1.4c-0.4-0.3-1-0.5-1.5-0.5
							c-1-0.1-1,0.2-1.6,0.4l-0.2-0.3c0,0-0.8,0.3-0.8,0.2c-0.6-0.1-0.8-0.7-1-1.2c-0.1-0.3-0.2-0.6-0.4-1c-0.1-0.2-0.3-0.4-0.5-0.5
							c-0.2-0.2-0.3-0.2-0.5-0.2c0,0,0,0.2,0,0.2c-0.1-0.1-0.3-0.2-0.5-0.2c-0.1,0-0.2,0-0.3,0c0,0-0.1,0-0.1,0c-0.1,0,0-0.1,0-0.1
							c0.1-0.1,0.2-0.2,0.3-0.2c0,0-0.2-0.1,0-0.2l0.2,0c0,0,0-0.2,0.1-0.4c0.1-0.2,0.2-0.5,0.2-0.5c0.4-0.4,0.5-0.3,0.6-0.3
							c0.1,0,0.1,0,0.3,0c0.1-0.1,0.3-0.3,0.6-0.7c0.1-0.2,0.1-0.4,0.2-0.7c0-0.2,0.1-0.5,0-0.7c-0.1-0.4-0.2-0.7-0.2-0.6
							c0,0.3-0.2,0.7-0.4,0.7l0-0.6c-0.2-0.1-0.4-0.2-0.7-0.2c-0.2,0-0.4,0.2-0.7,0.6c0,0,0,0.2,0,0.4c0,0.2-0.1,0.4-0.1,0.4
							c0,0-0.3,0.1-0.3,0.1c0,0,0.3-0.6,0.3-0.6C34.1,4.7,34,4.8,34,5c-0.1,0.1-0.1,0.3-0.1,0.5c-0.1,0-0.3,0-0.4,0.2
							C33.6,5.4,33,6.9,33,6.9c-0.3,0.1,0.1-0.7-0.7,0.2c-0.1,0.3,0.1,0.2,0.3,0.1c0.2-0.1,0.3-0.1,0.1,0.3c-0.6,0.6-0.8,0.5-1,1.1
							c-0.2,0.2-0.3,0-0.1-0.3c0,0.1-0.1,0.2-0.1,0.3l-0.1,0.2c0,0,0,0.1,0,0.1l0,0.2c0,0,0,0.2-0.1,0.3c0.7,0,1.4,0,1.8-0.1
							c0.1,0,0.2,0.1,0.4,0.1c0.1,0,0.3,0.1,0.4,0.1C34,9.6,34,9.6,34,9.7c0,0,0.1,0.1,0.1,0.1c0.1,0.2,0.2,0.5,0,0.5
							c0.2,0.1,0.7,0.7,1.2,1.1c-0.5-0.3-0.3,0.2,0.3,0.7c0.2,0.1,0.3,0.2,0.5,0.3c0.2,0.1,0.4,0.2,0.5,0.3c0.3,0.1,0.4,0.2,0.3,0.3
							c0.5-0.1,1.2-0.2,1.8-0.3c0.3,0,0.6-0.1,0.8-0.1c0.2,0,0.2,0,0.4-0.1c0,0-0.1,0.1-0.1,0.1c0.2,0.1,0.1,0.3,0,0.4
							c0.2-0.1,0.3-0.1,0.4,0c0.1,0.1,0.2,0.5,0.3,0.7c-0.2,0.2-0.3,0.1-0.4,0c-0.1-0.1-0.2-0.3-0.4-0.2c0.2,0,0.2,0.2,0.3,0.3
							c0,0.2,0,0.3,0.2,0.3c-0.4,0.2-0.3,0.2-0.6,0.1c0.3,0.4-0.2,0.3-0.3,0.7c-0.7,0.1-0.3-0.3-1,0.1C38,15.1,38.6,14.7,38.6,14.7z
							 M20.1,17.2L20.1,17.2c0.2-0.1,0.3-0.1,0.4-0.2C20.4,17.1,20.3,17.1,20.1,17.2z M18.3,18c0.2-0.2,0.5-0.3,0.8-0.4
							c0.1,0.1,0.1,0.2-0.1,0.3C19,17.8,18.6,17.9,18.3,18z M23,17.4c-0.1,0.3-0.4,0.5-0.4,0.5c0.1-0.1,0.2-0.2,0.2-0.3
							c0.1-0.1,0.1-0.2,0.2-0.3c0,0,0,0,0-0.1C23,17.3,23,17.4,23,17.4z"/>
						<path fill="#4D4D4D" d="M23,16.7c0,0,0-0.1,0-0.1c-0.1,0-0.1,0.1-0.1,0.1c0,0,0,0.1,0,0.1C22.9,16.8,22.9,16.8,23,16.7z"/>
						<path fill="#4D4D4D" d="M6.1,22.4L6.1,22.4C6.1,22.4,6.1,22.3,6.1,22.4C6.1,22.4,6.1,22.4,6.1,22.4z"/>
						<polygon fill="#4D4D4D" points="11.9,35.6 11.8,35.5 11.7,35.6 						"/>
						<path fill="#4D4D4D" d="M13.8,15.8c0,0,0.1,0,0.1,0C13.9,15.8,13.8,15.8,13.8,15.8z"/>
						<path fill="#4D4D4D" d="M17.2,13.2l0.5-0.3C17.5,13,17.3,13.1,17.2,13.2z"/>
						<path fill="#4D4D4D" d="M19.9,11.3c0-0.1,0-0.1,0-0.1l0,0L19.9,11.3z"/>
						<path fill="#4D4D4D" d="M13.8,52.5c0,0,0.1,0,0.1,0C14.2,52.5,14,52.5,13.8,52.5z"/>
						<path fill="#4D4D4D" d="M8.8,40.3c0.1,0.2,0.2,0.3,0.3,0.5C9,40.5,8.9,40.2,8.8,40.3z"/>
						<polygon fill="#4D4D4D" points="25.5,65.4 25.5,65.4 25.5,65.5 						"/>
						<path fill="#4D4D4D" d="M9.2,41.5c0-0.3,0-0.6-0.1-0.8C9.1,41,9.1,41.3,9.2,41.5z"/>
						<path fill="#4D4D4D" d="M32.1,4.5l0.1,0c0,0,0,0,0,0L32.1,4.5z"/>
						<path fill="#4D4D4D" d="M32.3,4.4c0,0,0.1-0.1,0.1-0.1C32.4,4.4,32.3,4.4,32.3,4.4z"/>
						<path fill="#4D4D4D" d="M32.7,4.3l-0.3,0.1C32.5,4.4,32.7,4.4,32.7,4.3z"/>
						<path fill="#4D4D4D" d="M28.2,5.9l0,0.1C28.2,6,28.2,6,28.2,5.9z"/>
						<path fill="#4D4D4D" d="M27.1,6.6c0.3-0.1,0.8-0.2,1.1-0.5l0-0.1C28.1,6.3,27.2,6.3,27.1,6.6z"/>
						<path fill="#4D4D4D" d="M21.7,8.5l1-0.6c-0.2,0-0.5,0-0.1-0.3C21.2,8.2,22.9,7.7,21.7,8.5z"/>
						<path fill="#4D4D4D" d="M18.7,10.4c0.5-0.4-0.1-0.1-0.1-0.2C18.4,10.5,18.3,10.6,18.7,10.4z"/>
						<path fill="#4D4D4D" d="M3.1,29.8l-0.3,0C2.9,30.3,2.9,29.8,3.1,29.8z"/>
						<path fill="#4D4D4D" d="M5.9,34l-0.1-0.5l-0.3-0.1c0,0,0.1,0.1,0.2,0.3C5.8,33.8,5.9,34,5.9,34z"/>
						<polygon fill="#4D4D4D" points="5.7,37.3 5.6,37.2 6,37.8 						"/>
						<path fill="#4D4D4D" d="M23.6,70.6l0.3-0.1C23.8,70.1,23.5,70.1,23.6,70.6z"/>
						<path fill="#4D4D4D" d="M33.2,67.2c0.2-0.1,0.6-0.4,0.7-0.7C33.6,66.8,33.3,67,33.2,67.2z"/>
						<path fill="#4D4D4D" d="M16.2,32.1l0.4-0.2C16.5,31.9,16.4,32,16.2,32.1c-0.2,0-0.3,0.1-0.3,0.1L16.2,32.1z"/>
					</g>
				</g>
			</g>
		</g>
	</g>
	<g>
		<path fill="#73BA76" d="M67.3,8c0,2-0.7,6.1,0.1,8.1c1.1,2.5,4.5,3.6,1.7,6.9c-1.8,2-6.7,0.8-6.1,4.6c0.2,0.9,1.7,1.4,2.2,2.3
			c0.6,1.1-0.6,2.3,0.6,3.1c2.7,1.9,5.9-10.7,7.7-11.6c2.7-1.4,4.6,0.9,6.4,2.5c1.6,1.4,5.2,2.6,5.3,5.1c-2.5,2.5-8.6,3.3-11.6,4.6
			c-3.7,1.6-5.8,7.1-5.4,11.1c0.7,7.1,7.5,3.1,9.1,9c0.9,3.3-0.5,11.3,5,11.7c3.3,0.2,6.2-6.6,6.6-9.5c0.7-5.4-0.3-10.3-1.4-15.5
			c-0.8-3.7-0.5-7.6-1.3-11.5c-1.1-5.6-3.9-10.6-7.7-14.5c-2.5-2.5-6.2-7-10.3-6.4"/>
		<g>
			<g>
				<g>
					<g>
						<path fill="#4D4D4D" d="M68.2,7.3c-0.1,0.1,0,0.3,0.3,0.2l0.2-0.3L68.2,7.3z"/>
						<path fill="#4D4D4D" d="M70.1,8c0.3-0.1,0.8-0.3,0.7-0.6c-0.4,0.2-0.5,0.1-0.9,0.4c-0.3,0-0.5-0.1-0.4-0.3
							c-0.1,0.1-0.4-0.1-0.6,0.1c0.2,0.1,0.4,0.2,0.6,0.2c0.2,0,0.4,0,0.7-0.1C70.3,7.9,70.2,8,70.1,8z"/>
						<path fill="#4D4D4D" d="M85.5,27.6l0-0.2C85.5,27.5,85.5,27.5,85.5,27.6z"/>
						<path fill="#4D4D4D" d="M87.6,43.5c0-0.1-0.1-0.2-0.1-0.2C87.5,43.5,87.6,43.5,87.6,43.5z"/>
						<path fill="#4D4D4D" d="M87.7,46.3c0-0.1,0-0.1,0-0.2C87.7,46.2,87.7,46.2,87.7,46.3z"/>
						<path fill="#4D4D4D" d="M85.5,27.6l0,0.4C85.7,28,85.6,27.8,85.5,27.6z"/>
						<path fill="#4D4D4D" d="M73.8,8.8c-0.1,0-0.2-0.1-0.3-0.1L73.8,8.8L73.8,8.8z"/>
						<path fill="#4D4D4D" d="M82.8,21.2l-0.1-0.1c-0.1,0-0.1,0-0.2,0L82.8,21.2z"/>
						<path fill="#4D4D4D" d="M79.8,16.9c0.1,0.1,0.3,0,0.4-0.1c-0.1,0-0.2,0-0.3-0.1C79.9,16.7,79.8,16.8,79.8,16.9z"/>
						<path fill="#4D4D4D" d="M74.2,10.5L74,10.4C74.1,10.4,74.1,10.4,74.2,10.5z"/>
						<path fill="#4D4D4D" d="M84.3,24.7C84.3,24.7,84.2,24.8,84.3,24.7C84.3,24.8,84.3,24.7,84.3,24.7z"/>
						<path fill="#4D4D4D" d="M65.8,14.4C65.8,14.4,65.8,14.4,65.8,14.4C65.8,14.4,65.8,14.4,65.8,14.4z"/>
						<path fill="#4D4D4D" d="M67.4,8L67.4,8c0.1,0.1,0.1,0.1,0.2,0.1L67.4,8z"/>
						<path fill="#4D4D4D" d="M87.8,51.1C87.8,51.1,87.8,51.1,87.8,51.1C87.8,51,87.8,51.1,87.8,51.1z"/>
						<path fill="#4D4D4D" d="M69.4,43.5c-0.3,0.5-0.3-0.8-0.6-0.1C69,43.3,69.3,44,69.4,43.5z"/>
						<path fill="#4D4D4D" d="M73.9,8.9L74.1,9C74.1,9,74,8.9,73.9,8.9z"/>
						<path fill="#4D4D4D" d="M68.8,43.4L68.8,43.4L68.8,43.4C68.8,43.4,68.8,43.4,68.8,43.4z"/>
						<path fill="#4D4D4D" d="M85.6,61.6c0.1,0,0.1,0,0.2,0C85.7,61.5,85.7,61.5,85.6,61.6z"/>
						<path fill="#4D4D4D" d="M88.4,54l-0.1,0.2C88.3,54.1,88.4,54.1,88.4,54z"/>
						<path fill="#4D4D4D" d="M83.2,64.5c-0.1,0-0.1,0-0.2,0c0,0,0,0,0,0C83.1,64.5,83.1,64.5,83.2,64.5z"/>
						<path fill="#4D4D4D" d="M80,63.3C80,63.3,80,63.4,80,63.3c0,0.1,0,0.2,0.1,0.2C80.1,63.5,80,63.3,80,63.3z"/>
						<path fill="#4D4D4D" d="M64.8,23.5c0.1,0,0.2,0.1,0.3,0.2C65,23.5,65.7,23.2,64.8,23.5z"/>
						<path fill="#4D4D4D" d="M73.8,8.9c0.1,0,0.1-0.1,0.2,0C73.9,8.9,73.8,8.9,73.8,8.9C73.8,8.9,73.7,8.9,73.8,8.9z"/>
						<path fill="#4D4D4D" d="M83.7,66.7c0,0-0.3,0.1-0.5,0.1c-0.3,0-0.6,0-0.6,0C82.9,66.8,83.3,66.8,83.7,66.7z"/>
						<path fill="#4D4D4D" d="M79.8,25.2l-0.2-0.1C79.7,25.1,79.7,25.2,79.8,25.2z"/>
						<path fill="#4D4D4D" d="M79.7,66c-0.1-0.2-0.2-0.3-0.4-0.5c0,0-0.1,0-0.1,0L79.7,66z"/>
						<path fill="#4D4D4D" d="M65.1,23.6L65.1,23.6L65.1,23.6z"/>
						<path fill="#4D4D4D" d="M68.3,21.4c-0.3,0.4,0.1,0.4,0.2,0.6c-0.2,0.3-0.3,0.3-0.4,0.2c-0.1-0.1-0.2-0.2-0.3-0.2
							c-0.1,0.2-0.3,0.7-0.6,0.8c0,0-0.1,0-0.1-0.1c-0.3,0.5-1.4,0.4-2,1c-0.1,0-0.1,0-0.1-0.1c0.2,0.1,0.2,0.3,0.2,0.5
							c-0.3,0.1-0.5,0.4-0.7,0.2c0.2-0.1,0.2-0.2,0.2-0.3l-0.3,0.2c-0.4-0.2,0.4-0.3,0.3-0.5c-0.6,0.3-1.3,0.9-1.8,1.3
							c-0.2-0.1,0.1-0.4,0.3-0.5c0.2-0.2,0.4-0.3-0.1-0.2c0,0,0.2-0.1,0.5-0.2c0.2-0.1,0.4-0.1,0.4-0.1c-0.9-0.2,0.5-0.2-0.3-0.5
							c-0.3,0.1-0.5,0.2-0.8,0.4c-0.2,0.1-0.4,0.3-0.5,0.5c-0.2,0.2-0.3,0.3-0.4,0.6c-0.2,0.2-0.3,0.5-0.5,0.9
							c0.1,0.4,0.3,0,0.4,0.3c0,0.8,0,1.1-0.1,1.5c0,0.3-0.1,0.5,0,0.8c0.1,0.2,0.3,0.6,0.7,0.8c0.4,0.1,0.8-0.2,1.2,0.4
							c0,0-0.1,0-0.2,0.1c-0.1,0-0.2,0.1-0.2,0.1c0.3,0.3,0.5,0.2,0.6,0.2c0.1,0,0.3,0,0.3,0.2c0,0,0,0.1,0,0.1c0,0-0.1,0-0.1,0
							c-0.1,0-0.2-0.1-0.2-0.1c0,0.1,0,0.1,0,0.2c0,0,0.3-0.1,0.3,0.1c0,0-0.3,0.1-0.3,0.1l0,0.2l0,0.3c0,0.2,0,0.5,0,0.7
							c0,0.2,0,0.4,0.1,0.6c0,0.2,0.1,0.3,0.2,0.5c0.1,0.2,0.2,0.3,0.3,0.4c0.1,0.1,0.3,0.2,0.4,0.4c0.3,0.2,0.7,0.4,1.1,0.4
							c-0.1,0.1-0.4,0.2-0.1,0.3c1,0,1.9-0.7,2.7-1.7c0.3-0.4,0.6-0.8,0.9-1.2c0.2-0.3,0.5-0.6,0.7-1l0-0.6c0.1-0.1,0.2-0.2,0.2,0
							c0.3-0.5-0.2-0.1-0.1-0.4c0.1-0.3,0.3-0.3,0.3-0.1c0.2-1,0.6-2.8,1.3-3.6l0,0.2c0.4-0.7-0.2-1.1,0.4-1.6l0,0.1
							c0.3-0.5,0.5-1,0.8-1.5c0.1-0.2,0.3-0.5,0.4-0.6c0.1-0.2,0.2-0.2,0.3-0.3c0.3-0.1,0.8-0.2,1.1-0.1c0.1-0.2,0.4-0.2,0.6-0.1
							c0.3,0.1,0.5,0.2,0.7,0c0.6,0.7,0.3,0.6,1.1,1.5c0.2,0.2,0.6,0.1,1,0.3l-0.2,0.2l0.7,0.2l0,0.5l0.5,0.3
							c-0.2-0.1-0.3-0.4-0.2-0.4c0.7,0.4,1.3,1.2,1.3,1.4l1.5,0.6c-0.1,0.1-0.3,0-0.5-0.1c0.8,0.2,0,0.3,0.7,0.5
							c0-0.1,0.1-0.1,0.2-0.2c0.2,0.4,0.8,0.8,1.1,1.1l-0.2,0.1c0.1,0.1,0.1,0.2,0.2,0.2l0,0.1c0,0,0.1,0.1,0.1,0.1
							c0,0.1,0,0.1,0,0.1c0,0,0,0-0.1,0.1c-0.1,0.1-0.2,0.2-0.4,0.2c0.4-0.1,0.5,0.2,0.2,0.4l-0.3-0.2c-0.1,0.3,0.4-0.1,0.1,0.4
							c-0.4,0.2-0.4-0.2-0.3-0.4c0,0-0.4,0.3-0.4,0.3c-0.1-0.1,0-0.2,0-0.3c-0.1,0.3-1,0.1-1.1,0.5l-0.1-0.1c-1.1,0.4-1.7,0.7-2.7,1
							c0.1,0.3-0.4,0.3-0.6,0.6c-0.8,0.1-1.7,0.1-2.6,0.4c-0.6,0.3-0.1,0.3-0.4,0.5c-0.1-0.2-1.1,0.1-0.6-0.2
							c-0.6,0.2-0.9,0.4-1.3,0.6c-0.4,0.2-0.9,0.5-1.5,1.1c0.2,0,0.4-0.1,0.4,0c-0.2,0.2-0.6,0.3-0.6,0.2l0-0.1
							c-0.6,0.7-1.4,1.3-2.1,2.1c-0.7,0.7-1.3,1.5-1.3,2.3l0-0.1c0,0-0.1,0.4-0.1,0.7c0,0.4-0.1,0.7-0.1,0.7c-0.2,0.6-0.1-0.4-0.4,0
							c0,1.6-0.6,2.4-0.4,3.7c-0.4,0.5-0.4,1.4-0.2,2.4c0.2,1,0.7,2,0.9,2.8l0.1-0.2c0.4,0.3,0.2,0.5,0.4,0.7
							c0.1-0.1-0.2-0.5,0.1-0.3c0.6,0.7,1.4,1.1,2.1,1.5c0.7,0.3,1.5,0.6,2.1,0.8c1.3,0.5,2.2,1.1,2.6,1.8c0.1,0.3,0.4,0.3,0.6,0.3
							c0.2,0,0.4,0.2,0.4,0.7c0,0-0.1,0-0.2-0.1c-0.1,0-0.2-0.1-0.2-0.1c0.5,0.6,0.5,1.7,0.6,2.7c0.1,1,0.1,2.1,0.4,3.1
							c-0.1-0.1-0.2-0.1-0.2-0.3c-0.2,0.5,0.2,1.7,0.4,1.6c0.1,0.3-0.2,0.1-0.2,0.3c-0.1,0.5,0.6,1.1,0.4,1.4c0,0.1-0.1-0.1-0.2-0.2
							c0.2,0.3,0.6,1.4,0.7,1c0.1,0.4,0.4,0.8,0.7,1.1c0.3,0.3,0.6,0.6,0.9,0.9c0.3,0,0.6,0.3,0.9,0.5c0.3,0.2,0.6,0.3,0.8,0.1
							c-0.1,0.2,0.3,0.4,0.8,0.5c0.4,0.1,1.2,0,1.5-0.2c-0.2,0.2,0.6,0,0.4,0.2c0.4-0.1,0.7-0.3,0.9-0.5c0.2-0.2,0.3-0.3,0.1-0.4
							c0.3-0.1,0.6-0.2,0.8-0.4c0.2-0.2,0.4-0.4,0.5-0.7c0.3-0.4,0.5-0.8,0.9-0.9c0.9-1.6,1.4-3.1,1.8-4.5c0.4,0.2-0.6,1.6-0.2,1.7
							c0.4-1.4,0.4-2.3,0.8-3.7c0.1-0.4,0.1,0.3,0.2,0.4c0.1-0.4,0.1-0.7,0.2-1.1c0.1-0.4,0.1-0.7,0.1-1.1c0.1-0.7,0.1-1.3,0-2
							c0,0,0.1,0.1,0.1,0.3c0-0.3,0.1-0.6-0.1-0.6l0.1,0.2c-0.3,0.4-0.6-1-0.8-1c0.6,0.4,0.2-1.2,0.9-0.6c0-0.2-0.1-0.4-0.3-0.3
							c0-0.2,0.1-0.3,0.3-0.1c-0.1-0.9-0.4-0.6-0.4-1.4c0.1,0,0.1,0.2,0.3,0.2c-0.2-0.4-0.4-0.8-0.4-1.5c0.1,0,0.1,0,0.2,0.2
							c-0.1-1.2-0.7-1.9-0.7-3.2c0.5,0.3,0.1-0.4,0.4-0.6l-0.2-0.7l-0.1,0.3c-0.1-0.6-0.4-1.1-0.4-1.6l0.2,0.4l-0.3-1.1l0,0.6
							c-0.3-0.6-0.5,0.2-0.5-0.6c0.1,0.1-0.1-0.6,0-0.9l0,0c-0.2-0.3-0.4-0.5-0.4-1c0.1-0.1,0.4,0,0.5-0.1c-0.4-0.2-0.3-1.3-0.7-1.6
							c0.1,0.1,0.3,0.1,0.3,0l-0.3-0.2c0-0.3,0.1-0.3,0.2-0.3c-0.1-0.8-0.4,0.3-0.4-0.7c0,0.1,0.1,0,0.1,0.2
							c-0.1-0.9-0.3-1.8-0.3-2.7c0.4-0.3,0.2,0.8,0.4,0.4c-0.2-1.3-0.6-2.6-0.7-3.9l0,0.2c-0.5-0.1,0.2-1-0.2-1.6
							c0.1,0.2,0.3,0.2,0.3,0.1c-0.1-0.9-0.3-1.8-0.8-3l0.2,0.1c0-0.5-0.2-1.3-0.4-1.9c-0.2-0.1-0.3-0.4-0.4-0.2
							c0.1-0.5,0-0.9-0.1-1.3c-0.1-0.4-0.4-0.7-0.6-1.1c-0.4-0.7-0.9-1.3-0.9-2.1c0.1,0.2,0.3,0.3,0.2,0.2c0,0-0.7-1.1-0.7-1.1
							c-0.2,0.2,0,0.2-0.1,0.5c-0.2-0.1-0.5-0.3-0.6-0.6c0.4,0.4,0.3-0.2,0.3-0.5c0,0.1-0.2,0-0.2,0.1c0-0.8-0.5,0.1-0.7-0.8l0.1,0
							c-0.2-0.3-0.6-0.4-0.7-0.8c0.1-0.3,0.3,0.2,0.5,0.1c-0.3-0.4-1-0.6-1-1.1c0.2,0.1,0.4,0.4,0.5,0.5c0-0.6-0.1-0.6-0.3-1l0,0
							l-0.4-0.8l0.1,0.2c-1-0.1-0.9-1-1.9-1.3c0.9,0.3,0.3-0.1,0.6-0.2c-0.1-0.2-0.2-0.5-0.1-0.5c-0.5-0.1-0.3-0.7-1-0.8
							c0.1-0.1-0.3-0.3-0.1-0.4c-0.4-0.3,0,0.2-0.2,0.3c-0.8-0.4-1-1.7-2.2-2.2c-0.9-0.6-1.2-0.5-2.1-0.9c-0.2-0.3,0.4-0.1,0.4-0.1
							c-0.3-0.4-0.6-0.7-1.1-0.9c0.1,0,0.1-0.1,0-0.3c-0.4-0.2-0.4,0.1-0.8-0.3c0.1,0,0.3-0.1,0.6-0.1c-0.5-0.2-1-0.3-1.4-0.4
							c0-0.2,0.4-0.1,0.6-0.1c-0.5-0.2-1.4-0.5-1.7-0.3l0.3,0.2c-0.2-0.1,0-0.3,0.1-0.2c0.5,0,0.6,0.4,0.6,0.5l-0.3-0.1
							c0.1,0.6,1.3,0.5,1.9,1l-0.5,0.2c0,0,0.2,0,0.4,0c0.2,0,0.4,0.1,0.4,0.1c0.1,0.2,0,0.4-0.3,0.3c0.3,0.4,0.4,0.1,0.6,0.6
							c0,0.1,0,0.1-0.1,0l0.4,0.2c-0.1,0-0.1,0.3-0.3,0c0.5,0.7,1.2,0.7,1.3,1.1l-0.1,0c0.9,0.7,0.3-0.1,1.2,0.2l-0.1,1l0.3-0.1
							c0.1,0.1,0.2,0.3,0.1,0.3c0.5,0.2,0-0.1,0.4-0.1c0.2,0.6,1.2,1.1,1,1.5c0.3,0-0.3-0.5,0.3-0.2c-0.3,0.5,0.6,0.5,0.7,1
							c-0.3,0.1-0.5-0.4-0.4,0.1c0.6-0.1,0.6,0.8,1,1.1c0.3-0.2,0.7,0.7,1.3,1.2c-0.1,0,0.7,1.3,0.9,1.9l-0.1,0c0.4-0.1,0.7,0.6,1,1
							c-0.2,0.1-0.3,0-0.6-0.1l0.2,0.4c0.2,0,0.3,0.1,0.5,0.4l-0.3,0c0.3,0.6,0.9,1,1.1,1.9c0.3-0.1,0.4-0.9,0.9-0.1
							c-0.1,0.1-0.3,0.2-0.5,0c0,0.1,0.2,0.2,0.2,0.4l-0.3-0.2c0,0.4,0.3,0.1,0.4,0.4c-0.2,0.1,0,0.3-0.2,0.3c0-0.1,0-0.3-0.1-0.4
							c0.1,0.3,0.1,0.8,0.1,0.9c0.1-0.1,0.2-0.1,0.4,0.1c0.2,0.6-0.1,0.3-0.1,0.7c0.2,0.1,0.2,0.5,0.5,0.5c0.1,0.2-0.1,0.3-0.1,0.4
							c0.1,0.1,0.2,0.5,0.4,0.8c0.1,0.3,0.2,0.5,0.3,0.3l0-0.1c0,0,0,0,0,0.1l0,0l0,0c0.3,0.5,0.4,1.1,0.4,1.7c0,0.6,0,1.2,0.1,1.7
							l-0.1,0c0.2,0.6,0.3,1.4,0.5,1.9c0,0.2-0.1,0.5-0.3,0.4c0.1,0.5,0.2,0.6,0.1,1.3c-0.2-0.5-0.1,0.2-0.2-0.5
							c0,0.7-0.2,0.8,0.1,1.5c-0.3-0.2-0.3,0.5-0.2,0.8l0.1-0.5c0.1,0.4,0.1,0.7,0.1,1l-0.3-0.1c-0.2,0.7,0.1,1.3,0.3,1.9
							c0.2,0.6,0.4,1.1,0.2,1.7c0.3,0.3,0-0.8,0.4-0.5c0,0.6-0.3,1.4-0.3,1.6c0,0.9,0.6,0.7,0.7,1.6c0.1-0.1,0.4-0.3,0.6,0.3
							c0.1,0.6-0.3,0.8-0.5,0.5c0-0.1,0-0.2,0-0.2c-0.1-0.2-0.2-0.4-0.3-0.2l0.1,0.1c-0.1,0.3,0.1,1.2-0.1,1
							c0.2,0.4,0.2,0.2,0.2-0.2c0,0.8,0.2,1.2,0.2,2c0-0.1,0.2-0.3,0.2-0.2c0,1.2,0.3,0.5,0.5,1.3c-0.1,0.5-0.5-0.1-0.2,0.7
							c-0.1,0.5-0.3,0.1-0.4,0c0.3,0.7,0,1.4,0,1.8l-0.1-0.4c0.1,0.2,0.1,0.4,0.1,0.6l0.2-0.2c0,0.2,0,0.4-0.1,0.4
							c0.2,0.2,0.4-0.2,0.6,0.2c-0.1,0.3,0.2,0.9-0.1,1c0.1-1-0.3,0.1-0.4-0.7c0,0.2,0,0.3,0,0.6c0,0-0.1,0-0.1-0.1
							c-0.3,0.9,0.4,0.4,0.4,1.3c-0.2-0.1-0.3,0.2-0.3,0.4c0-0.4,0.3-0.2,0.4,0.2c-0.2,0.6,0.1,0.7,0.1,1l0.1-0.4
							c0.2,0.1,0.1,0.4,0.2,0.9c-0.1,0-0.1-0.4-0.1-0.2c0.3,0.5-0.4,1-0.3,1.7c-0.2,0.3-0.3,0-0.5,0.2c0.1,0.7-0.4,0.7-0.4,1.4
							c0.3-0.1,0.3-0.2,0.3,0.4c0,0,0.1-0.3,0.1-0.6c0-0.3,0.1-0.6,0.1-0.6s0.1,0.2,0.1,0.4c0,0.2,0.1,0.4,0.1,0.4
							c0.1-0.4,0.1-0.8,0.1-1c0.1,0.4,0.1,0.4,0.3,0.2c-0.5,0.4-0.1,1.1-0.5,1.6l-0.6-0.2c-0.5,0.7-0.3,1.6-0.9,2.6l0.3-0.3
							c0.1,0.2-0.3,0.7-0.4,1c-0.2-0.1-0.3,0-0.5,0.1c0.1,0.1-0.4,0.7-0.2,1c0,0-0.5,0.3-0.5,0.2c-0.3,0.3-0.4,0.6-0.5,0.9
							c-0.1,0.3-0.2,0.6-0.5,0.8c0.1-0.3-0.3-0.2,0-0.7c-0.2,0.2-0.4,0.3-0.3,0.4c-0.2,0-0.5,0.6-0.8,0.4c-0.1,0.1-0.1,0.3-0.3,0.3
							c0,0,0-0.1,0-0.1c0,0.1-0.5,0.1-0.2,0.4c-0.2-0.2-0.5-0.3-0.7-0.4c-0.3-0.1-0.5-0.2-0.8-0.3c-0.2-0.1-0.5-0.3-0.7-0.5
							c-0.2-0.2-0.3-0.4-0.3-0.6c-0.4-0.4-0.8-1.1-0.9-1.6c0.1,0,0.1,0,0.1,0.1c-0.1-0.8-0.7-0.3-0.7-1.3c0.2-0.5,0.3,0.5,0.3,0.1
							c0.6-0.2-0.3-1.1,0-1.8l0.1,0.1c0.2-0.5-0.4-1.2-0.4-2c0,0,0.1,0,0.1,0c-0.4-0.5-0.5-1.6-0.7-2.4c0.3,0.2,0.2,0.4,0.4,0.2
							c-0.1-0.4-0.4,0.2-0.6-0.5c0.1-0.3,0.1-0.8,0.3-1c0,0,0.2,0.7,0.2,0.7c0.3-0.5-0.3-0.9-0.3-1.3l0.2,0c-0.2-0.6-0.5-0.8-0.7-1
							c-0.2-0.2-0.5-0.4-0.9-0.9c0,0,0,0.2,0,0.2C76,51,76,50.9,75.9,50.7c-0.1-0.1-0.1-0.3-0.5-0.3l0-0.4c-0.4-0.2-1.5-0.2-2.2-0.4
							c0.5-0.2,1.3,0,1.9,0.1c-0.2-0.1-0.5-0.2-0.9-0.3c-0.3-0.1-0.6-0.1-0.8-0.1c0.2,0,0.4,0,0.5,0.1c-0.6,0.1-1.2,0.1-2-0.1
							c0.2-0.3-0.3-0.5-0.7-0.8c-0.5-0.2-0.9-0.6-0.9-1c-0.4-0.3-0.7-0.7-0.8-1.3c0-0.1-0.1-0.3-0.1-0.4c0-0.2,0-0.3,0-0.5
							c0-0.3-0.1-0.7-0.1-1c-0.6,0.5,0-0.4-0.6-0.3c0-0.4,0-0.5,0-0.5c0,0,0.1-0.3,0.2-0.5c0.1-0.3,0.2-0.5,0.2-0.5
							c0.2-0.2,0.1,0.3,0.2,0.3c0.1-0.7,0.3-0.3,0.5-0.7c-0.2,0.1-0.3-0.3-0.1-0.7l-0.4,0.5c-0.1-1.1,0.7-0.8,0.7-1.9l0.1,0.4
							c0-0.6,0.7-1.8,0.5-2.5c0.1,0,0.3-0.1,0.2,0.2c0.3-0.5,0.6-1.2,1-1.7c0.4-0.5,0.8-1,1.3-1.1l0,0.2c0.1-0.2,0.2-0.5,0.5-0.4
							c0,0.1,0,0.2,0.1,0.1c0-0.1,0.4-0.5,0.8-0.5l-0.2,0.3c1.2-0.3,1.8-1,2.9-1.4c0.1,0.4,1.2,0.3,1.8,0.2l0,0.1
							c1.6-0.4,2.6-1.2,4-1.9c0.3,0,0.6-0.1,1-0.2c0.2-0.1,0.4-0.2,0.6-0.3c0.2-0.1,0.3-0.2,0.7-0.4c0.3-0.2,0.6-0.5,0.8-0.7
							l0.4-0.4c0.1-0.2,0-0.4,0-0.5c0-0.4-0.1-0.7-0.2-1.1c-0.1-0.3-0.2-0.7-0.4-1c0.2,0.4-0.4,0.1-0.6-0.1c-0.2-0.4-1-0.6-0.7-0.9
							l0.1,0.1c0-0.5-0.7-1-1.2-1.3l-0.4,0.4c-0.4-0.8-1.3-1.2-2-1.6c-0.6-0.3-1.3-0.9-1.3-1.4c-0.4-0.1-0.7-0.5-1.1-0.6l0.2-0.2
							c-0.4-0.4-0.7-0.7-1.1-0.9c-0.4-0.2-0.9-0.5-1.7-0.7l0.4-0.1c-0.5-0.2-0.8,0-1.1,0.2c-0.3,0.2-0.5,0.4-0.9,0.5
							c0,0-0.1-0.1-0.2-0.2c-0.1-0.1-0.2-0.2-0.2-0.2l-0.6,0.2l-0.6,0.2c-0.3,0.2-0.7,0.4-0.9,0.7c-0.2,0.2-0.4,0.4-0.5,0.7
							c-0.3,0.4-0.4,0.9-0.5,1.3c0,0-0.1-0.1-0.1-0.3c-0.3,0.5-1.2,1.9-0.6,2c-0.4-0.1-0.5,1.1-0.6,1.8l-0.2-0.2
							c0.1,0.6,0.2,0.7,0,1.4c-0.1,0.1-0.3,0.1-0.1-0.1c-0.4,0.5,0.1,0.5-0.4,1.1l0-0.3c-0.3,0.5-0.2,0.5-0.1,0.9
							c-0.1,0.4-0.6,1-0.8,0.9c0.1,0.1,0.1,0.5-0.1,0.8c-0.1,0-0.1-0.1-0.1-0.2c-0.1,0.1-0.2,0.2-0.2,0.3c0,0-0.1,0.1-0.1,0.1
							c-0.1,0.1-0.1,0.2-0.1,0.3c-0.1,0.2-0.2,0.5-0.4,0.4c0-0.1,0-0.2-0.1-0.2c0.3-0.2,0.5-0.5,0.5-0.4c-0.1-0.1-0.2-0.1-0.2-0.2
							c-0.1-0.1-0.1-0.2-0.2-0.4c0,0.1,0.1,0.3,0,0.6c-0.1,0.2-0.3,0.4-0.4,0.3c0,0,0-0.1,0-0.1l0,0c0,0-0.1,0-0.1,0
							c0-0.1,0-0.2-0.1-0.2c0.2-0.3,0-0.3,0.1-0.4c-0.3,0.2-0.2,0-0.5,0.3c0,0,0,0,0,0.1c0,0,0,0,0,0l0,0c0,0.1,0.1,0.2,0.2,0.3
							c-0.2,0.1-0.4,0-0.3-0.3c-0.2,0.1-0.4,0-0.5,0c0.2-0.3,0.4-0.5,0.5-0.7c0.1-0.1,0.1-0.4,0.1-0.5c0-0.2,0-0.3,0.1-0.4
							c0-0.1-0.1-0.2-0.1-0.3c-0.5-0.8-1.1-1.1-1.5-1.3c-0.2-0.1-0.4-0.2-0.6-0.3c-0.2-0.1-0.3-0.1-0.5-0.1
							c-0.2-0.1,0.1-0.3,0.1-0.3c0.1,0.1,0.1,0.2,0.2,0.2c-0.1,0-0.1-0.1-0.2-0.2c-0.1-0.3-0.1-0.9-0.3-1c0.2-0.2,0.2-0.1,0.3-0.1
							c0.1,0.1,0,0.1,0.2-0.2l0.1,0.1c0.2-0.1,0.5-0.2,0.7-0.5c0.3-0.2,0.6-0.4,0.9-0.6c0.7-0.4,1.5-0.7,2.7-0.9c-0.2,0-0.3,0-0.3,0
							c0.3-0.1,0.7-0.2,1-0.4c0.3-0.2,0.6-0.5,0.8-0.8c0.4-0.5,0.8-1.2,0.9-2c0.1-0.8-0.2-1.6-0.5-2.2c-0.4-0.6-0.8-1.1-1-1.6
							c-0.3-0.6-0.6-0.5-0.9-0.7l0.2-0.3c0,0-0.6-0.4-0.6-0.4c-0.3-0.4-0.2-0.8-0.1-1.3c0.1-0.4,0.2-0.9,0-1.6l-0.2,0.2
							c0-0.5-0.1-1.5,0.2-1.4c0,0-0.2-0.2-0.1-0.3l0.2,0l-0.2-1.2c0.2-0.9,0.6,0.2,0.7-1.1c0-0.5-0.4-1.5-0.5-1.3
							c0,0.2-0.1,0.5-0.3,0.5l-0.1-0.4C67,8,66.5,7.7,66.1,8.7c0,0,0.1,0.2,0.1,0.4c0.1,0.2,0.1,0.4,0.1,0.4l-0.2,0.2l0-0.6
							c-0.2,0.3-0.1,0.6,0,0.8c-0.1,0.1-0.2,0.2-0.3,0.3l0.4,0.8c-0.2,0.1-0.3-0.4-0.5,0.1c0.2,0.4,0.4-0.3,0.5,0.3
							c-0.2,0.4-0.4,0.2-0.2,0.7c-0.1,0.1-0.2,0-0.2-0.2c0.1,0.4,0,1,0.3,1.2c-0.3,0.4,0.1,1.3-0.3,1.3c0.1,0.1,0.4,0.7,0.5,1.1
							C66,15.2,66,15.5,66.2,16c0.1,0.5,0.4,1,0.1,1c0.7,0.4,1.3,1.6,2.1,2c-0.1,0-0.2,0-0.2-0.1c0.3,0.4,0.2,0.5,0.3,0.8
							c0.3-0.2,0.8,0.2,1.1,0.4c-0.2,0.5-0.5-0.1-0.8,0.2c0.3-0.1,0.4,0.3,0.7,0.2c-0.2,0.2-0.1,0.2-0.5,0.3c0.5,0.2,0,0.2,0.2,0.6
							c-0.5,0.3-0.4-0.1-0.6,0.4C68.1,21.9,68.3,21.4,68.3,21.4z M66.4,33.9L66.4,33.9c-0.2,0-0.3,0-0.4,0
							C66,33.9,66.1,34,66.4,33.9z M67.9,33.3c-0.2,0.1-0.4,0.3-0.6,0.4c-0.1-0.1,0-0.2,0.1-0.3C67.3,33.5,67.7,33.4,67.9,33.3z
							 M66.6,31.1c0.1,0,0,0.1,0,0.2c0,0-0.1,0-0.1-0.1c0,0,0,0,0,0C66.5,31.1,66.6,31.1,66.6,31.1z"/>
						<path fill="#4D4D4D" d="M66.2,31.3C66.2,31.3,66.2,31.3,66.2,31.3C66.2,31.3,66.1,31.3,66.2,31.3L66.2,31.3
							C66.2,31.3,66.2,31.3,66.2,31.3z"/>
						<path fill="#4D4D4D" d="M85.5,27.4L85.5,27.4C85.6,27.4,85.6,27.4,85.5,27.4C85.6,27.4,85.6,27.4,85.5,27.4z"/>
						<polygon fill="#4D4D4D" points="78.4,24.2 78.5,24.1 78.3,24.1 						"/>
						<path fill="#4D4D4D" d="M83.5,20c0,0,0-0.1,0-0.1C83.5,19.9,83.5,19.9,83.5,20z"/>
						<path fill="#4D4D4D" d="M81.8,17.1l-0.2-0.4C81.6,16.9,81.7,17,81.8,17.1z"/>
						<path fill="#4D4D4D" d="M80.2,15c-0.1,0-0.1,0-0.1,0l0,0L80.2,15z"/>
						<path fill="#4D4D4D" d="M90.3,53.9c0,0,0,0.1,0,0.1C90.3,54.3,90.3,54.1,90.3,53.9z"/>
						<path fill="#4D4D4D" d="M88.3,41.9c0.1,0.1,0.2,0.2,0.2,0.4C88.5,42,88.5,41.9,88.3,41.9z"/>
						<polygon fill="#4D4D4D" points="83.8,66.7 83.8,66.7 83.7,66.7 						"/>
						<path fill="#4D4D4D" d="M88.7,42.8c0-0.2,0-0.4-0.1-0.6C88.6,42.4,88.6,42.6,88.7,42.8z"/>
						<path fill="#4D4D4D" d="M71.7,7.6l-0.1-0.1c0,0,0,0,0,0L71.7,7.6z"/>
						<path fill="#4D4D4D" d="M71.5,7.6l-0.2,0C71.5,7.6,71.5,7.6,71.5,7.6z"/>
						<path fill="#4D4D4D" d="M71.1,7.5l0.3,0C71.3,7.5,71.2,7.5,71.1,7.5z"/>
						<path fill="#4D4D4D" d="M74.7,9.6L74.7,9.6C74.8,9.5,74.7,9.5,74.7,9.6z"/>
						<path fill="#4D4D4D" d="M75.5,10.2c-0.2-0.2-0.3-0.6-0.7-0.8l-0.1,0C75,9.5,75.3,10.2,75.5,10.2z"/>
						<path fill="#4D4D4D" d="M77.7,14.1l-0.5-0.7c0,0.2,0.1,0.4-0.2,0.2C77.5,14.6,77,13.3,77.7,14.1z"/>
						<path fill="#4D4D4D" d="M79.4,16.2c-0.3-0.3-0.1,0.1-0.2,0.1C79.5,16.4,79.5,16.5,79.4,16.2z"/>
						<path fill="#4D4D4D" d="M86.2,33.2l-0.3,0C86,33.6,86,33.2,86.2,33.2z"/>
						<polygon fill="#4D4D4D" points="87.8,36.8 87.9,36.4 87.7,36.3 						"/>
						<polygon fill="#4D4D4D" points="86.2,39.2 86.2,39 86.4,39.6 						"/>
						<path fill="#4D4D4D" d="M80.6,63.6l-0.2,0.3C80.7,64,80.9,63.7,80.6,63.6z"/>
						<path fill="#4D4D4D" d="M76.6,50.8c0-0.2-0.3-0.6-0.6-0.7C76.3,50.4,76.5,50.7,76.6,50.8z"/>
						<polygon fill="#4D4D4D" points="82.9,24.3 83.2,24.4 82.7,24.2 						"/>
					</g>
				</g>
			</g>
		</g>
	</g>
</g>
</svg>
