<?xml version="1.0" encoding="utf-8"?>
<!-- Generator: Adobe Illustrator 18.0.0, SVG Export Plug-In . SVG Version: 6.00 Build 0)  -->
<!DOCTYPE svg PUBLIC "-//W3C//DTD SVG 1.1//EN" "http://www.w3.org/Graphics/SVG/1.1/DTD/svg11.dtd">
<svg version="1.1" id="Layer_1" xmlns="http://www.w3.org/2000/svg" xmlns:xlink="http://www.w3.org/1999/xlink" x="0px" y="0px"
	 viewBox="0 0 1490 1080" enable-background="new 0 0 1490 1080" xml:space="preserve">
<path fill="#9290A8" d="M646.1,620.1c13.7-15,35-54.9,46.2-82.4c-16.2-3.7-53.7-20-48.7-44.9c7.5-5,13.7,0,21.2,1.2
	c21.2-1.2,43.7-1.2,64.9-1.2c15-20,38.7-37.5,44.9-59.9c6.2-2.5,13.7-2.5,20-1.2c2.5,26.2-2.5,52.4,3.7,78.7
	c31.2,17.5,62.4,15,94.9,28.7c0,2.5,1.2,5,1.2,7.5c-2.5,2.5-5,5-7.5,7.5c-25,1.2-49.9-1.2-73.7,12.5c0,25-11.2,49.9-3.7,73.7
	c-6.2,6.2-12.5-3.7-17.5,5c-6.2-3.7-2.5-7.5-7.5-11.2c-1.2,1.2,0,2.5-1.2,3.7c-1.2,1.2-1.2,0-1.2-1.2c-5-21.2-28.7-46.2-48.7-42.5
	c-5,1.2-8.7,7.5-16.2,10c-7.5,2.5-16.2,1.2-21.2,2.5c-10,3.7-18.7,13.7-28.7,16.2C659.8,620.1,653.6,620.1,646.1,620.1z"/>
<path fill="#E8E76A" d="M774.7,466.6c3.7,22.5-1.2,51.2,22.5,64.9c10,6.2,26.2,2.5,36.2,10c-13.7,5-28.7,3.7-42.5,15
	c0,15,3.7,30-2.5,44.9c-20-8.7-26.2-28.7-44.9-30c-18.7,17.5-37.5,15-56.2,20c10-18.7,21.2-37.5,31.2-56.2c-5-11.2-15-11.2-25-20
	c-2.5,6.2-12.5,5-18.7-3.7c21.2-3.7,43.7-6.2,64.9,2.5C751,499,758.4,484,774.7,466.6z"/>
</svg>
