<?xml version="1.0" encoding="utf-8"?>
<!-- Generator: Adobe Illustrator 18.0.0, SVG Export Plug-In . SVG Version: 6.00 Build 0)  -->
<!DOCTYPE svg PUBLIC "-//W3C//DTD SVG 1.1//EN" "http://www.w3.org/Graphics/SVG/1.1/DTD/svg11.dtd">
<svg version="1.1" id="Layer_1" xmlns="http://www.w3.org/2000/svg" xmlns:xlink="http://www.w3.org/1999/xlink" x="0px" y="0px"
	 viewBox="0 0 1490 1080" enable-background="new 0 0 1490 1080" xml:space="preserve">
<path fill="#9290A8" d="M878,491.1c-18.7,8.7-53.7,37.5-73.7,58.7c13.7,10,42.5,38.7,28.7,59.9c-8.7,2.5-12.5-3.7-18.7-8.7
	c-21.2-7.5-41.2-15-61.2-22.5c-21.2,12.5-49.9,20-63.7,38.7c-7.5,0-13.7-2.5-18.7-6.2c7.5-25,22.5-47.4,25-73.7
	c-23.7-28.7-53.7-38.7-77.4-63.7c1.2-2.5,1.2-5,1.2-7.5c3.7-1.2,6.2-2.5,10-3.7c23.7,8.7,44.9,20,73.7,16.2
	c10-22.5,28.7-41.2,31.2-67.4c7.5-2.5,10,7.5,18.7,1.2c3.7,6.2-1.2,8.7,2.5,13.7c1.2-1.2,1.2-2.5,2.5-2.5s1.2,1.2,0,1.2
	c-3.7,21.2,8.7,53.7,28.7,57.4c5,1.2,11.2-2.5,18.7-2.5c6.2,0,15,5,20,5c11.2,0,22.5-6.2,32.5-3.7
	C864.2,486.1,870.5,488.6,878,491.1z"/>
<path fill="#E8E76A" d="M700.7,584.8c5-22.5,20-47.4,3.7-68.7c-7.5-10-23.7-12.5-30-23.7c15,0,27.5,6.2,44.9,2.5
	c5-13.7,7.5-28.7,18.7-40c15,15,13.7,37.5,30,43.7c23.7-8.7,40,0,59.9,2.5c-16.2,13.7-33.7,26.2-49.9,40c0,11.2,8.7,16.2,15,27.5
	c5-3.7,13.7,0,16.2,11.2c-21.2-5-42.5-11.2-58.7-27.5C734.4,564.8,723.2,576,700.7,584.8z"/>
</svg>
