<?xml version="1.0" encoding="utf-8"?>
<!-- Generator: Adobe Illustrator 18.0.0, SVG Export Plug-In . SVG Version: 6.00 Build 0)  -->
<!DOCTYPE svg PUBLIC "-//W3C//DTD SVG 1.1//EN" "http://www.w3.org/Graphics/SVG/1.1/DTD/svg11.dtd">
<svg version="1.1" id="Layer_1" xmlns="http://www.w3.org/2000/svg" xmlns:xlink="http://www.w3.org/1999/xlink" x="0px" y="0px"
	 viewBox="0 0 1490 1080" enable-background="new 0 0 1490 1080" xml:space="preserve">
<path fill="#9290A8" d="M730.3,648c-1.1-19.2-12.4-57.7-22.6-82.6c-13.6,7.9-47.5,21.5-59.9,2.3c1.1-7.9,7.9-9,13.6-12.4
	c13.6-14.7,27.1-29.4,40.7-43c-3.4-22.6,0-48.6-9-66.7c2.3-5.7,6.8-10.2,11.3-13.6c18.1,14.7,31.7,35.1,53.2,47.5
	c31.7-9,49.8-30.5,79.2-41.8c1.1,2.3,3.4,2.3,5.7,4.5c0,3.4,0,6.8,0,9c-14.7,17-32.8,30.5-39.6,55.4c15.8,15.8,24.9,38.5,45.2,49.8
	c0,7.9-10.2,5.7-7.9,14.7c-6.8,1.1-6.8-3.4-12.4-2.3c0,1.1,1.1,1.1,1.1,2.3c0,1.1-1.1,1.1-1.1,0c-15.8-10.2-47.5-11.3-58.8,4.5
	c-2.3,3.4-1.1,10.2-4.5,15.8c-2.3,5.7-9,10.2-11.3,14.7c-3.4,10.2-2.3,21.5-7.9,29.4C739.3,637.8,734.8,643.5,730.3,648z"/>
<path fill="#E8E76A" d="M714.5,467.1c17,11.3,31.7,33.9,55.4,27.1c10.2-3.4,19.2-15.8,29.4-15.8c-5.7,12.4-15.8,20.4-18.1,36.2
	c10.2,9,21.5,17,27.1,29.4c-18.1,6.8-36.2-2.3-47.5,9c-1.1,22.6-14.7,33.9-22.6,48.6c-5.7-18.1-10.2-37.3-15.8-55.4
	c-10.2-4.5-17,2.3-28.3,2.3c2.3,5.7-4.5,11.3-14.7,9c11.3-15.8,23.7-31.7,43-39.6C719,502.1,714.5,488.5,714.5,467.1z"/>
</svg>
