<?xml version="1.0" encoding="utf-8"?>
<!-- Generator: Adobe Illustrator 18.0.0, SVG Export Plug-In . SVG Version: 6.00 Build 0)  -->
<!DOCTYPE svg PUBLIC "-//W3C//DTD SVG 1.1//EN" "http://www.w3.org/Graphics/SVG/1.1/DTD/svg11.dtd">
<svg version="1.1" id="Layer_1" xmlns="http://www.w3.org/2000/svg" xmlns:xlink="http://www.w3.org/1999/xlink" x="0px" y="0px"
	 viewBox="0 0 15.9 15.6" enable-background="new 0 0 15.9 15.6" xml:space="preserve">
<path fill="#E8E76A" d="M12.4,5.4c0.4,2.2,3.8,3.1,3.5,5.6c-0.9-0.1-2.3,0-3.1,0.2c-0.5,0.1-1.1-0.2-1.6,0c-2.1,0.7-1.8,3.9-4.1,4.4
	c-1.1-1.2-1.5-3.1-2.2-4.8C3.8,10.6-1.4,11.6,0.4,9c0.9-1.2,3.3-1.8,4.2-3C4.2,5.5,4,4.2,4,2.9c0-1.8,0-1.6,0.2-2.8
	C6.3-0.7,7,3.3,8.8,3.7c1.6-0.9,2.9-2.7,5.2-2.5c0.2,0.2-0.3,0.9-0.6,1.8C12.7,4.3,12.8,4.1,12.4,5.4z"/>
</svg>
