<?xml version="1.0" encoding="utf-8"?>
<!-- Generator: Adobe Illustrator 15.0.0, SVG Export Plug-In . SVG Version: 6.00 Build 0)  -->
<!DOCTYPE svg PUBLIC "-//W3C//DTD SVG 1.1//EN" "http://www.w3.org/Graphics/SVG/1.1/DTD/svg11.dtd">
<svg version="1.1" id="Layer_1" xmlns="http://www.w3.org/2000/svg" xmlns:xlink="http://www.w3.org/1999/xlink" x="0px" y="0px"
	 width="704.859px" height="907.948px" viewBox="0 0 704.859 907.948" enable-background="new 0 0 704.859 907.948"
	 xml:space="preserve">
<g>
	<path fill-rule="evenodd" clip-rule="evenodd" fill="#928FA8" d="M634.281,105.357c0,0-285.895-20.211-349.789-22.493
		c-25.366-0.905-68.315-8.848-113.18-8.707C103.17,74.371,30.528,82.806,7.727,80.583c0,0,7.823,475.069,13.691,498.44
		c5.867,23.37,251.694,2.654,303.172,6.846c18.748,1.526,91.864,5.519,132.766,7.565c71.397,3.572,150.194,2.215,150.194,2.215
		s28.361-385.322,26.079-486.706"/>
	<ellipse fill-rule="evenodd" clip-rule="evenodd" fill="#BE8C2C" cx="658.577" cy="33.376" rx="30.32" ry="26.483"/>
	<path fill-rule="evenodd" clip-rule="evenodd" d="M593.532,896.538c0.531-6.04,0.446-9.906,1.304-15.646
		c0.062-0.414,0.595-0.685,0.652-0.979c0.309-1.582-0.479-2.924-0.326-4.238c0.172-1.482,0.896-2.678,0.979-4.237
		c0.194-3.708,0.433-7.625,0.978-11.41c0.78-5.423,0.903-11.259,1.956-17.277c0.316-4.642,0.653-10.769,1.304-16.626
		c0.151-1.357,0.863-2.838,0.979-4.237c0.12-1.458-0.468-3.021-0.326-4.563c0.276-2.994,0.971-6.047,1.63-8.803
		c-1.127-4.489,0.243-8.867,0.652-13.365c0.191-2.109-0.683-4.918-0.652-5.867c0.053-1.645,0.826-3.219,0.978-4.891
		c0.179-1.959-0.116-3.889,0-5.868c0.444-7.515,0.579-15.244,0.652-23.146c0.028-3.097,0.729-6.634,0.652-9.127
		c-0.03-0.977-0.672-1.908-0.652-2.934c0.019-1.01,0.512-2.21,0.652-3.261c0.154-1.162,0.284-2.461,0.325-3.586
		c0.42-11.393-0.592-22.814-0.325-34.229c0.26-11.129-0.915-22.172-0.652-33.251c0.095-3.965,0.028-10.02,0-13.366
		c-0.03-3.625-0.063-6.839,0-10.105c0.056-2.831,0.558-5.635,0.652-8.476c0.376-11.261,1.449-22.442,1.63-33.577
		c-5.036-2.78-12.334,0.591-17.93-1.63c-2.608,0.959-5.17-0.141-7.824-0.326c-2.947-0.206-6.038-0.026-9.128-0.326
		c-5.929-0.574-11.956,0.009-17.929-0.326c-5.44-0.304-10.868-0.512-16.3-0.651c-5.917-0.152-11.75-1.146-17.604-1.304
		c-2.415-0.065-5.261,1.035-6.52,0.978c-0.167-0.008-1.254-0.623-1.956-0.652c-9.766-0.407-18.72-0.398-28.035-0.978
		c-5.369-0.334-10.945-1.242-16.3-1.305c-5.853-0.067-11.357-0.845-16.952-0.978c-1.342-0.032-2.665,0.415-3.911,0.326
		c-1.424-0.101-2.752-0.775-4.238-0.978c-9.786-1.33-18.361-0.722-27.057-1.957c-11.654-1.654-23.522-0.823-35.208-1.304
		c-6.932-0.284-16.378-0.794-21.188-0.651c-5.18,0.153-9.085,0.658-13.366,0.651c-2.721-0.004-5.4-0.643-8.149-0.651
		c-15.731-0.053-29.869,0.146-44.009-0.326c-5.779-0.193-11.615-0.127-17.604,0c-5.804,0.124-11.843-0.717-17.93-0.979
		c-3.031-0.13-6.071-0.135-9.128-0.325c-2.765-0.173-5.544,0.214-8.149,0c-2.787-0.229-5.281-0.652-8.15-0.652
		c-8.638,0.001-18.196,0.662-27.383,0.326c-1.429-0.052-2.843-0.643-4.238-0.652c-1.626-0.011-3.221,0.328-4.89,0.326
		c-9.531-0.01-18.065-0.752-26.731-0.652c-6.014,0.07-12.14-0.326-18.256,0c-2.961,0.158-5.774,1.106-8.801,1.305
		c-2.853,0.187-5.89-0.194-8.802,0c-12.006,0.799-24.336,0.878-36.512,1.304c-18.047,0.631-34.997,3.748-52.158,1.304
		c-6.63-0.944-13.832-0.572-19.56-1.956c-2.299-0.555-2.296-1.644-3.586-2.607c-0.998-0.746-2.985-0.961-4.238-1.63
		c-0.978-0.522-1.491-1.521-2.934-1.63c0.517-4.026-0.941-10.455-0.326-14.67c0.136-0.929,0.726-1.078,0.652-1.956
		c-0.123-1.46-0.988-3.019-1.305-4.564c-1.141-5.579-0.905-10.162-0.325-14.018c-1.664-0.489-0.491-2.84-0.326-4.237
		c0.125-1.061-0.296-0.632-0.326-1.304c-0.295-6.661-0.429-15.532,0-23.146c0.031-0.552,0.598-0.676,0.652-1.304
		c-0.012,0.134-0.625-0.24-0.652-0.326c-0.091-0.292,0.334-0.544,0.326-0.979c-0.065-3.508-0.01-7.463,0-11.409
		c0.021-8.584-1.224-15.326-1.304-23.146c-0.031-3.001-0.111-5.878-0.326-8.802c-0.667-9.067-0.938-18.799-1.304-27.058
		c-0.031-0.699,0.274-0.772,0.325-1.63c0.21-3.516-0.527-7.611-0.651-11.409c-0.101-3.081,0.112-6.067,0-9.128
		c-0.189-5.152,0.326-10.361,0.326-15.647c0-5.336,1.226-10.688,0.978-15.974c-0.172-3.649-0.507-8.043,0-10.432
		c0.158-0.747-0.043-1.236,0-1.956c0.459-7.746-0.528-14.838-0.326-22.168c0.048-1.728,0.078-3.139,0.979-4.563
		c-1.215-13.482-0.451-27.337-0.326-41.4c0.12-13.61-0.544-27.078-0.979-40.098c-1.073-0.756-0.175-2.549,0-3.912
		c-1.57-2.777-1.131-6.792-1.304-10.432c-0.09-1.888-0.205-3.683-0.326-5.542c-0.105-1.622,0.409-3.436-0.651-4.563
		c-0.279-5.674-0.313-11.342-0.979-17.277c-0.31-2.767-0.478-5.468-0.326-8.149c0.04-0.706,0.724-1.286,0.652-1.956
		c-0.053-0.494-0.953-0.937-0.979-1.631c-0.054-1.487,0.808-2.992,0.652-4.237c-0.171-1.381-1.164-2.296-1.63-3.586
		c-0.216-0.597-0.062-1.477-0.325-2.282c-0.807-2.448-0.482-3.266,0-5.867c0.248-1.342,0.271-2.464,0.325-3.912
		c0.286-7.648,0.114-15.138,0.652-22.493c0.037-0.502,0.368-1.461,0.325-1.956c-0.047-0.553-0.645-1.036-0.651-1.631
		c-0.018-1.548,0.539-2.72,0.651-4.237c0.415-5.543-0.253-11.069-0.325-15.974c-0.044-2.912,0.29-5.667,0.325-8.476
		c0.069-5.426-0.041-10.996-0.325-16.626c-0.248-4.925-0.103-9.83-0.326-14.67c-0.104-2.249-0.225-4.48,0-6.193
		c0.229-1.74-0.42-3.105-0.651-5.216c-0.159-1.44,0.162-2.914,0-4.238c-0.331-2.698-0.849-5.208-0.979-7.823
		c-0.131-2.619,0.126-5.384-0.326-7.823c-0.689-3.728-4.064-6.974-2.934-11.084c1.52-1.154,2.031-0.438,2.934-0.326
		c2.003,0.249,4.626,0.934,5.542,0.978c0.858,0.042,1.756-0.104,2.607,0c1.222,0.15,3.126,0.868,3.913,1.305
		c2.805-1.116,7.852-2.497,10.757-0.652c0.29,3.415-4.841,1.609-5.216,3.586c17.284,2.263,32.909,0.886,48.898,0.978
		c3.019,0.018,6.592-0.452,9.128,0c0.625,0.112,4,0.118,5.542,0c2.193-0.167,4.241-0.987,6.52-0.978
		c5.207,0.022,10.44,0.048,15.647-0.326c4.548-0.326,9.642,0.316,13.366,0c0.563-0.048,0.936-0.548,1.63-0.651
		c2.395-0.359,4.731-0.792,7.172-0.979c1.644-0.125,3.3,0.072,5.542,0c0.553-0.018,0.691-0.235,1.304-0.326
		c8.575-1.265,17.528-0.115,26.731-0.651c9.747-0.568,18.821,0.26,27.709-0.326c0.489-0.032,0.735,0.323,1.304,0.326
		c10.412,0.055,20.183-0.549,28.688,0.326c8.471,0.87,18.301,1.361,26.731,2.281c4.82,0.526,8.072,0.191,12.388,0.326
		c3.222,0.101,6.267-0.197,9.454-0.326c0.76-0.03,1.241,0.646,1.955,0.652c0.56,0.005,1.657-0.595,2.282-0.652
		c1.638-0.148,3.207,0.003,4.89,0c1.412-0.002,2.796-0.095,4.238,0c1.578,0.104,3.179,0.514,4.89,0.652
		c3.026,0.246,6.028-0.252,9.128,0c6.381,0.518,12.727,1.312,19.233,1.63c3.025,0.147,6.526-0.624,9.454,0.978
		c1.491-1.341,3.452-0.166,5.216,0c2.037,0.192,4.393,0.006,6.52,0c8.429-0.02,16.837,0.587,24.449,1.631
		c1.468,0.201,3.536,0.157,4.238,0.325c0.478,0.115,0.551,0.914,0.978,0.979c2.057,0.311,4.127-0.778,5.868,0.326
		c1.797,0.104,2.599-0.705,3.26,0.651c2.094-1.134,4.196,0.327,6.193,0.652c0.91,0.147,2.036-0.133,2.935,0
		c6.071,0.895,11.198,1.609,16.951,1.956c4.576,0.275,8.973,1.373,13.692,1.63c4.311,0.234,8.699,0.558,13.039,0.978
		c2.171,0.21,4.434,0.907,6.52,0.979c7.591,0.258,13.466,0.454,20.212,1.629c7.285,1.271,15.614,0.297,22.167,0.979
		c2.46,0.256,4.947-0.222,7.172,0c1.831,0.183,3.424,1.438,5.216,1.63c6.094,0.656,12.01-0.885,17.604-1.304
		c2.045-0.153,4.481-0.003,6.846,0c2.688,0.004,5.59,0.702,8.15-0.652c2.325,1.725,5.168,1.11,7.823,0.979
		c2.706-0.134,5.697-0.052,8.477,0c5.759,0.107,11.085,1.707,16.951,1.956c2.357,0.1,6.201,0.51,8.476,0
		c0.255-0.058,0.824-0.669,0.652-0.652c2.897-0.282,5.633,0.433,8.476,0.652c1.303,0.1,2.617-0.088,3.912,0
		c1.358,0.092,2.532,0.519,3.911,0.651c2.768,0.266,5.791-0.55,8.477,0.652c5.8-2.004,10.897-1.588,15.974-0.652
		c3.864,0.713,7.923,2.017,12.062,2.282c3.238,0.208,6.251-0.951,9.453,0.326c2.498-1.584,5.486-0.418,7.824-0.326
		c0.871-3.928,1.232-9.729,1.63-15.647c0.207-3.087,0.554-6.168,0.652-9.128c0.13-3.922-0.97-9.538,1.304-12.062l0.381,0.489
		l0.597-0.163c1.121,12.067-1.067,24.207-1.63,35.532c1.217,0.849,1.355,2.775,3.912,2.282c1.794-10.913,2.707-23.274,4.238-37.163
		c-2.193-0.632-4.703-3.688-6.521-2.607l-0.38-0.489l-0.598,0.163c-0.263-2.434-2.874-3.859-3.912-5.216
		c-0.454-0.594-0.489-1.28-0.978-2.282c-1.235-2.531-2.991-4.842-4.238-7.497c-2.753-5.864-4.693-13.049-3.912-19.886
		c0.719-6.291,3.394-11.547,6.521-16.3c1.208-0.53,2.59-0.888,2.934-2.282c1.946-0.451,3.135-1.351,5.542-1.956
		c0.696-0.175,1.281-0.766,1.956-0.978c1.276-0.401,2.955-0.605,4.563-0.978c1.448-0.336,3.11-1.201,4.238-1.305
		c3.674-0.337,6.582,0.772,9.453,1.305c5.153,0.954,11.072,2.303,15.647,4.89c1.083,0.547,2.434,0.826,2.608,2.282
		c2.217-0.153,2.545,1.583,4.238,1.955c1.452,2.775,3.543,5.127,4.89,8.476c1.324,3.295,1.441,7.314,3.26,10.758
		c-0.283,3.121,0.218,6.104,0,9.128c-0.088,1.219-0.479,2.563-0.652,3.912c-0.216,1.691,0.265,3.597,0,4.89
		c-0.182,0.888-0.749,1.32-1.304,2.282c-1.54,2.673-1.992,5.461-3.26,7.824c-1.057,0.572-1.567,1.692-1.956,2.934
		c-3.934,2.315-6.134,7.916-12.062,7.172c-2.332,2.872-5.458,1.196-8.476,0.326c-3.057-0.882-6.481-0.904-9.128-1.956
		c-1.411-0.562-2.695-2.23-4.238-1.305c-1.259,6.551-2.456,13.429-2.934,20.538c-0.434,6.452-0.851,14.927-0.326,19.885
		c0.247,2.331,0.149,3.871,0,6.194c-0.292,4.534-1.11,8.144-1.304,12.062c-0.152,3.078,0.353,6.524,0.326,10.105
		c-0.057,7.444-0.075,15.011,0,22.168c0.036,3.477,0.789,7.001-0.326,10.105c2.106,7.332,0.763,15.691,1.304,24.123
		c0.852,13.268,0.78,26.136,0,37.489c-0.151,2.198-0.306,4.26-0.326,6.52c-0.019,2.08-0.231,4.128-0.325,6.194
		c-0.418,9.11-1.468,17.856-2.282,26.731c-1.466,0.494-0.293,1.435-0.326,2.281c-0.169,4.315-0.507,7.37-0.978,11.084
		c-0.896,7.061-0.118,16.842-1.631,24.123c-0.161,0.78-0.398,0.578-0.651,1.305c-0.257,0.739,0.395,0.533,0.326,1.304
		c-0.21,2.355-0.374,4.777-0.652,6.846c-0.255,1.896-0.145,4.226-1.63,5.542c0.914,1.47,0.262,2.964-0.652,4.238
		c1.206,4.136-0.16,8.365-0.651,12.713c-0.227,2.002-0.149,4.221-0.326,6.194c-0.205,2.281-0.615,4.298-0.978,6.52
		c-0.735,4.504-0.941,9.235-1.631,13.691c-0.727,4.698-1.398,9.172-1.955,13.691c-0.891,7.215-1.406,16.411-1.956,21.516
		c-0.046,0.426-0.613,0.871-0.652,1.305c-0.05,0.56,0.691,1.091,0.652,1.63c-0.065,0.901-0.629,1.632-0.652,2.607
		c-0.169,6.954,0.104,15.47-1.304,23.146c0.948,1.642,0.176,3.541,0,5.216c-0.206,1.953-0.179,3.973-0.326,5.868
		c-0.764,9.819-2.763,18.642-4.238,27.709c-0.259,1.595-0.156,2.665-0.325,3.912c-0.067,0.493-0.61,0.867-0.652,1.304
		c-0.178,1.862,0.036,3.752-0.326,5.542c-0.205,1.014-0.532,1.72-0.651,2.607c-0.77,5.714-1.628,13.638-2.282,19.233
		c-0.416,3.557-0.57,5.25-0.652,7.498c-0.034,0.946-0.512,1.842-0.652,2.935c-0.248,1.941-0.128,3.948-0.325,5.868
		c-0.764,7.427-2.834,14.593-3.586,21.841c-0.366,3.521,0.144,7.174,0,10.758c-0.045,1.106-0.334,1.871-0.326,2.934
		c0.011,1.533,0.623,2.335,0.652,2.935c0.102,2.09-0.558,4.074-0.652,6.193c-0.189,4.225,0.17,8.468,0,12.714
		c-0.303,7.572-0.84,16.19-1.304,24.774c-0.049,0.889-0.296,1.74-0.326,2.608c-0.062,1.786,0.686,3.722,0.651,5.542
		c-0.071,3.859-1.344,7.756-1.304,12.062c0.036,3.862-0.152,7.624-0.326,11.41c-0.339,7.389-1.251,14.826,0,22.493
		c-1.166,0.902-0.537,2.117-0.651,3.26c-1.052,10.46-0.476,18.994-0.652,28.361c-0.09,4.768-0.459,10.348,0,14.344
		c0.57,4.964-1.613,12.863,0.326,18.907c-0.99,1.627,0.037,3.451,0,5.216c-0.041,1.934-0.688,3.917-0.652,5.868
		c0.223,12.374-0.164,25.106-0.326,37.489c-0.083,6.39-1.536,14.148-0.651,19.885c0.079,0.512-0.296,0.429-0.326,0.979
		c-0.221,4.039,0.034,6.522,0,9.453c-0.068,5.778-0.999,12.505-1.304,18.908c-0.398,8.354-1.669,16.17-1.956,24.123
		c-0.135,3.732-0.771,7.498-0.979,11.409c-0.228,4.311-0.686,8.79-1.304,13.04c-1.661,11.413-2.567,21.934-2.934,35.533
		c-0.095,3.514,0.268,7.696-2.282,10.432c-0.108,0-0.218,0-0.326,0C594.494,905.356,595.188,899.773,593.532,896.538z
		 M665.576,7.561c-0.876,1.218,1.544,1.922,2.608,2.282c-0.64-1.138-0.999-2.251-2.608-1.63
		C665.576,7.995,665.576,7.777,665.576,7.561z M651.885,52.873c0.175,1.262-0.582,1.592-0.326,2.935
		c0.575,0.294,1.01,0.729,1.304,1.304c6.461,0.297,12.261-0.171,16.952-2.282c0.384-0.172,0.606-0.825,0.978-0.978
		c0.536-0.222,1.345,0.195,1.956,0c0.313-0.101,1.152-1.006,1.956-1.63c2.646-2.054,4.818-5.117,6.846-8.15
		c0.901-4.823,0.702-10.715-1.304-15.321c-1.98-4.547-6.652-9.185-10.432-12.714c-1.292-1.206-2.965-2.134-4.89-3.26
		c-2.429-1.42-3.225-1.67-6.194-2.607c-3.104-0.98-7.779-1.791-11.735-0.652c-1.521,0.438-2.033,0.823-3.26,1.304
		c-3.338,1.308-5.558,3.984-8.15,6.521c-0.26,1.478-0.854,2.623-1.956,3.26c-0.007,3.059-1.85,8.945-0.978,13.691
		c0.831,4.526,2.296,6.21,4.563,9.128c3.277,0.309,3.736,3.436,7.172,3.586C646.701,49.146,649.238,51.064,651.885,52.873z
		 M105.523,79.931c5.209,0.932,13.763,0.123,18.908,1.63c4.287-1.195,11.721,0.327,17.277,0.326c0.468,0,1.131-0.353,1.63-0.326
		c0.836,0.044,1.775,0.601,2.607,0.652c1.708,0.105,3.618-0.656,5.542-0.652c2.047,0.005,4.192,0.676,6.194,0.652
		c0.556-0.007,1.092-0.578,1.63-0.652c1.686-0.231,3.822,0.355,5.867,0.326c2.037-0.029,4.296-0.341,6.194-0.326
		c4.233,0.032,8.544,0.666,12.062,0.326c0.777-0.075,1.78-0.596,2.607-0.652c3.727-0.253,7.663,0.231,11.41,0
		c3.466-0.213,6.455-1.404,9.127-0.325c0.921-0.167,1.385-0.789,2.283-0.979c3.293,0.749,8.979-1.054,11.735,0.652
		c0.678-0.191,1.054-0.686,1.63-0.979c0.681,0.515,2.165,0.227,2.934,0.652c2.172-1.494,6.259,0.68,7.824-1.63
		c-4.158-0.225-7.692-0.149-11.41-1.956c-2.276,1.425-5.729,0.172-8.476,0.651c-1.045,0.285-1.02-0.501-1.304-0.978
		c-3.985,1.529-8.386,0.774-12.062-0.326c-6.829,0.589-13.767,0.168-20.864,0c-11.288-0.268-22.925-0.061-34.555,0
		c-4.876,0.025-9.549,1.133-14.344,1.63c-3.175,0.329-7.424-0.365-9.779,1.304c-1.854-0.07-4.877-0.337-7.824-0.325
		C109.893,78.637,106.533,78.245,105.523,79.931z M12.941,80.583c-0.897,1.025,0.466,2.562,0,4.237
		c1.113-0.625,1.523-1.954,1.957-3.26C14.064,81.415,13.399,81.104,12.941,80.583z M7.727,80.583
		c0.169,0.482,0.482,0.821,0.651,1.304C8.117,85.107,10.079,79.724,7.727,80.583z M21.418,579.023
		c2.507-0.162,5.059,0.796,7.498,0.978c4.427,0.33,8.903-0.002,13.365,0.326c1.434,0.105,2.829,0.834,4.238,0.979
		c2.316,0.236,4.853,0.104,7.171,0.325c3.733,0.356,7.113,0.373,12.062,0.652c1.245,0.07,2.439,0.624,3.585,0.651
		c10.216,0.252,20.229-0.609,30.644-1.304c2.64-0.176,5.207,0.424,7.824,0.326c1.093-0.041,2.144-0.544,3.26-0.651
		c3.913-0.379,8.101,0.24,12.388,0c2.433-0.137,5.049-0.888,7.498-0.979c0.869-0.032,1.739,0.63,2.607,0.652
		c0.369,0.009,1.083-0.577,1.63-0.652c1.567-0.217,5.47-0.062,7.824,0c1.252,0.032,2.443-0.658,3.586-0.652
		c2.841,0.018,6.888,0.979,10.758,0.979c6.919,0,14.452-0.783,21.188-0.979c2.099-0.061,4.223,0.146,6.194,0
		c4.563-0.338,9.041-1.479,13.691-1.956c2.093-0.214,4.388,0.179,6.521,0c3.422-0.286,7.344-0.39,11.735-0.325
		c4.667,0.067,9.214-0.8,13.691-0.652c1.381,0.045,2.61,0.626,3.912,0.652c1.374,0.027,2.862-0.628,4.238-0.652
		c3.959-0.068,8.12-0.16,11.735,0c1.837,0.082,3.711,0.856,5.542,0.978c4.087,0.272,8.659,0.14,13.365,0.326
		c5.549,0.221,10.022,0.376,16.626,0.652c4.822,0.202,9.871,0.251,14.67,0.651c1.578,0.133,3.032,0.838,4.563,0.979
		c1.775,0.163,3.786-0.123,5.542,0c13.278,0.93,27.347,1.221,40.097,2.281c7.178,0.599,14.271,0.242,21.516,0.979
		c1.401,0.143,2.642,0.533,3.912,0.652c1.015,0.096,1.956-0.091,2.934,0c1.611,0.149,3.314,0.895,4.89,0.978
		c0.903,0.048,1.772-0.406,2.608-0.326c1.425,0.138,2.683,0.76,4.237,0.979c1.166,0.164,2.646,0.157,3.912,0.326
		c4.544,0.605,9,0.443,15.321,0.978c4.769,0.403,12.943,0.75,18.908,1.63c1.941,0.287,3.937,0.158,5.867,0.326
		c1.672,0.146,3.26,0.788,4.891,0.978c5.17,0.602,11.094,0.432,16.951,0.979c0.551,0.052,1.268,0.188,1.956,0.326
		c2.673,0.539,7.33,0.528,10.105,0.651c9.9,0.442,18.947,0.798,27.383,0.652c1.889-0.032,3.908-0.328,5.868-0.326
		c1.861,0.002,3.706,0.71,5.542,0.652c1.033-0.033,1.89-0.554,2.934-0.652c2.602-0.243,5.522-0.21,8.15-0.326
		c3.964-0.174,8.014-0.155,12.062,0c3.869,0.149,7.882,0.862,11.735,0.652c0.844-0.046,0.73-0.596,0.979-0.652
		c1.769-0.401,6.228,0.275,8.149,0c1.088-0.155,2.239-0.811,3.26-0.978c8.419-1.38,18.177-2.689,26.405-1.304
		c1.568,0.264,3.179,0.938,5.216,1.304c2.735,0.491,5.238,0.279,8.476,0.978c0.825,0.179,1.41,0.502,2.282,0.652
		c3.089,0.534,6.538,1.309,8.802,2.282c0.573,0.246,0.943,1.255,1.63,0.652c0.217-5.707-0.031-11.025,0.326-17.278
		c0.024-0.423,0.324-1.339,0.326-1.304c-0.014-0.258-0.651-0.894-0.652-0.979c-0.018-1.663-0.106-3.65,0-5.216
		c0.052-0.748,0.821-1.2,0.979-1.956c0.561-2.705-0.556-6.234-0.652-9.127c-0.206-6.151,0.537-12.627,0.978-19.561
		c0.131-2.043-0.228-4.337,0-6.193c0.138-1.116,0.893-2.171,0.979-3.26c0.132-1.673-0.662-3.479-0.652-5.216
		c0.006-0.961,0.619-1.983,0.652-2.934c0.072-2.086-0.256-4.061,0-6.194c0.056-0.462-0.437-0.667-0.326-0.979
		c0.018-0.049,0.652-0.335,0.652-0.325c0.007-0.764-0.58-1.881-0.652-2.608c-0.248-2.514,0.602-4.999,0.652-7.497
		c0.019-0.906-0.372-1.982-0.326-2.935c0.057-1.184,0.638-2.396,0.652-3.586c0.015-1.208-0.374-2.401-0.326-3.586
		c0.104-2.568,0.889-5.466,0.978-8.149c0.067-2.009-0.602-3.875-0.326-5.542c0.163-0.981,0.894-1.922,0.979-2.934
		c0.101-1.202-0.362-2.043-0.326-3.586c0.051-2.152,0.49-5.241,0.652-8.476c0.24-4.801,1.228-9.728,1.63-14.996
		c0.464-6.095,0.616-16.111,1.63-25.102c0.231-2.052,0.872-4.095,0.978-6.193c0.039-0.768-0.304-1.431-0.326-2.282
		c-0.047-1.839,0.821-4.242,0.979-6.52c0.147-2.136-0.482-4.299-0.326-6.193c0.097-1.174,0.93-2.141,0.978-3.261
		c0.06-1.368-0.403-2.616-0.325-3.911c0.36-5.99,0.851-11.864,1.304-18.256c0.131-1.845,0.568-3.771,0.652-5.542
		c0.042-0.915-0.637-1.677-0.652-2.608c-0.006-0.365,0.551-1.394,0.652-1.955c0.292-1.63-0.128-3.412,0-5.217
		c0.088-1.243,0.844-2.627,0.651-3.911c-0.254-1.699-1.645-2.255-1.956-3.586c-0.989-4.222,0.058-13.217,0.652-17.277
		c0.254-1.737,1.163-3.229,1.304-4.891c0.157-1.855-0.24-3.964-0.326-5.867c-0.205-4.553,1.019-10.054,1.305-14.996
		c0.097-1.678-0.481-3.26-0.326-4.89c0.115-1.216,0.804-2.341,0.978-3.586c0.88-6.302,0.659-13.241,1.305-19.886
		c0.449-4.629,1.052-8.692,1.63-14.343c0.337-3.303,0.785-10.423,1.304-14.344c0.304-2.3,0.265-3.799,0.326-6.521
		c0.054-2.371,1.062-4.788,1.304-7.172c0.208-2.046-0.044-3.93,0.326-5.867c0.342-1.792,1.102-3.424,1.304-5.216
		c0.166-1.47-0.164-2.844,0-4.238c0.137-1.162,0.854-2.369,0.979-3.586c0.081-0.806-0.335-1.826-0.326-2.607
		c0.017-1.69,0.804-3.438,0.978-5.216c0.404-4.136,0.248-8.622,0.652-12.714c0.292-2.964,0.577-5.944,0.978-9.128
		c0.457-3.635,0.532-8.386,0.979-12.062c0.255-2.104,0.541-3.951,0.651-6.194c0.033-0.656-0.374-0.91-0.326-1.304
		c0.055-0.437,0.612-0.507,0.652-0.979c0.553-6.545,0.318-14.824,0.326-22.167c0.004-3.495,1.297-7.357,0.978-10.758
		c-0.115-1.233-1.076-2.378-1.304-3.586c-0.554-2.946-0.598-6.517-0.326-9.453c0.137-1.477-0.516-5.437-0.326-8.802
		c0.023-0.404,0.519-1.273,0.652-2.608c0.18-1.786,0.356-4.837-0.652-7.498c0.406-1.007,0.508-2.317,0.652-3.586
		c-8.299-3.317-17.265,1.075-26.405-1.304c-1.055-0.402-0.249,1.055-1.304,0.652c-3.351-0.497-8.432-1.469-11.41-0.326
		c-2.229-0.773-4.556-0.32-7.172-0.326c-3.591-0.008-9.167-0.636-14.018-0.326c-1.117,0.071-2.435,0.608-3.586,0.652
		c-5.373,0.207-10.822-0.595-15.974-0.978c-2.487-0.185-4.845-0.272-7.171-0.652c-1.924-0.313-3.837-0.074-6.194-0.652
		c-0.599-0.146-0.77-0.595-1.304-0.651c-2.73-0.293-5.264,0.484-7.498-0.979c-5.941,0.504-11.883-0.46-17.277-0.978
		c-6.026-0.578-11.666-0.558-18.256-0.652c-1.07-0.015-2.163-0.625-3.26-0.652c-0.941-0.023-1.743,0.677-2.608,0.652
		c-1.023-0.028-2.228-0.63-3.26-0.652c-1.63-0.034-4.049,0.883-5.542,0.652c-0.611-0.095-0.635-0.674-1.304-0.652
		c-0.916,0.032-1.986,0.661-2.934,0.652c-0.854-0.007-1.934-0.563-2.935-0.652c-2.19-0.192-4.027,0.42-6.845-0.325
		c-0.421-0.111-0.517-0.607-0.979-0.652c-3.204-0.313-5.934,0.105-9.454-0.326c-10.547-1.293-20.349-0.287-30.316-2.281
		c-3.173,0.362-6.242-0.266-10.106-0.652c-1.025-0.103-2.317,0.176-3.26,0c-0.95-0.178-1.673-0.828-2.608-0.979
		c-3.554-0.57-6.562-0.757-10.757-1.304c-3.987-0.519-7.013-0.712-12.388-1.304c-2.819-0.311-4.909-0.979-7.824,0.326
		c-1.402-0.69-2.837-1.974-4.237-2.282c-1.739-0.383-4.082-0.428-6.194-0.651c-1.797-0.191-3.802-0.12-5.542-0.326
		c-2.673-0.317-4.992-0.602-7.823-0.979c-0.619-0.082-1.363-0.622-1.956-0.651c-0.954-0.048-1.986,0.698-2.935,0.651
		c-0.767-0.037-1.52-0.636-2.281-0.651c-1.566-0.034-3.141,0.315-4.564,0.651c-2.458-0.848-5.727-0.67-7.823-0.978
		c-3.052-0.448-7.472-0.938-10.106-1.304c-2.781-0.386-6.296,0.154-9.127-0.326c-2.21-0.375-4.295-2.233-6.847,0
		c-1.481-0.538-2.943-0.691-4.237,0c-3.098-0.987-6.996-1.226-11.41-1.304c-3.934-0.07-7.281-0.185-10.758,0.325
		c-3.031,0.445-6.472-0.035-9.453,0c-2.079,0.025-4.394,0.949-6.194-0.325c-8.284,2.359-18.822,1.562-27.709,1.955
		c-6.118,0.271-11.447,0.286-18.255,0.326c-1.002,0.006-1.943,0.603-2.935,0.652c-2.144,0.106-6.934-1.253-8.149-0.652
		c-0.302,0.149-0.26,0.62-0.652,0.652c-2.277,0.186-4.507-0.662-5.867,0.651c-2.059-0.791-5.405-0.457-7.498-0.325
		c-3.575,0.224-6.884,0.446-9.454,1.304c-3.407-0.436-6.595-1.004-9.78-0.326c-1.646,0.344-1.864-0.743-3.26-0.652
		c-3.664,1.376-8.293-0.266-9.779,0.652c-1.432-1.176-5.436,0.22-6.193-1.63c-0.506,0.364-0.68,1.06-1.63,0.978
		c-1.083,0.104-1.232-0.724-1.956-0.978c-4.104,1.74-7.373,0.825-11.736,1.304c-1.285,0.09-0.997-1.394-2.281-1.304
		c0.209,1.291-1.554,0.426-1.631,0c-5.914,2.354-12.989-0.608-19.885,0.978c-1.658-0.917-3.078-0.132-4.564-1.304
		c-5.504,0.699-11.204,0.084-17.604,0.326c-1.307,0.05-2.697,0.375-3.912,0.326c-0.729-0.029-1.12-0.532-1.955-0.652
		c-2.616-0.377-5.934,0.524-8.477,0.326c-0.859-0.067-1.756-0.852-2.607-0.978c-1.329-0.198-3.249,0.011-4.563,0
		c-1.546-0.014-2.877,0.139-4.564,0.325c-1.231,0.137-3.108,0.73-4.238,0.652c-1.095-0.075-2.262-1.056-3.26-1.304
		c-1.865-0.465-3.802,0.023-5.542,0c-1.838-0.025-3.415-0.469-4.89,0.326c-0.817-0.242-1.031-0.042-1.63-0.979
		c-8.648,1.279-16.179-1.524-22.493-0.326c-3.088-1.485-7.186-0.136-10.432-1.63c-0.277-0.06-0.308,0.127-0.326,0.326
		c-0.218,0-0.435,0-0.651,0c-2.882,15.225,0.166,27.198-1.631,42.705c1.599,3.015,1.321,6.131,1.631,10.432
		c0.167,2.331,0.656,3.948,0.325,7.823c-0.095,1.118-0.605,2.448-0.651,3.586c-0.072,1.747,0.735,3.569,0.651,5.216
		c-0.055,1.098-0.661,2.218-0.651,3.261c0.019,2.026,0.568,3.836,0.326,6.52c-0.046,0.502,0.454,1.122,0.325,1.63
		c-0.051,0.201-0.631,0.211-0.651,0.978c-0.131,4.726,0.739,9.921-1.631,14.018c1.593,3.097,0.152,6.458-0.326,9.78
		c-0.066,0.466,0.428,1.311,0.326,1.956c-0.082,0.529-0.673,0.883-0.651,1.304c0.038,0.749,0.684,1.211,0.651,1.956
		c-0.071,1.728-0.849,3.604-0.978,5.216c-0.259,3.239,1.182,6.569-0.651,9.128c1.143,2.139,0.134,5.182,0,8.149
		c-0.531,11.706-0.282,22.994-0.652,33.577c-0.237,6.765,0.863,13.338,1.304,19.886c0.211,3.136-0.854,7.141-0.325,9.779
		c0.037,0.189,0.651,0.355,0.651,0.326c0,0.655-0.683,1.36-0.651,1.956c0.152,3.082,0.88,6.132,0.651,8.802
		c-0.024,0.292,0.47,0.713,0.325,1.304c-0.081,0.335-0.712,0.255-0.651,0.979c0.021,0.249,0.567,0.905,0.651,1.304
		c0.498,2.336-0.14,6.105,0,8.802c0.028,0.541,0.668,1.068,0.652,1.63c-0.013,0.461-0.679,0.902-0.652,1.304
		c0.076,1.111,0.639,2.158,0.652,3.26c0.014,1.05-0.588,2.027-0.652,3.261c-0.182,3.537,2.1,7.947,0,10.431
		c1.192,1.311,0.585,3.368,0.652,4.891c0.334,7.519-0.041,15.904-0.326,24.775c-0.017,0.529-0.369,1.371-0.326,1.956
		c0.039,0.516,0.662,1.069,0.652,1.63c-0.013,0.83-0.302,1.677-0.326,2.934c-0.051,2.737,0.291,5.567,0.326,8.476
		c0.049,3.979-0.851,8.03-0.978,12.062c-0.36,11.451-0.135,23.441-0.651,35.207c-0.247,5.603-0.438,9.456-0.326,14.996
		c0.084,4.221-0.293,8.976,0,13.691c0.078,1.273,0.605,2.564,0.651,3.912c0.066,1.934-0.714,3.933-0.651,5.868
		c0.036,1.15,0.583,2.251,0.651,3.585c0.02,0.381-0.36,0.882-0.325,1.305c0.047,0.576,0.641,1.142,0.651,1.63
		c0.036,1.634-0.759,3.577-0.651,5.216c0.134,2.085,0.87,4.098,0.977,6.52c0.097,2.162,1.222,5.411,1.305,7.824
		c0.049,1.409-0.303,2.637-0.326,3.912c-0.047,2.544,1.178,5.199-0.326,7.498c1.035,0.035,0.526,1.188,0.652,1.63
		c3.008,10.556-1.91,22.265,1.304,31.946c0.047,7.692,2.199,14.956,1.956,22.819c-0.102,3.289-0.419,6.777-0.978,10.106
		c-0.3,1.623,1.026,1.387,0.326,2.607c-0.696,5.874-0.798,10.628-0.326,17.93C20.959,577.056,21.545,578.315,21.418,579.023z
		 M9.356,88.406c-0.401,0.143-0.67,0.417-0.652,0.979c0.526,0.092,0.561-0.309,0.978-0.326C9.62,88.795,9.354,88.733,9.356,88.406z
		 M9.03,90.688c-0.749,0.256-0.317,2.018,0.651,1.63C10.361,91.669,9.441,91.177,9.03,90.688z M596.467,98.512
		c2.234,1.888,6.062,1.11,9.127,0.979c-0.426-1.425-1.528-0.693-2.934-0.652C601.356,97.743,598.651,97.997,596.467,98.512z
		 M13.594,130.133c-0.787,4.587-1.279,10.714-0.652,15.647c0.869-1.205,0.895-3.424,0.979-5.215
		c0.086-1.841,0.312-3.753,0.326-5.217c0.005-0.578,0.11-1.81-0.652-1.955C14.006,131.998,13.57,131.781,13.594,130.133z
		 M641.779,136.979c-0.527-0.091-0.562,0.309-0.979,0.326c-1.107,9.823-1.341,18.212-0.326,27.71
		c-0.005,0.973-0.847,1.108-0.978,1.955c-0.848,9.144-0.458,18.439-1.304,27.71c-0.294,3.217-0.382,7.172-0.979,10.758
		c-0.16,0.963-0.61,2.02-0.651,2.934c-0.01,0.208,0.633,0.621,0.651,0.978c0.062,1.173-0.326,5.195-0.651,6.847
		c-0.32,1.627-0.265,3.145-0.326,5.542c-0.021,0.798-0.645,1.701-0.652,2.607c-0.005,0.564,0.694,1.139,0.652,1.63
		c-0.146,1.688-0.798,3.467-0.978,5.216c-0.192,1.866-0.044,3.887-0.326,5.542c-0.191,1.119-0.82,2.136-0.979,3.26
		c-0.587,4.18,0.011,8.612-0.326,13.04c-0.648,8.533-2.729,17.347-2.934,25.427c-0.036,1.433,0.363,2.826,0.326,4.238
		c-0.116,4.409-1.526,8.925-1.956,13.365c-0.689,7.128-0.886,15.033-1.304,22.819c-0.031,0.572-0.564,0.955-0.652,1.63
		c-0.076,0.588,0.392,1.326,0.326,1.956c-0.086,0.832-0.603,1.791-0.652,2.608c-0.048,0.804,0.412,1.762,0.326,2.607
		c-0.108,1.063-0.856,2.2-0.978,3.26c-0.218,1.899,0.233,4.058,0,6.194c-0.329,3.011-0.513,6.232-0.652,9.453
		c-0.134,3.068-0.913,5.914-0.652,8.15c0.105,0.896,0.668,1.798,0.652,2.607c-0.033,1.671-1.121,3.543-1.304,5.216
		c-0.099,0.905,0.379,1.856,0.326,2.935c-0.108,2.178-0.977,4.729-0.979,6.846c-0.003,3.989,0.031,6.938-0.651,11.41
		c-0.392,2.563-0.376,6.406-0.652,9.779c-0.802,9.803-0.461,18.272-1.304,28.688c-0.128,1.574-0.735,2.969-0.979,4.563
		c-0.757,4.976-0.272,10.164-0.978,14.67c-0.437,2.782-0.834,6.112-0.979,8.802c-0.173,3.221,0.294,6.418-0.978,8.802
		c1.539,6.115-1.69,13.427-0.652,20.537c1.782-1.471,0.639-4.099,0.979-5.868c0.222-1.155,1.098-1.927,1.304-2.934
		c0.183-0.894-0.171-2.015,0-2.934c0.518-2.778,1.723-5.969,2.282-9.128c0.387-2.188,0.26-4.554,0.651-6.846
		c2.734-15.987,3.614-32.583,4.564-48.899c0.128-2.209,0.13-4.351,0.325-6.52c0.608-6.724,1.382-17.396,2.608-26.405
		c0.543-3.986,0.434-7.819,0.979-11.735c0.332-2.388,0.289-4.717,0.651-6.846c0.331-1.946,0.97-3.324,1.304-5.542
		c0.303-2.006,0.415-4.615,0.652-7.172c0.255-2.745,0.896-5.451,1.304-8.149c0.55-3.632-0.539-8.066,0.652-11.41
		c0.644-1.807,0.075-5.411,1.304-7.823c-0.526-0.695-0.337-1.027-0.326-1.956c0.046-3.893,0.953-8.56,1.956-12.062
		c-0.261-1.276-0.752-3.478,0.326-4.237c-1.134-2.032,0.41-3.255-0.652-5.216c-0.009-1.095,0.449-1.725,0.979-2.282
		c-1.093-0.376-0.989-2.2-0.979-3.26c0.008-0.686,0.236-1.756,0.326-2.608c0.178-1.685,0.105-2.459,0.652-4.237
		c0.247-0.805-0.056-1.657,0.978-1.63c-0.485-0.384-0.92-0.818-1.304-1.304c0.747-2.763,0.578-5.815,0.978-9.128
		c0.194-1.606,0.389-3.188,0.652-4.89c0.231-1.496,0.762-3.051,0.978-4.564c0.887-6.2,0.062-11.813,1.957-16.951
		c-1.018-1.922-0.479-4.024-0.326-6.194c0.095-1.355-0.194-2.987,0.651-3.912c-1.292-3.739-0.146-8.817,0.652-13.039
		c-0.17-0.809-0.795-1.161-1.304-1.63c0.036-1.158,1.205-1.186,0.978-2.608c-0.6-1.606,0.325-5.073,0.326-7.498
		c0.002-4.166-1.778-15.011,0-21.841c0.054-1.031-0.866-1.09-0.652-2.282c-0.107-1.194,0.362-1.812,0.652-2.607
		c-1.975-8.437-1.959-18.639-0.978-29.34c0.227-1.096-0.671-1.068-0.979-1.63C642.542,142.647,642.42,139.073,641.779,136.979z
		 M13.594,147.085c-0.112-0.394-0.867-0.264-0.978,0C12.32,147.79,13.81,147.841,13.594,147.085z M616.678,479.922
		c-0.617,0.475-1.461,1.703-0.652,2.607C616.665,482.082,616.201,480.532,616.678,479.922z M159.312,584.076l-0.326,0.163
		c-1.041-1.123-3.428,0.893-4.564-0.326c-0.76,1.314,2.945,0.958,4.564,0.978l0.488,0.163l0.163-0.488
		c5.24,1.089,11.135,0.068,16.952,0.325c1.25,0.057,2.646,0.645,3.912,0.652c1.203,0.008,2.358-0.55,3.586-0.652
		c1.215-0.1,2.627-0.068,3.911,0c5.645,0.305,11.841-0.018,17.604,0.326c8.036,0.48,19.535,0.868,26.731,0.326
		c0.786-0.06,1.53-0.301,2.282-0.326c4.084-0.134,9.152-0.738,13.365-0.651c0.524,0.011,0.953,0.604,1.63,0.651
		c0.638,0.045,1.389-0.379,1.956-0.326c3.781,0.354,7.258,1.4,11.084,1.63c7.416,0.446,16.218,1.163,24.775,0.979
		c9.34-0.201,17.742,0.794,26.731,0.978c4.717,0.098,9.654,0.136,14.344,0c1.881-0.054,3.675-0.677,5.541-0.651
		c5.329,0.071,10.69,1.029,15.974,0c-5.364-0.899-14.087-2.043-19.56-1.305c-1.498-1.275-3.655-0.568-5.867-0.651
		c-7.033-0.264-15.409-1.876-22.82-2.608c-3.374-0.333-6.771,0.537-9.127-0.652c-1.128-0.258-1.376,0.363-1.956,0.652
		c-7.301-1.452-14.939-1.208-22.493-1.63c-3.915-0.218-7.764-0.158-11.736-0.325c-3.631-0.154-7.417-0.877-11.083-0.979
		c-9.072-0.25-19.482,0.898-29.014,0.979c-2.936,0.024-6.067-0.545-8.802-0.326c-0.981,0.078-1.956,0.623-2.934,0.651
		c-3.356,0.099-5.773-0.72-7.824,0.978c-11.963,0.555-24.254,1.187-37.163,1.631L159.312,584.076z M24.678,583.261
		c2.594,0.66,5.06,1.448,7.498,1.956c5.594,1.165,10.547,2.218,15.321,2.934c4.323,0.65,9.051,0.319,13.04,1.956
		c2.239-0.742,6.112-0.53,9.127-0.651c0.793-0.032,1.238-0.253,1.957-0.326c5.319-0.539,9.803-0.161,15.646-0.979
		c3.195-0.445,8.489-0.578,12.389-0.978c1.227-0.125,2.521-0.838,3.911-0.978c5.361-0.539,11.25,0.531,17.277-0.652
		c-8.135-1.352-17.04-0.021-26.079,0.652c-18.058,1.342-35.977-1.333-55.419-1.305C34.263,584.898,29.777,583.144,24.678,583.261z
		 M131.929,584.565c3.006,1.452,6.642,0.376,9.454,0.325c4.277-0.076,7.852,0.874,11.735-0.325
		c-3.884-1.516-9.792-0.627-14.995-0.326C135.762,584.375,133.47,583.892,131.929,584.565z M130.951,584.891
		c-0.64-0.617-3.242-0.432-3.912,0C128.366,585.859,129.24,584.929,130.951,584.891z M122.801,584.891
		c-0.199,1.286,1.79,0.385,2.607,0.652C124.807,585.06,123.86,584.919,122.801,584.891z M597.771,597.441l0.326-0.163
		c0.055,0.381,0.515,0.354,0.978,0.326c0-0.217,0-0.434,0-0.652c-0.326,0-0.652,0-0.978,0l-0.326-0.162l-0.326,0.162
		c-0.046-0.932-1.359-0.596-2.282-0.651c0.589,0.498,0.999,1.175,2.282,0.978L597.771,597.441z"/>
</g>
</svg>
